ISO-10303-21;
HEADER;
/* Generated by software containing ST-Developer
 * from STEP Tools, Inc. (www.steptools.com) 
 */

FILE_DESCRIPTION(
/* description */ (''),
/* implementation_level */ '2;1');

FILE_NAME(
/* name */ 'J3.step',
/* time_stamp */ '2026-10-02T22:14:55+08:00',
/* author */ (''),
/* organization */ (''),
/* preprocessor_version */ 'ST-DEVELOPER v20.2',
/* originating_system */ 'Autodesk Translation Framework v15.15.0.0',
/* authorisation */ '');

FILE_SCHEMA (('AUTOMOTIVE_DESIGN { 1 0 10303 214 3 1 1 }'));
ENDSEC;

DATA;
#10=MECHANICAL_DESIGN_GEOMETRIC_PRESENTATION_REPRESENTATION('',(#13,#14,
#15,#16,#17),#787);
#11=SHAPE_REPRESENTATION_RELATIONSHIP('SRR','None',#794,#12);
#12=ADVANCED_BREP_SHAPE_REPRESENTATION('',(#18,#19,#20,#21,#22),#786);
#13=STYLED_ITEM('',(#804),#18);
#14=STYLED_ITEM('',(#805),#19);
#15=STYLED_ITEM('',(#805),#20);
#16=STYLED_ITEM('',(#805),#21);
#17=STYLED_ITEM('',(#805),#22);
#18=MANIFOLD_SOLID_BREP('Header insulator',#483);
#19=MANIFOLD_SOLID_BREP('Header pin 1',#484);
#20=MANIFOLD_SOLID_BREP('Header pin 2',#485);
#21=MANIFOLD_SOLID_BREP('Header pin 3',#486);
#22=MANIFOLD_SOLID_BREP('Header pin 4',#487);
#23=FACE_OUTER_BOUND('',#53,.T.);
#24=FACE_OUTER_BOUND('',#54,.T.);
#25=FACE_OUTER_BOUND('',#55,.T.);
#26=FACE_OUTER_BOUND('',#56,.T.);
#27=FACE_OUTER_BOUND('',#57,.T.);
#28=FACE_OUTER_BOUND('',#58,.T.);
#29=FACE_OUTER_BOUND('',#59,.T.);
#30=FACE_OUTER_BOUND('',#60,.T.);
#31=FACE_OUTER_BOUND('',#61,.T.);
#32=FACE_OUTER_BOUND('',#62,.T.);
#33=FACE_OUTER_BOUND('',#63,.T.);
#34=FACE_OUTER_BOUND('',#64,.T.);
#35=FACE_OUTER_BOUND('',#65,.T.);
#36=FACE_OUTER_BOUND('',#66,.T.);
#37=FACE_OUTER_BOUND('',#67,.T.);
#38=FACE_OUTER_BOUND('',#68,.T.);
#39=FACE_OUTER_BOUND('',#69,.T.);
#40=FACE_OUTER_BOUND('',#70,.T.);
#41=FACE_OUTER_BOUND('',#71,.T.);
#42=FACE_OUTER_BOUND('',#72,.T.);
#43=FACE_OUTER_BOUND('',#73,.T.);
#44=FACE_OUTER_BOUND('',#74,.T.);
#45=FACE_OUTER_BOUND('',#75,.T.);
#46=FACE_OUTER_BOUND('',#76,.T.);
#47=FACE_OUTER_BOUND('',#77,.T.);
#48=FACE_OUTER_BOUND('',#78,.T.);
#49=FACE_OUTER_BOUND('',#79,.T.);
#50=FACE_OUTER_BOUND('',#80,.T.);
#51=FACE_OUTER_BOUND('',#81,.T.);
#52=FACE_OUTER_BOUND('',#82,.T.);
#53=EDGE_LOOP('',(#303,#304,#305,#306));
#54=EDGE_LOOP('',(#307,#308,#309,#310));
#55=EDGE_LOOP('',(#311,#312,#313,#314));
#56=EDGE_LOOP('',(#315,#316,#317,#318));
#57=EDGE_LOOP('',(#319,#320,#321,#322));
#58=EDGE_LOOP('',(#323,#324,#325,#326));
#59=EDGE_LOOP('',(#327,#328,#329,#330));
#60=EDGE_LOOP('',(#331,#332,#333,#334));
#61=EDGE_LOOP('',(#335,#336,#337,#338));
#62=EDGE_LOOP('',(#339,#340,#341,#342));
#63=EDGE_LOOP('',(#343,#344,#345,#346));
#64=EDGE_LOOP('',(#347,#348,#349,#350));
#65=EDGE_LOOP('',(#351,#352,#353,#354));
#66=EDGE_LOOP('',(#355,#356,#357,#358));
#67=EDGE_LOOP('',(#359,#360,#361,#362));
#68=EDGE_LOOP('',(#363,#364,#365,#366));
#69=EDGE_LOOP('',(#367,#368,#369,#370));
#70=EDGE_LOOP('',(#371,#372,#373,#374));
#71=EDGE_LOOP('',(#375,#376,#377,#378));
#72=EDGE_LOOP('',(#379,#380,#381,#382));
#73=EDGE_LOOP('',(#383,#384,#385,#386));
#74=EDGE_LOOP('',(#387,#388,#389,#390));
#75=EDGE_LOOP('',(#391,#392,#393,#394));
#76=EDGE_LOOP('',(#395,#396,#397,#398));
#77=EDGE_LOOP('',(#399,#400,#401,#402));
#78=EDGE_LOOP('',(#403,#404,#405,#406));
#79=EDGE_LOOP('',(#407,#408,#409,#410));
#80=EDGE_LOOP('',(#411,#412,#413,#414));
#81=EDGE_LOOP('',(#415,#416,#417,#418));
#82=EDGE_LOOP('',(#419,#420,#421,#422));
#83=LINE('',#657,#143);
#84=LINE('',#659,#144);
#85=LINE('',#661,#145);
#86=LINE('',#662,#146);
#87=LINE('',#666,#147);
#88=LINE('',#668,#148);
#89=LINE('',#670,#149);
#90=LINE('',#671,#150);
#91=LINE('',#673,#151);
#92=LINE('',#674,#152);
#93=LINE('',#676,#153);
#94=LINE('',#678,#154);
#95=LINE('',#683,#155);
#96=LINE('',#685,#156);
#97=LINE('',#687,#157);
#98=LINE('',#688,#158);
#99=LINE('',#692,#159);
#100=LINE('',#694,#160);
#101=LINE('',#696,#161);
#102=LINE('',#697,#162);
#103=LINE('',#699,#163);
#104=LINE('',#700,#164);
#105=LINE('',#702,#165);
#106=LINE('',#704,#166);
#107=LINE('',#709,#167);
#108=LINE('',#711,#168);
#109=LINE('',#713,#169);
#110=LINE('',#714,#170);
#111=LINE('',#718,#171);
#112=LINE('',#720,#172);
#113=LINE('',#722,#173);
#114=LINE('',#723,#174);
#115=LINE('',#725,#175);
#116=LINE('',#726,#176);
#117=LINE('',#728,#177);
#118=LINE('',#730,#178);
#119=LINE('',#735,#179);
#120=LINE('',#737,#180);
#121=LINE('',#739,#181);
#122=LINE('',#740,#182);
#123=LINE('',#744,#183);
#124=LINE('',#746,#184);
#125=LINE('',#748,#185);
#126=LINE('',#749,#186);
#127=LINE('',#751,#187);
#128=LINE('',#752,#188);
#129=LINE('',#754,#189);
#130=LINE('',#756,#190);
#131=LINE('',#761,#191);
#132=LINE('',#763,#192);
#133=LINE('',#765,#193);
#134=LINE('',#766,#194);
#135=LINE('',#770,#195);
#136=LINE('',#772,#196);
#137=LINE('',#774,#197);
#138=LINE('',#775,#198);
#139=LINE('',#777,#199);
#140=LINE('',#778,#200);
#141=LINE('',#780,#201);
#142=LINE('',#782,#202);
#143=VECTOR('',#535,1.);
#144=VECTOR('',#536,1.);
#145=VECTOR('',#537,1.);
#146=VECTOR('',#538,1.);
#147=VECTOR('',#541,1.);
#148=VECTOR('',#542,1.);
#149=VECTOR('',#543,1.);
#150=VECTOR('',#544,1.);
#151=VECTOR('',#547,1.);
#152=VECTOR('',#548,1.);
#153=VECTOR('',#551,1.);
#154=VECTOR('',#554,1.);
#155=VECTOR('',#559,1.);
#156=VECTOR('',#560,1.);
#157=VECTOR('',#561,1.);
#158=VECTOR('',#562,1.);
#159=VECTOR('',#565,1.);
#160=VECTOR('',#566,1.);
#161=VECTOR('',#567,1.);
#162=VECTOR('',#568,1.);
#163=VECTOR('',#571,1.);
#164=VECTOR('',#572,1.);
#165=VECTOR('',#575,1.);
#166=VECTOR('',#578,1.);
#167=VECTOR('',#583,1.);
#168=VECTOR('',#584,1.);
#169=VECTOR('',#585,1.);
#170=VECTOR('',#586,1.);
#171=VECTOR('',#589,1.);
#172=VECTOR('',#590,1.);
#173=VECTOR('',#591,1.);
#174=VECTOR('',#592,1.);
#175=VECTOR('',#595,1.);
#176=VECTOR('',#596,1.);
#177=VECTOR('',#599,1.);
#178=VECTOR('',#602,1.);
#179=VECTOR('',#607,1.);
#180=VECTOR('',#608,1.);
#181=VECTOR('',#609,1.);
#182=VECTOR('',#610,1.);
#183=VECTOR('',#613,1.);
#184=VECTOR('',#614,1.);
#185=VECTOR('',#615,1.);
#186=VECTOR('',#616,1.);
#187=VECTOR('',#619,1.);
#188=VECTOR('',#620,1.);
#189=VECTOR('',#623,1.);
#190=VECTOR('',#626,1.);
#191=VECTOR('',#631,1.);
#192=VECTOR('',#632,1.);
#193=VECTOR('',#633,1.);
#194=VECTOR('',#634,1.);
#195=VECTOR('',#637,1.);
#196=VECTOR('',#638,1.);
#197=VECTOR('',#639,1.);
#198=VECTOR('',#640,1.);
#199=VECTOR('',#643,1.);
#200=VECTOR('',#644,1.);
#201=VECTOR('',#647,1.);
#202=VECTOR('',#650,1.);
#203=VERTEX_POINT('',#655);
#204=VERTEX_POINT('',#656);
#205=VERTEX_POINT('',#658);
#206=VERTEX_POINT('',#660);
#207=VERTEX_POINT('',#664);
#208=VERTEX_POINT('',#665);
#209=VERTEX_POINT('',#667);
#210=VERTEX_POINT('',#669);
#211=VERTEX_POINT('',#681);
#212=VERTEX_POINT('',#682);
#213=VERTEX_POINT('',#684);
#214=VERTEX_POINT('',#686);
#215=VERTEX_POINT('',#690);
#216=VERTEX_POINT('',#691);
#217=VERTEX_POINT('',#693);
#218=VERTEX_POINT('',#695);
#219=VERTEX_POINT('',#707);
#220=VERTEX_POINT('',#708);
#221=VERTEX_POINT('',#710);
#222=VERTEX_POINT('',#712);
#223=VERTEX_POINT('',#716);
#224=VERTEX_POINT('',#717);
#225=VERTEX_POINT('',#719);
#226=VERTEX_POINT('',#721);
#227=VERTEX_POINT('',#733);
#228=VERTEX_POINT('',#734);
#229=VERTEX_POINT('',#736);
#230=VERTEX_POINT('',#738);
#231=VERTEX_POINT('',#742);
#232=VERTEX_POINT('',#743);
#233=VERTEX_POINT('',#745);
#234=VERTEX_POINT('',#747);
#235=VERTEX_POINT('',#759);
#236=VERTEX_POINT('',#760);
#237=VERTEX_POINT('',#762);
#238=VERTEX_POINT('',#764);
#239=VERTEX_POINT('',#768);
#240=VERTEX_POINT('',#769);
#241=VERTEX_POINT('',#771);
#242=VERTEX_POINT('',#773);
#243=EDGE_CURVE('',#203,#204,#83,.T.);
#244=EDGE_CURVE('',#204,#205,#84,.T.);
#245=EDGE_CURVE('',#205,#206,#85,.T.);
#246=EDGE_CURVE('',#206,#203,#86,.T.);
#247=EDGE_CURVE('',#207,#208,#87,.T.);
#248=EDGE_CURVE('',#208,#209,#88,.T.);
#249=EDGE_CURVE('',#209,#210,#89,.T.);
#250=EDGE_CURVE('',#210,#207,#90,.T.);
#251=EDGE_CURVE('',#206,#209,#91,.T.);
#252=EDGE_CURVE('',#203,#208,#92,.T.);
#253=EDGE_CURVE('',#205,#210,#93,.T.);
#254=EDGE_CURVE('',#204,#207,#94,.T.);
#255=EDGE_CURVE('',#211,#212,#95,.T.);
#256=EDGE_CURVE('',#212,#213,#96,.T.);
#257=EDGE_CURVE('',#213,#214,#97,.T.);
#258=EDGE_CURVE('',#214,#211,#98,.T.);
#259=EDGE_CURVE('',#215,#216,#99,.T.);
#260=EDGE_CURVE('',#216,#217,#100,.T.);
#261=EDGE_CURVE('',#217,#218,#101,.T.);
#262=EDGE_CURVE('',#218,#215,#102,.T.);
#263=EDGE_CURVE('',#214,#217,#103,.T.);
#264=EDGE_CURVE('',#211,#216,#104,.T.);
#265=EDGE_CURVE('',#213,#218,#105,.T.);
#266=EDGE_CURVE('',#212,#215,#106,.T.);
#267=EDGE_CURVE('',#219,#220,#107,.T.);
#268=EDGE_CURVE('',#220,#221,#108,.T.);
#269=EDGE_CURVE('',#221,#222,#109,.T.);
#270=EDGE_CURVE('',#222,#219,#110,.T.);
#271=EDGE_CURVE('',#223,#224,#111,.T.);
#272=EDGE_CURVE('',#224,#225,#112,.T.);
#273=EDGE_CURVE('',#225,#226,#113,.T.);
#274=EDGE_CURVE('',#226,#223,#114,.T.);
#275=EDGE_CURVE('',#222,#225,#115,.T.);
#276=EDGE_CURVE('',#219,#224,#116,.T.);
#277=EDGE_CURVE('',#221,#226,#117,.T.);
#278=EDGE_CURVE('',#220,#223,#118,.T.);
#279=EDGE_CURVE('',#227,#228,#119,.T.);
#280=EDGE_CURVE('',#228,#229,#120,.T.);
#281=EDGE_CURVE('',#229,#230,#121,.T.);
#282=EDGE_CURVE('',#230,#227,#122,.T.);
#283=EDGE_CURVE('',#231,#232,#123,.T.);
#284=EDGE_CURVE('',#232,#233,#124,.T.);
#285=EDGE_CURVE('',#233,#234,#125,.T.);
#286=EDGE_CURVE('',#234,#231,#126,.T.);
#287=EDGE_CURVE('',#230,#233,#127,.T.);
#288=EDGE_CURVE('',#227,#232,#128,.T.);
#289=EDGE_CURVE('',#229,#234,#129,.T.);
#290=EDGE_CURVE('',#228,#231,#130,.T.);
#291=EDGE_CURVE('',#235,#236,#131,.T.);
#292=EDGE_CURVE('',#236,#237,#132,.T.);
#293=EDGE_CURVE('',#237,#238,#133,.T.);
#294=EDGE_CURVE('',#238,#235,#134,.T.);
#295=EDGE_CURVE('',#239,#240,#135,.T.);
#296=EDGE_CURVE('',#240,#241,#136,.T.);
#297=EDGE_CURVE('',#241,#242,#137,.T.);
#298=EDGE_CURVE('',#242,#239,#138,.T.);
#299=EDGE_CURVE('',#238,#241,#139,.T.);
#300=EDGE_CURVE('',#235,#240,#140,.T.);
#301=EDGE_CURVE('',#237,#242,#141,.T.);
#302=EDGE_CURVE('',#236,#239,#142,.T.);
#303=ORIENTED_EDGE('',*,*,#243,.T.);
#304=ORIENTED_EDGE('',*,*,#244,.T.);
#305=ORIENTED_EDGE('',*,*,#245,.T.);
#306=ORIENTED_EDGE('',*,*,#246,.T.);
#307=ORIENTED_EDGE('',*,*,#247,.T.);
#308=ORIENTED_EDGE('',*,*,#248,.T.);
#309=ORIENTED_EDGE('',*,*,#249,.T.);
#310=ORIENTED_EDGE('',*,*,#250,.T.);
#311=ORIENTED_EDGE('',*,*,#251,.T.);
#312=ORIENTED_EDGE('',*,*,#248,.F.);
#313=ORIENTED_EDGE('',*,*,#252,.F.);
#314=ORIENTED_EDGE('',*,*,#246,.F.);
#315=ORIENTED_EDGE('',*,*,#253,.T.);
#316=ORIENTED_EDGE('',*,*,#249,.F.);
#317=ORIENTED_EDGE('',*,*,#251,.F.);
#318=ORIENTED_EDGE('',*,*,#245,.F.);
#319=ORIENTED_EDGE('',*,*,#254,.T.);
#320=ORIENTED_EDGE('',*,*,#250,.F.);
#321=ORIENTED_EDGE('',*,*,#253,.F.);
#322=ORIENTED_EDGE('',*,*,#244,.F.);
#323=ORIENTED_EDGE('',*,*,#252,.T.);
#324=ORIENTED_EDGE('',*,*,#247,.F.);
#325=ORIENTED_EDGE('',*,*,#254,.F.);
#326=ORIENTED_EDGE('',*,*,#243,.F.);
#327=ORIENTED_EDGE('',*,*,#255,.T.);
#328=ORIENTED_EDGE('',*,*,#256,.T.);
#329=ORIENTED_EDGE('',*,*,#257,.T.);
#330=ORIENTED_EDGE('',*,*,#258,.T.);
#331=ORIENTED_EDGE('',*,*,#259,.T.);
#332=ORIENTED_EDGE('',*,*,#260,.T.);
#333=ORIENTED_EDGE('',*,*,#261,.T.);
#334=ORIENTED_EDGE('',*,*,#262,.T.);
#335=ORIENTED_EDGE('',*,*,#263,.T.);
#336=ORIENTED_EDGE('',*,*,#260,.F.);
#337=ORIENTED_EDGE('',*,*,#264,.F.);
#338=ORIENTED_EDGE('',*,*,#258,.F.);
#339=ORIENTED_EDGE('',*,*,#265,.T.);
#340=ORIENTED_EDGE('',*,*,#261,.F.);
#341=ORIENTED_EDGE('',*,*,#263,.F.);
#342=ORIENTED_EDGE('',*,*,#257,.F.);
#343=ORIENTED_EDGE('',*,*,#266,.T.);
#344=ORIENTED_EDGE('',*,*,#262,.F.);
#345=ORIENTED_EDGE('',*,*,#265,.F.);
#346=ORIENTED_EDGE('',*,*,#256,.F.);
#347=ORIENTED_EDGE('',*,*,#264,.T.);
#348=ORIENTED_EDGE('',*,*,#259,.F.);
#349=ORIENTED_EDGE('',*,*,#266,.F.);
#350=ORIENTED_EDGE('',*,*,#255,.F.);
#351=ORIENTED_EDGE('',*,*,#267,.T.);
#352=ORIENTED_EDGE('',*,*,#268,.T.);
#353=ORIENTED_EDGE('',*,*,#269,.T.);
#354=ORIENTED_EDGE('',*,*,#270,.T.);
#355=ORIENTED_EDGE('',*,*,#271,.T.);
#356=ORIENTED_EDGE('',*,*,#272,.T.);
#357=ORIENTED_EDGE('',*,*,#273,.T.);
#358=ORIENTED_EDGE('',*,*,#274,.T.);
#359=ORIENTED_EDGE('',*,*,#275,.T.);
#360=ORIENTED_EDGE('',*,*,#272,.F.);
#361=ORIENTED_EDGE('',*,*,#276,.F.);
#362=ORIENTED_EDGE('',*,*,#270,.F.);
#363=ORIENTED_EDGE('',*,*,#277,.T.);
#364=ORIENTED_EDGE('',*,*,#273,.F.);
#365=ORIENTED_EDGE('',*,*,#275,.F.);
#366=ORIENTED_EDGE('',*,*,#269,.F.);
#367=ORIENTED_EDGE('',*,*,#278,.T.);
#368=ORIENTED_EDGE('',*,*,#274,.F.);
#369=ORIENTED_EDGE('',*,*,#277,.F.);
#370=ORIENTED_EDGE('',*,*,#268,.F.);
#371=ORIENTED_EDGE('',*,*,#276,.T.);
#372=ORIENTED_EDGE('',*,*,#271,.F.);
#373=ORIENTED_EDGE('',*,*,#278,.F.);
#374=ORIENTED_EDGE('',*,*,#267,.F.);
#375=ORIENTED_EDGE('',*,*,#279,.T.);
#376=ORIENTED_EDGE('',*,*,#280,.T.);
#377=ORIENTED_EDGE('',*,*,#281,.T.);
#378=ORIENTED_EDGE('',*,*,#282,.T.);
#379=ORIENTED_EDGE('',*,*,#283,.T.);
#380=ORIENTED_EDGE('',*,*,#284,.T.);
#381=ORIENTED_EDGE('',*,*,#285,.T.);
#382=ORIENTED_EDGE('',*,*,#286,.T.);
#383=ORIENTED_EDGE('',*,*,#287,.T.);
#384=ORIENTED_EDGE('',*,*,#284,.F.);
#385=ORIENTED_EDGE('',*,*,#288,.F.);
#386=ORIENTED_EDGE('',*,*,#282,.F.);
#387=ORIENTED_EDGE('',*,*,#289,.T.);
#388=ORIENTED_EDGE('',*,*,#285,.F.);
#389=ORIENTED_EDGE('',*,*,#287,.F.);
#390=ORIENTED_EDGE('',*,*,#281,.F.);
#391=ORIENTED_EDGE('',*,*,#290,.T.);
#392=ORIENTED_EDGE('',*,*,#286,.F.);
#393=ORIENTED_EDGE('',*,*,#289,.F.);
#394=ORIENTED_EDGE('',*,*,#280,.F.);
#395=ORIENTED_EDGE('',*,*,#288,.T.);
#396=ORIENTED_EDGE('',*,*,#283,.F.);
#397=ORIENTED_EDGE('',*,*,#290,.F.);
#398=ORIENTED_EDGE('',*,*,#279,.F.);
#399=ORIENTED_EDGE('',*,*,#291,.T.);
#400=ORIENTED_EDGE('',*,*,#292,.T.);
#401=ORIENTED_EDGE('',*,*,#293,.T.);
#402=ORIENTED_EDGE('',*,*,#294,.T.);
#403=ORIENTED_EDGE('',*,*,#295,.T.);
#404=ORIENTED_EDGE('',*,*,#296,.T.);
#405=ORIENTED_EDGE('',*,*,#297,.T.);
#406=ORIENTED_EDGE('',*,*,#298,.T.);
#407=ORIENTED_EDGE('',*,*,#299,.T.);
#408=ORIENTED_EDGE('',*,*,#296,.F.);
#409=ORIENTED_EDGE('',*,*,#300,.F.);
#410=ORIENTED_EDGE('',*,*,#294,.F.);
#411=ORIENTED_EDGE('',*,*,#301,.T.);
#412=ORIENTED_EDGE('',*,*,#297,.F.);
#413=ORIENTED_EDGE('',*,*,#299,.F.);
#414=ORIENTED_EDGE('',*,*,#293,.F.);
#415=ORIENTED_EDGE('',*,*,#302,.T.);
#416=ORIENTED_EDGE('',*,*,#298,.F.);
#417=ORIENTED_EDGE('',*,*,#301,.F.);
#418=ORIENTED_EDGE('',*,*,#292,.F.);
#419=ORIENTED_EDGE('',*,*,#300,.T.);
#420=ORIENTED_EDGE('',*,*,#295,.F.);
#421=ORIENTED_EDGE('',*,*,#302,.F.);
#422=ORIENTED_EDGE('',*,*,#291,.F.);
#423=PLANE('',#501);
#424=PLANE('',#502);
#425=PLANE('',#503);
#426=PLANE('',#504);
#427=PLANE('',#505);
#428=PLANE('',#506);
#429=PLANE('',#507);
#430=PLANE('',#508);
#431=PLANE('',#509);
#432=PLANE('',#510);
#433=PLANE('',#511);
#434=PLANE('',#512);
#435=PLANE('',#513);
#436=PLANE('',#514);
#437=PLANE('',#515);
#438=PLANE('',#516);
#439=PLANE('',#517);
#440=PLANE('',#518);
#441=PLANE('',#519);
#442=PLANE('',#520);
#443=PLANE('',#521);
#444=PLANE('',#522);
#445=PLANE('',#523);
#446=PLANE('',#524);
#447=PLANE('',#525);
#448=PLANE('',#526);
#449=PLANE('',#527);
#450=PLANE('',#528);
#451=PLANE('',#529);
#452=PLANE('',#530);
#453=ADVANCED_FACE('',(#23),#423,.T.);
#454=ADVANCED_FACE('',(#24),#424,.F.);
#455=ADVANCED_FACE('',(#25),#425,.F.);
#456=ADVANCED_FACE('',(#26),#426,.F.);
#457=ADVANCED_FACE('',(#27),#427,.F.);
#458=ADVANCED_FACE('',(#28),#428,.F.);
#459=ADVANCED_FACE('',(#29),#429,.T.);
#460=ADVANCED_FACE('',(#30),#430,.F.);
#461=ADVANCED_FACE('',(#31),#431,.F.);
#462=ADVANCED_FACE('',(#32),#432,.F.);
#463=ADVANCED_FACE('',(#33),#433,.F.);
#464=ADVANCED_FACE('',(#34),#434,.F.);
#465=ADVANCED_FACE('',(#35),#435,.T.);
#466=ADVANCED_FACE('',(#36),#436,.F.);
#467=ADVANCED_FACE('',(#37),#437,.F.);
#468=ADVANCED_FACE('',(#38),#438,.F.);
#469=ADVANCED_FACE('',(#39),#439,.F.);
#470=ADVANCED_FACE('',(#40),#440,.F.);
#471=ADVANCED_FACE('',(#41),#441,.T.);
#472=ADVANCED_FACE('',(#42),#442,.F.);
#473=ADVANCED_FACE('',(#43),#443,.F.);
#474=ADVANCED_FACE('',(#44),#444,.F.);
#475=ADVANCED_FACE('',(#45),#445,.F.);
#476=ADVANCED_FACE('',(#46),#446,.F.);
#477=ADVANCED_FACE('',(#47),#447,.T.);
#478=ADVANCED_FACE('',(#48),#448,.F.);
#479=ADVANCED_FACE('',(#49),#449,.F.);
#480=ADVANCED_FACE('',(#50),#450,.F.);
#481=ADVANCED_FACE('',(#51),#451,.F.);
#482=ADVANCED_FACE('',(#52),#452,.F.);
#483=CLOSED_SHELL('',(#453,#454,#455,#456,#457,#458));
#484=CLOSED_SHELL('',(#459,#460,#461,#462,#463,#464));
#485=CLOSED_SHELL('',(#465,#466,#467,#468,#469,#470));
#486=CLOSED_SHELL('',(#471,#472,#473,#474,#475,#476));
#487=CLOSED_SHELL('',(#477,#478,#479,#480,#481,#482));
#488=DERIVED_UNIT_ELEMENT(#490,1.);
#489=DERIVED_UNIT_ELEMENT(#789,-3.);
#490=(
MASS_UNIT()
NAMED_UNIT(*)
SI_UNIT(.KILO.,.GRAM.)
);
#491=DERIVED_UNIT((#488,#489));
#492=MEASURE_REPRESENTATION_ITEM('density measure',
POSITIVE_RATIO_MEASURE(7850.),#491);
#493=PROPERTY_DEFINITION_REPRESENTATION(#498,#495);
#494=PROPERTY_DEFINITION_REPRESENTATION(#499,#496);
#495=REPRESENTATION('material name',(#497),#786);
#496=REPRESENTATION('density',(#492),#786);
#497=DESCRIPTIVE_REPRESENTATION_ITEM('Steel','Steel');
#498=PROPERTY_DEFINITION('material property','material name',#796);
#499=PROPERTY_DEFINITION('material property','density of part',#796);
#500=AXIS2_PLACEMENT_3D('',#653,#531,#532);
#501=AXIS2_PLACEMENT_3D('',#654,#533,#534);
#502=AXIS2_PLACEMENT_3D('',#663,#539,#540);
#503=AXIS2_PLACEMENT_3D('',#672,#545,#546);
#504=AXIS2_PLACEMENT_3D('',#675,#549,#550);
#505=AXIS2_PLACEMENT_3D('',#677,#552,#553);
#506=AXIS2_PLACEMENT_3D('',#679,#555,#556);
#507=AXIS2_PLACEMENT_3D('',#680,#557,#558);
#508=AXIS2_PLACEMENT_3D('',#689,#563,#564);
#509=AXIS2_PLACEMENT_3D('',#698,#569,#570);
#510=AXIS2_PLACEMENT_3D('',#701,#573,#574);
#511=AXIS2_PLACEMENT_3D('',#703,#576,#577);
#512=AXIS2_PLACEMENT_3D('',#705,#579,#580);
#513=AXIS2_PLACEMENT_3D('',#706,#581,#582);
#514=AXIS2_PLACEMENT_3D('',#715,#587,#588);
#515=AXIS2_PLACEMENT_3D('',#724,#593,#594);
#516=AXIS2_PLACEMENT_3D('',#727,#597,#598);
#517=AXIS2_PLACEMENT_3D('',#729,#600,#601);
#518=AXIS2_PLACEMENT_3D('',#731,#603,#604);
#519=AXIS2_PLACEMENT_3D('',#732,#605,#606);
#520=AXIS2_PLACEMENT_3D('',#741,#611,#612);
#521=AXIS2_PLACEMENT_3D('',#750,#617,#618);
#522=AXIS2_PLACEMENT_3D('',#753,#621,#622);
#523=AXIS2_PLACEMENT_3D('',#755,#624,#625);
#524=AXIS2_PLACEMENT_3D('',#757,#627,#628);
#525=AXIS2_PLACEMENT_3D('',#758,#629,#630);
#526=AXIS2_PLACEMENT_3D('',#767,#635,#636);
#527=AXIS2_PLACEMENT_3D('',#776,#641,#642);
#528=AXIS2_PLACEMENT_3D('',#779,#645,#646);
#529=AXIS2_PLACEMENT_3D('',#781,#648,#649);
#530=AXIS2_PLACEMENT_3D('',#783,#651,#652);
#531=DIRECTION('axis',(0.,0.,1.));
#532=DIRECTION('refdir',(1.,0.,0.));
#533=DIRECTION('center_axis',(0.,0.,1.));
#534=DIRECTION('ref_axis',(1.,0.,0.));
#535=DIRECTION('',(0.,1.,0.));
#536=DIRECTION('',(-1.,0.,0.));
#537=DIRECTION('',(0.,-1.,0.));
#538=DIRECTION('',(1.,0.,0.));
#539=DIRECTION('center_axis',(0.,0.,1.));
#540=DIRECTION('ref_axis',(1.,0.,0.));
#541=DIRECTION('',(0.,-1.,0.));
#542=DIRECTION('',(-1.,0.,0.));
#543=DIRECTION('',(0.,1.,0.));
#544=DIRECTION('',(1.,0.,0.));
#545=DIRECTION('center_axis',(0.,1.,0.));
#546=DIRECTION('ref_axis',(0.,0.,1.));
#547=DIRECTION('',(0.,0.,-1.));
#548=DIRECTION('',(0.,0.,-1.));
#549=DIRECTION('center_axis',(1.,0.,0.));
#550=DIRECTION('ref_axis',(0.,0.,-1.));
#551=DIRECTION('',(0.,0.,-1.));
#552=DIRECTION('center_axis',(0.,-1.,0.));
#553=DIRECTION('ref_axis',(0.,0.,-1.));
#554=DIRECTION('',(0.,0.,-1.));
#555=DIRECTION('center_axis',(-1.,0.,0.));
#556=DIRECTION('ref_axis',(0.,0.,1.));
#557=DIRECTION('center_axis',(0.,0.,1.));
#558=DIRECTION('ref_axis',(1.,0.,0.));
#559=DIRECTION('',(0.,1.,0.));
#560=DIRECTION('',(-1.,0.,0.));
#561=DIRECTION('',(0.,-1.,0.));
#562=DIRECTION('',(1.,0.,0.));
#563=DIRECTION('center_axis',(0.,0.,1.));
#564=DIRECTION('ref_axis',(1.,0.,0.));
#565=DIRECTION('',(0.,-1.,0.));
#566=DIRECTION('',(-1.,0.,0.));
#567=DIRECTION('',(0.,1.,0.));
#568=DIRECTION('',(1.,0.,0.));
#569=DIRECTION('center_axis',(0.,1.,0.));
#570=DIRECTION('ref_axis',(0.,0.,1.));
#571=DIRECTION('',(0.,0.,-1.));
#572=DIRECTION('',(0.,0.,-1.));
#573=DIRECTION('center_axis',(1.,0.,0.));
#574=DIRECTION('ref_axis',(0.,0.,-1.));
#575=DIRECTION('',(0.,0.,-1.));
#576=DIRECTION('center_axis',(0.,-1.,0.));
#577=DIRECTION('ref_axis',(0.,0.,-1.));
#578=DIRECTION('',(0.,0.,-1.));
#579=DIRECTION('center_axis',(-1.,0.,0.));
#580=DIRECTION('ref_axis',(0.,0.,1.));
#581=DIRECTION('center_axis',(0.,0.,1.));
#582=DIRECTION('ref_axis',(1.,0.,0.));
#583=DIRECTION('',(0.,1.,0.));
#584=DIRECTION('',(-1.,0.,0.));
#585=DIRECTION('',(0.,-1.,0.));
#586=DIRECTION('',(1.,0.,0.));
#587=DIRECTION('center_axis',(0.,0.,1.));
#588=DIRECTION('ref_axis',(1.,0.,0.));
#589=DIRECTION('',(0.,-1.,0.));
#590=DIRECTION('',(-1.,0.,0.));
#591=DIRECTION('',(0.,1.,0.));
#592=DIRECTION('',(1.,0.,0.));
#593=DIRECTION('center_axis',(0.,1.,0.));
#594=DIRECTION('ref_axis',(0.,0.,1.));
#595=DIRECTION('',(0.,0.,-1.));
#596=DIRECTION('',(0.,0.,-1.));
#597=DIRECTION('center_axis',(1.,0.,0.));
#598=DIRECTION('ref_axis',(0.,0.,-1.));
#599=DIRECTION('',(0.,0.,-1.));
#600=DIRECTION('center_axis',(0.,-1.,0.));
#601=DIRECTION('ref_axis',(0.,0.,-1.));
#602=DIRECTION('',(0.,0.,-1.));
#603=DIRECTION('center_axis',(-1.,0.,0.));
#604=DIRECTION('ref_axis',(0.,0.,1.));
#605=DIRECTION('center_axis',(0.,0.,1.));
#606=DIRECTION('ref_axis',(1.,0.,0.));
#607=DIRECTION('',(0.,1.,0.));
#608=DIRECTION('',(-1.,0.,0.));
#609=DIRECTION('',(0.,-1.,0.));
#610=DIRECTION('',(1.,0.,0.));
#611=DIRECTION('center_axis',(0.,0.,1.));
#612=DIRECTION('ref_axis',(1.,0.,0.));
#613=DIRECTION('',(0.,-1.,0.));
#614=DIRECTION('',(-1.,0.,0.));
#615=DIRECTION('',(0.,1.,0.));
#616=DIRECTION('',(1.,0.,0.));
#617=DIRECTION('center_axis',(0.,1.,0.));
#618=DIRECTION('ref_axis',(0.,0.,1.));
#619=DIRECTION('',(0.,0.,-1.));
#620=DIRECTION('',(0.,0.,-1.));
#621=DIRECTION('center_axis',(1.,0.,0.));
#622=DIRECTION('ref_axis',(0.,0.,-1.));
#623=DIRECTION('',(0.,0.,-1.));
#624=DIRECTION('center_axis',(0.,-1.,0.));
#625=DIRECTION('ref_axis',(0.,0.,-1.));
#626=DIRECTION('',(0.,0.,-1.));
#627=DIRECTION('center_axis',(-1.,0.,0.));
#628=DIRECTION('ref_axis',(0.,0.,1.));
#629=DIRECTION('center_axis',(0.,0.,1.));
#630=DIRECTION('ref_axis',(1.,0.,0.));
#631=DIRECTION('',(0.,1.,0.));
#632=DIRECTION('',(-1.,0.,0.));
#633=DIRECTION('',(0.,-1.,0.));
#634=DIRECTION('',(1.,0.,0.));
#635=DIRECTION('center_axis',(0.,0.,1.));
#636=DIRECTION('ref_axis',(1.,0.,0.));
#637=DIRECTION('',(0.,-1.,0.));
#638=DIRECTION('',(-1.,0.,0.));
#639=DIRECTION('',(0.,1.,0.));
#640=DIRECTION('',(1.,0.,0.));
#641=DIRECTION('center_axis',(0.,1.,0.));
#642=DIRECTION('ref_axis',(0.,0.,1.));
#643=DIRECTION('',(0.,0.,-1.));
#644=DIRECTION('',(0.,0.,-1.));
#645=DIRECTION('center_axis',(1.,0.,0.));
#646=DIRECTION('ref_axis',(0.,0.,-1.));
#647=DIRECTION('',(0.,0.,-1.));
#648=DIRECTION('center_axis',(0.,-1.,0.));
#649=DIRECTION('ref_axis',(0.,0.,-1.));
#650=DIRECTION('',(0.,0.,-1.));
#651=DIRECTION('center_axis',(-1.,0.,0.));
#652=DIRECTION('ref_axis',(0.,0.,1.));
#653=CARTESIAN_POINT('',(0.,0.,0.));
#654=CARTESIAN_POINT('Origin',(0.,-0.381,0.25));
#655=CARTESIAN_POINT('',(0.127,-0.889,0.25));
#656=CARTESIAN_POINT('',(0.127,0.127,0.25));
#657=CARTESIAN_POINT('',(0.127,-0.381,0.25));
#658=CARTESIAN_POINT('',(-0.127,0.127,0.25));
#659=CARTESIAN_POINT('',(0.,0.127,0.25));
#660=CARTESIAN_POINT('',(-0.127,-0.889,0.25));
#661=CARTESIAN_POINT('',(-0.127,-0.381,0.25));
#662=CARTESIAN_POINT('',(0.,-0.889,0.25));
#663=CARTESIAN_POINT('Origin',(0.,-0.381,0.));
#664=CARTESIAN_POINT('',(0.127,0.127,0.));
#665=CARTESIAN_POINT('',(0.127,-0.889,0.));
#666=CARTESIAN_POINT('',(0.127,-0.381,0.));
#667=CARTESIAN_POINT('',(-0.127,-0.889,0.));
#668=CARTESIAN_POINT('',(0.,-0.889,0.));
#669=CARTESIAN_POINT('',(-0.127,0.127,0.));
#670=CARTESIAN_POINT('',(-0.127,-0.381,0.));
#671=CARTESIAN_POINT('',(0.,0.127,0.));
#672=CARTESIAN_POINT('Origin',(0.,-0.889,0.125));
#673=CARTESIAN_POINT('',(-0.127,-0.889,0.125));
#674=CARTESIAN_POINT('',(0.127,-0.889,0.125));
#675=CARTESIAN_POINT('Origin',(-0.127,-0.381,0.125));
#676=CARTESIAN_POINT('',(-0.127,0.127,0.125));
#677=CARTESIAN_POINT('Origin',(0.,0.127,0.125));
#678=CARTESIAN_POINT('',(0.127,0.127,0.125));
#679=CARTESIAN_POINT('Origin',(0.127,-0.381,0.125));
#680=CARTESIAN_POINT('Origin',(0.,0.,0.85));
#681=CARTESIAN_POINT('',(0.032,-0.032,0.85));
#682=CARTESIAN_POINT('',(0.032,0.032,0.85));
#683=CARTESIAN_POINT('',(0.032,0.,0.85));
#684=CARTESIAN_POINT('',(-0.032,0.032,0.85));
#685=CARTESIAN_POINT('',(0.,0.032,0.85));
#686=CARTESIAN_POINT('',(-0.032,-0.032,0.85));
#687=CARTESIAN_POINT('',(-0.032,0.,0.85));
#688=CARTESIAN_POINT('',(0.,-0.032,0.85));
#689=CARTESIAN_POINT('Origin',(0.,0.,-0.28));
#690=CARTESIAN_POINT('',(0.032,0.032,-0.28));
#691=CARTESIAN_POINT('',(0.032,-0.032,-0.28));
#692=CARTESIAN_POINT('',(0.032,0.,-0.28));
#693=CARTESIAN_POINT('',(-0.032,-0.032,-0.28));
#694=CARTESIAN_POINT('',(0.,-0.032,-0.28));
#695=CARTESIAN_POINT('',(-0.032,0.032,-0.28));
#696=CARTESIAN_POINT('',(-0.032,0.,-0.28));
#697=CARTESIAN_POINT('',(0.,0.032,-0.28));
#698=CARTESIAN_POINT('Origin',(0.,-0.032,0.285));
#699=CARTESIAN_POINT('',(-0.032,-0.032,0.285));
#700=CARTESIAN_POINT('',(0.032,-0.032,0.285));
#701=CARTESIAN_POINT('Origin',(-0.032,0.,0.285));
#702=CARTESIAN_POINT('',(-0.032,0.032,0.285));
#703=CARTESIAN_POINT('Origin',(0.,0.032,0.285));
#704=CARTESIAN_POINT('',(0.032,0.032,0.285));
#705=CARTESIAN_POINT('Origin',(0.032,0.,0.285));
#706=CARTESIAN_POINT('Origin',(0.,-0.254,0.85));
#707=CARTESIAN_POINT('',(0.032,-0.286,0.85));
#708=CARTESIAN_POINT('',(0.032,-0.222,0.85));
#709=CARTESIAN_POINT('',(0.032,-0.254,0.85));
#710=CARTESIAN_POINT('',(-0.032,-0.222,0.85));
#711=CARTESIAN_POINT('',(0.,-0.222,0.85));
#712=CARTESIAN_POINT('',(-0.032,-0.286,0.85));
#713=CARTESIAN_POINT('',(-0.032,-0.254,0.85));
#714=CARTESIAN_POINT('',(0.,-0.286,0.85));
#715=CARTESIAN_POINT('Origin',(0.,-0.254,-0.28));
#716=CARTESIAN_POINT('',(0.032,-0.222,-0.28));
#717=CARTESIAN_POINT('',(0.032,-0.286,-0.28));
#718=CARTESIAN_POINT('',(0.032,-0.254,-0.28));
#719=CARTESIAN_POINT('',(-0.032,-0.286,-0.28));
#720=CARTESIAN_POINT('',(0.,-0.286,-0.28));
#721=CARTESIAN_POINT('',(-0.032,-0.222,-0.28));
#722=CARTESIAN_POINT('',(-0.032,-0.254,-0.28));
#723=CARTESIAN_POINT('',(0.,-0.222,-0.28));
#724=CARTESIAN_POINT('Origin',(0.,-0.286,0.285));
#725=CARTESIAN_POINT('',(-0.032,-0.286,0.285));
#726=CARTESIAN_POINT('',(0.032,-0.286,0.285));
#727=CARTESIAN_POINT('Origin',(-0.032,-0.254,0.285));
#728=CARTESIAN_POINT('',(-0.032,-0.222,0.285));
#729=CARTESIAN_POINT('Origin',(0.,-0.222,0.285));
#730=CARTESIAN_POINT('',(0.032,-0.222,0.285));
#731=CARTESIAN_POINT('Origin',(0.032,-0.254,0.285));
#732=CARTESIAN_POINT('Origin',(0.,-0.508,0.85));
#733=CARTESIAN_POINT('',(0.032,-0.54,0.85));
#734=CARTESIAN_POINT('',(0.032,-0.476,0.85));
#735=CARTESIAN_POINT('',(0.032,-0.508,0.85));
#736=CARTESIAN_POINT('',(-0.032,-0.476,0.85));
#737=CARTESIAN_POINT('',(0.,-0.476,0.85));
#738=CARTESIAN_POINT('',(-0.032,-0.54,0.85));
#739=CARTESIAN_POINT('',(-0.032,-0.508,0.85));
#740=CARTESIAN_POINT('',(0.,-0.54,0.85));
#741=CARTESIAN_POINT('Origin',(0.,-0.508,-0.28));
#742=CARTESIAN_POINT('',(0.032,-0.476,-0.28));
#743=CARTESIAN_POINT('',(0.032,-0.54,-0.28));
#744=CARTESIAN_POINT('',(0.032,-0.508,-0.28));
#745=CARTESIAN_POINT('',(-0.032,-0.54,-0.28));
#746=CARTESIAN_POINT('',(0.,-0.54,-0.28));
#747=CARTESIAN_POINT('',(-0.032,-0.476,-0.28));
#748=CARTESIAN_POINT('',(-0.032,-0.508,-0.28));
#749=CARTESIAN_POINT('',(0.,-0.476,-0.28));
#750=CARTESIAN_POINT('Origin',(0.,-0.54,0.285));
#751=CARTESIAN_POINT('',(-0.032,-0.54,0.285));
#752=CARTESIAN_POINT('',(0.032,-0.54,0.285));
#753=CARTESIAN_POINT('Origin',(-0.032,-0.508,0.285));
#754=CARTESIAN_POINT('',(-0.032,-0.476,0.285));
#755=CARTESIAN_POINT('Origin',(0.,-0.476,0.285));
#756=CARTESIAN_POINT('',(0.032,-0.476,0.285));
#757=CARTESIAN_POINT('Origin',(0.032,-0.508,0.285));
#758=CARTESIAN_POINT('Origin',(0.,-0.762,0.85));
#759=CARTESIAN_POINT('',(0.032,-0.794,0.85));
#760=CARTESIAN_POINT('',(0.032,-0.73,0.85));
#761=CARTESIAN_POINT('',(0.032,-0.762,0.85));
#762=CARTESIAN_POINT('',(-0.032,-0.73,0.85));
#763=CARTESIAN_POINT('',(0.,-0.73,0.85));
#764=CARTESIAN_POINT('',(-0.032,-0.794,0.85));
#765=CARTESIAN_POINT('',(-0.032,-0.762,0.85));
#766=CARTESIAN_POINT('',(0.,-0.794,0.85));
#767=CARTESIAN_POINT('Origin',(0.,-0.762,-0.28));
#768=CARTESIAN_POINT('',(0.032,-0.73,-0.28));
#769=CARTESIAN_POINT('',(0.032,-0.794,-0.28));
#770=CARTESIAN_POINT('',(0.032,-0.762,-0.28));
#771=CARTESIAN_POINT('',(-0.032,-0.794,-0.28));
#772=CARTESIAN_POINT('',(0.,-0.794,-0.28));
#773=CARTESIAN_POINT('',(-0.032,-0.73,-0.28));
#774=CARTESIAN_POINT('',(-0.032,-0.762,-0.28));
#775=CARTESIAN_POINT('',(0.,-0.73,-0.28));
#776=CARTESIAN_POINT('Origin',(0.,-0.794,0.285));
#777=CARTESIAN_POINT('',(-0.032,-0.794,0.285));
#778=CARTESIAN_POINT('',(0.032,-0.794,0.285));
#779=CARTESIAN_POINT('Origin',(-0.032,-0.762,0.285));
#780=CARTESIAN_POINT('',(-0.032,-0.73,0.285));
#781=CARTESIAN_POINT('Origin',(0.,-0.73,0.285));
#782=CARTESIAN_POINT('',(0.032,-0.73,0.285));
#783=CARTESIAN_POINT('Origin',(0.032,-0.762,0.285));
#784=UNCERTAINTY_MEASURE_WITH_UNIT(LENGTH_MEASURE(0.001),#788,
'DISTANCE_ACCURACY_VALUE',
'Maximum model space distance between geometric entities at asserted c
onnectivities');
#785=UNCERTAINTY_MEASURE_WITH_UNIT(LENGTH_MEASURE(0.001),#788,
'DISTANCE_ACCURACY_VALUE',
'Maximum model space distance between geometric entities at asserted c
onnectivities');
#786=(
GEOMETRIC_REPRESENTATION_CONTEXT(3)
GLOBAL_UNCERTAINTY_ASSIGNED_CONTEXT((#784))
GLOBAL_UNIT_ASSIGNED_CONTEXT((#788,#790,#791))
REPRESENTATION_CONTEXT('','3D')
);
#787=(
GEOMETRIC_REPRESENTATION_CONTEXT(3)
GLOBAL_UNCERTAINTY_ASSIGNED_CONTEXT((#785))
GLOBAL_UNIT_ASSIGNED_CONTEXT((#788,#790,#791))
REPRESENTATION_CONTEXT('','3D')
);
#788=(
LENGTH_UNIT()
NAMED_UNIT(*)
SI_UNIT(.CENTI.,.METRE.)
);
#789=(
LENGTH_UNIT()
NAMED_UNIT(*)
SI_UNIT($,.METRE.)
);
#790=(
NAMED_UNIT(*)
PLANE_ANGLE_UNIT()
SI_UNIT($,.RADIAN.)
);
#791=(
NAMED_UNIT(*)
SI_UNIT($,.STERADIAN.)
SOLID_ANGLE_UNIT()
);
#792=SHAPE_DEFINITION_REPRESENTATION(#793,#794);
#793=PRODUCT_DEFINITION_SHAPE('',$,#796);
#794=SHAPE_REPRESENTATION('',(#500),#786);
#795=PRODUCT_DEFINITION_CONTEXT('part definition',#800,'design');
#796=PRODUCT_DEFINITION('2026-10-02-22-14-54-950','RevG_model_J3',#797,
#795);
#797=PRODUCT_DEFINITION_FORMATION('',$,#802);
#798=PRODUCT_RELATED_PRODUCT_CATEGORY('RevG_model_J3','RevG_model_J3',(#802));
#799=APPLICATION_PROTOCOL_DEFINITION('international standard',
'automotive_design',2009,#800);
#800=APPLICATION_CONTEXT(
'Core Data for Automotive Mechanical Design Process');
#801=PRODUCT_CONTEXT('part definition',#800,'mechanical');
#802=PRODUCT('2026-10-02-22-14-54-950','RevG_model_J3',$,(#801));
#803=PRESENTATION_STYLE_ASSIGNMENT((#806));
#804=PRESENTATION_STYLE_ASSIGNMENT((#807));
#805=PRESENTATION_STYLE_ASSIGNMENT((#808));
#806=SURFACE_STYLE_USAGE(.BOTH.,#809);
#807=SURFACE_STYLE_USAGE(.BOTH.,#810);
#808=SURFACE_STYLE_USAGE(.BOTH.,#811);
#809=SURFACE_SIDE_STYLE('',(#812));
#810=SURFACE_SIDE_STYLE('',(#813));
#811=SURFACE_SIDE_STYLE('',(#814));
#812=SURFACE_STYLE_FILL_AREA(#815);
#813=SURFACE_STYLE_FILL_AREA(#816);
#814=SURFACE_STYLE_FILL_AREA(#817);
#815=FILL_AREA_STYLE('Steel - Satin',(#818));
#816=FILL_AREA_STYLE('Opaque(10,10,10)',(#819));
#817=FILL_AREA_STYLE('Opaque(228,180,12)',(#820));
#818=FILL_AREA_STYLE_COLOUR('Steel - Satin',#821);
#819=FILL_AREA_STYLE_COLOUR('Opaque(10,10,10)',#822);
#820=FILL_AREA_STYLE_COLOUR('Opaque(228,180,12)',#823);
#821=COLOUR_RGB('Steel - Satin',0.627450980392157,0.627450980392157,0.627450980392157);
#822=COLOUR_RGB('Opaque(10,10,10)',0.0392156862745098,0.0392156862745098,
0.0392156862745098);
#823=COLOUR_RGB('Opaque(228,180,12)',0.894117647058824,0.705882352941177,
0.0470588235294118);
ENDSEC;
END-ISO-10303-21;
