ISO-10303-21;
HEADER;
/* Generated by software containing ST-Developer
 * from STEP Tools, Inc. (www.steptools.com) 
 */

FILE_DESCRIPTION(
/* description */ (''),
/* implementation_level */ '2;1');

FILE_NAME(
/* name */ 'J4.step',
/* time_stamp */ '2026-10-02T22:15:11+08:00',
/* author */ (''),
/* organization */ (''),
/* preprocessor_version */ 'ST-DEVELOPER v20.2',
/* originating_system */ 'Autodesk Translation Framework v15.15.0.0',
/* authorisation */ '');

FILE_SCHEMA (('AUTOMOTIVE_DESIGN { 1 0 10303 214 3 1 1 }'));
ENDSEC;

DATA;
#10=MECHANICAL_DESIGN_GEOMETRIC_PRESENTATION_REPRESENTATION('',(#13,#14,
#15,#16,#17,#18,#19,#20,#21,#22),#1542);
#11=SHAPE_REPRESENTATION_RELATIONSHIP('SRR','None',#1549,#12);
#12=ADVANCED_BREP_SHAPE_REPRESENTATION('',(#23,#24,#25,#26,#27,#28,#29,
#30,#31,#32),#1541);
#13=STYLED_ITEM('',(#1559),#23);
#14=STYLED_ITEM('',(#1560),#24);
#15=STYLED_ITEM('',(#1560),#25);
#16=STYLED_ITEM('',(#1560),#26);
#17=STYLED_ITEM('',(#1560),#27);
#18=STYLED_ITEM('',(#1560),#28);
#19=STYLED_ITEM('',(#1560),#29);
#20=STYLED_ITEM('',(#1560),#30);
#21=STYLED_ITEM('',(#1560),#31);
#22=STYLED_ITEM('',(#1560),#32);
#23=MANIFOLD_SOLID_BREP('Header insulator',#953);
#24=MANIFOLD_SOLID_BREP('Header pin 1',#954);
#25=MANIFOLD_SOLID_BREP('Header pin 2',#955);
#26=MANIFOLD_SOLID_BREP('Header pin 3',#956);
#27=MANIFOLD_SOLID_BREP('Header pin 4',#957);
#28=MANIFOLD_SOLID_BREP('Header pin 5',#958);
#29=MANIFOLD_SOLID_BREP('Header pin 6',#959);
#30=MANIFOLD_SOLID_BREP('Header pin 7',#960);
#31=MANIFOLD_SOLID_BREP('Header pin 8',#961);
#32=MANIFOLD_SOLID_BREP('Header pin 9',#962);
#33=FACE_OUTER_BOUND('',#93,.T.);
#34=FACE_OUTER_BOUND('',#94,.T.);
#35=FACE_OUTER_BOUND('',#95,.T.);
#36=FACE_OUTER_BOUND('',#96,.T.);
#37=FACE_OUTER_BOUND('',#97,.T.);
#38=FACE_OUTER_BOUND('',#98,.T.);
#39=FACE_OUTER_BOUND('',#99,.T.);
#40=FACE_OUTER_BOUND('',#100,.T.);
#41=FACE_OUTER_BOUND('',#101,.T.);
#42=FACE_OUTER_BOUND('',#102,.T.);
#43=FACE_OUTER_BOUND('',#103,.T.);
#44=FACE_OUTER_BOUND('',#104,.T.);
#45=FACE_OUTER_BOUND('',#105,.T.);
#46=FACE_OUTER_BOUND('',#106,.T.);
#47=FACE_OUTER_BOUND('',#107,.T.);
#48=FACE_OUTER_BOUND('',#108,.T.);
#49=FACE_OUTER_BOUND('',#109,.T.);
#50=FACE_OUTER_BOUND('',#110,.T.);
#51=FACE_OUTER_BOUND('',#111,.T.);
#52=FACE_OUTER_BOUND('',#112,.T.);
#53=FACE_OUTER_BOUND('',#113,.T.);
#54=FACE_OUTER_BOUND('',#114,.T.);
#55=FACE_OUTER_BOUND('',#115,.T.);
#56=FACE_OUTER_BOUND('',#116,.T.);
#57=FACE_OUTER_BOUND('',#117,.T.);
#58=FACE_OUTER_BOUND('',#118,.T.);
#59=FACE_OUTER_BOUND('',#119,.T.);
#60=FACE_OUTER_BOUND('',#120,.T.);
#61=FACE_OUTER_BOUND('',#121,.T.);
#62=FACE_OUTER_BOUND('',#122,.T.);
#63=FACE_OUTER_BOUND('',#123,.T.);
#64=FACE_OUTER_BOUND('',#124,.T.);
#65=FACE_OUTER_BOUND('',#125,.T.);
#66=FACE_OUTER_BOUND('',#126,.T.);
#67=FACE_OUTER_BOUND('',#127,.T.);
#68=FACE_OUTER_BOUND('',#128,.T.);
#69=FACE_OUTER_BOUND('',#129,.T.);
#70=FACE_OUTER_BOUND('',#130,.T.);
#71=FACE_OUTER_BOUND('',#131,.T.);
#72=FACE_OUTER_BOUND('',#132,.T.);
#73=FACE_OUTER_BOUND('',#133,.T.);
#74=FACE_OUTER_BOUND('',#134,.T.);
#75=FACE_OUTER_BOUND('',#135,.T.);
#76=FACE_OUTER_BOUND('',#136,.T.);
#77=FACE_OUTER_BOUND('',#137,.T.);
#78=FACE_OUTER_BOUND('',#138,.T.);
#79=FACE_OUTER_BOUND('',#139,.T.);
#80=FACE_OUTER_BOUND('',#140,.T.);
#81=FACE_OUTER_BOUND('',#141,.T.);
#82=FACE_OUTER_BOUND('',#142,.T.);
#83=FACE_OUTER_BOUND('',#143,.T.);
#84=FACE_OUTER_BOUND('',#144,.T.);
#85=FACE_OUTER_BOUND('',#145,.T.);
#86=FACE_OUTER_BOUND('',#146,.T.);
#87=FACE_OUTER_BOUND('',#147,.T.);
#88=FACE_OUTER_BOUND('',#148,.T.);
#89=FACE_OUTER_BOUND('',#149,.T.);
#90=FACE_OUTER_BOUND('',#150,.T.);
#91=FACE_OUTER_BOUND('',#151,.T.);
#92=FACE_OUTER_BOUND('',#152,.T.);
#93=EDGE_LOOP('',(#593,#594,#595,#596));
#94=EDGE_LOOP('',(#597,#598,#599,#600));
#95=EDGE_LOOP('',(#601,#602,#603,#604));
#96=EDGE_LOOP('',(#605,#606,#607,#608));
#97=EDGE_LOOP('',(#609,#610,#611,#612));
#98=EDGE_LOOP('',(#613,#614,#615,#616));
#99=EDGE_LOOP('',(#617,#618,#619,#620));
#100=EDGE_LOOP('',(#621,#622,#623,#624));
#101=EDGE_LOOP('',(#625,#626,#627,#628));
#102=EDGE_LOOP('',(#629,#630,#631,#632));
#103=EDGE_LOOP('',(#633,#634,#635,#636));
#104=EDGE_LOOP('',(#637,#638,#639,#640));
#105=EDGE_LOOP('',(#641,#642,#643,#644));
#106=EDGE_LOOP('',(#645,#646,#647,#648));
#107=EDGE_LOOP('',(#649,#650,#651,#652));
#108=EDGE_LOOP('',(#653,#654,#655,#656));
#109=EDGE_LOOP('',(#657,#658,#659,#660));
#110=EDGE_LOOP('',(#661,#662,#663,#664));
#111=EDGE_LOOP('',(#665,#666,#667,#668));
#112=EDGE_LOOP('',(#669,#670,#671,#672));
#113=EDGE_LOOP('',(#673,#674,#675,#676));
#114=EDGE_LOOP('',(#677,#678,#679,#680));
#115=EDGE_LOOP('',(#681,#682,#683,#684));
#116=EDGE_LOOP('',(#685,#686,#687,#688));
#117=EDGE_LOOP('',(#689,#690,#691,#692));
#118=EDGE_LOOP('',(#693,#694,#695,#696));
#119=EDGE_LOOP('',(#697,#698,#699,#700));
#120=EDGE_LOOP('',(#701,#702,#703,#704));
#121=EDGE_LOOP('',(#705,#706,#707,#708));
#122=EDGE_LOOP('',(#709,#710,#711,#712));
#123=EDGE_LOOP('',(#713,#714,#715,#716));
#124=EDGE_LOOP('',(#717,#718,#719,#720));
#125=EDGE_LOOP('',(#721,#722,#723,#724));
#126=EDGE_LOOP('',(#725,#726,#727,#728));
#127=EDGE_LOOP('',(#729,#730,#731,#732));
#128=EDGE_LOOP('',(#733,#734,#735,#736));
#129=EDGE_LOOP('',(#737,#738,#739,#740));
#130=EDGE_LOOP('',(#741,#742,#743,#744));
#131=EDGE_LOOP('',(#745,#746,#747,#748));
#132=EDGE_LOOP('',(#749,#750,#751,#752));
#133=EDGE_LOOP('',(#753,#754,#755,#756));
#134=EDGE_LOOP('',(#757,#758,#759,#760));
#135=EDGE_LOOP('',(#761,#762,#763,#764));
#136=EDGE_LOOP('',(#765,#766,#767,#768));
#137=EDGE_LOOP('',(#769,#770,#771,#772));
#138=EDGE_LOOP('',(#773,#774,#775,#776));
#139=EDGE_LOOP('',(#777,#778,#779,#780));
#140=EDGE_LOOP('',(#781,#782,#783,#784));
#141=EDGE_LOOP('',(#785,#786,#787,#788));
#142=EDGE_LOOP('',(#789,#790,#791,#792));
#143=EDGE_LOOP('',(#793,#794,#795,#796));
#144=EDGE_LOOP('',(#797,#798,#799,#800));
#145=EDGE_LOOP('',(#801,#802,#803,#804));
#146=EDGE_LOOP('',(#805,#806,#807,#808));
#147=EDGE_LOOP('',(#809,#810,#811,#812));
#148=EDGE_LOOP('',(#813,#814,#815,#816));
#149=EDGE_LOOP('',(#817,#818,#819,#820));
#150=EDGE_LOOP('',(#821,#822,#823,#824));
#151=EDGE_LOOP('',(#825,#826,#827,#828));
#152=EDGE_LOOP('',(#829,#830,#831,#832));
#153=LINE('',#1282,#273);
#154=LINE('',#1284,#274);
#155=LINE('',#1286,#275);
#156=LINE('',#1287,#276);
#157=LINE('',#1291,#277);
#158=LINE('',#1293,#278);
#159=LINE('',#1295,#279);
#160=LINE('',#1296,#280);
#161=LINE('',#1298,#281);
#162=LINE('',#1299,#282);
#163=LINE('',#1301,#283);
#164=LINE('',#1303,#284);
#165=LINE('',#1308,#285);
#166=LINE('',#1310,#286);
#167=LINE('',#1312,#287);
#168=LINE('',#1313,#288);
#169=LINE('',#1317,#289);
#170=LINE('',#1319,#290);
#171=LINE('',#1321,#291);
#172=LINE('',#1322,#292);
#173=LINE('',#1324,#293);
#174=LINE('',#1325,#294);
#175=LINE('',#1327,#295);
#176=LINE('',#1329,#296);
#177=LINE('',#1334,#297);
#178=LINE('',#1336,#298);
#179=LINE('',#1338,#299);
#180=LINE('',#1339,#300);
#181=LINE('',#1343,#301);
#182=LINE('',#1345,#302);
#183=LINE('',#1347,#303);
#184=LINE('',#1348,#304);
#185=LINE('',#1350,#305);
#186=LINE('',#1351,#306);
#187=LINE('',#1353,#307);
#188=LINE('',#1355,#308);
#189=LINE('',#1360,#309);
#190=LINE('',#1362,#310);
#191=LINE('',#1364,#311);
#192=LINE('',#1365,#312);
#193=LINE('',#1369,#313);
#194=LINE('',#1371,#314);
#195=LINE('',#1373,#315);
#196=LINE('',#1374,#316);
#197=LINE('',#1376,#317);
#198=LINE('',#1377,#318);
#199=LINE('',#1379,#319);
#200=LINE('',#1381,#320);
#201=LINE('',#1386,#321);
#202=LINE('',#1388,#322);
#203=LINE('',#1390,#323);
#204=LINE('',#1391,#324);
#205=LINE('',#1395,#325);
#206=LINE('',#1397,#326);
#207=LINE('',#1399,#327);
#208=LINE('',#1400,#328);
#209=LINE('',#1402,#329);
#210=LINE('',#1403,#330);
#211=LINE('',#1405,#331);
#212=LINE('',#1407,#332);
#213=LINE('',#1412,#333);
#214=LINE('',#1414,#334);
#215=LINE('',#1416,#335);
#216=LINE('',#1417,#336);
#217=LINE('',#1421,#337);
#218=LINE('',#1423,#338);
#219=LINE('',#1425,#339);
#220=LINE('',#1426,#340);
#221=LINE('',#1428,#341);
#222=LINE('',#1429,#342);
#223=LINE('',#1431,#343);
#224=LINE('',#1433,#344);
#225=LINE('',#1438,#345);
#226=LINE('',#1440,#346);
#227=LINE('',#1442,#347);
#228=LINE('',#1443,#348);
#229=LINE('',#1447,#349);
#230=LINE('',#1449,#350);
#231=LINE('',#1451,#351);
#232=LINE('',#1452,#352);
#233=LINE('',#1454,#353);
#234=LINE('',#1455,#354);
#235=LINE('',#1457,#355);
#236=LINE('',#1459,#356);
#237=LINE('',#1464,#357);
#238=LINE('',#1466,#358);
#239=LINE('',#1468,#359);
#240=LINE('',#1469,#360);
#241=LINE('',#1473,#361);
#242=LINE('',#1475,#362);
#243=LINE('',#1477,#363);
#244=LINE('',#1478,#364);
#245=LINE('',#1480,#365);
#246=LINE('',#1481,#366);
#247=LINE('',#1483,#367);
#248=LINE('',#1485,#368);
#249=LINE('',#1490,#369);
#250=LINE('',#1492,#370);
#251=LINE('',#1494,#371);
#252=LINE('',#1495,#372);
#253=LINE('',#1499,#373);
#254=LINE('',#1501,#374);
#255=LINE('',#1503,#375);
#256=LINE('',#1504,#376);
#257=LINE('',#1506,#377);
#258=LINE('',#1507,#378);
#259=LINE('',#1509,#379);
#260=LINE('',#1511,#380);
#261=LINE('',#1516,#381);
#262=LINE('',#1518,#382);
#263=LINE('',#1520,#383);
#264=LINE('',#1521,#384);
#265=LINE('',#1525,#385);
#266=LINE('',#1527,#386);
#267=LINE('',#1529,#387);
#268=LINE('',#1530,#388);
#269=LINE('',#1532,#389);
#270=LINE('',#1533,#390);
#271=LINE('',#1535,#391);
#272=LINE('',#1537,#392);
#273=VECTOR('',#1040,1.);
#274=VECTOR('',#1041,1.);
#275=VECTOR('',#1042,1.);
#276=VECTOR('',#1043,1.);
#277=VECTOR('',#1046,1.);
#278=VECTOR('',#1047,1.);
#279=VECTOR('',#1048,1.);
#280=VECTOR('',#1049,1.);
#281=VECTOR('',#1052,1.);
#282=VECTOR('',#1053,1.);
#283=VECTOR('',#1056,1.);
#284=VECTOR('',#1059,1.);
#285=VECTOR('',#1064,1.);
#286=VECTOR('',#1065,1.);
#287=VECTOR('',#1066,1.);
#288=VECTOR('',#1067,1.);
#289=VECTOR('',#1070,1.);
#290=VECTOR('',#1071,1.);
#291=VECTOR('',#1072,1.);
#292=VECTOR('',#1073,1.);
#293=VECTOR('',#1076,1.);
#294=VECTOR('',#1077,1.);
#295=VECTOR('',#1080,1.);
#296=VECTOR('',#1083,1.);
#297=VECTOR('',#1088,1.);
#298=VECTOR('',#1089,1.);
#299=VECTOR('',#1090,1.);
#300=VECTOR('',#1091,1.);
#301=VECTOR('',#1094,1.);
#302=VECTOR('',#1095,1.);
#303=VECTOR('',#1096,1.);
#304=VECTOR('',#1097,1.);
#305=VECTOR('',#1100,1.);
#306=VECTOR('',#1101,1.);
#307=VECTOR('',#1104,1.);
#308=VECTOR('',#1107,1.);
#309=VECTOR('',#1112,1.);
#310=VECTOR('',#1113,1.);
#311=VECTOR('',#1114,1.);
#312=VECTOR('',#1115,1.);
#313=VECTOR('',#1118,1.);
#314=VECTOR('',#1119,1.);
#315=VECTOR('',#1120,1.);
#316=VECTOR('',#1121,1.);
#317=VECTOR('',#1124,1.);
#318=VECTOR('',#1125,1.);
#319=VECTOR('',#1128,1.);
#320=VECTOR('',#1131,1.);
#321=VECTOR('',#1136,1.);
#322=VECTOR('',#1137,1.);
#323=VECTOR('',#1138,1.);
#324=VECTOR('',#1139,1.);
#325=VECTOR('',#1142,1.);
#326=VECTOR('',#1143,1.);
#327=VECTOR('',#1144,1.);
#328=VECTOR('',#1145,1.);
#329=VECTOR('',#1148,1.);
#330=VECTOR('',#1149,1.);
#331=VECTOR('',#1152,1.);
#332=VECTOR('',#1155,1.);
#333=VECTOR('',#1160,1.);
#334=VECTOR('',#1161,1.);
#335=VECTOR('',#1162,1.);
#336=VECTOR('',#1163,1.);
#337=VECTOR('',#1166,1.);
#338=VECTOR('',#1167,1.);
#339=VECTOR('',#1168,1.);
#340=VECTOR('',#1169,1.);
#341=VECTOR('',#1172,1.);
#342=VECTOR('',#1173,1.);
#343=VECTOR('',#1176,1.);
#344=VECTOR('',#1179,1.);
#345=VECTOR('',#1184,1.);
#346=VECTOR('',#1185,1.);
#347=VECTOR('',#1186,1.);
#348=VECTOR('',#1187,1.);
#349=VECTOR('',#1190,1.);
#350=VECTOR('',#1191,1.);
#351=VECTOR('',#1192,1.);
#352=VECTOR('',#1193,1.);
#353=VECTOR('',#1196,1.);
#354=VECTOR('',#1197,1.);
#355=VECTOR('',#1200,1.);
#356=VECTOR('',#1203,1.);
#357=VECTOR('',#1208,1.);
#358=VECTOR('',#1209,1.);
#359=VECTOR('',#1210,1.);
#360=VECTOR('',#1211,1.);
#361=VECTOR('',#1214,1.);
#362=VECTOR('',#1215,1.);
#363=VECTOR('',#1216,1.);
#364=VECTOR('',#1217,1.);
#365=VECTOR('',#1220,1.);
#366=VECTOR('',#1221,1.);
#367=VECTOR('',#1224,1.);
#368=VECTOR('',#1227,1.);
#369=VECTOR('',#1232,1.);
#370=VECTOR('',#1233,1.);
#371=VECTOR('',#1234,1.);
#372=VECTOR('',#1235,1.);
#373=VECTOR('',#1238,1.);
#374=VECTOR('',#1239,1.);
#375=VECTOR('',#1240,1.);
#376=VECTOR('',#1241,1.);
#377=VECTOR('',#1244,1.);
#378=VECTOR('',#1245,1.);
#379=VECTOR('',#1248,1.);
#380=VECTOR('',#1251,1.);
#381=VECTOR('',#1256,1.);
#382=VECTOR('',#1257,1.);
#383=VECTOR('',#1258,1.);
#384=VECTOR('',#1259,1.);
#385=VECTOR('',#1262,1.);
#386=VECTOR('',#1263,1.);
#387=VECTOR('',#1264,1.);
#388=VECTOR('',#1265,1.);
#389=VECTOR('',#1268,1.);
#390=VECTOR('',#1269,1.);
#391=VECTOR('',#1272,1.);
#392=VECTOR('',#1275,1.);
#393=VERTEX_POINT('',#1280);
#394=VERTEX_POINT('',#1281);
#395=VERTEX_POINT('',#1283);
#396=VERTEX_POINT('',#1285);
#397=VERTEX_POINT('',#1289);
#398=VERTEX_POINT('',#1290);
#399=VERTEX_POINT('',#1292);
#400=VERTEX_POINT('',#1294);
#401=VERTEX_POINT('',#1306);
#402=VERTEX_POINT('',#1307);
#403=VERTEX_POINT('',#1309);
#404=VERTEX_POINT('',#1311);
#405=VERTEX_POINT('',#1315);
#406=VERTEX_POINT('',#1316);
#407=VERTEX_POINT('',#1318);
#408=VERTEX_POINT('',#1320);
#409=VERTEX_POINT('',#1332);
#410=VERTEX_POINT('',#1333);
#411=VERTEX_POINT('',#1335);
#412=VERTEX_POINT('',#1337);
#413=VERTEX_POINT('',#1341);
#414=VERTEX_POINT('',#1342);
#415=VERTEX_POINT('',#1344);
#416=VERTEX_POINT('',#1346);
#417=VERTEX_POINT('',#1358);
#418=VERTEX_POINT('',#1359);
#419=VERTEX_POINT('',#1361);
#420=VERTEX_POINT('',#1363);
#421=VERTEX_POINT('',#1367);
#422=VERTEX_POINT('',#1368);
#423=VERTEX_POINT('',#1370);
#424=VERTEX_POINT('',#1372);
#425=VERTEX_POINT('',#1384);
#426=VERTEX_POINT('',#1385);
#427=VERTEX_POINT('',#1387);
#428=VERTEX_POINT('',#1389);
#429=VERTEX_POINT('',#1393);
#430=VERTEX_POINT('',#1394);
#431=VERTEX_POINT('',#1396);
#432=VERTEX_POINT('',#1398);
#433=VERTEX_POINT('',#1410);
#434=VERTEX_POINT('',#1411);
#435=VERTEX_POINT('',#1413);
#436=VERTEX_POINT('',#1415);
#437=VERTEX_POINT('',#1419);
#438=VERTEX_POINT('',#1420);
#439=VERTEX_POINT('',#1422);
#440=VERTEX_POINT('',#1424);
#441=VERTEX_POINT('',#1436);
#442=VERTEX_POINT('',#1437);
#443=VERTEX_POINT('',#1439);
#444=VERTEX_POINT('',#1441);
#445=VERTEX_POINT('',#1445);
#446=VERTEX_POINT('',#1446);
#447=VERTEX_POINT('',#1448);
#448=VERTEX_POINT('',#1450);
#449=VERTEX_POINT('',#1462);
#450=VERTEX_POINT('',#1463);
#451=VERTEX_POINT('',#1465);
#452=VERTEX_POINT('',#1467);
#453=VERTEX_POINT('',#1471);
#454=VERTEX_POINT('',#1472);
#455=VERTEX_POINT('',#1474);
#456=VERTEX_POINT('',#1476);
#457=VERTEX_POINT('',#1488);
#458=VERTEX_POINT('',#1489);
#459=VERTEX_POINT('',#1491);
#460=VERTEX_POINT('',#1493);
#461=VERTEX_POINT('',#1497);
#462=VERTEX_POINT('',#1498);
#463=VERTEX_POINT('',#1500);
#464=VERTEX_POINT('',#1502);
#465=VERTEX_POINT('',#1514);
#466=VERTEX_POINT('',#1515);
#467=VERTEX_POINT('',#1517);
#468=VERTEX_POINT('',#1519);
#469=VERTEX_POINT('',#1523);
#470=VERTEX_POINT('',#1524);
#471=VERTEX_POINT('',#1526);
#472=VERTEX_POINT('',#1528);
#473=EDGE_CURVE('',#393,#394,#153,.T.);
#474=EDGE_CURVE('',#394,#395,#154,.T.);
#475=EDGE_CURVE('',#395,#396,#155,.T.);
#476=EDGE_CURVE('',#396,#393,#156,.T.);
#477=EDGE_CURVE('',#397,#398,#157,.T.);
#478=EDGE_CURVE('',#398,#399,#158,.T.);
#479=EDGE_CURVE('',#399,#400,#159,.T.);
#480=EDGE_CURVE('',#400,#397,#160,.T.);
#481=EDGE_CURVE('',#396,#399,#161,.T.);
#482=EDGE_CURVE('',#393,#398,#162,.T.);
#483=EDGE_CURVE('',#395,#400,#163,.T.);
#484=EDGE_CURVE('',#394,#397,#164,.T.);
#485=EDGE_CURVE('',#401,#402,#165,.T.);
#486=EDGE_CURVE('',#402,#403,#166,.T.);
#487=EDGE_CURVE('',#403,#404,#167,.T.);
#488=EDGE_CURVE('',#404,#401,#168,.T.);
#489=EDGE_CURVE('',#405,#406,#169,.T.);
#490=EDGE_CURVE('',#406,#407,#170,.T.);
#491=EDGE_CURVE('',#407,#408,#171,.T.);
#492=EDGE_CURVE('',#408,#405,#172,.T.);
#493=EDGE_CURVE('',#404,#407,#173,.T.);
#494=EDGE_CURVE('',#401,#406,#174,.T.);
#495=EDGE_CURVE('',#403,#408,#175,.T.);
#496=EDGE_CURVE('',#402,#405,#176,.T.);
#497=EDGE_CURVE('',#409,#410,#177,.T.);
#498=EDGE_CURVE('',#410,#411,#178,.T.);
#499=EDGE_CURVE('',#411,#412,#179,.T.);
#500=EDGE_CURVE('',#412,#409,#180,.T.);
#501=EDGE_CURVE('',#413,#414,#181,.T.);
#502=EDGE_CURVE('',#414,#415,#182,.T.);
#503=EDGE_CURVE('',#415,#416,#183,.T.);
#504=EDGE_CURVE('',#416,#413,#184,.T.);
#505=EDGE_CURVE('',#412,#415,#185,.T.);
#506=EDGE_CURVE('',#409,#414,#186,.T.);
#507=EDGE_CURVE('',#411,#416,#187,.T.);
#508=EDGE_CURVE('',#410,#413,#188,.T.);
#509=EDGE_CURVE('',#417,#418,#189,.T.);
#510=EDGE_CURVE('',#418,#419,#190,.T.);
#511=EDGE_CURVE('',#419,#420,#191,.T.);
#512=EDGE_CURVE('',#420,#417,#192,.T.);
#513=EDGE_CURVE('',#421,#422,#193,.T.);
#514=EDGE_CURVE('',#422,#423,#194,.T.);
#515=EDGE_CURVE('',#423,#424,#195,.T.);
#516=EDGE_CURVE('',#424,#421,#196,.T.);
#517=EDGE_CURVE('',#420,#423,#197,.T.);
#518=EDGE_CURVE('',#417,#422,#198,.T.);
#519=EDGE_CURVE('',#419,#424,#199,.T.);
#520=EDGE_CURVE('',#418,#421,#200,.T.);
#521=EDGE_CURVE('',#425,#426,#201,.T.);
#522=EDGE_CURVE('',#426,#427,#202,.T.);
#523=EDGE_CURVE('',#427,#428,#203,.T.);
#524=EDGE_CURVE('',#428,#425,#204,.T.);
#525=EDGE_CURVE('',#429,#430,#205,.T.);
#526=EDGE_CURVE('',#430,#431,#206,.T.);
#527=EDGE_CURVE('',#431,#432,#207,.T.);
#528=EDGE_CURVE('',#432,#429,#208,.T.);
#529=EDGE_CURVE('',#428,#431,#209,.T.);
#530=EDGE_CURVE('',#425,#430,#210,.T.);
#531=EDGE_CURVE('',#427,#432,#211,.T.);
#532=EDGE_CURVE('',#426,#429,#212,.T.);
#533=EDGE_CURVE('',#433,#434,#213,.T.);
#534=EDGE_CURVE('',#434,#435,#214,.T.);
#535=EDGE_CURVE('',#435,#436,#215,.T.);
#536=EDGE_CURVE('',#436,#433,#216,.T.);
#537=EDGE_CURVE('',#437,#438,#217,.T.);
#538=EDGE_CURVE('',#438,#439,#218,.T.);
#539=EDGE_CURVE('',#439,#440,#219,.T.);
#540=EDGE_CURVE('',#440,#437,#220,.T.);
#541=EDGE_CURVE('',#436,#439,#221,.T.);
#542=EDGE_CURVE('',#433,#438,#222,.T.);
#543=EDGE_CURVE('',#435,#440,#223,.T.);
#544=EDGE_CURVE('',#434,#437,#224,.T.);
#545=EDGE_CURVE('',#441,#442,#225,.T.);
#546=EDGE_CURVE('',#442,#443,#226,.T.);
#547=EDGE_CURVE('',#443,#444,#227,.T.);
#548=EDGE_CURVE('',#444,#441,#228,.T.);
#549=EDGE_CURVE('',#445,#446,#229,.T.);
#550=EDGE_CURVE('',#446,#447,#230,.T.);
#551=EDGE_CURVE('',#447,#448,#231,.T.);
#552=EDGE_CURVE('',#448,#445,#232,.T.);
#553=EDGE_CURVE('',#444,#447,#233,.T.);
#554=EDGE_CURVE('',#441,#446,#234,.T.);
#555=EDGE_CURVE('',#443,#448,#235,.T.);
#556=EDGE_CURVE('',#442,#445,#236,.T.);
#557=EDGE_CURVE('',#449,#450,#237,.T.);
#558=EDGE_CURVE('',#450,#451,#238,.T.);
#559=EDGE_CURVE('',#451,#452,#239,.T.);
#560=EDGE_CURVE('',#452,#449,#240,.T.);
#561=EDGE_CURVE('',#453,#454,#241,.T.);
#562=EDGE_CURVE('',#454,#455,#242,.T.);
#563=EDGE_CURVE('',#455,#456,#243,.T.);
#564=EDGE_CURVE('',#456,#453,#244,.T.);
#565=EDGE_CURVE('',#452,#455,#245,.T.);
#566=EDGE_CURVE('',#449,#454,#246,.T.);
#567=EDGE_CURVE('',#451,#456,#247,.T.);
#568=EDGE_CURVE('',#450,#453,#248,.T.);
#569=EDGE_CURVE('',#457,#458,#249,.T.);
#570=EDGE_CURVE('',#458,#459,#250,.T.);
#571=EDGE_CURVE('',#459,#460,#251,.T.);
#572=EDGE_CURVE('',#460,#457,#252,.T.);
#573=EDGE_CURVE('',#461,#462,#253,.T.);
#574=EDGE_CURVE('',#462,#463,#254,.T.);
#575=EDGE_CURVE('',#463,#464,#255,.T.);
#576=EDGE_CURVE('',#464,#461,#256,.T.);
#577=EDGE_CURVE('',#460,#463,#257,.T.);
#578=EDGE_CURVE('',#457,#462,#258,.T.);
#579=EDGE_CURVE('',#459,#464,#259,.T.);
#580=EDGE_CURVE('',#458,#461,#260,.T.);
#581=EDGE_CURVE('',#465,#466,#261,.T.);
#582=EDGE_CURVE('',#466,#467,#262,.T.);
#583=EDGE_CURVE('',#467,#468,#263,.T.);
#584=EDGE_CURVE('',#468,#465,#264,.T.);
#585=EDGE_CURVE('',#469,#470,#265,.T.);
#586=EDGE_CURVE('',#470,#471,#266,.T.);
#587=EDGE_CURVE('',#471,#472,#267,.T.);
#588=EDGE_CURVE('',#472,#469,#268,.T.);
#589=EDGE_CURVE('',#468,#471,#269,.T.);
#590=EDGE_CURVE('',#465,#470,#270,.T.);
#591=EDGE_CURVE('',#467,#472,#271,.T.);
#592=EDGE_CURVE('',#466,#469,#272,.T.);
#593=ORIENTED_EDGE('',*,*,#473,.T.);
#594=ORIENTED_EDGE('',*,*,#474,.T.);
#595=ORIENTED_EDGE('',*,*,#475,.T.);
#596=ORIENTED_EDGE('',*,*,#476,.T.);
#597=ORIENTED_EDGE('',*,*,#477,.T.);
#598=ORIENTED_EDGE('',*,*,#478,.T.);
#599=ORIENTED_EDGE('',*,*,#479,.T.);
#600=ORIENTED_EDGE('',*,*,#480,.T.);
#601=ORIENTED_EDGE('',*,*,#481,.T.);
#602=ORIENTED_EDGE('',*,*,#478,.F.);
#603=ORIENTED_EDGE('',*,*,#482,.F.);
#604=ORIENTED_EDGE('',*,*,#476,.F.);
#605=ORIENTED_EDGE('',*,*,#483,.T.);
#606=ORIENTED_EDGE('',*,*,#479,.F.);
#607=ORIENTED_EDGE('',*,*,#481,.F.);
#608=ORIENTED_EDGE('',*,*,#475,.F.);
#609=ORIENTED_EDGE('',*,*,#484,.T.);
#610=ORIENTED_EDGE('',*,*,#480,.F.);
#611=ORIENTED_EDGE('',*,*,#483,.F.);
#612=ORIENTED_EDGE('',*,*,#474,.F.);
#613=ORIENTED_EDGE('',*,*,#482,.T.);
#614=ORIENTED_EDGE('',*,*,#477,.F.);
#615=ORIENTED_EDGE('',*,*,#484,.F.);
#616=ORIENTED_EDGE('',*,*,#473,.F.);
#617=ORIENTED_EDGE('',*,*,#485,.T.);
#618=ORIENTED_EDGE('',*,*,#486,.T.);
#619=ORIENTED_EDGE('',*,*,#487,.T.);
#620=ORIENTED_EDGE('',*,*,#488,.T.);
#621=ORIENTED_EDGE('',*,*,#489,.T.);
#622=ORIENTED_EDGE('',*,*,#490,.T.);
#623=ORIENTED_EDGE('',*,*,#491,.T.);
#624=ORIENTED_EDGE('',*,*,#492,.T.);
#625=ORIENTED_EDGE('',*,*,#493,.T.);
#626=ORIENTED_EDGE('',*,*,#490,.F.);
#627=ORIENTED_EDGE('',*,*,#494,.F.);
#628=ORIENTED_EDGE('',*,*,#488,.F.);
#629=ORIENTED_EDGE('',*,*,#495,.T.);
#630=ORIENTED_EDGE('',*,*,#491,.F.);
#631=ORIENTED_EDGE('',*,*,#493,.F.);
#632=ORIENTED_EDGE('',*,*,#487,.F.);
#633=ORIENTED_EDGE('',*,*,#496,.T.);
#634=ORIENTED_EDGE('',*,*,#492,.F.);
#635=ORIENTED_EDGE('',*,*,#495,.F.);
#636=ORIENTED_EDGE('',*,*,#486,.F.);
#637=ORIENTED_EDGE('',*,*,#494,.T.);
#638=ORIENTED_EDGE('',*,*,#489,.F.);
#639=ORIENTED_EDGE('',*,*,#496,.F.);
#640=ORIENTED_EDGE('',*,*,#485,.F.);
#641=ORIENTED_EDGE('',*,*,#497,.T.);
#642=ORIENTED_EDGE('',*,*,#498,.T.);
#643=ORIENTED_EDGE('',*,*,#499,.T.);
#644=ORIENTED_EDGE('',*,*,#500,.T.);
#645=ORIENTED_EDGE('',*,*,#501,.T.);
#646=ORIENTED_EDGE('',*,*,#502,.T.);
#647=ORIENTED_EDGE('',*,*,#503,.T.);
#648=ORIENTED_EDGE('',*,*,#504,.T.);
#649=ORIENTED_EDGE('',*,*,#505,.T.);
#650=ORIENTED_EDGE('',*,*,#502,.F.);
#651=ORIENTED_EDGE('',*,*,#506,.F.);
#652=ORIENTED_EDGE('',*,*,#500,.F.);
#653=ORIENTED_EDGE('',*,*,#507,.T.);
#654=ORIENTED_EDGE('',*,*,#503,.F.);
#655=ORIENTED_EDGE('',*,*,#505,.F.);
#656=ORIENTED_EDGE('',*,*,#499,.F.);
#657=ORIENTED_EDGE('',*,*,#508,.T.);
#658=ORIENTED_EDGE('',*,*,#504,.F.);
#659=ORIENTED_EDGE('',*,*,#507,.F.);
#660=ORIENTED_EDGE('',*,*,#498,.F.);
#661=ORIENTED_EDGE('',*,*,#506,.T.);
#662=ORIENTED_EDGE('',*,*,#501,.F.);
#663=ORIENTED_EDGE('',*,*,#508,.F.);
#664=ORIENTED_EDGE('',*,*,#497,.F.);
#665=ORIENTED_EDGE('',*,*,#509,.T.);
#666=ORIENTED_EDGE('',*,*,#510,.T.);
#667=ORIENTED_EDGE('',*,*,#511,.T.);
#668=ORIENTED_EDGE('',*,*,#512,.T.);
#669=ORIENTED_EDGE('',*,*,#513,.T.);
#670=ORIENTED_EDGE('',*,*,#514,.T.);
#671=ORIENTED_EDGE('',*,*,#515,.T.);
#672=ORIENTED_EDGE('',*,*,#516,.T.);
#673=ORIENTED_EDGE('',*,*,#517,.T.);
#674=ORIENTED_EDGE('',*,*,#514,.F.);
#675=ORIENTED_EDGE('',*,*,#518,.F.);
#676=ORIENTED_EDGE('',*,*,#512,.F.);
#677=ORIENTED_EDGE('',*,*,#519,.T.);
#678=ORIENTED_EDGE('',*,*,#515,.F.);
#679=ORIENTED_EDGE('',*,*,#517,.F.);
#680=ORIENTED_EDGE('',*,*,#511,.F.);
#681=ORIENTED_EDGE('',*,*,#520,.T.);
#682=ORIENTED_EDGE('',*,*,#516,.F.);
#683=ORIENTED_EDGE('',*,*,#519,.F.);
#684=ORIENTED_EDGE('',*,*,#510,.F.);
#685=ORIENTED_EDGE('',*,*,#518,.T.);
#686=ORIENTED_EDGE('',*,*,#513,.F.);
#687=ORIENTED_EDGE('',*,*,#520,.F.);
#688=ORIENTED_EDGE('',*,*,#509,.F.);
#689=ORIENTED_EDGE('',*,*,#521,.T.);
#690=ORIENTED_EDGE('',*,*,#522,.T.);
#691=ORIENTED_EDGE('',*,*,#523,.T.);
#692=ORIENTED_EDGE('',*,*,#524,.T.);
#693=ORIENTED_EDGE('',*,*,#525,.T.);
#694=ORIENTED_EDGE('',*,*,#526,.T.);
#695=ORIENTED_EDGE('',*,*,#527,.T.);
#696=ORIENTED_EDGE('',*,*,#528,.T.);
#697=ORIENTED_EDGE('',*,*,#529,.T.);
#698=ORIENTED_EDGE('',*,*,#526,.F.);
#699=ORIENTED_EDGE('',*,*,#530,.F.);
#700=ORIENTED_EDGE('',*,*,#524,.F.);
#701=ORIENTED_EDGE('',*,*,#531,.T.);
#702=ORIENTED_EDGE('',*,*,#527,.F.);
#703=ORIENTED_EDGE('',*,*,#529,.F.);
#704=ORIENTED_EDGE('',*,*,#523,.F.);
#705=ORIENTED_EDGE('',*,*,#532,.T.);
#706=ORIENTED_EDGE('',*,*,#528,.F.);
#707=ORIENTED_EDGE('',*,*,#531,.F.);
#708=ORIENTED_EDGE('',*,*,#522,.F.);
#709=ORIENTED_EDGE('',*,*,#530,.T.);
#710=ORIENTED_EDGE('',*,*,#525,.F.);
#711=ORIENTED_EDGE('',*,*,#532,.F.);
#712=ORIENTED_EDGE('',*,*,#521,.F.);
#713=ORIENTED_EDGE('',*,*,#533,.T.);
#714=ORIENTED_EDGE('',*,*,#534,.T.);
#715=ORIENTED_EDGE('',*,*,#535,.T.);
#716=ORIENTED_EDGE('',*,*,#536,.T.);
#717=ORIENTED_EDGE('',*,*,#537,.T.);
#718=ORIENTED_EDGE('',*,*,#538,.T.);
#719=ORIENTED_EDGE('',*,*,#539,.T.);
#720=ORIENTED_EDGE('',*,*,#540,.T.);
#721=ORIENTED_EDGE('',*,*,#541,.T.);
#722=ORIENTED_EDGE('',*,*,#538,.F.);
#723=ORIENTED_EDGE('',*,*,#542,.F.);
#724=ORIENTED_EDGE('',*,*,#536,.F.);
#725=ORIENTED_EDGE('',*,*,#543,.T.);
#726=ORIENTED_EDGE('',*,*,#539,.F.);
#727=ORIENTED_EDGE('',*,*,#541,.F.);
#728=ORIENTED_EDGE('',*,*,#535,.F.);
#729=ORIENTED_EDGE('',*,*,#544,.T.);
#730=ORIENTED_EDGE('',*,*,#540,.F.);
#731=ORIENTED_EDGE('',*,*,#543,.F.);
#732=ORIENTED_EDGE('',*,*,#534,.F.);
#733=ORIENTED_EDGE('',*,*,#542,.T.);
#734=ORIENTED_EDGE('',*,*,#537,.F.);
#735=ORIENTED_EDGE('',*,*,#544,.F.);
#736=ORIENTED_EDGE('',*,*,#533,.F.);
#737=ORIENTED_EDGE('',*,*,#545,.T.);
#738=ORIENTED_EDGE('',*,*,#546,.T.);
#739=ORIENTED_EDGE('',*,*,#547,.T.);
#740=ORIENTED_EDGE('',*,*,#548,.T.);
#741=ORIENTED_EDGE('',*,*,#549,.T.);
#742=ORIENTED_EDGE('',*,*,#550,.T.);
#743=ORIENTED_EDGE('',*,*,#551,.T.);
#744=ORIENTED_EDGE('',*,*,#552,.T.);
#745=ORIENTED_EDGE('',*,*,#553,.T.);
#746=ORIENTED_EDGE('',*,*,#550,.F.);
#747=ORIENTED_EDGE('',*,*,#554,.F.);
#748=ORIENTED_EDGE('',*,*,#548,.F.);
#749=ORIENTED_EDGE('',*,*,#555,.T.);
#750=ORIENTED_EDGE('',*,*,#551,.F.);
#751=ORIENTED_EDGE('',*,*,#553,.F.);
#752=ORIENTED_EDGE('',*,*,#547,.F.);
#753=ORIENTED_EDGE('',*,*,#556,.T.);
#754=ORIENTED_EDGE('',*,*,#552,.F.);
#755=ORIENTED_EDGE('',*,*,#555,.F.);
#756=ORIENTED_EDGE('',*,*,#546,.F.);
#757=ORIENTED_EDGE('',*,*,#554,.T.);
#758=ORIENTED_EDGE('',*,*,#549,.F.);
#759=ORIENTED_EDGE('',*,*,#556,.F.);
#760=ORIENTED_EDGE('',*,*,#545,.F.);
#761=ORIENTED_EDGE('',*,*,#557,.T.);
#762=ORIENTED_EDGE('',*,*,#558,.T.);
#763=ORIENTED_EDGE('',*,*,#559,.T.);
#764=ORIENTED_EDGE('',*,*,#560,.T.);
#765=ORIENTED_EDGE('',*,*,#561,.T.);
#766=ORIENTED_EDGE('',*,*,#562,.T.);
#767=ORIENTED_EDGE('',*,*,#563,.T.);
#768=ORIENTED_EDGE('',*,*,#564,.T.);
#769=ORIENTED_EDGE('',*,*,#565,.T.);
#770=ORIENTED_EDGE('',*,*,#562,.F.);
#771=ORIENTED_EDGE('',*,*,#566,.F.);
#772=ORIENTED_EDGE('',*,*,#560,.F.);
#773=ORIENTED_EDGE('',*,*,#567,.T.);
#774=ORIENTED_EDGE('',*,*,#563,.F.);
#775=ORIENTED_EDGE('',*,*,#565,.F.);
#776=ORIENTED_EDGE('',*,*,#559,.F.);
#777=ORIENTED_EDGE('',*,*,#568,.T.);
#778=ORIENTED_EDGE('',*,*,#564,.F.);
#779=ORIENTED_EDGE('',*,*,#567,.F.);
#780=ORIENTED_EDGE('',*,*,#558,.F.);
#781=ORIENTED_EDGE('',*,*,#566,.T.);
#782=ORIENTED_EDGE('',*,*,#561,.F.);
#783=ORIENTED_EDGE('',*,*,#568,.F.);
#784=ORIENTED_EDGE('',*,*,#557,.F.);
#785=ORIENTED_EDGE('',*,*,#569,.T.);
#786=ORIENTED_EDGE('',*,*,#570,.T.);
#787=ORIENTED_EDGE('',*,*,#571,.T.);
#788=ORIENTED_EDGE('',*,*,#572,.T.);
#789=ORIENTED_EDGE('',*,*,#573,.T.);
#790=ORIENTED_EDGE('',*,*,#574,.T.);
#791=ORIENTED_EDGE('',*,*,#575,.T.);
#792=ORIENTED_EDGE('',*,*,#576,.T.);
#793=ORIENTED_EDGE('',*,*,#577,.T.);
#794=ORIENTED_EDGE('',*,*,#574,.F.);
#795=ORIENTED_EDGE('',*,*,#578,.F.);
#796=ORIENTED_EDGE('',*,*,#572,.F.);
#797=ORIENTED_EDGE('',*,*,#579,.T.);
#798=ORIENTED_EDGE('',*,*,#575,.F.);
#799=ORIENTED_EDGE('',*,*,#577,.F.);
#800=ORIENTED_EDGE('',*,*,#571,.F.);
#801=ORIENTED_EDGE('',*,*,#580,.T.);
#802=ORIENTED_EDGE('',*,*,#576,.F.);
#803=ORIENTED_EDGE('',*,*,#579,.F.);
#804=ORIENTED_EDGE('',*,*,#570,.F.);
#805=ORIENTED_EDGE('',*,*,#578,.T.);
#806=ORIENTED_EDGE('',*,*,#573,.F.);
#807=ORIENTED_EDGE('',*,*,#580,.F.);
#808=ORIENTED_EDGE('',*,*,#569,.F.);
#809=ORIENTED_EDGE('',*,*,#581,.T.);
#810=ORIENTED_EDGE('',*,*,#582,.T.);
#811=ORIENTED_EDGE('',*,*,#583,.T.);
#812=ORIENTED_EDGE('',*,*,#584,.T.);
#813=ORIENTED_EDGE('',*,*,#585,.T.);
#814=ORIENTED_EDGE('',*,*,#586,.T.);
#815=ORIENTED_EDGE('',*,*,#587,.T.);
#816=ORIENTED_EDGE('',*,*,#588,.T.);
#817=ORIENTED_EDGE('',*,*,#589,.T.);
#818=ORIENTED_EDGE('',*,*,#586,.F.);
#819=ORIENTED_EDGE('',*,*,#590,.F.);
#820=ORIENTED_EDGE('',*,*,#584,.F.);
#821=ORIENTED_EDGE('',*,*,#591,.T.);
#822=ORIENTED_EDGE('',*,*,#587,.F.);
#823=ORIENTED_EDGE('',*,*,#589,.F.);
#824=ORIENTED_EDGE('',*,*,#583,.F.);
#825=ORIENTED_EDGE('',*,*,#592,.T.);
#826=ORIENTED_EDGE('',*,*,#588,.F.);
#827=ORIENTED_EDGE('',*,*,#591,.F.);
#828=ORIENTED_EDGE('',*,*,#582,.F.);
#829=ORIENTED_EDGE('',*,*,#590,.T.);
#830=ORIENTED_EDGE('',*,*,#585,.F.);
#831=ORIENTED_EDGE('',*,*,#592,.F.);
#832=ORIENTED_EDGE('',*,*,#581,.F.);
#833=PLANE('',#976);
#834=PLANE('',#977);
#835=PLANE('',#978);
#836=PLANE('',#979);
#837=PLANE('',#980);
#838=PLANE('',#981);
#839=PLANE('',#982);
#840=PLANE('',#983);
#841=PLANE('',#984);
#842=PLANE('',#985);
#843=PLANE('',#986);
#844=PLANE('',#987);
#845=PLANE('',#988);
#846=PLANE('',#989);
#847=PLANE('',#990);
#848=PLANE('',#991);
#849=PLANE('',#992);
#850=PLANE('',#993);
#851=PLANE('',#994);
#852=PLANE('',#995);
#853=PLANE('',#996);
#854=PLANE('',#997);
#855=PLANE('',#998);
#856=PLANE('',#999);
#857=PLANE('',#1000);
#858=PLANE('',#1001);
#859=PLANE('',#1002);
#860=PLANE('',#1003);
#861=PLANE('',#1004);
#862=PLANE('',#1005);
#863=PLANE('',#1006);
#864=PLANE('',#1007);
#865=PLANE('',#1008);
#866=PLANE('',#1009);
#867=PLANE('',#1010);
#868=PLANE('',#1011);
#869=PLANE('',#1012);
#870=PLANE('',#1013);
#871=PLANE('',#1014);
#872=PLANE('',#1015);
#873=PLANE('',#1016);
#874=PLANE('',#1017);
#875=PLANE('',#1018);
#876=PLANE('',#1019);
#877=PLANE('',#1020);
#878=PLANE('',#1021);
#879=PLANE('',#1022);
#880=PLANE('',#1023);
#881=PLANE('',#1024);
#882=PLANE('',#1025);
#883=PLANE('',#1026);
#884=PLANE('',#1027);
#885=PLANE('',#1028);
#886=PLANE('',#1029);
#887=PLANE('',#1030);
#888=PLANE('',#1031);
#889=PLANE('',#1032);
#890=PLANE('',#1033);
#891=PLANE('',#1034);
#892=PLANE('',#1035);
#893=ADVANCED_FACE('',(#33),#833,.T.);
#894=ADVANCED_FACE('',(#34),#834,.F.);
#895=ADVANCED_FACE('',(#35),#835,.F.);
#896=ADVANCED_FACE('',(#36),#836,.F.);
#897=ADVANCED_FACE('',(#37),#837,.F.);
#898=ADVANCED_FACE('',(#38),#838,.F.);
#899=ADVANCED_FACE('',(#39),#839,.T.);
#900=ADVANCED_FACE('',(#40),#840,.F.);
#901=ADVANCED_FACE('',(#41),#841,.F.);
#902=ADVANCED_FACE('',(#42),#842,.F.);
#903=ADVANCED_FACE('',(#43),#843,.F.);
#904=ADVANCED_FACE('',(#44),#844,.F.);
#905=ADVANCED_FACE('',(#45),#845,.T.);
#906=ADVANCED_FACE('',(#46),#846,.F.);
#907=ADVANCED_FACE('',(#47),#847,.F.);
#908=ADVANCED_FACE('',(#48),#848,.F.);
#909=ADVANCED_FACE('',(#49),#849,.F.);
#910=ADVANCED_FACE('',(#50),#850,.F.);
#911=ADVANCED_FACE('',(#51),#851,.T.);
#912=ADVANCED_FACE('',(#52),#852,.F.);
#913=ADVANCED_FACE('',(#53),#853,.F.);
#914=ADVANCED_FACE('',(#54),#854,.F.);
#915=ADVANCED_FACE('',(#55),#855,.F.);
#916=ADVANCED_FACE('',(#56),#856,.F.);
#917=ADVANCED_FACE('',(#57),#857,.T.);
#918=ADVANCED_FACE('',(#58),#858,.F.);
#919=ADVANCED_FACE('',(#59),#859,.F.);
#920=ADVANCED_FACE('',(#60),#860,.F.);
#921=ADVANCED_FACE('',(#61),#861,.F.);
#922=ADVANCED_FACE('',(#62),#862,.F.);
#923=ADVANCED_FACE('',(#63),#863,.T.);
#924=ADVANCED_FACE('',(#64),#864,.F.);
#925=ADVANCED_FACE('',(#65),#865,.F.);
#926=ADVANCED_FACE('',(#66),#866,.F.);
#927=ADVANCED_FACE('',(#67),#867,.F.);
#928=ADVANCED_FACE('',(#68),#868,.F.);
#929=ADVANCED_FACE('',(#69),#869,.T.);
#930=ADVANCED_FACE('',(#70),#870,.F.);
#931=ADVANCED_FACE('',(#71),#871,.F.);
#932=ADVANCED_FACE('',(#72),#872,.F.);
#933=ADVANCED_FACE('',(#73),#873,.F.);
#934=ADVANCED_FACE('',(#74),#874,.F.);
#935=ADVANCED_FACE('',(#75),#875,.T.);
#936=ADVANCED_FACE('',(#76),#876,.F.);
#937=ADVANCED_FACE('',(#77),#877,.F.);
#938=ADVANCED_FACE('',(#78),#878,.F.);
#939=ADVANCED_FACE('',(#79),#879,.F.);
#940=ADVANCED_FACE('',(#80),#880,.F.);
#941=ADVANCED_FACE('',(#81),#881,.T.);
#942=ADVANCED_FACE('',(#82),#882,.F.);
#943=ADVANCED_FACE('',(#83),#883,.F.);
#944=ADVANCED_FACE('',(#84),#884,.F.);
#945=ADVANCED_FACE('',(#85),#885,.F.);
#946=ADVANCED_FACE('',(#86),#886,.F.);
#947=ADVANCED_FACE('',(#87),#887,.T.);
#948=ADVANCED_FACE('',(#88),#888,.F.);
#949=ADVANCED_FACE('',(#89),#889,.F.);
#950=ADVANCED_FACE('',(#90),#890,.F.);
#951=ADVANCED_FACE('',(#91),#891,.F.);
#952=ADVANCED_FACE('',(#92),#892,.F.);
#953=CLOSED_SHELL('',(#893,#894,#895,#896,#897,#898));
#954=CLOSED_SHELL('',(#899,#900,#901,#902,#903,#904));
#955=CLOSED_SHELL('',(#905,#906,#907,#908,#909,#910));
#956=CLOSED_SHELL('',(#911,#912,#913,#914,#915,#916));
#957=CLOSED_SHELL('',(#917,#918,#919,#920,#921,#922));
#958=CLOSED_SHELL('',(#923,#924,#925,#926,#927,#928));
#959=CLOSED_SHELL('',(#929,#930,#931,#932,#933,#934));
#960=CLOSED_SHELL('',(#935,#936,#937,#938,#939,#940));
#961=CLOSED_SHELL('',(#941,#942,#943,#944,#945,#946));
#962=CLOSED_SHELL('',(#947,#948,#949,#950,#951,#952));
#963=DERIVED_UNIT_ELEMENT(#965,1.);
#964=DERIVED_UNIT_ELEMENT(#1544,-3.);
#965=(
MASS_UNIT()
NAMED_UNIT(*)
SI_UNIT(.KILO.,.GRAM.)
);
#966=DERIVED_UNIT((#963,#964));
#967=MEASURE_REPRESENTATION_ITEM('density measure',
POSITIVE_RATIO_MEASURE(7850.),#966);
#968=PROPERTY_DEFINITION_REPRESENTATION(#973,#970);
#969=PROPERTY_DEFINITION_REPRESENTATION(#974,#971);
#970=REPRESENTATION('material name',(#972),#1541);
#971=REPRESENTATION('density',(#967),#1541);
#972=DESCRIPTIVE_REPRESENTATION_ITEM('Steel','Steel');
#973=PROPERTY_DEFINITION('material property','material name',#1551);
#974=PROPERTY_DEFINITION('material property','density of part',#1551);
#975=AXIS2_PLACEMENT_3D('',#1278,#1036,#1037);
#976=AXIS2_PLACEMENT_3D('',#1279,#1038,#1039);
#977=AXIS2_PLACEMENT_3D('',#1288,#1044,#1045);
#978=AXIS2_PLACEMENT_3D('',#1297,#1050,#1051);
#979=AXIS2_PLACEMENT_3D('',#1300,#1054,#1055);
#980=AXIS2_PLACEMENT_3D('',#1302,#1057,#1058);
#981=AXIS2_PLACEMENT_3D('',#1304,#1060,#1061);
#982=AXIS2_PLACEMENT_3D('',#1305,#1062,#1063);
#983=AXIS2_PLACEMENT_3D('',#1314,#1068,#1069);
#984=AXIS2_PLACEMENT_3D('',#1323,#1074,#1075);
#985=AXIS2_PLACEMENT_3D('',#1326,#1078,#1079);
#986=AXIS2_PLACEMENT_3D('',#1328,#1081,#1082);
#987=AXIS2_PLACEMENT_3D('',#1330,#1084,#1085);
#988=AXIS2_PLACEMENT_3D('',#1331,#1086,#1087);
#989=AXIS2_PLACEMENT_3D('',#1340,#1092,#1093);
#990=AXIS2_PLACEMENT_3D('',#1349,#1098,#1099);
#991=AXIS2_PLACEMENT_3D('',#1352,#1102,#1103);
#992=AXIS2_PLACEMENT_3D('',#1354,#1105,#1106);
#993=AXIS2_PLACEMENT_3D('',#1356,#1108,#1109);
#994=AXIS2_PLACEMENT_3D('',#1357,#1110,#1111);
#995=AXIS2_PLACEMENT_3D('',#1366,#1116,#1117);
#996=AXIS2_PLACEMENT_3D('',#1375,#1122,#1123);
#997=AXIS2_PLACEMENT_3D('',#1378,#1126,#1127);
#998=AXIS2_PLACEMENT_3D('',#1380,#1129,#1130);
#999=AXIS2_PLACEMENT_3D('',#1382,#1132,#1133);
#1000=AXIS2_PLACEMENT_3D('',#1383,#1134,#1135);
#1001=AXIS2_PLACEMENT_3D('',#1392,#1140,#1141);
#1002=AXIS2_PLACEMENT_3D('',#1401,#1146,#1147);
#1003=AXIS2_PLACEMENT_3D('',#1404,#1150,#1151);
#1004=AXIS2_PLACEMENT_3D('',#1406,#1153,#1154);
#1005=AXIS2_PLACEMENT_3D('',#1408,#1156,#1157);
#1006=AXIS2_PLACEMENT_3D('',#1409,#1158,#1159);
#1007=AXIS2_PLACEMENT_3D('',#1418,#1164,#1165);
#1008=AXIS2_PLACEMENT_3D('',#1427,#1170,#1171);
#1009=AXIS2_PLACEMENT_3D('',#1430,#1174,#1175);
#1010=AXIS2_PLACEMENT_3D('',#1432,#1177,#1178);
#1011=AXIS2_PLACEMENT_3D('',#1434,#1180,#1181);
#1012=AXIS2_PLACEMENT_3D('',#1435,#1182,#1183);
#1013=AXIS2_PLACEMENT_3D('',#1444,#1188,#1189);
#1014=AXIS2_PLACEMENT_3D('',#1453,#1194,#1195);
#1015=AXIS2_PLACEMENT_3D('',#1456,#1198,#1199);
#1016=AXIS2_PLACEMENT_3D('',#1458,#1201,#1202);
#1017=AXIS2_PLACEMENT_3D('',#1460,#1204,#1205);
#1018=AXIS2_PLACEMENT_3D('',#1461,#1206,#1207);
#1019=AXIS2_PLACEMENT_3D('',#1470,#1212,#1213);
#1020=AXIS2_PLACEMENT_3D('',#1479,#1218,#1219);
#1021=AXIS2_PLACEMENT_3D('',#1482,#1222,#1223);
#1022=AXIS2_PLACEMENT_3D('',#1484,#1225,#1226);
#1023=AXIS2_PLACEMENT_3D('',#1486,#1228,#1229);
#1024=AXIS2_PLACEMENT_3D('',#1487,#1230,#1231);
#1025=AXIS2_PLACEMENT_3D('',#1496,#1236,#1237);
#1026=AXIS2_PLACEMENT_3D('',#1505,#1242,#1243);
#1027=AXIS2_PLACEMENT_3D('',#1508,#1246,#1247);
#1028=AXIS2_PLACEMENT_3D('',#1510,#1249,#1250);
#1029=AXIS2_PLACEMENT_3D('',#1512,#1252,#1253);
#1030=AXIS2_PLACEMENT_3D('',#1513,#1254,#1255);
#1031=AXIS2_PLACEMENT_3D('',#1522,#1260,#1261);
#1032=AXIS2_PLACEMENT_3D('',#1531,#1266,#1267);
#1033=AXIS2_PLACEMENT_3D('',#1534,#1270,#1271);
#1034=AXIS2_PLACEMENT_3D('',#1536,#1273,#1274);
#1035=AXIS2_PLACEMENT_3D('',#1538,#1276,#1277);
#1036=DIRECTION('axis',(0.,0.,1.));
#1037=DIRECTION('refdir',(1.,0.,0.));
#1038=DIRECTION('center_axis',(0.,0.,1.));
#1039=DIRECTION('ref_axis',(1.,0.,0.));
#1040=DIRECTION('',(0.,1.,0.));
#1041=DIRECTION('',(-1.,0.,0.));
#1042=DIRECTION('',(0.,-1.,0.));
#1043=DIRECTION('',(1.,0.,0.));
#1044=DIRECTION('center_axis',(0.,0.,1.));
#1045=DIRECTION('ref_axis',(1.,0.,0.));
#1046=DIRECTION('',(0.,-1.,0.));
#1047=DIRECTION('',(-1.,0.,0.));
#1048=DIRECTION('',(0.,1.,0.));
#1049=DIRECTION('',(1.,0.,0.));
#1050=DIRECTION('center_axis',(0.,1.,0.));
#1051=DIRECTION('ref_axis',(0.,0.,1.));
#1052=DIRECTION('',(0.,0.,-1.));
#1053=DIRECTION('',(0.,0.,-1.));
#1054=DIRECTION('center_axis',(1.,0.,0.));
#1055=DIRECTION('ref_axis',(0.,0.,-1.));
#1056=DIRECTION('',(0.,0.,-1.));
#1057=DIRECTION('center_axis',(0.,-1.,0.));
#1058=DIRECTION('ref_axis',(0.,0.,-1.));
#1059=DIRECTION('',(0.,0.,-1.));
#1060=DIRECTION('center_axis',(-1.,0.,0.));
#1061=DIRECTION('ref_axis',(0.,0.,1.));
#1062=DIRECTION('center_axis',(0.,0.,1.));
#1063=DIRECTION('ref_axis',(1.,0.,0.));
#1064=DIRECTION('',(0.,1.,0.));
#1065=DIRECTION('',(-1.,0.,0.));
#1066=DIRECTION('',(0.,-1.,0.));
#1067=DIRECTION('',(1.,0.,0.));
#1068=DIRECTION('center_axis',(0.,0.,1.));
#1069=DIRECTION('ref_axis',(1.,0.,0.));
#1070=DIRECTION('',(0.,-1.,0.));
#1071=DIRECTION('',(-1.,0.,0.));
#1072=DIRECTION('',(0.,1.,0.));
#1073=DIRECTION('',(1.,0.,0.));
#1074=DIRECTION('center_axis',(0.,1.,0.));
#1075=DIRECTION('ref_axis',(0.,0.,1.));
#1076=DIRECTION('',(0.,0.,-1.));
#1077=DIRECTION('',(0.,0.,-1.));
#1078=DIRECTION('center_axis',(1.,0.,0.));
#1079=DIRECTION('ref_axis',(0.,0.,-1.));
#1080=DIRECTION('',(0.,0.,-1.));
#1081=DIRECTION('center_axis',(0.,-1.,0.));
#1082=DIRECTION('ref_axis',(0.,0.,-1.));
#1083=DIRECTION('',(0.,0.,-1.));
#1084=DIRECTION('center_axis',(-1.,0.,0.));
#1085=DIRECTION('ref_axis',(0.,0.,1.));
#1086=DIRECTION('center_axis',(0.,0.,1.));
#1087=DIRECTION('ref_axis',(1.,0.,0.));
#1088=DIRECTION('',(0.,1.,0.));
#1089=DIRECTION('',(-1.,0.,0.));
#1090=DIRECTION('',(0.,-1.,0.));
#1091=DIRECTION('',(1.,0.,0.));
#1092=DIRECTION('center_axis',(0.,0.,1.));
#1093=DIRECTION('ref_axis',(1.,0.,0.));
#1094=DIRECTION('',(0.,-1.,0.));
#1095=DIRECTION('',(-1.,0.,0.));
#1096=DIRECTION('',(0.,1.,0.));
#1097=DIRECTION('',(1.,0.,0.));
#1098=DIRECTION('center_axis',(0.,1.,0.));
#1099=DIRECTION('ref_axis',(0.,0.,1.));
#1100=DIRECTION('',(0.,0.,-1.));
#1101=DIRECTION('',(0.,0.,-1.));
#1102=DIRECTION('center_axis',(1.,0.,0.));
#1103=DIRECTION('ref_axis',(0.,0.,-1.));
#1104=DIRECTION('',(0.,0.,-1.));
#1105=DIRECTION('center_axis',(0.,-1.,0.));
#1106=DIRECTION('ref_axis',(0.,0.,-1.));
#1107=DIRECTION('',(0.,0.,-1.));
#1108=DIRECTION('center_axis',(-1.,0.,0.));
#1109=DIRECTION('ref_axis',(0.,0.,1.));
#1110=DIRECTION('center_axis',(0.,0.,1.));
#1111=DIRECTION('ref_axis',(1.,0.,0.));
#1112=DIRECTION('',(0.,1.,0.));
#1113=DIRECTION('',(-1.,0.,0.));
#1114=DIRECTION('',(0.,-1.,0.));
#1115=DIRECTION('',(1.,0.,0.));
#1116=DIRECTION('center_axis',(0.,0.,1.));
#1117=DIRECTION('ref_axis',(1.,0.,0.));
#1118=DIRECTION('',(0.,-1.,0.));
#1119=DIRECTION('',(-1.,0.,0.));
#1120=DIRECTION('',(0.,1.,0.));
#1121=DIRECTION('',(1.,0.,0.));
#1122=DIRECTION('center_axis',(0.,1.,0.));
#1123=DIRECTION('ref_axis',(0.,0.,1.));
#1124=DIRECTION('',(0.,0.,-1.));
#1125=DIRECTION('',(0.,0.,-1.));
#1126=DIRECTION('center_axis',(1.,0.,0.));
#1127=DIRECTION('ref_axis',(0.,0.,-1.));
#1128=DIRECTION('',(0.,0.,-1.));
#1129=DIRECTION('center_axis',(0.,-1.,0.));
#1130=DIRECTION('ref_axis',(0.,0.,-1.));
#1131=DIRECTION('',(0.,0.,-1.));
#1132=DIRECTION('center_axis',(-1.,0.,0.));
#1133=DIRECTION('ref_axis',(0.,0.,1.));
#1134=DIRECTION('center_axis',(0.,0.,1.));
#1135=DIRECTION('ref_axis',(1.,0.,0.));
#1136=DIRECTION('',(0.,1.,0.));
#1137=DIRECTION('',(-1.,0.,0.));
#1138=DIRECTION('',(0.,-1.,0.));
#1139=DIRECTION('',(1.,0.,0.));
#1140=DIRECTION('center_axis',(0.,0.,1.));
#1141=DIRECTION('ref_axis',(1.,0.,0.));
#1142=DIRECTION('',(0.,-1.,0.));
#1143=DIRECTION('',(-1.,0.,0.));
#1144=DIRECTION('',(0.,1.,0.));
#1145=DIRECTION('',(1.,0.,0.));
#1146=DIRECTION('center_axis',(0.,1.,0.));
#1147=DIRECTION('ref_axis',(0.,0.,1.));
#1148=DIRECTION('',(0.,0.,-1.));
#1149=DIRECTION('',(0.,0.,-1.));
#1150=DIRECTION('center_axis',(1.,0.,0.));
#1151=DIRECTION('ref_axis',(0.,0.,-1.));
#1152=DIRECTION('',(0.,0.,-1.));
#1153=DIRECTION('center_axis',(0.,-1.,0.));
#1154=DIRECTION('ref_axis',(0.,0.,-1.));
#1155=DIRECTION('',(0.,0.,-1.));
#1156=DIRECTION('center_axis',(-1.,0.,0.));
#1157=DIRECTION('ref_axis',(0.,0.,1.));
#1158=DIRECTION('center_axis',(0.,0.,1.));
#1159=DIRECTION('ref_axis',(1.,0.,0.));
#1160=DIRECTION('',(0.,1.,0.));
#1161=DIRECTION('',(-1.,0.,0.));
#1162=DIRECTION('',(0.,-1.,0.));
#1163=DIRECTION('',(1.,0.,0.));
#1164=DIRECTION('center_axis',(0.,0.,1.));
#1165=DIRECTION('ref_axis',(1.,0.,0.));
#1166=DIRECTION('',(0.,-1.,0.));
#1167=DIRECTION('',(-1.,0.,0.));
#1168=DIRECTION('',(0.,1.,0.));
#1169=DIRECTION('',(1.,0.,0.));
#1170=DIRECTION('center_axis',(0.,1.,0.));
#1171=DIRECTION('ref_axis',(0.,0.,1.));
#1172=DIRECTION('',(0.,0.,-1.));
#1173=DIRECTION('',(0.,0.,-1.));
#1174=DIRECTION('center_axis',(1.,0.,0.));
#1175=DIRECTION('ref_axis',(0.,0.,-1.));
#1176=DIRECTION('',(0.,0.,-1.));
#1177=DIRECTION('center_axis',(0.,-1.,0.));
#1178=DIRECTION('ref_axis',(0.,0.,-1.));
#1179=DIRECTION('',(0.,0.,-1.));
#1180=DIRECTION('center_axis',(-1.,0.,0.));
#1181=DIRECTION('ref_axis',(0.,0.,1.));
#1182=DIRECTION('center_axis',(0.,0.,1.));
#1183=DIRECTION('ref_axis',(1.,0.,0.));
#1184=DIRECTION('',(0.,1.,0.));
#1185=DIRECTION('',(-1.,0.,0.));
#1186=DIRECTION('',(0.,-1.,0.));
#1187=DIRECTION('',(1.,0.,0.));
#1188=DIRECTION('center_axis',(0.,0.,1.));
#1189=DIRECTION('ref_axis',(1.,0.,0.));
#1190=DIRECTION('',(0.,-1.,0.));
#1191=DIRECTION('',(-1.,0.,0.));
#1192=DIRECTION('',(0.,1.,0.));
#1193=DIRECTION('',(1.,0.,0.));
#1194=DIRECTION('center_axis',(0.,1.,0.));
#1195=DIRECTION('ref_axis',(0.,0.,1.));
#1196=DIRECTION('',(0.,0.,-1.));
#1197=DIRECTION('',(0.,0.,-1.));
#1198=DIRECTION('center_axis',(1.,0.,0.));
#1199=DIRECTION('ref_axis',(0.,0.,-1.));
#1200=DIRECTION('',(0.,0.,-1.));
#1201=DIRECTION('center_axis',(0.,-1.,0.));
#1202=DIRECTION('ref_axis',(0.,0.,-1.));
#1203=DIRECTION('',(0.,0.,-1.));
#1204=DIRECTION('center_axis',(-1.,0.,0.));
#1205=DIRECTION('ref_axis',(0.,0.,1.));
#1206=DIRECTION('center_axis',(0.,0.,1.));
#1207=DIRECTION('ref_axis',(1.,0.,0.));
#1208=DIRECTION('',(0.,1.,0.));
#1209=DIRECTION('',(-1.,0.,0.));
#1210=DIRECTION('',(0.,-1.,0.));
#1211=DIRECTION('',(1.,0.,0.));
#1212=DIRECTION('center_axis',(0.,0.,1.));
#1213=DIRECTION('ref_axis',(1.,0.,0.));
#1214=DIRECTION('',(0.,-1.,0.));
#1215=DIRECTION('',(-1.,0.,0.));
#1216=DIRECTION('',(0.,1.,0.));
#1217=DIRECTION('',(1.,0.,0.));
#1218=DIRECTION('center_axis',(0.,1.,0.));
#1219=DIRECTION('ref_axis',(0.,0.,1.));
#1220=DIRECTION('',(0.,0.,-1.));
#1221=DIRECTION('',(0.,0.,-1.));
#1222=DIRECTION('center_axis',(1.,0.,0.));
#1223=DIRECTION('ref_axis',(0.,0.,-1.));
#1224=DIRECTION('',(0.,0.,-1.));
#1225=DIRECTION('center_axis',(0.,-1.,0.));
#1226=DIRECTION('ref_axis',(0.,0.,-1.));
#1227=DIRECTION('',(0.,0.,-1.));
#1228=DIRECTION('center_axis',(-1.,0.,0.));
#1229=DIRECTION('ref_axis',(0.,0.,1.));
#1230=DIRECTION('center_axis',(0.,0.,1.));
#1231=DIRECTION('ref_axis',(1.,0.,0.));
#1232=DIRECTION('',(0.,1.,0.));
#1233=DIRECTION('',(-1.,0.,0.));
#1234=DIRECTION('',(0.,-1.,0.));
#1235=DIRECTION('',(1.,0.,0.));
#1236=DIRECTION('center_axis',(0.,0.,1.));
#1237=DIRECTION('ref_axis',(1.,0.,0.));
#1238=DIRECTION('',(0.,-1.,0.));
#1239=DIRECTION('',(-1.,0.,0.));
#1240=DIRECTION('',(0.,1.,0.));
#1241=DIRECTION('',(1.,0.,0.));
#1242=DIRECTION('center_axis',(0.,1.,0.));
#1243=DIRECTION('ref_axis',(0.,0.,1.));
#1244=DIRECTION('',(0.,0.,-1.));
#1245=DIRECTION('',(0.,0.,-1.));
#1246=DIRECTION('center_axis',(1.,0.,0.));
#1247=DIRECTION('ref_axis',(0.,0.,-1.));
#1248=DIRECTION('',(0.,0.,-1.));
#1249=DIRECTION('center_axis',(0.,-1.,0.));
#1250=DIRECTION('ref_axis',(0.,0.,-1.));
#1251=DIRECTION('',(0.,0.,-1.));
#1252=DIRECTION('center_axis',(-1.,0.,0.));
#1253=DIRECTION('ref_axis',(0.,0.,1.));
#1254=DIRECTION('center_axis',(0.,0.,1.));
#1255=DIRECTION('ref_axis',(1.,0.,0.));
#1256=DIRECTION('',(0.,1.,0.));
#1257=DIRECTION('',(-1.,0.,0.));
#1258=DIRECTION('',(0.,-1.,0.));
#1259=DIRECTION('',(1.,0.,0.));
#1260=DIRECTION('center_axis',(0.,0.,1.));
#1261=DIRECTION('ref_axis',(1.,0.,0.));
#1262=DIRECTION('',(0.,-1.,0.));
#1263=DIRECTION('',(-1.,0.,0.));
#1264=DIRECTION('',(0.,1.,0.));
#1265=DIRECTION('',(1.,0.,0.));
#1266=DIRECTION('center_axis',(0.,1.,0.));
#1267=DIRECTION('ref_axis',(0.,0.,1.));
#1268=DIRECTION('',(0.,0.,-1.));
#1269=DIRECTION('',(0.,0.,-1.));
#1270=DIRECTION('center_axis',(1.,0.,0.));
#1271=DIRECTION('ref_axis',(0.,0.,-1.));
#1272=DIRECTION('',(0.,0.,-1.));
#1273=DIRECTION('center_axis',(0.,-1.,0.));
#1274=DIRECTION('ref_axis',(0.,0.,-1.));
#1275=DIRECTION('',(0.,0.,-1.));
#1276=DIRECTION('center_axis',(-1.,0.,0.));
#1277=DIRECTION('ref_axis',(0.,0.,1.));
#1278=CARTESIAN_POINT('',(0.,0.,0.));
#1279=CARTESIAN_POINT('Origin',(0.,-1.016,0.25));
#1280=CARTESIAN_POINT('',(0.127,-2.159,0.25));
#1281=CARTESIAN_POINT('',(0.127,0.127,0.25));
#1282=CARTESIAN_POINT('',(0.127,-1.016,0.25));
#1283=CARTESIAN_POINT('',(-0.127,0.127,0.25));
#1284=CARTESIAN_POINT('',(0.,0.127,0.25));
#1285=CARTESIAN_POINT('',(-0.127,-2.159,0.25));
#1286=CARTESIAN_POINT('',(-0.127,-1.016,0.25));
#1287=CARTESIAN_POINT('',(0.,-2.159,0.25));
#1288=CARTESIAN_POINT('Origin',(0.,-1.016,0.));
#1289=CARTESIAN_POINT('',(0.127,0.127,0.));
#1290=CARTESIAN_POINT('',(0.127,-2.159,0.));
#1291=CARTESIAN_POINT('',(0.127,-1.016,0.));
#1292=CARTESIAN_POINT('',(-0.127,-2.159,0.));
#1293=CARTESIAN_POINT('',(0.,-2.159,0.));
#1294=CARTESIAN_POINT('',(-0.127,0.127,0.));
#1295=CARTESIAN_POINT('',(-0.127,-1.016,0.));
#1296=CARTESIAN_POINT('',(0.,0.127,0.));
#1297=CARTESIAN_POINT('Origin',(0.,-2.159,0.125));
#1298=CARTESIAN_POINT('',(-0.127,-2.159,0.125));
#1299=CARTESIAN_POINT('',(0.127,-2.159,0.125));
#1300=CARTESIAN_POINT('Origin',(-0.127,-1.016,0.125));
#1301=CARTESIAN_POINT('',(-0.127,0.127,0.125));
#1302=CARTESIAN_POINT('Origin',(0.,0.127,0.125));
#1303=CARTESIAN_POINT('',(0.127,0.127,0.125));
#1304=CARTESIAN_POINT('Origin',(0.127,-1.016,0.125));
#1305=CARTESIAN_POINT('Origin',(0.,0.,0.85));
#1306=CARTESIAN_POINT('',(0.032,-0.032,0.85));
#1307=CARTESIAN_POINT('',(0.032,0.032,0.85));
#1308=CARTESIAN_POINT('',(0.032,0.,0.85));
#1309=CARTESIAN_POINT('',(-0.032,0.032,0.85));
#1310=CARTESIAN_POINT('',(0.,0.032,0.85));
#1311=CARTESIAN_POINT('',(-0.032,-0.032,0.85));
#1312=CARTESIAN_POINT('',(-0.032,0.,0.85));
#1313=CARTESIAN_POINT('',(0.,-0.032,0.85));
#1314=CARTESIAN_POINT('Origin',(0.,0.,-0.28));
#1315=CARTESIAN_POINT('',(0.032,0.032,-0.28));
#1316=CARTESIAN_POINT('',(0.032,-0.032,-0.28));
#1317=CARTESIAN_POINT('',(0.032,0.,-0.28));
#1318=CARTESIAN_POINT('',(-0.032,-0.032,-0.28));
#1319=CARTESIAN_POINT('',(0.,-0.032,-0.28));
#1320=CARTESIAN_POINT('',(-0.032,0.032,-0.28));
#1321=CARTESIAN_POINT('',(-0.032,0.,-0.28));
#1322=CARTESIAN_POINT('',(0.,0.032,-0.28));
#1323=CARTESIAN_POINT('Origin',(0.,-0.032,0.285));
#1324=CARTESIAN_POINT('',(-0.032,-0.032,0.285));
#1325=CARTESIAN_POINT('',(0.032,-0.032,0.285));
#1326=CARTESIAN_POINT('Origin',(-0.032,0.,0.285));
#1327=CARTESIAN_POINT('',(-0.032,0.032,0.285));
#1328=CARTESIAN_POINT('Origin',(0.,0.032,0.285));
#1329=CARTESIAN_POINT('',(0.032,0.032,0.285));
#1330=CARTESIAN_POINT('Origin',(0.032,0.,0.285));
#1331=CARTESIAN_POINT('Origin',(0.,-0.254,0.85));
#1332=CARTESIAN_POINT('',(0.032,-0.286,0.85));
#1333=CARTESIAN_POINT('',(0.032,-0.222,0.85));
#1334=CARTESIAN_POINT('',(0.032,-0.254,0.85));
#1335=CARTESIAN_POINT('',(-0.032,-0.222,0.85));
#1336=CARTESIAN_POINT('',(0.,-0.222,0.85));
#1337=CARTESIAN_POINT('',(-0.032,-0.286,0.85));
#1338=CARTESIAN_POINT('',(-0.032,-0.254,0.85));
#1339=CARTESIAN_POINT('',(0.,-0.286,0.85));
#1340=CARTESIAN_POINT('Origin',(0.,-0.254,-0.28));
#1341=CARTESIAN_POINT('',(0.032,-0.222,-0.28));
#1342=CARTESIAN_POINT('',(0.032,-0.286,-0.28));
#1343=CARTESIAN_POINT('',(0.032,-0.254,-0.28));
#1344=CARTESIAN_POINT('',(-0.032,-0.286,-0.28));
#1345=CARTESIAN_POINT('',(0.,-0.286,-0.28));
#1346=CARTESIAN_POINT('',(-0.032,-0.222,-0.28));
#1347=CARTESIAN_POINT('',(-0.032,-0.254,-0.28));
#1348=CARTESIAN_POINT('',(0.,-0.222,-0.28));
#1349=CARTESIAN_POINT('Origin',(0.,-0.286,0.285));
#1350=CARTESIAN_POINT('',(-0.032,-0.286,0.285));
#1351=CARTESIAN_POINT('',(0.032,-0.286,0.285));
#1352=CARTESIAN_POINT('Origin',(-0.032,-0.254,0.285));
#1353=CARTESIAN_POINT('',(-0.032,-0.222,0.285));
#1354=CARTESIAN_POINT('Origin',(0.,-0.222,0.285));
#1355=CARTESIAN_POINT('',(0.032,-0.222,0.285));
#1356=CARTESIAN_POINT('Origin',(0.032,-0.254,0.285));
#1357=CARTESIAN_POINT('Origin',(0.,-0.508,0.85));
#1358=CARTESIAN_POINT('',(0.032,-0.54,0.85));
#1359=CARTESIAN_POINT('',(0.032,-0.476,0.85));
#1360=CARTESIAN_POINT('',(0.032,-0.508,0.85));
#1361=CARTESIAN_POINT('',(-0.032,-0.476,0.85));
#1362=CARTESIAN_POINT('',(0.,-0.476,0.85));
#1363=CARTESIAN_POINT('',(-0.032,-0.54,0.85));
#1364=CARTESIAN_POINT('',(-0.032,-0.508,0.85));
#1365=CARTESIAN_POINT('',(0.,-0.54,0.85));
#1366=CARTESIAN_POINT('Origin',(0.,-0.508,-0.28));
#1367=CARTESIAN_POINT('',(0.032,-0.476,-0.28));
#1368=CARTESIAN_POINT('',(0.032,-0.54,-0.28));
#1369=CARTESIAN_POINT('',(0.032,-0.508,-0.28));
#1370=CARTESIAN_POINT('',(-0.032,-0.54,-0.28));
#1371=CARTESIAN_POINT('',(0.,-0.54,-0.28));
#1372=CARTESIAN_POINT('',(-0.032,-0.476,-0.28));
#1373=CARTESIAN_POINT('',(-0.032,-0.508,-0.28));
#1374=CARTESIAN_POINT('',(0.,-0.476,-0.28));
#1375=CARTESIAN_POINT('Origin',(0.,-0.54,0.285));
#1376=CARTESIAN_POINT('',(-0.032,-0.54,0.285));
#1377=CARTESIAN_POINT('',(0.032,-0.54,0.285));
#1378=CARTESIAN_POINT('Origin',(-0.032,-0.508,0.285));
#1379=CARTESIAN_POINT('',(-0.032,-0.476,0.285));
#1380=CARTESIAN_POINT('Origin',(0.,-0.476,0.285));
#1381=CARTESIAN_POINT('',(0.032,-0.476,0.285));
#1382=CARTESIAN_POINT('Origin',(0.032,-0.508,0.285));
#1383=CARTESIAN_POINT('Origin',(0.,-0.762,0.85));
#1384=CARTESIAN_POINT('',(0.032,-0.794,0.85));
#1385=CARTESIAN_POINT('',(0.032,-0.73,0.85));
#1386=CARTESIAN_POINT('',(0.032,-0.762,0.85));
#1387=CARTESIAN_POINT('',(-0.032,-0.73,0.85));
#1388=CARTESIAN_POINT('',(0.,-0.73,0.85));
#1389=CARTESIAN_POINT('',(-0.032,-0.794,0.85));
#1390=CARTESIAN_POINT('',(-0.032,-0.762,0.85));
#1391=CARTESIAN_POINT('',(0.,-0.794,0.85));
#1392=CARTESIAN_POINT('Origin',(0.,-0.762,-0.28));
#1393=CARTESIAN_POINT('',(0.032,-0.73,-0.28));
#1394=CARTESIAN_POINT('',(0.032,-0.794,-0.28));
#1395=CARTESIAN_POINT('',(0.032,-0.762,-0.28));
#1396=CARTESIAN_POINT('',(-0.032,-0.794,-0.28));
#1397=CARTESIAN_POINT('',(0.,-0.794,-0.28));
#1398=CARTESIAN_POINT('',(-0.032,-0.73,-0.28));
#1399=CARTESIAN_POINT('',(-0.032,-0.762,-0.28));
#1400=CARTESIAN_POINT('',(0.,-0.73,-0.28));
#1401=CARTESIAN_POINT('Origin',(0.,-0.794,0.285));
#1402=CARTESIAN_POINT('',(-0.032,-0.794,0.285));
#1403=CARTESIAN_POINT('',(0.032,-0.794,0.285));
#1404=CARTESIAN_POINT('Origin',(-0.032,-0.762,0.285));
#1405=CARTESIAN_POINT('',(-0.032,-0.73,0.285));
#1406=CARTESIAN_POINT('Origin',(0.,-0.73,0.285));
#1407=CARTESIAN_POINT('',(0.032,-0.73,0.285));
#1408=CARTESIAN_POINT('Origin',(0.032,-0.762,0.285));
#1409=CARTESIAN_POINT('Origin',(0.,-1.016,0.85));
#1410=CARTESIAN_POINT('',(0.032,-1.048,0.85));
#1411=CARTESIAN_POINT('',(0.032,-0.984,0.85));
#1412=CARTESIAN_POINT('',(0.032,-1.016,0.85));
#1413=CARTESIAN_POINT('',(-0.032,-0.984,0.85));
#1414=CARTESIAN_POINT('',(0.,-0.984,0.85));
#1415=CARTESIAN_POINT('',(-0.032,-1.048,0.85));
#1416=CARTESIAN_POINT('',(-0.032,-1.016,0.85));
#1417=CARTESIAN_POINT('',(0.,-1.048,0.85));
#1418=CARTESIAN_POINT('Origin',(0.,-1.016,-0.28));
#1419=CARTESIAN_POINT('',(0.032,-0.984,-0.28));
#1420=CARTESIAN_POINT('',(0.032,-1.048,-0.28));
#1421=CARTESIAN_POINT('',(0.032,-1.016,-0.28));
#1422=CARTESIAN_POINT('',(-0.032,-1.048,-0.28));
#1423=CARTESIAN_POINT('',(0.,-1.048,-0.28));
#1424=CARTESIAN_POINT('',(-0.032,-0.984,-0.28));
#1425=CARTESIAN_POINT('',(-0.032,-1.016,-0.28));
#1426=CARTESIAN_POINT('',(0.,-0.984,-0.28));
#1427=CARTESIAN_POINT('Origin',(0.,-1.048,0.285));
#1428=CARTESIAN_POINT('',(-0.032,-1.048,0.285));
#1429=CARTESIAN_POINT('',(0.032,-1.048,0.285));
#1430=CARTESIAN_POINT('Origin',(-0.032,-1.016,0.285));
#1431=CARTESIAN_POINT('',(-0.032,-0.984,0.285));
#1432=CARTESIAN_POINT('Origin',(0.,-0.984,0.285));
#1433=CARTESIAN_POINT('',(0.032,-0.984,0.285));
#1434=CARTESIAN_POINT('Origin',(0.032,-1.016,0.285));
#1435=CARTESIAN_POINT('Origin',(0.,-1.27,0.85));
#1436=CARTESIAN_POINT('',(0.032,-1.302,0.85));
#1437=CARTESIAN_POINT('',(0.032,-1.238,0.85));
#1438=CARTESIAN_POINT('',(0.032,-1.27,0.85));
#1439=CARTESIAN_POINT('',(-0.032,-1.238,0.85));
#1440=CARTESIAN_POINT('',(0.,-1.238,0.85));
#1441=CARTESIAN_POINT('',(-0.032,-1.302,0.85));
#1442=CARTESIAN_POINT('',(-0.032,-1.27,0.85));
#1443=CARTESIAN_POINT('',(0.,-1.302,0.85));
#1444=CARTESIAN_POINT('Origin',(0.,-1.27,-0.28));
#1445=CARTESIAN_POINT('',(0.032,-1.238,-0.28));
#1446=CARTESIAN_POINT('',(0.032,-1.302,-0.28));
#1447=CARTESIAN_POINT('',(0.032,-1.27,-0.28));
#1448=CARTESIAN_POINT('',(-0.032,-1.302,-0.28));
#1449=CARTESIAN_POINT('',(0.,-1.302,-0.28));
#1450=CARTESIAN_POINT('',(-0.032,-1.238,-0.28));
#1451=CARTESIAN_POINT('',(-0.032,-1.27,-0.28));
#1452=CARTESIAN_POINT('',(0.,-1.238,-0.28));
#1453=CARTESIAN_POINT('Origin',(0.,-1.302,0.285));
#1454=CARTESIAN_POINT('',(-0.032,-1.302,0.285));
#1455=CARTESIAN_POINT('',(0.032,-1.302,0.285));
#1456=CARTESIAN_POINT('Origin',(-0.032,-1.27,0.285));
#1457=CARTESIAN_POINT('',(-0.032,-1.238,0.285));
#1458=CARTESIAN_POINT('Origin',(0.,-1.238,0.285));
#1459=CARTESIAN_POINT('',(0.032,-1.238,0.285));
#1460=CARTESIAN_POINT('Origin',(0.032,-1.27,0.285));
#1461=CARTESIAN_POINT('Origin',(0.,-1.524,0.85));
#1462=CARTESIAN_POINT('',(0.032,-1.556,0.85));
#1463=CARTESIAN_POINT('',(0.032,-1.492,0.85));
#1464=CARTESIAN_POINT('',(0.032,-1.524,0.85));
#1465=CARTESIAN_POINT('',(-0.032,-1.492,0.85));
#1466=CARTESIAN_POINT('',(0.,-1.492,0.85));
#1467=CARTESIAN_POINT('',(-0.032,-1.556,0.85));
#1468=CARTESIAN_POINT('',(-0.032,-1.524,0.85));
#1469=CARTESIAN_POINT('',(0.,-1.556,0.85));
#1470=CARTESIAN_POINT('Origin',(0.,-1.524,-0.28));
#1471=CARTESIAN_POINT('',(0.032,-1.492,-0.28));
#1472=CARTESIAN_POINT('',(0.032,-1.556,-0.28));
#1473=CARTESIAN_POINT('',(0.032,-1.524,-0.28));
#1474=CARTESIAN_POINT('',(-0.032,-1.556,-0.28));
#1475=CARTESIAN_POINT('',(0.,-1.556,-0.28));
#1476=CARTESIAN_POINT('',(-0.032,-1.492,-0.28));
#1477=CARTESIAN_POINT('',(-0.032,-1.524,-0.28));
#1478=CARTESIAN_POINT('',(0.,-1.492,-0.28));
#1479=CARTESIAN_POINT('Origin',(0.,-1.556,0.285));
#1480=CARTESIAN_POINT('',(-0.032,-1.556,0.285));
#1481=CARTESIAN_POINT('',(0.032,-1.556,0.285));
#1482=CARTESIAN_POINT('Origin',(-0.032,-1.524,0.285));
#1483=CARTESIAN_POINT('',(-0.032,-1.492,0.285));
#1484=CARTESIAN_POINT('Origin',(0.,-1.492,0.285));
#1485=CARTESIAN_POINT('',(0.032,-1.492,0.285));
#1486=CARTESIAN_POINT('Origin',(0.032,-1.524,0.285));
#1487=CARTESIAN_POINT('Origin',(0.,-1.778,0.85));
#1488=CARTESIAN_POINT('',(0.032,-1.81,0.85));
#1489=CARTESIAN_POINT('',(0.032,-1.746,0.85));
#1490=CARTESIAN_POINT('',(0.032,-1.778,0.85));
#1491=CARTESIAN_POINT('',(-0.032,-1.746,0.85));
#1492=CARTESIAN_POINT('',(0.,-1.746,0.85));
#1493=CARTESIAN_POINT('',(-0.032,-1.81,0.85));
#1494=CARTESIAN_POINT('',(-0.032,-1.778,0.85));
#1495=CARTESIAN_POINT('',(0.,-1.81,0.85));
#1496=CARTESIAN_POINT('Origin',(0.,-1.778,-0.28));
#1497=CARTESIAN_POINT('',(0.032,-1.746,-0.28));
#1498=CARTESIAN_POINT('',(0.032,-1.81,-0.28));
#1499=CARTESIAN_POINT('',(0.032,-1.778,-0.28));
#1500=CARTESIAN_POINT('',(-0.032,-1.81,-0.28));
#1501=CARTESIAN_POINT('',(0.,-1.81,-0.28));
#1502=CARTESIAN_POINT('',(-0.032,-1.746,-0.28));
#1503=CARTESIAN_POINT('',(-0.032,-1.778,-0.28));
#1504=CARTESIAN_POINT('',(0.,-1.746,-0.28));
#1505=CARTESIAN_POINT('Origin',(0.,-1.81,0.285));
#1506=CARTESIAN_POINT('',(-0.032,-1.81,0.285));
#1507=CARTESIAN_POINT('',(0.032,-1.81,0.285));
#1508=CARTESIAN_POINT('Origin',(-0.032,-1.778,0.285));
#1509=CARTESIAN_POINT('',(-0.032,-1.746,0.285));
#1510=CARTESIAN_POINT('Origin',(0.,-1.746,0.285));
#1511=CARTESIAN_POINT('',(0.032,-1.746,0.285));
#1512=CARTESIAN_POINT('Origin',(0.032,-1.778,0.285));
#1513=CARTESIAN_POINT('Origin',(0.,-2.032,0.85));
#1514=CARTESIAN_POINT('',(0.032,-2.064,0.85));
#1515=CARTESIAN_POINT('',(0.032,-2.,0.85));
#1516=CARTESIAN_POINT('',(0.032,-2.032,0.85));
#1517=CARTESIAN_POINT('',(-0.032,-2.,0.85));
#1518=CARTESIAN_POINT('',(0.,-2.,0.85));
#1519=CARTESIAN_POINT('',(-0.032,-2.064,0.85));
#1520=CARTESIAN_POINT('',(-0.032,-2.032,0.85));
#1521=CARTESIAN_POINT('',(0.,-2.064,0.85));
#1522=CARTESIAN_POINT('Origin',(0.,-2.032,-0.28));
#1523=CARTESIAN_POINT('',(0.032,-2.,-0.28));
#1524=CARTESIAN_POINT('',(0.032,-2.064,-0.28));
#1525=CARTESIAN_POINT('',(0.032,-2.032,-0.28));
#1526=CARTESIAN_POINT('',(-0.032,-2.064,-0.28));
#1527=CARTESIAN_POINT('',(0.,-2.064,-0.28));
#1528=CARTESIAN_POINT('',(-0.032,-2.,-0.28));
#1529=CARTESIAN_POINT('',(-0.032,-2.032,-0.28));
#1530=CARTESIAN_POINT('',(0.,-2.,-0.28));
#1531=CARTESIAN_POINT('Origin',(0.,-2.064,0.285));
#1532=CARTESIAN_POINT('',(-0.032,-2.064,0.285));
#1533=CARTESIAN_POINT('',(0.032,-2.064,0.285));
#1534=CARTESIAN_POINT('Origin',(-0.032,-2.032,0.285));
#1535=CARTESIAN_POINT('',(-0.032,-2.,0.285));
#1536=CARTESIAN_POINT('Origin',(0.,-2.,0.285));
#1537=CARTESIAN_POINT('',(0.032,-2.,0.285));
#1538=CARTESIAN_POINT('Origin',(0.032,-2.032,0.285));
#1539=UNCERTAINTY_MEASURE_WITH_UNIT(LENGTH_MEASURE(0.001),#1543,
'DISTANCE_ACCURACY_VALUE',
'Maximum model space distance between geometric entities at asserted c
onnectivities');
#1540=UNCERTAINTY_MEASURE_WITH_UNIT(LENGTH_MEASURE(0.001),#1543,
'DISTANCE_ACCURACY_VALUE',
'Maximum model space distance between geometric entities at asserted c
onnectivities');
#1541=(
GEOMETRIC_REPRESENTATION_CONTEXT(3)
GLOBAL_UNCERTAINTY_ASSIGNED_CONTEXT((#1539))
GLOBAL_UNIT_ASSIGNED_CONTEXT((#1543,#1545,#1546))
REPRESENTATION_CONTEXT('','3D')
);
#1542=(
GEOMETRIC_REPRESENTATION_CONTEXT(3)
GLOBAL_UNCERTAINTY_ASSIGNED_CONTEXT((#1540))
GLOBAL_UNIT_ASSIGNED_CONTEXT((#1543,#1545,#1546))
REPRESENTATION_CONTEXT('','3D')
);
#1543=(
LENGTH_UNIT()
NAMED_UNIT(*)
SI_UNIT(.CENTI.,.METRE.)
);
#1544=(
LENGTH_UNIT()
NAMED_UNIT(*)
SI_UNIT($,.METRE.)
);
#1545=(
NAMED_UNIT(*)
PLANE_ANGLE_UNIT()
SI_UNIT($,.RADIAN.)
);
#1546=(
NAMED_UNIT(*)
SI_UNIT($,.STERADIAN.)
SOLID_ANGLE_UNIT()
);
#1547=SHAPE_DEFINITION_REPRESENTATION(#1548,#1549);
#1548=PRODUCT_DEFINITION_SHAPE('',$,#1551);
#1549=SHAPE_REPRESENTATION('',(#975),#1541);
#1550=PRODUCT_DEFINITION_CONTEXT('part definition',#1555,'design');
#1551=PRODUCT_DEFINITION('2026-10-02-22-15-11-657','RevG_model_J4',#1552,
#1550);
#1552=PRODUCT_DEFINITION_FORMATION('',$,#1557);
#1553=PRODUCT_RELATED_PRODUCT_CATEGORY('RevG_model_J4','RevG_model_J4',
(#1557));
#1554=APPLICATION_PROTOCOL_DEFINITION('international standard',
'automotive_design',2009,#1555);
#1555=APPLICATION_CONTEXT(
'Core Data for Automotive Mechanical Design Process');
#1556=PRODUCT_CONTEXT('part definition',#1555,'mechanical');
#1557=PRODUCT('2026-10-02-22-15-11-657','RevG_model_J4',$,(#1556));
#1558=PRESENTATION_STYLE_ASSIGNMENT((#1561));
#1559=PRESENTATION_STYLE_ASSIGNMENT((#1562));
#1560=PRESENTATION_STYLE_ASSIGNMENT((#1563));
#1561=SURFACE_STYLE_USAGE(.BOTH.,#1564);
#1562=SURFACE_STYLE_USAGE(.BOTH.,#1565);
#1563=SURFACE_STYLE_USAGE(.BOTH.,#1566);
#1564=SURFACE_SIDE_STYLE('',(#1567));
#1565=SURFACE_SIDE_STYLE('',(#1568));
#1566=SURFACE_SIDE_STYLE('',(#1569));
#1567=SURFACE_STYLE_FILL_AREA(#1570);
#1568=SURFACE_STYLE_FILL_AREA(#1571);
#1569=SURFACE_STYLE_FILL_AREA(#1572);
#1570=FILL_AREA_STYLE('Steel - Satin',(#1573));
#1571=FILL_AREA_STYLE('Opaque(10,10,10)',(#1574));
#1572=FILL_AREA_STYLE('Opaque(228,180,12)',(#1575));
#1573=FILL_AREA_STYLE_COLOUR('Steel - Satin',#1576);
#1574=FILL_AREA_STYLE_COLOUR('Opaque(10,10,10)',#1577);
#1575=FILL_AREA_STYLE_COLOUR('Opaque(228,180,12)',#1578);
#1576=COLOUR_RGB('Steel - Satin',0.627450980392157,0.627450980392157,0.627450980392157);
#1577=COLOUR_RGB('Opaque(10,10,10)',0.0392156862745098,0.0392156862745098,
0.0392156862745098);
#1578=COLOUR_RGB('Opaque(228,180,12)',0.894117647058824,0.705882352941177,
0.0470588235294118);
ENDSEC;
END-ISO-10303-21;
