ISO-10303-21;
HEADER;
/* Generated by software containing ST-Developer
 * from STEP Tools, Inc. (www.steptools.com) 
 */

FILE_DESCRIPTION(
/* description */ (''),
/* implementation_level */ '2;1');

FILE_NAME(
/* name */ 'JP1.step',
/* time_stamp */ '2026-10-02T22:15:02+08:00',
/* author */ (''),
/* organization */ (''),
/* preprocessor_version */ 'ST-DEVELOPER v20.2',
/* originating_system */ 'Autodesk Translation Framework v15.15.0.0',
/* authorisation */ '');

FILE_SCHEMA (('AUTOMOTIVE_DESIGN { 1 0 10303 214 3 1 1 }'));
ENDSEC;

DATA;
#10=MECHANICAL_DESIGN_GEOMETRIC_PRESENTATION_REPRESENTATION('',(#13,#14,
#15,#16),#636);
#11=SHAPE_REPRESENTATION_RELATIONSHIP('SRR','None',#643,#12);
#12=ADVANCED_BREP_SHAPE_REPRESENTATION('',(#17,#18,#19,#20),#635);
#13=STYLED_ITEM('',(#653),#17);
#14=STYLED_ITEM('',(#654),#18);
#15=STYLED_ITEM('',(#654),#19);
#16=STYLED_ITEM('',(#653),#20);
#17=MANIFOLD_SOLID_BREP('Header insulator',#389);
#18=MANIFOLD_SOLID_BREP('Header pin 1',#390);
#19=MANIFOLD_SOLID_BREP('Header pin 2',#391);
#20=MANIFOLD_SOLID_BREP('Removable jumper cap',#392);
#21=FACE_OUTER_BOUND('',#45,.T.);
#22=FACE_OUTER_BOUND('',#46,.T.);
#23=FACE_OUTER_BOUND('',#47,.T.);
#24=FACE_OUTER_BOUND('',#48,.T.);
#25=FACE_OUTER_BOUND('',#49,.T.);
#26=FACE_OUTER_BOUND('',#50,.T.);
#27=FACE_OUTER_BOUND('',#51,.T.);
#28=FACE_OUTER_BOUND('',#52,.T.);
#29=FACE_OUTER_BOUND('',#53,.T.);
#30=FACE_OUTER_BOUND('',#54,.T.);
#31=FACE_OUTER_BOUND('',#55,.T.);
#32=FACE_OUTER_BOUND('',#56,.T.);
#33=FACE_OUTER_BOUND('',#57,.T.);
#34=FACE_OUTER_BOUND('',#58,.T.);
#35=FACE_OUTER_BOUND('',#59,.T.);
#36=FACE_OUTER_BOUND('',#60,.T.);
#37=FACE_OUTER_BOUND('',#61,.T.);
#38=FACE_OUTER_BOUND('',#62,.T.);
#39=FACE_OUTER_BOUND('',#63,.T.);
#40=FACE_OUTER_BOUND('',#64,.T.);
#41=FACE_OUTER_BOUND('',#65,.T.);
#42=FACE_OUTER_BOUND('',#66,.T.);
#43=FACE_OUTER_BOUND('',#67,.T.);
#44=FACE_OUTER_BOUND('',#68,.T.);
#45=EDGE_LOOP('',(#245,#246,#247,#248));
#46=EDGE_LOOP('',(#249,#250,#251,#252));
#47=EDGE_LOOP('',(#253,#254,#255,#256));
#48=EDGE_LOOP('',(#257,#258,#259,#260));
#49=EDGE_LOOP('',(#261,#262,#263,#264));
#50=EDGE_LOOP('',(#265,#266,#267,#268));
#51=EDGE_LOOP('',(#269,#270,#271,#272));
#52=EDGE_LOOP('',(#273,#274,#275,#276));
#53=EDGE_LOOP('',(#277,#278,#279,#280));
#54=EDGE_LOOP('',(#281,#282,#283,#284));
#55=EDGE_LOOP('',(#285,#286,#287,#288));
#56=EDGE_LOOP('',(#289,#290,#291,#292));
#57=EDGE_LOOP('',(#293,#294,#295,#296));
#58=EDGE_LOOP('',(#297,#298,#299,#300));
#59=EDGE_LOOP('',(#301,#302,#303,#304));
#60=EDGE_LOOP('',(#305,#306,#307,#308));
#61=EDGE_LOOP('',(#309,#310,#311,#312));
#62=EDGE_LOOP('',(#313,#314,#315,#316));
#63=EDGE_LOOP('',(#317,#318,#319,#320));
#64=EDGE_LOOP('',(#321,#322,#323,#324));
#65=EDGE_LOOP('',(#325,#326,#327,#328));
#66=EDGE_LOOP('',(#329,#330,#331,#332));
#67=EDGE_LOOP('',(#333,#334,#335,#336));
#68=EDGE_LOOP('',(#337,#338,#339,#340));
#69=LINE('',#532,#117);
#70=LINE('',#534,#118);
#71=LINE('',#536,#119);
#72=LINE('',#537,#120);
#73=LINE('',#541,#121);
#74=LINE('',#543,#122);
#75=LINE('',#545,#123);
#76=LINE('',#546,#124);
#77=LINE('',#548,#125);
#78=LINE('',#549,#126);
#79=LINE('',#551,#127);
#80=LINE('',#553,#128);
#81=LINE('',#558,#129);
#82=LINE('',#560,#130);
#83=LINE('',#562,#131);
#84=LINE('',#563,#132);
#85=LINE('',#567,#133);
#86=LINE('',#569,#134);
#87=LINE('',#571,#135);
#88=LINE('',#572,#136);
#89=LINE('',#574,#137);
#90=LINE('',#575,#138);
#91=LINE('',#577,#139);
#92=LINE('',#579,#140);
#93=LINE('',#584,#141);
#94=LINE('',#586,#142);
#95=LINE('',#588,#143);
#96=LINE('',#589,#144);
#97=LINE('',#593,#145);
#98=LINE('',#595,#146);
#99=LINE('',#597,#147);
#100=LINE('',#598,#148);
#101=LINE('',#600,#149);
#102=LINE('',#601,#150);
#103=LINE('',#603,#151);
#104=LINE('',#605,#152);
#105=LINE('',#610,#153);
#106=LINE('',#612,#154);
#107=LINE('',#614,#155);
#108=LINE('',#615,#156);
#109=LINE('',#619,#157);
#110=LINE('',#621,#158);
#111=LINE('',#623,#159);
#112=LINE('',#624,#160);
#113=LINE('',#626,#161);
#114=LINE('',#627,#162);
#115=LINE('',#629,#163);
#116=LINE('',#631,#164);
#117=VECTOR('',#434,1.);
#118=VECTOR('',#435,1.);
#119=VECTOR('',#436,1.);
#120=VECTOR('',#437,1.);
#121=VECTOR('',#440,1.);
#122=VECTOR('',#441,1.);
#123=VECTOR('',#442,1.);
#124=VECTOR('',#443,1.);
#125=VECTOR('',#446,1.);
#126=VECTOR('',#447,1.);
#127=VECTOR('',#450,1.);
#128=VECTOR('',#453,1.);
#129=VECTOR('',#458,1.);
#130=VECTOR('',#459,1.);
#131=VECTOR('',#460,1.);
#132=VECTOR('',#461,1.);
#133=VECTOR('',#464,1.);
#134=VECTOR('',#465,1.);
#135=VECTOR('',#466,1.);
#136=VECTOR('',#467,1.);
#137=VECTOR('',#470,1.);
#138=VECTOR('',#471,1.);
#139=VECTOR('',#474,1.);
#140=VECTOR('',#477,1.);
#141=VECTOR('',#482,1.);
#142=VECTOR('',#483,1.);
#143=VECTOR('',#484,1.);
#144=VECTOR('',#485,1.);
#145=VECTOR('',#488,1.);
#146=VECTOR('',#489,1.);
#147=VECTOR('',#490,1.);
#148=VECTOR('',#491,1.);
#149=VECTOR('',#494,1.);
#150=VECTOR('',#495,1.);
#151=VECTOR('',#498,1.);
#152=VECTOR('',#501,1.);
#153=VECTOR('',#506,1.);
#154=VECTOR('',#507,1.);
#155=VECTOR('',#508,1.);
#156=VECTOR('',#509,1.);
#157=VECTOR('',#512,1.);
#158=VECTOR('',#513,1.);
#159=VECTOR('',#514,1.);
#160=VECTOR('',#515,1.);
#161=VECTOR('',#518,1.);
#162=VECTOR('',#519,1.);
#163=VECTOR('',#522,1.);
#164=VECTOR('',#525,1.);
#165=VERTEX_POINT('',#530);
#166=VERTEX_POINT('',#531);
#167=VERTEX_POINT('',#533);
#168=VERTEX_POINT('',#535);
#169=VERTEX_POINT('',#539);
#170=VERTEX_POINT('',#540);
#171=VERTEX_POINT('',#542);
#172=VERTEX_POINT('',#544);
#173=VERTEX_POINT('',#556);
#174=VERTEX_POINT('',#557);
#175=VERTEX_POINT('',#559);
#176=VERTEX_POINT('',#561);
#177=VERTEX_POINT('',#565);
#178=VERTEX_POINT('',#566);
#179=VERTEX_POINT('',#568);
#180=VERTEX_POINT('',#570);
#181=VERTEX_POINT('',#582);
#182=VERTEX_POINT('',#583);
#183=VERTEX_POINT('',#585);
#184=VERTEX_POINT('',#587);
#185=VERTEX_POINT('',#591);
#186=VERTEX_POINT('',#592);
#187=VERTEX_POINT('',#594);
#188=VERTEX_POINT('',#596);
#189=VERTEX_POINT('',#608);
#190=VERTEX_POINT('',#609);
#191=VERTEX_POINT('',#611);
#192=VERTEX_POINT('',#613);
#193=VERTEX_POINT('',#617);
#194=VERTEX_POINT('',#618);
#195=VERTEX_POINT('',#620);
#196=VERTEX_POINT('',#622);
#197=EDGE_CURVE('',#165,#166,#69,.T.);
#198=EDGE_CURVE('',#166,#167,#70,.T.);
#199=EDGE_CURVE('',#167,#168,#71,.T.);
#200=EDGE_CURVE('',#168,#165,#72,.T.);
#201=EDGE_CURVE('',#169,#170,#73,.T.);
#202=EDGE_CURVE('',#170,#171,#74,.T.);
#203=EDGE_CURVE('',#171,#172,#75,.T.);
#204=EDGE_CURVE('',#172,#169,#76,.T.);
#205=EDGE_CURVE('',#168,#171,#77,.T.);
#206=EDGE_CURVE('',#165,#170,#78,.T.);
#207=EDGE_CURVE('',#167,#172,#79,.T.);
#208=EDGE_CURVE('',#166,#169,#80,.T.);
#209=EDGE_CURVE('',#173,#174,#81,.T.);
#210=EDGE_CURVE('',#174,#175,#82,.T.);
#211=EDGE_CURVE('',#175,#176,#83,.T.);
#212=EDGE_CURVE('',#176,#173,#84,.T.);
#213=EDGE_CURVE('',#177,#178,#85,.T.);
#214=EDGE_CURVE('',#178,#179,#86,.T.);
#215=EDGE_CURVE('',#179,#180,#87,.T.);
#216=EDGE_CURVE('',#180,#177,#88,.T.);
#217=EDGE_CURVE('',#176,#179,#89,.T.);
#218=EDGE_CURVE('',#173,#178,#90,.T.);
#219=EDGE_CURVE('',#175,#180,#91,.T.);
#220=EDGE_CURVE('',#174,#177,#92,.T.);
#221=EDGE_CURVE('',#181,#182,#93,.T.);
#222=EDGE_CURVE('',#182,#183,#94,.T.);
#223=EDGE_CURVE('',#183,#184,#95,.T.);
#224=EDGE_CURVE('',#184,#181,#96,.T.);
#225=EDGE_CURVE('',#185,#186,#97,.T.);
#226=EDGE_CURVE('',#186,#187,#98,.T.);
#227=EDGE_CURVE('',#187,#188,#99,.T.);
#228=EDGE_CURVE('',#188,#185,#100,.T.);
#229=EDGE_CURVE('',#184,#187,#101,.T.);
#230=EDGE_CURVE('',#181,#186,#102,.T.);
#231=EDGE_CURVE('',#183,#188,#103,.T.);
#232=EDGE_CURVE('',#182,#185,#104,.T.);
#233=EDGE_CURVE('',#189,#190,#105,.T.);
#234=EDGE_CURVE('',#190,#191,#106,.T.);
#235=EDGE_CURVE('',#191,#192,#107,.T.);
#236=EDGE_CURVE('',#192,#189,#108,.T.);
#237=EDGE_CURVE('',#193,#194,#109,.T.);
#238=EDGE_CURVE('',#194,#195,#110,.T.);
#239=EDGE_CURVE('',#195,#196,#111,.T.);
#240=EDGE_CURVE('',#196,#193,#112,.T.);
#241=EDGE_CURVE('',#192,#195,#113,.T.);
#242=EDGE_CURVE('',#189,#194,#114,.T.);
#243=EDGE_CURVE('',#191,#196,#115,.T.);
#244=EDGE_CURVE('',#190,#193,#116,.T.);
#245=ORIENTED_EDGE('',*,*,#197,.T.);
#246=ORIENTED_EDGE('',*,*,#198,.T.);
#247=ORIENTED_EDGE('',*,*,#199,.T.);
#248=ORIENTED_EDGE('',*,*,#200,.T.);
#249=ORIENTED_EDGE('',*,*,#201,.T.);
#250=ORIENTED_EDGE('',*,*,#202,.T.);
#251=ORIENTED_EDGE('',*,*,#203,.T.);
#252=ORIENTED_EDGE('',*,*,#204,.T.);
#253=ORIENTED_EDGE('',*,*,#205,.T.);
#254=ORIENTED_EDGE('',*,*,#202,.F.);
#255=ORIENTED_EDGE('',*,*,#206,.F.);
#256=ORIENTED_EDGE('',*,*,#200,.F.);
#257=ORIENTED_EDGE('',*,*,#207,.T.);
#258=ORIENTED_EDGE('',*,*,#203,.F.);
#259=ORIENTED_EDGE('',*,*,#205,.F.);
#260=ORIENTED_EDGE('',*,*,#199,.F.);
#261=ORIENTED_EDGE('',*,*,#208,.T.);
#262=ORIENTED_EDGE('',*,*,#204,.F.);
#263=ORIENTED_EDGE('',*,*,#207,.F.);
#264=ORIENTED_EDGE('',*,*,#198,.F.);
#265=ORIENTED_EDGE('',*,*,#206,.T.);
#266=ORIENTED_EDGE('',*,*,#201,.F.);
#267=ORIENTED_EDGE('',*,*,#208,.F.);
#268=ORIENTED_EDGE('',*,*,#197,.F.);
#269=ORIENTED_EDGE('',*,*,#209,.T.);
#270=ORIENTED_EDGE('',*,*,#210,.T.);
#271=ORIENTED_EDGE('',*,*,#211,.T.);
#272=ORIENTED_EDGE('',*,*,#212,.T.);
#273=ORIENTED_EDGE('',*,*,#213,.T.);
#274=ORIENTED_EDGE('',*,*,#214,.T.);
#275=ORIENTED_EDGE('',*,*,#215,.T.);
#276=ORIENTED_EDGE('',*,*,#216,.T.);
#277=ORIENTED_EDGE('',*,*,#217,.T.);
#278=ORIENTED_EDGE('',*,*,#214,.F.);
#279=ORIENTED_EDGE('',*,*,#218,.F.);
#280=ORIENTED_EDGE('',*,*,#212,.F.);
#281=ORIENTED_EDGE('',*,*,#219,.T.);
#282=ORIENTED_EDGE('',*,*,#215,.F.);
#283=ORIENTED_EDGE('',*,*,#217,.F.);
#284=ORIENTED_EDGE('',*,*,#211,.F.);
#285=ORIENTED_EDGE('',*,*,#220,.T.);
#286=ORIENTED_EDGE('',*,*,#216,.F.);
#287=ORIENTED_EDGE('',*,*,#219,.F.);
#288=ORIENTED_EDGE('',*,*,#210,.F.);
#289=ORIENTED_EDGE('',*,*,#218,.T.);
#290=ORIENTED_EDGE('',*,*,#213,.F.);
#291=ORIENTED_EDGE('',*,*,#220,.F.);
#292=ORIENTED_EDGE('',*,*,#209,.F.);
#293=ORIENTED_EDGE('',*,*,#221,.T.);
#294=ORIENTED_EDGE('',*,*,#222,.T.);
#295=ORIENTED_EDGE('',*,*,#223,.T.);
#296=ORIENTED_EDGE('',*,*,#224,.T.);
#297=ORIENTED_EDGE('',*,*,#225,.T.);
#298=ORIENTED_EDGE('',*,*,#226,.T.);
#299=ORIENTED_EDGE('',*,*,#227,.T.);
#300=ORIENTED_EDGE('',*,*,#228,.T.);
#301=ORIENTED_EDGE('',*,*,#229,.T.);
#302=ORIENTED_EDGE('',*,*,#226,.F.);
#303=ORIENTED_EDGE('',*,*,#230,.F.);
#304=ORIENTED_EDGE('',*,*,#224,.F.);
#305=ORIENTED_EDGE('',*,*,#231,.T.);
#306=ORIENTED_EDGE('',*,*,#227,.F.);
#307=ORIENTED_EDGE('',*,*,#229,.F.);
#308=ORIENTED_EDGE('',*,*,#223,.F.);
#309=ORIENTED_EDGE('',*,*,#232,.T.);
#310=ORIENTED_EDGE('',*,*,#228,.F.);
#311=ORIENTED_EDGE('',*,*,#231,.F.);
#312=ORIENTED_EDGE('',*,*,#222,.F.);
#313=ORIENTED_EDGE('',*,*,#230,.T.);
#314=ORIENTED_EDGE('',*,*,#225,.F.);
#315=ORIENTED_EDGE('',*,*,#232,.F.);
#316=ORIENTED_EDGE('',*,*,#221,.F.);
#317=ORIENTED_EDGE('',*,*,#233,.T.);
#318=ORIENTED_EDGE('',*,*,#234,.T.);
#319=ORIENTED_EDGE('',*,*,#235,.T.);
#320=ORIENTED_EDGE('',*,*,#236,.T.);
#321=ORIENTED_EDGE('',*,*,#237,.T.);
#322=ORIENTED_EDGE('',*,*,#238,.T.);
#323=ORIENTED_EDGE('',*,*,#239,.T.);
#324=ORIENTED_EDGE('',*,*,#240,.T.);
#325=ORIENTED_EDGE('',*,*,#241,.T.);
#326=ORIENTED_EDGE('',*,*,#238,.F.);
#327=ORIENTED_EDGE('',*,*,#242,.F.);
#328=ORIENTED_EDGE('',*,*,#236,.F.);
#329=ORIENTED_EDGE('',*,*,#243,.T.);
#330=ORIENTED_EDGE('',*,*,#239,.F.);
#331=ORIENTED_EDGE('',*,*,#241,.F.);
#332=ORIENTED_EDGE('',*,*,#235,.F.);
#333=ORIENTED_EDGE('',*,*,#244,.T.);
#334=ORIENTED_EDGE('',*,*,#240,.F.);
#335=ORIENTED_EDGE('',*,*,#243,.F.);
#336=ORIENTED_EDGE('',*,*,#234,.F.);
#337=ORIENTED_EDGE('',*,*,#242,.T.);
#338=ORIENTED_EDGE('',*,*,#237,.F.);
#339=ORIENTED_EDGE('',*,*,#244,.F.);
#340=ORIENTED_EDGE('',*,*,#233,.F.);
#341=PLANE('',#406);
#342=PLANE('',#407);
#343=PLANE('',#408);
#344=PLANE('',#409);
#345=PLANE('',#410);
#346=PLANE('',#411);
#347=PLANE('',#412);
#348=PLANE('',#413);
#349=PLANE('',#414);
#350=PLANE('',#415);
#351=PLANE('',#416);
#352=PLANE('',#417);
#353=PLANE('',#418);
#354=PLANE('',#419);
#355=PLANE('',#420);
#356=PLANE('',#421);
#357=PLANE('',#422);
#358=PLANE('',#423);
#359=PLANE('',#424);
#360=PLANE('',#425);
#361=PLANE('',#426);
#362=PLANE('',#427);
#363=PLANE('',#428);
#364=PLANE('',#429);
#365=ADVANCED_FACE('',(#21),#341,.T.);
#366=ADVANCED_FACE('',(#22),#342,.F.);
#367=ADVANCED_FACE('',(#23),#343,.F.);
#368=ADVANCED_FACE('',(#24),#344,.F.);
#369=ADVANCED_FACE('',(#25),#345,.F.);
#370=ADVANCED_FACE('',(#26),#346,.F.);
#371=ADVANCED_FACE('',(#27),#347,.T.);
#372=ADVANCED_FACE('',(#28),#348,.F.);
#373=ADVANCED_FACE('',(#29),#349,.F.);
#374=ADVANCED_FACE('',(#30),#350,.F.);
#375=ADVANCED_FACE('',(#31),#351,.F.);
#376=ADVANCED_FACE('',(#32),#352,.F.);
#377=ADVANCED_FACE('',(#33),#353,.T.);
#378=ADVANCED_FACE('',(#34),#354,.F.);
#379=ADVANCED_FACE('',(#35),#355,.F.);
#380=ADVANCED_FACE('',(#36),#356,.F.);
#381=ADVANCED_FACE('',(#37),#357,.F.);
#382=ADVANCED_FACE('',(#38),#358,.F.);
#383=ADVANCED_FACE('',(#39),#359,.T.);
#384=ADVANCED_FACE('',(#40),#360,.F.);
#385=ADVANCED_FACE('',(#41),#361,.F.);
#386=ADVANCED_FACE('',(#42),#362,.F.);
#387=ADVANCED_FACE('',(#43),#363,.F.);
#388=ADVANCED_FACE('',(#44),#364,.F.);
#389=CLOSED_SHELL('',(#365,#366,#367,#368,#369,#370));
#390=CLOSED_SHELL('',(#371,#372,#373,#374,#375,#376));
#391=CLOSED_SHELL('',(#377,#378,#379,#380,#381,#382));
#392=CLOSED_SHELL('',(#383,#384,#385,#386,#387,#388));
#393=DERIVED_UNIT_ELEMENT(#395,1.);
#394=DERIVED_UNIT_ELEMENT(#638,-3.);
#395=(
MASS_UNIT()
NAMED_UNIT(*)
SI_UNIT(.KILO.,.GRAM.)
);
#396=DERIVED_UNIT((#393,#394));
#397=MEASURE_REPRESENTATION_ITEM('density measure',
POSITIVE_RATIO_MEASURE(7850.),#396);
#398=PROPERTY_DEFINITION_REPRESENTATION(#403,#400);
#399=PROPERTY_DEFINITION_REPRESENTATION(#404,#401);
#400=REPRESENTATION('material name',(#402),#635);
#401=REPRESENTATION('density',(#397),#635);
#402=DESCRIPTIVE_REPRESENTATION_ITEM('Steel','Steel');
#403=PROPERTY_DEFINITION('material property','material name',#645);
#404=PROPERTY_DEFINITION('material property','density of part',#645);
#405=AXIS2_PLACEMENT_3D('',#528,#430,#431);
#406=AXIS2_PLACEMENT_3D('',#529,#432,#433);
#407=AXIS2_PLACEMENT_3D('',#538,#438,#439);
#408=AXIS2_PLACEMENT_3D('',#547,#444,#445);
#409=AXIS2_PLACEMENT_3D('',#550,#448,#449);
#410=AXIS2_PLACEMENT_3D('',#552,#451,#452);
#411=AXIS2_PLACEMENT_3D('',#554,#454,#455);
#412=AXIS2_PLACEMENT_3D('',#555,#456,#457);
#413=AXIS2_PLACEMENT_3D('',#564,#462,#463);
#414=AXIS2_PLACEMENT_3D('',#573,#468,#469);
#415=AXIS2_PLACEMENT_3D('',#576,#472,#473);
#416=AXIS2_PLACEMENT_3D('',#578,#475,#476);
#417=AXIS2_PLACEMENT_3D('',#580,#478,#479);
#418=AXIS2_PLACEMENT_3D('',#581,#480,#481);
#419=AXIS2_PLACEMENT_3D('',#590,#486,#487);
#420=AXIS2_PLACEMENT_3D('',#599,#492,#493);
#421=AXIS2_PLACEMENT_3D('',#602,#496,#497);
#422=AXIS2_PLACEMENT_3D('',#604,#499,#500);
#423=AXIS2_PLACEMENT_3D('',#606,#502,#503);
#424=AXIS2_PLACEMENT_3D('',#607,#504,#505);
#425=AXIS2_PLACEMENT_3D('',#616,#510,#511);
#426=AXIS2_PLACEMENT_3D('',#625,#516,#517);
#427=AXIS2_PLACEMENT_3D('',#628,#520,#521);
#428=AXIS2_PLACEMENT_3D('',#630,#523,#524);
#429=AXIS2_PLACEMENT_3D('',#632,#526,#527);
#430=DIRECTION('axis',(0.,0.,1.));
#431=DIRECTION('refdir',(1.,0.,0.));
#432=DIRECTION('center_axis',(0.,0.,1.));
#433=DIRECTION('ref_axis',(1.,0.,0.));
#434=DIRECTION('',(0.,1.,0.));
#435=DIRECTION('',(-1.,0.,0.));
#436=DIRECTION('',(0.,-1.,0.));
#437=DIRECTION('',(1.,0.,0.));
#438=DIRECTION('center_axis',(0.,0.,1.));
#439=DIRECTION('ref_axis',(1.,0.,0.));
#440=DIRECTION('',(0.,-1.,0.));
#441=DIRECTION('',(-1.,0.,0.));
#442=DIRECTION('',(0.,1.,0.));
#443=DIRECTION('',(1.,0.,0.));
#444=DIRECTION('center_axis',(0.,1.,0.));
#445=DIRECTION('ref_axis',(0.,0.,1.));
#446=DIRECTION('',(0.,0.,-1.));
#447=DIRECTION('',(0.,0.,-1.));
#448=DIRECTION('center_axis',(1.,0.,0.));
#449=DIRECTION('ref_axis',(0.,0.,-1.));
#450=DIRECTION('',(0.,0.,-1.));
#451=DIRECTION('center_axis',(0.,-1.,0.));
#452=DIRECTION('ref_axis',(0.,0.,-1.));
#453=DIRECTION('',(0.,0.,-1.));
#454=DIRECTION('center_axis',(-1.,0.,0.));
#455=DIRECTION('ref_axis',(0.,0.,1.));
#456=DIRECTION('center_axis',(0.,0.,1.));
#457=DIRECTION('ref_axis',(1.,0.,0.));
#458=DIRECTION('',(0.,1.,0.));
#459=DIRECTION('',(-1.,0.,0.));
#460=DIRECTION('',(0.,-1.,0.));
#461=DIRECTION('',(1.,0.,0.));
#462=DIRECTION('center_axis',(0.,0.,1.));
#463=DIRECTION('ref_axis',(1.,0.,0.));
#464=DIRECTION('',(0.,-1.,0.));
#465=DIRECTION('',(-1.,0.,0.));
#466=DIRECTION('',(0.,1.,0.));
#467=DIRECTION('',(1.,0.,0.));
#468=DIRECTION('center_axis',(0.,1.,0.));
#469=DIRECTION('ref_axis',(0.,0.,1.));
#470=DIRECTION('',(0.,0.,-1.));
#471=DIRECTION('',(0.,0.,-1.));
#472=DIRECTION('center_axis',(1.,0.,0.));
#473=DIRECTION('ref_axis',(0.,0.,-1.));
#474=DIRECTION('',(0.,0.,-1.));
#475=DIRECTION('center_axis',(0.,-1.,0.));
#476=DIRECTION('ref_axis',(0.,0.,-1.));
#477=DIRECTION('',(0.,0.,-1.));
#478=DIRECTION('center_axis',(-1.,0.,0.));
#479=DIRECTION('ref_axis',(0.,0.,1.));
#480=DIRECTION('center_axis',(0.,0.,1.));
#481=DIRECTION('ref_axis',(1.,0.,0.));
#482=DIRECTION('',(0.,1.,0.));
#483=DIRECTION('',(-1.,0.,0.));
#484=DIRECTION('',(0.,-1.,0.));
#485=DIRECTION('',(1.,0.,0.));
#486=DIRECTION('center_axis',(0.,0.,1.));
#487=DIRECTION('ref_axis',(1.,0.,0.));
#488=DIRECTION('',(0.,-1.,0.));
#489=DIRECTION('',(-1.,0.,0.));
#490=DIRECTION('',(0.,1.,0.));
#491=DIRECTION('',(1.,0.,0.));
#492=DIRECTION('center_axis',(0.,1.,0.));
#493=DIRECTION('ref_axis',(0.,0.,1.));
#494=DIRECTION('',(0.,0.,-1.));
#495=DIRECTION('',(0.,0.,-1.));
#496=DIRECTION('center_axis',(1.,0.,0.));
#497=DIRECTION('ref_axis',(0.,0.,-1.));
#498=DIRECTION('',(0.,0.,-1.));
#499=DIRECTION('center_axis',(0.,-1.,0.));
#500=DIRECTION('ref_axis',(0.,0.,-1.));
#501=DIRECTION('',(0.,0.,-1.));
#502=DIRECTION('center_axis',(-1.,0.,0.));
#503=DIRECTION('ref_axis',(0.,0.,1.));
#504=DIRECTION('center_axis',(0.,0.,1.));
#505=DIRECTION('ref_axis',(1.,0.,0.));
#506=DIRECTION('',(0.,1.,0.));
#507=DIRECTION('',(-1.,0.,0.));
#508=DIRECTION('',(0.,-1.,0.));
#509=DIRECTION('',(1.,0.,0.));
#510=DIRECTION('center_axis',(0.,0.,1.));
#511=DIRECTION('ref_axis',(1.,0.,0.));
#512=DIRECTION('',(0.,-1.,0.));
#513=DIRECTION('',(-1.,0.,0.));
#514=DIRECTION('',(0.,1.,0.));
#515=DIRECTION('',(1.,0.,0.));
#516=DIRECTION('center_axis',(0.,1.,0.));
#517=DIRECTION('ref_axis',(0.,0.,1.));
#518=DIRECTION('',(0.,0.,-1.));
#519=DIRECTION('',(0.,0.,-1.));
#520=DIRECTION('center_axis',(1.,0.,0.));
#521=DIRECTION('ref_axis',(0.,0.,-1.));
#522=DIRECTION('',(0.,0.,-1.));
#523=DIRECTION('center_axis',(0.,-1.,0.));
#524=DIRECTION('ref_axis',(0.,0.,-1.));
#525=DIRECTION('',(0.,0.,-1.));
#526=DIRECTION('center_axis',(-1.,0.,0.));
#527=DIRECTION('ref_axis',(0.,0.,1.));
#528=CARTESIAN_POINT('',(0.,0.,0.));
#529=CARTESIAN_POINT('Origin',(0.,-0.127,0.25));
#530=CARTESIAN_POINT('',(0.127,-0.381,0.25));
#531=CARTESIAN_POINT('',(0.127,0.127,0.25));
#532=CARTESIAN_POINT('',(0.127,-0.127,0.25));
#533=CARTESIAN_POINT('',(-0.127,0.127,0.25));
#534=CARTESIAN_POINT('',(0.,0.127,0.25));
#535=CARTESIAN_POINT('',(-0.127,-0.381,0.25));
#536=CARTESIAN_POINT('',(-0.127,-0.127,0.25));
#537=CARTESIAN_POINT('',(0.,-0.381,0.25));
#538=CARTESIAN_POINT('Origin',(0.,-0.127,0.));
#539=CARTESIAN_POINT('',(0.127,0.127,0.));
#540=CARTESIAN_POINT('',(0.127,-0.381,0.));
#541=CARTESIAN_POINT('',(0.127,-0.127,0.));
#542=CARTESIAN_POINT('',(-0.127,-0.381,0.));
#543=CARTESIAN_POINT('',(0.,-0.381,0.));
#544=CARTESIAN_POINT('',(-0.127,0.127,0.));
#545=CARTESIAN_POINT('',(-0.127,-0.127,0.));
#546=CARTESIAN_POINT('',(0.,0.127,0.));
#547=CARTESIAN_POINT('Origin',(0.,-0.381,0.125));
#548=CARTESIAN_POINT('',(-0.127,-0.381,0.125));
#549=CARTESIAN_POINT('',(0.127,-0.381,0.125));
#550=CARTESIAN_POINT('Origin',(-0.127,-0.127,0.125));
#551=CARTESIAN_POINT('',(-0.127,0.127,0.125));
#552=CARTESIAN_POINT('Origin',(0.,0.127,0.125));
#553=CARTESIAN_POINT('',(0.127,0.127,0.125));
#554=CARTESIAN_POINT('Origin',(0.127,-0.127,0.125));
#555=CARTESIAN_POINT('Origin',(0.,0.,0.85));
#556=CARTESIAN_POINT('',(0.032,-0.032,0.85));
#557=CARTESIAN_POINT('',(0.032,0.032,0.85));
#558=CARTESIAN_POINT('',(0.032,0.,0.85));
#559=CARTESIAN_POINT('',(-0.032,0.032,0.85));
#560=CARTESIAN_POINT('',(0.,0.032,0.85));
#561=CARTESIAN_POINT('',(-0.032,-0.032,0.85));
#562=CARTESIAN_POINT('',(-0.032,0.,0.85));
#563=CARTESIAN_POINT('',(0.,-0.032,0.85));
#564=CARTESIAN_POINT('Origin',(0.,0.,-0.28));
#565=CARTESIAN_POINT('',(0.032,0.032,-0.28));
#566=CARTESIAN_POINT('',(0.032,-0.032,-0.28));
#567=CARTESIAN_POINT('',(0.032,0.,-0.28));
#568=CARTESIAN_POINT('',(-0.032,-0.032,-0.28));
#569=CARTESIAN_POINT('',(0.,-0.032,-0.28));
#570=CARTESIAN_POINT('',(-0.032,0.032,-0.28));
#571=CARTESIAN_POINT('',(-0.032,0.,-0.28));
#572=CARTESIAN_POINT('',(0.,0.032,-0.28));
#573=CARTESIAN_POINT('Origin',(0.,-0.032,0.285));
#574=CARTESIAN_POINT('',(-0.032,-0.032,0.285));
#575=CARTESIAN_POINT('',(0.032,-0.032,0.285));
#576=CARTESIAN_POINT('Origin',(-0.032,0.,0.285));
#577=CARTESIAN_POINT('',(-0.032,0.032,0.285));
#578=CARTESIAN_POINT('Origin',(0.,0.032,0.285));
#579=CARTESIAN_POINT('',(0.032,0.032,0.285));
#580=CARTESIAN_POINT('Origin',(0.032,0.,0.285));
#581=CARTESIAN_POINT('Origin',(0.,-0.254,0.85));
#582=CARTESIAN_POINT('',(0.032,-0.286,0.85));
#583=CARTESIAN_POINT('',(0.032,-0.222,0.85));
#584=CARTESIAN_POINT('',(0.032,-0.254,0.85));
#585=CARTESIAN_POINT('',(-0.032,-0.222,0.85));
#586=CARTESIAN_POINT('',(0.,-0.222,0.85));
#587=CARTESIAN_POINT('',(-0.032,-0.286,0.85));
#588=CARTESIAN_POINT('',(-0.032,-0.254,0.85));
#589=CARTESIAN_POINT('',(0.,-0.286,0.85));
#590=CARTESIAN_POINT('Origin',(0.,-0.254,-0.28));
#591=CARTESIAN_POINT('',(0.032,-0.222,-0.28));
#592=CARTESIAN_POINT('',(0.032,-0.286,-0.28));
#593=CARTESIAN_POINT('',(0.032,-0.254,-0.28));
#594=CARTESIAN_POINT('',(-0.032,-0.286,-0.28));
#595=CARTESIAN_POINT('',(0.,-0.286,-0.28));
#596=CARTESIAN_POINT('',(-0.032,-0.222,-0.28));
#597=CARTESIAN_POINT('',(-0.032,-0.254,-0.28));
#598=CARTESIAN_POINT('',(0.,-0.222,-0.28));
#599=CARTESIAN_POINT('Origin',(0.,-0.286,0.285));
#600=CARTESIAN_POINT('',(-0.032,-0.286,0.285));
#601=CARTESIAN_POINT('',(0.032,-0.286,0.285));
#602=CARTESIAN_POINT('Origin',(-0.032,-0.254,0.285));
#603=CARTESIAN_POINT('',(-0.032,-0.222,0.285));
#604=CARTESIAN_POINT('Origin',(0.,-0.222,0.285));
#605=CARTESIAN_POINT('',(0.032,-0.222,0.285));
#606=CARTESIAN_POINT('Origin',(0.032,-0.254,0.285));
#607=CARTESIAN_POINT('Origin',(0.,-0.124,0.65));
#608=CARTESIAN_POINT('',(0.14,-0.394,0.65));
#609=CARTESIAN_POINT('',(0.14,0.146,0.65));
#610=CARTESIAN_POINT('',(0.14,-0.124,0.65));
#611=CARTESIAN_POINT('',(-0.14,0.146,0.65));
#612=CARTESIAN_POINT('',(0.,0.146,0.65));
#613=CARTESIAN_POINT('',(-0.14,-0.394,0.65));
#614=CARTESIAN_POINT('',(-0.14,-0.124,0.65));
#615=CARTESIAN_POINT('',(0.,-0.394,0.65));
#616=CARTESIAN_POINT('Origin',(0.,-0.124,0.25));
#617=CARTESIAN_POINT('',(0.14,0.146,0.25));
#618=CARTESIAN_POINT('',(0.14,-0.394,0.25));
#619=CARTESIAN_POINT('',(0.14,-0.124,0.25));
#620=CARTESIAN_POINT('',(-0.14,-0.394,0.25));
#621=CARTESIAN_POINT('',(0.,-0.394,0.25));
#622=CARTESIAN_POINT('',(-0.14,0.146,0.25));
#623=CARTESIAN_POINT('',(-0.14,-0.124,0.25));
#624=CARTESIAN_POINT('',(0.,0.146,0.25));
#625=CARTESIAN_POINT('Origin',(0.,-0.394,0.45));
#626=CARTESIAN_POINT('',(-0.14,-0.394,0.45));
#627=CARTESIAN_POINT('',(0.14,-0.394,0.45));
#628=CARTESIAN_POINT('Origin',(-0.14,-0.124,0.45));
#629=CARTESIAN_POINT('',(-0.14,0.146,0.45));
#630=CARTESIAN_POINT('Origin',(0.,0.146,0.45));
#631=CARTESIAN_POINT('',(0.14,0.146,0.45));
#632=CARTESIAN_POINT('Origin',(0.14,-0.124,0.45));
#633=UNCERTAINTY_MEASURE_WITH_UNIT(LENGTH_MEASURE(0.001),#637,
'DISTANCE_ACCURACY_VALUE',
'Maximum model space distance between geometric entities at asserted c
onnectivities');
#634=UNCERTAINTY_MEASURE_WITH_UNIT(LENGTH_MEASURE(0.001),#637,
'DISTANCE_ACCURACY_VALUE',
'Maximum model space distance between geometric entities at asserted c
onnectivities');
#635=(
GEOMETRIC_REPRESENTATION_CONTEXT(3)
GLOBAL_UNCERTAINTY_ASSIGNED_CONTEXT((#633))
GLOBAL_UNIT_ASSIGNED_CONTEXT((#637,#639,#640))
REPRESENTATION_CONTEXT('','3D')
);
#636=(
GEOMETRIC_REPRESENTATION_CONTEXT(3)
GLOBAL_UNCERTAINTY_ASSIGNED_CONTEXT((#634))
GLOBAL_UNIT_ASSIGNED_CONTEXT((#637,#639,#640))
REPRESENTATION_CONTEXT('','3D')
);
#637=(
LENGTH_UNIT()
NAMED_UNIT(*)
SI_UNIT(.CENTI.,.METRE.)
);
#638=(
LENGTH_UNIT()
NAMED_UNIT(*)
SI_UNIT($,.METRE.)
);
#639=(
NAMED_UNIT(*)
PLANE_ANGLE_UNIT()
SI_UNIT($,.RADIAN.)
);
#640=(
NAMED_UNIT(*)
SI_UNIT($,.STERADIAN.)
SOLID_ANGLE_UNIT()
);
#641=SHAPE_DEFINITION_REPRESENTATION(#642,#643);
#642=PRODUCT_DEFINITION_SHAPE('',$,#645);
#643=SHAPE_REPRESENTATION('',(#405),#635);
#644=PRODUCT_DEFINITION_CONTEXT('part definition',#649,'design');
#645=PRODUCT_DEFINITION('2026-10-02-22-15-02-274','RevG_model_JP1',#646,
#644);
#646=PRODUCT_DEFINITION_FORMATION('',$,#651);
#647=PRODUCT_RELATED_PRODUCT_CATEGORY('RevG_model_JP1','RevG_model_JP1',
(#651));
#648=APPLICATION_PROTOCOL_DEFINITION('international standard',
'automotive_design',2009,#649);
#649=APPLICATION_CONTEXT(
'Core Data for Automotive Mechanical Design Process');
#650=PRODUCT_CONTEXT('part definition',#649,'mechanical');
#651=PRODUCT('2026-10-02-22-15-02-274','RevG_model_JP1',$,(#650));
#652=PRESENTATION_STYLE_ASSIGNMENT((#655));
#653=PRESENTATION_STYLE_ASSIGNMENT((#656));
#654=PRESENTATION_STYLE_ASSIGNMENT((#657));
#655=SURFACE_STYLE_USAGE(.BOTH.,#658);
#656=SURFACE_STYLE_USAGE(.BOTH.,#659);
#657=SURFACE_STYLE_USAGE(.BOTH.,#660);
#658=SURFACE_SIDE_STYLE('',(#661));
#659=SURFACE_SIDE_STYLE('',(#662));
#660=SURFACE_SIDE_STYLE('',(#663));
#661=SURFACE_STYLE_FILL_AREA(#664);
#662=SURFACE_STYLE_FILL_AREA(#665);
#663=SURFACE_STYLE_FILL_AREA(#666);
#664=FILL_AREA_STYLE('Steel - Satin',(#667));
#665=FILL_AREA_STYLE('Opaque(10,10,10)',(#668));
#666=FILL_AREA_STYLE('Opaque(228,180,12)',(#669));
#667=FILL_AREA_STYLE_COLOUR('Steel - Satin',#670);
#668=FILL_AREA_STYLE_COLOUR('Opaque(10,10,10)',#671);
#669=FILL_AREA_STYLE_COLOUR('Opaque(228,180,12)',#672);
#670=COLOUR_RGB('Steel - Satin',0.627450980392157,0.627450980392157,0.627450980392157);
#671=COLOUR_RGB('Opaque(10,10,10)',0.0392156862745098,0.0392156862745098,
0.0392156862745098);
#672=COLOUR_RGB('Opaque(228,180,12)',0.894117647058824,0.705882352941177,
0.0470588235294118);
ENDSEC;
END-ISO-10303-21;
