ISO-10303-21;
HEADER;
/* Generated by software containing ST-Developer
 * from STEP Tools, Inc. (www.steptools.com) 
 */

FILE_DESCRIPTION(
/* description */ (''),
/* implementation_level */ '2;1');

FILE_NAME(
/* name */ 'U6.step',
/* time_stamp */ '2026-10-02T22:14:33+08:00',
/* author */ (''),
/* organization */ (''),
/* preprocessor_version */ 'ST-DEVELOPER v20.2',
/* originating_system */ 'Autodesk Translation Framework v15.15.0.0',
/* authorisation */ '');

FILE_SCHEMA (('AUTOMOTIVE_DESIGN { 1 0 10303 214 3 1 1 }'));
ENDSEC;

DATA;
#10=MECHANICAL_DESIGN_GEOMETRIC_PRESENTATION_REPRESENTATION('',(#13,#14,
#15,#16,#17,#18,#19,#20,#21,#22,#23),#1693);
#11=SHAPE_REPRESENTATION_RELATIONSHIP('SRR','None',#1700,#12);
#12=ADVANCED_BREP_SHAPE_REPRESENTATION('',(#24,#25,#26,#27,#28,#29,#30,
#31,#32,#33,#34),#1692);
#13=STYLED_ITEM('',(#1710),#24);
#14=STYLED_ITEM('',(#1711),#25);
#15=STYLED_ITEM('',(#1711),#26);
#16=STYLED_ITEM('',(#1712),#27);
#17=STYLED_ITEM('',(#1712),#28);
#18=STYLED_ITEM('',(#1711),#29);
#19=STYLED_ITEM('',(#1713),#30);
#20=STYLED_ITEM('',(#1713),#31);
#21=STYLED_ITEM('',(#1713),#32);
#22=STYLED_ITEM('',(#1713),#33);
#23=STYLED_ITEM('',(#1713),#34);
#24=MANIFOLD_SOLID_BREP('Pololu D24V50F5 PCB',#1047);
#25=MANIFOLD_SOLID_BREP('Shielded power inductor',#1048);
#26=MANIFOLD_SOLID_BREP('Switching IC',#1049);
#27=MANIFOLD_SOLID_BREP('Capacitor bank',#1050);
#28=MANIFOLD_SOLID_BREP('Capacitor bank (1)',#1051);
#29=MANIFOLD_SOLID_BREP('5 way solder header',#1052);
#30=MANIFOLD_SOLID_BREP('Pin',#1053);
#31=MANIFOLD_SOLID_BREP('Pin (1)',#1054);
#32=MANIFOLD_SOLID_BREP('Pin (2)',#1055);
#33=MANIFOLD_SOLID_BREP('Pin (3)',#1056);
#34=MANIFOLD_SOLID_BREP('Pin (4)',#1057);
#35=FACE_OUTER_BOUND('',#101,.T.);
#36=FACE_OUTER_BOUND('',#102,.T.);
#37=FACE_OUTER_BOUND('',#103,.T.);
#38=FACE_OUTER_BOUND('',#104,.T.);
#39=FACE_OUTER_BOUND('',#105,.T.);
#40=FACE_OUTER_BOUND('',#106,.T.);
#41=FACE_OUTER_BOUND('',#107,.T.);
#42=FACE_OUTER_BOUND('',#108,.T.);
#43=FACE_OUTER_BOUND('',#109,.T.);
#44=FACE_OUTER_BOUND('',#110,.T.);
#45=FACE_OUTER_BOUND('',#111,.T.);
#46=FACE_OUTER_BOUND('',#112,.T.);
#47=FACE_OUTER_BOUND('',#113,.T.);
#48=FACE_OUTER_BOUND('',#114,.T.);
#49=FACE_OUTER_BOUND('',#115,.T.);
#50=FACE_OUTER_BOUND('',#116,.T.);
#51=FACE_OUTER_BOUND('',#117,.T.);
#52=FACE_OUTER_BOUND('',#118,.T.);
#53=FACE_OUTER_BOUND('',#119,.T.);
#54=FACE_OUTER_BOUND('',#120,.T.);
#55=FACE_OUTER_BOUND('',#121,.T.);
#56=FACE_OUTER_BOUND('',#122,.T.);
#57=FACE_OUTER_BOUND('',#123,.T.);
#58=FACE_OUTER_BOUND('',#124,.T.);
#59=FACE_OUTER_BOUND('',#125,.T.);
#60=FACE_OUTER_BOUND('',#126,.T.);
#61=FACE_OUTER_BOUND('',#127,.T.);
#62=FACE_OUTER_BOUND('',#128,.T.);
#63=FACE_OUTER_BOUND('',#129,.T.);
#64=FACE_OUTER_BOUND('',#130,.T.);
#65=FACE_OUTER_BOUND('',#131,.T.);
#66=FACE_OUTER_BOUND('',#132,.T.);
#67=FACE_OUTER_BOUND('',#133,.T.);
#68=FACE_OUTER_BOUND('',#134,.T.);
#69=FACE_OUTER_BOUND('',#135,.T.);
#70=FACE_OUTER_BOUND('',#136,.T.);
#71=FACE_OUTER_BOUND('',#137,.T.);
#72=FACE_OUTER_BOUND('',#138,.T.);
#73=FACE_OUTER_BOUND('',#139,.T.);
#74=FACE_OUTER_BOUND('',#140,.T.);
#75=FACE_OUTER_BOUND('',#141,.T.);
#76=FACE_OUTER_BOUND('',#142,.T.);
#77=FACE_OUTER_BOUND('',#143,.T.);
#78=FACE_OUTER_BOUND('',#144,.T.);
#79=FACE_OUTER_BOUND('',#145,.T.);
#80=FACE_OUTER_BOUND('',#146,.T.);
#81=FACE_OUTER_BOUND('',#147,.T.);
#82=FACE_OUTER_BOUND('',#148,.T.);
#83=FACE_OUTER_BOUND('',#149,.T.);
#84=FACE_OUTER_BOUND('',#150,.T.);
#85=FACE_OUTER_BOUND('',#151,.T.);
#86=FACE_OUTER_BOUND('',#152,.T.);
#87=FACE_OUTER_BOUND('',#153,.T.);
#88=FACE_OUTER_BOUND('',#154,.T.);
#89=FACE_OUTER_BOUND('',#155,.T.);
#90=FACE_OUTER_BOUND('',#156,.T.);
#91=FACE_OUTER_BOUND('',#157,.T.);
#92=FACE_OUTER_BOUND('',#158,.T.);
#93=FACE_OUTER_BOUND('',#159,.T.);
#94=FACE_OUTER_BOUND('',#160,.T.);
#95=FACE_OUTER_BOUND('',#161,.T.);
#96=FACE_OUTER_BOUND('',#162,.T.);
#97=FACE_OUTER_BOUND('',#163,.T.);
#98=FACE_OUTER_BOUND('',#164,.T.);
#99=FACE_OUTER_BOUND('',#165,.T.);
#100=FACE_OUTER_BOUND('',#166,.T.);
#101=EDGE_LOOP('',(#651,#652,#653,#654));
#102=EDGE_LOOP('',(#655,#656,#657,#658));
#103=EDGE_LOOP('',(#659,#660,#661,#662));
#104=EDGE_LOOP('',(#663,#664,#665,#666));
#105=EDGE_LOOP('',(#667,#668,#669,#670));
#106=EDGE_LOOP('',(#671,#672,#673,#674));
#107=EDGE_LOOP('',(#675,#676,#677,#678));
#108=EDGE_LOOP('',(#679,#680,#681,#682));
#109=EDGE_LOOP('',(#683,#684,#685,#686));
#110=EDGE_LOOP('',(#687,#688,#689,#690));
#111=EDGE_LOOP('',(#691,#692,#693,#694));
#112=EDGE_LOOP('',(#695,#696,#697,#698));
#113=EDGE_LOOP('',(#699,#700,#701,#702));
#114=EDGE_LOOP('',(#703,#704,#705,#706));
#115=EDGE_LOOP('',(#707,#708,#709,#710));
#116=EDGE_LOOP('',(#711,#712,#713,#714));
#117=EDGE_LOOP('',(#715,#716,#717,#718));
#118=EDGE_LOOP('',(#719,#720,#721,#722));
#119=EDGE_LOOP('',(#723,#724,#725,#726));
#120=EDGE_LOOP('',(#727,#728,#729,#730));
#121=EDGE_LOOP('',(#731,#732,#733,#734));
#122=EDGE_LOOP('',(#735,#736,#737,#738));
#123=EDGE_LOOP('',(#739,#740,#741,#742));
#124=EDGE_LOOP('',(#743,#744,#745,#746));
#125=EDGE_LOOP('',(#747,#748,#749,#750));
#126=EDGE_LOOP('',(#751,#752,#753,#754));
#127=EDGE_LOOP('',(#755,#756,#757,#758));
#128=EDGE_LOOP('',(#759,#760,#761,#762));
#129=EDGE_LOOP('',(#763,#764,#765,#766));
#130=EDGE_LOOP('',(#767,#768,#769,#770));
#131=EDGE_LOOP('',(#771,#772,#773,#774));
#132=EDGE_LOOP('',(#775,#776,#777,#778));
#133=EDGE_LOOP('',(#779,#780,#781,#782));
#134=EDGE_LOOP('',(#783,#784,#785,#786));
#135=EDGE_LOOP('',(#787,#788,#789,#790));
#136=EDGE_LOOP('',(#791,#792,#793,#794));
#137=EDGE_LOOP('',(#795,#796,#797,#798));
#138=EDGE_LOOP('',(#799,#800,#801,#802));
#139=EDGE_LOOP('',(#803,#804,#805,#806));
#140=EDGE_LOOP('',(#807,#808,#809,#810));
#141=EDGE_LOOP('',(#811,#812,#813,#814));
#142=EDGE_LOOP('',(#815,#816,#817,#818));
#143=EDGE_LOOP('',(#819,#820,#821,#822));
#144=EDGE_LOOP('',(#823,#824,#825,#826));
#145=EDGE_LOOP('',(#827,#828,#829,#830));
#146=EDGE_LOOP('',(#831,#832,#833,#834));
#147=EDGE_LOOP('',(#835,#836,#837,#838));
#148=EDGE_LOOP('',(#839,#840,#841,#842));
#149=EDGE_LOOP('',(#843,#844,#845,#846));
#150=EDGE_LOOP('',(#847,#848,#849,#850));
#151=EDGE_LOOP('',(#851,#852,#853,#854));
#152=EDGE_LOOP('',(#855,#856,#857,#858));
#153=EDGE_LOOP('',(#859,#860,#861,#862));
#154=EDGE_LOOP('',(#863,#864,#865,#866));
#155=EDGE_LOOP('',(#867,#868,#869,#870));
#156=EDGE_LOOP('',(#871,#872,#873,#874));
#157=EDGE_LOOP('',(#875,#876,#877,#878));
#158=EDGE_LOOP('',(#879,#880,#881,#882));
#159=EDGE_LOOP('',(#883,#884,#885,#886));
#160=EDGE_LOOP('',(#887,#888,#889,#890));
#161=EDGE_LOOP('',(#891,#892,#893,#894));
#162=EDGE_LOOP('',(#895,#896,#897,#898));
#163=EDGE_LOOP('',(#899,#900,#901,#902));
#164=EDGE_LOOP('',(#903,#904,#905,#906));
#165=EDGE_LOOP('',(#907,#908,#909,#910));
#166=EDGE_LOOP('',(#911,#912,#913,#914));
#167=LINE('',#1407,#299);
#168=LINE('',#1409,#300);
#169=LINE('',#1411,#301);
#170=LINE('',#1412,#302);
#171=LINE('',#1416,#303);
#172=LINE('',#1418,#304);
#173=LINE('',#1420,#305);
#174=LINE('',#1421,#306);
#175=LINE('',#1423,#307);
#176=LINE('',#1424,#308);
#177=LINE('',#1426,#309);
#178=LINE('',#1428,#310);
#179=LINE('',#1433,#311);
#180=LINE('',#1435,#312);
#181=LINE('',#1437,#313);
#182=LINE('',#1438,#314);
#183=LINE('',#1442,#315);
#184=LINE('',#1444,#316);
#185=LINE('',#1446,#317);
#186=LINE('',#1447,#318);
#187=LINE('',#1449,#319);
#188=LINE('',#1450,#320);
#189=LINE('',#1452,#321);
#190=LINE('',#1454,#322);
#191=LINE('',#1459,#323);
#192=LINE('',#1461,#324);
#193=LINE('',#1463,#325);
#194=LINE('',#1464,#326);
#195=LINE('',#1468,#327);
#196=LINE('',#1470,#328);
#197=LINE('',#1472,#329);
#198=LINE('',#1473,#330);
#199=LINE('',#1475,#331);
#200=LINE('',#1476,#332);
#201=LINE('',#1478,#333);
#202=LINE('',#1480,#334);
#203=LINE('',#1485,#335);
#204=LINE('',#1487,#336);
#205=LINE('',#1489,#337);
#206=LINE('',#1490,#338);
#207=LINE('',#1494,#339);
#208=LINE('',#1496,#340);
#209=LINE('',#1498,#341);
#210=LINE('',#1499,#342);
#211=LINE('',#1501,#343);
#212=LINE('',#1502,#344);
#213=LINE('',#1504,#345);
#214=LINE('',#1506,#346);
#215=LINE('',#1511,#347);
#216=LINE('',#1513,#348);
#217=LINE('',#1515,#349);
#218=LINE('',#1516,#350);
#219=LINE('',#1520,#351);
#220=LINE('',#1522,#352);
#221=LINE('',#1524,#353);
#222=LINE('',#1525,#354);
#223=LINE('',#1527,#355);
#224=LINE('',#1528,#356);
#225=LINE('',#1530,#357);
#226=LINE('',#1532,#358);
#227=LINE('',#1537,#359);
#228=LINE('',#1539,#360);
#229=LINE('',#1541,#361);
#230=LINE('',#1542,#362);
#231=LINE('',#1546,#363);
#232=LINE('',#1548,#364);
#233=LINE('',#1550,#365);
#234=LINE('',#1551,#366);
#235=LINE('',#1553,#367);
#236=LINE('',#1554,#368);
#237=LINE('',#1556,#369);
#238=LINE('',#1558,#370);
#239=LINE('',#1563,#371);
#240=LINE('',#1565,#372);
#241=LINE('',#1567,#373);
#242=LINE('',#1568,#374);
#243=LINE('',#1572,#375);
#244=LINE('',#1574,#376);
#245=LINE('',#1576,#377);
#246=LINE('',#1577,#378);
#247=LINE('',#1579,#379);
#248=LINE('',#1580,#380);
#249=LINE('',#1582,#381);
#250=LINE('',#1584,#382);
#251=LINE('',#1589,#383);
#252=LINE('',#1591,#384);
#253=LINE('',#1593,#385);
#254=LINE('',#1594,#386);
#255=LINE('',#1598,#387);
#256=LINE('',#1600,#388);
#257=LINE('',#1602,#389);
#258=LINE('',#1603,#390);
#259=LINE('',#1605,#391);
#260=LINE('',#1606,#392);
#261=LINE('',#1608,#393);
#262=LINE('',#1610,#394);
#263=LINE('',#1615,#395);
#264=LINE('',#1617,#396);
#265=LINE('',#1619,#397);
#266=LINE('',#1620,#398);
#267=LINE('',#1624,#399);
#268=LINE('',#1626,#400);
#269=LINE('',#1628,#401);
#270=LINE('',#1629,#402);
#271=LINE('',#1631,#403);
#272=LINE('',#1632,#404);
#273=LINE('',#1634,#405);
#274=LINE('',#1636,#406);
#275=LINE('',#1641,#407);
#276=LINE('',#1643,#408);
#277=LINE('',#1645,#409);
#278=LINE('',#1646,#410);
#279=LINE('',#1650,#411);
#280=LINE('',#1652,#412);
#281=LINE('',#1654,#413);
#282=LINE('',#1655,#414);
#283=LINE('',#1657,#415);
#284=LINE('',#1658,#416);
#285=LINE('',#1660,#417);
#286=LINE('',#1662,#418);
#287=LINE('',#1667,#419);
#288=LINE('',#1669,#420);
#289=LINE('',#1671,#421);
#290=LINE('',#1672,#422);
#291=LINE('',#1676,#423);
#292=LINE('',#1678,#424);
#293=LINE('',#1680,#425);
#294=LINE('',#1681,#426);
#295=LINE('',#1683,#427);
#296=LINE('',#1684,#428);
#297=LINE('',#1686,#429);
#298=LINE('',#1688,#430);
#299=VECTOR('',#1141,1.);
#300=VECTOR('',#1142,1.);
#301=VECTOR('',#1143,1.);
#302=VECTOR('',#1144,1.);
#303=VECTOR('',#1147,1.);
#304=VECTOR('',#1148,1.);
#305=VECTOR('',#1149,1.);
#306=VECTOR('',#1150,1.);
#307=VECTOR('',#1153,1.);
#308=VECTOR('',#1154,1.);
#309=VECTOR('',#1157,1.);
#310=VECTOR('',#1160,1.);
#311=VECTOR('',#1165,1.);
#312=VECTOR('',#1166,1.);
#313=VECTOR('',#1167,1.);
#314=VECTOR('',#1168,1.);
#315=VECTOR('',#1171,1.);
#316=VECTOR('',#1172,1.);
#317=VECTOR('',#1173,1.);
#318=VECTOR('',#1174,1.);
#319=VECTOR('',#1177,1.);
#320=VECTOR('',#1178,1.);
#321=VECTOR('',#1181,1.);
#322=VECTOR('',#1184,1.);
#323=VECTOR('',#1189,1.);
#324=VECTOR('',#1190,1.);
#325=VECTOR('',#1191,1.);
#326=VECTOR('',#1192,1.);
#327=VECTOR('',#1195,1.);
#328=VECTOR('',#1196,1.);
#329=VECTOR('',#1197,1.);
#330=VECTOR('',#1198,1.);
#331=VECTOR('',#1201,1.);
#332=VECTOR('',#1202,1.);
#333=VECTOR('',#1205,1.);
#334=VECTOR('',#1208,1.);
#335=VECTOR('',#1213,1.);
#336=VECTOR('',#1214,1.);
#337=VECTOR('',#1215,1.);
#338=VECTOR('',#1216,1.);
#339=VECTOR('',#1219,1.);
#340=VECTOR('',#1220,1.);
#341=VECTOR('',#1221,1.);
#342=VECTOR('',#1222,1.);
#343=VECTOR('',#1225,1.);
#344=VECTOR('',#1226,1.);
#345=VECTOR('',#1229,1.);
#346=VECTOR('',#1232,1.);
#347=VECTOR('',#1237,1.);
#348=VECTOR('',#1238,1.);
#349=VECTOR('',#1239,1.);
#350=VECTOR('',#1240,1.);
#351=VECTOR('',#1243,1.);
#352=VECTOR('',#1244,1.);
#353=VECTOR('',#1245,1.);
#354=VECTOR('',#1246,1.);
#355=VECTOR('',#1249,1.);
#356=VECTOR('',#1250,1.);
#357=VECTOR('',#1253,1.);
#358=VECTOR('',#1256,1.);
#359=VECTOR('',#1261,1.);
#360=VECTOR('',#1262,1.);
#361=VECTOR('',#1263,1.);
#362=VECTOR('',#1264,1.);
#363=VECTOR('',#1267,1.);
#364=VECTOR('',#1268,1.);
#365=VECTOR('',#1269,1.);
#366=VECTOR('',#1270,1.);
#367=VECTOR('',#1273,1.);
#368=VECTOR('',#1274,1.);
#369=VECTOR('',#1277,1.);
#370=VECTOR('',#1280,1.);
#371=VECTOR('',#1285,1.);
#372=VECTOR('',#1286,1.);
#373=VECTOR('',#1287,1.);
#374=VECTOR('',#1288,1.);
#375=VECTOR('',#1291,1.);
#376=VECTOR('',#1292,1.);
#377=VECTOR('',#1293,1.);
#378=VECTOR('',#1294,1.);
#379=VECTOR('',#1297,1.);
#380=VECTOR('',#1298,1.);
#381=VECTOR('',#1301,1.);
#382=VECTOR('',#1304,1.);
#383=VECTOR('',#1309,1.);
#384=VECTOR('',#1310,1.);
#385=VECTOR('',#1311,1.);
#386=VECTOR('',#1312,1.);
#387=VECTOR('',#1315,1.);
#388=VECTOR('',#1316,1.);
#389=VECTOR('',#1317,1.);
#390=VECTOR('',#1318,1.);
#391=VECTOR('',#1321,1.);
#392=VECTOR('',#1322,1.);
#393=VECTOR('',#1325,1.);
#394=VECTOR('',#1328,1.);
#395=VECTOR('',#1333,1.);
#396=VECTOR('',#1334,1.);
#397=VECTOR('',#1335,1.);
#398=VECTOR('',#1336,1.);
#399=VECTOR('',#1339,1.);
#400=VECTOR('',#1340,1.);
#401=VECTOR('',#1341,1.);
#402=VECTOR('',#1342,1.);
#403=VECTOR('',#1345,1.);
#404=VECTOR('',#1346,1.);
#405=VECTOR('',#1349,1.);
#406=VECTOR('',#1352,1.);
#407=VECTOR('',#1357,1.);
#408=VECTOR('',#1358,1.);
#409=VECTOR('',#1359,1.);
#410=VECTOR('',#1360,1.);
#411=VECTOR('',#1363,1.);
#412=VECTOR('',#1364,1.);
#413=VECTOR('',#1365,1.);
#414=VECTOR('',#1366,1.);
#415=VECTOR('',#1369,1.);
#416=VECTOR('',#1370,1.);
#417=VECTOR('',#1373,1.);
#418=VECTOR('',#1376,1.);
#419=VECTOR('',#1381,1.);
#420=VECTOR('',#1382,1.);
#421=VECTOR('',#1383,1.);
#422=VECTOR('',#1384,1.);
#423=VECTOR('',#1387,1.);
#424=VECTOR('',#1388,1.);
#425=VECTOR('',#1389,1.);
#426=VECTOR('',#1390,1.);
#427=VECTOR('',#1393,1.);
#428=VECTOR('',#1394,1.);
#429=VECTOR('',#1397,1.);
#430=VECTOR('',#1400,1.);
#431=VERTEX_POINT('',#1405);
#432=VERTEX_POINT('',#1406);
#433=VERTEX_POINT('',#1408);
#434=VERTEX_POINT('',#1410);
#435=VERTEX_POINT('',#1414);
#436=VERTEX_POINT('',#1415);
#437=VERTEX_POINT('',#1417);
#438=VERTEX_POINT('',#1419);
#439=VERTEX_POINT('',#1431);
#440=VERTEX_POINT('',#1432);
#441=VERTEX_POINT('',#1434);
#442=VERTEX_POINT('',#1436);
#443=VERTEX_POINT('',#1440);
#444=VERTEX_POINT('',#1441);
#445=VERTEX_POINT('',#1443);
#446=VERTEX_POINT('',#1445);
#447=VERTEX_POINT('',#1457);
#448=VERTEX_POINT('',#1458);
#449=VERTEX_POINT('',#1460);
#450=VERTEX_POINT('',#1462);
#451=VERTEX_POINT('',#1466);
#452=VERTEX_POINT('',#1467);
#453=VERTEX_POINT('',#1469);
#454=VERTEX_POINT('',#1471);
#455=VERTEX_POINT('',#1483);
#456=VERTEX_POINT('',#1484);
#457=VERTEX_POINT('',#1486);
#458=VERTEX_POINT('',#1488);
#459=VERTEX_POINT('',#1492);
#460=VERTEX_POINT('',#1493);
#461=VERTEX_POINT('',#1495);
#462=VERTEX_POINT('',#1497);
#463=VERTEX_POINT('',#1509);
#464=VERTEX_POINT('',#1510);
#465=VERTEX_POINT('',#1512);
#466=VERTEX_POINT('',#1514);
#467=VERTEX_POINT('',#1518);
#468=VERTEX_POINT('',#1519);
#469=VERTEX_POINT('',#1521);
#470=VERTEX_POINT('',#1523);
#471=VERTEX_POINT('',#1535);
#472=VERTEX_POINT('',#1536);
#473=VERTEX_POINT('',#1538);
#474=VERTEX_POINT('',#1540);
#475=VERTEX_POINT('',#1544);
#476=VERTEX_POINT('',#1545);
#477=VERTEX_POINT('',#1547);
#478=VERTEX_POINT('',#1549);
#479=VERTEX_POINT('',#1561);
#480=VERTEX_POINT('',#1562);
#481=VERTEX_POINT('',#1564);
#482=VERTEX_POINT('',#1566);
#483=VERTEX_POINT('',#1570);
#484=VERTEX_POINT('',#1571);
#485=VERTEX_POINT('',#1573);
#486=VERTEX_POINT('',#1575);
#487=VERTEX_POINT('',#1587);
#488=VERTEX_POINT('',#1588);
#489=VERTEX_POINT('',#1590);
#490=VERTEX_POINT('',#1592);
#491=VERTEX_POINT('',#1596);
#492=VERTEX_POINT('',#1597);
#493=VERTEX_POINT('',#1599);
#494=VERTEX_POINT('',#1601);
#495=VERTEX_POINT('',#1613);
#496=VERTEX_POINT('',#1614);
#497=VERTEX_POINT('',#1616);
#498=VERTEX_POINT('',#1618);
#499=VERTEX_POINT('',#1622);
#500=VERTEX_POINT('',#1623);
#501=VERTEX_POINT('',#1625);
#502=VERTEX_POINT('',#1627);
#503=VERTEX_POINT('',#1639);
#504=VERTEX_POINT('',#1640);
#505=VERTEX_POINT('',#1642);
#506=VERTEX_POINT('',#1644);
#507=VERTEX_POINT('',#1648);
#508=VERTEX_POINT('',#1649);
#509=VERTEX_POINT('',#1651);
#510=VERTEX_POINT('',#1653);
#511=VERTEX_POINT('',#1665);
#512=VERTEX_POINT('',#1666);
#513=VERTEX_POINT('',#1668);
#514=VERTEX_POINT('',#1670);
#515=VERTEX_POINT('',#1674);
#516=VERTEX_POINT('',#1675);
#517=VERTEX_POINT('',#1677);
#518=VERTEX_POINT('',#1679);
#519=EDGE_CURVE('',#431,#432,#167,.T.);
#520=EDGE_CURVE('',#432,#433,#168,.T.);
#521=EDGE_CURVE('',#433,#434,#169,.T.);
#522=EDGE_CURVE('',#434,#431,#170,.T.);
#523=EDGE_CURVE('',#435,#436,#171,.T.);
#524=EDGE_CURVE('',#436,#437,#172,.T.);
#525=EDGE_CURVE('',#437,#438,#173,.T.);
#526=EDGE_CURVE('',#438,#435,#174,.T.);
#527=EDGE_CURVE('',#434,#437,#175,.T.);
#528=EDGE_CURVE('',#431,#436,#176,.T.);
#529=EDGE_CURVE('',#433,#438,#177,.T.);
#530=EDGE_CURVE('',#432,#435,#178,.T.);
#531=EDGE_CURVE('',#439,#440,#179,.T.);
#532=EDGE_CURVE('',#440,#441,#180,.T.);
#533=EDGE_CURVE('',#441,#442,#181,.T.);
#534=EDGE_CURVE('',#442,#439,#182,.T.);
#535=EDGE_CURVE('',#443,#444,#183,.T.);
#536=EDGE_CURVE('',#444,#445,#184,.T.);
#537=EDGE_CURVE('',#445,#446,#185,.T.);
#538=EDGE_CURVE('',#446,#443,#186,.T.);
#539=EDGE_CURVE('',#442,#445,#187,.T.);
#540=EDGE_CURVE('',#439,#444,#188,.T.);
#541=EDGE_CURVE('',#441,#446,#189,.T.);
#542=EDGE_CURVE('',#440,#443,#190,.T.);
#543=EDGE_CURVE('',#447,#448,#191,.T.);
#544=EDGE_CURVE('',#448,#449,#192,.T.);
#545=EDGE_CURVE('',#449,#450,#193,.T.);
#546=EDGE_CURVE('',#450,#447,#194,.T.);
#547=EDGE_CURVE('',#451,#452,#195,.T.);
#548=EDGE_CURVE('',#452,#453,#196,.T.);
#549=EDGE_CURVE('',#453,#454,#197,.T.);
#550=EDGE_CURVE('',#454,#451,#198,.T.);
#551=EDGE_CURVE('',#450,#453,#199,.T.);
#552=EDGE_CURVE('',#447,#452,#200,.T.);
#553=EDGE_CURVE('',#449,#454,#201,.T.);
#554=EDGE_CURVE('',#448,#451,#202,.T.);
#555=EDGE_CURVE('',#455,#456,#203,.T.);
#556=EDGE_CURVE('',#456,#457,#204,.T.);
#557=EDGE_CURVE('',#457,#458,#205,.T.);
#558=EDGE_CURVE('',#458,#455,#206,.T.);
#559=EDGE_CURVE('',#459,#460,#207,.T.);
#560=EDGE_CURVE('',#460,#461,#208,.T.);
#561=EDGE_CURVE('',#461,#462,#209,.T.);
#562=EDGE_CURVE('',#462,#459,#210,.T.);
#563=EDGE_CURVE('',#458,#461,#211,.T.);
#564=EDGE_CURVE('',#455,#460,#212,.T.);
#565=EDGE_CURVE('',#457,#462,#213,.T.);
#566=EDGE_CURVE('',#456,#459,#214,.T.);
#567=EDGE_CURVE('',#463,#464,#215,.T.);
#568=EDGE_CURVE('',#464,#465,#216,.T.);
#569=EDGE_CURVE('',#465,#466,#217,.T.);
#570=EDGE_CURVE('',#466,#463,#218,.T.);
#571=EDGE_CURVE('',#467,#468,#219,.T.);
#572=EDGE_CURVE('',#468,#469,#220,.T.);
#573=EDGE_CURVE('',#469,#470,#221,.T.);
#574=EDGE_CURVE('',#470,#467,#222,.T.);
#575=EDGE_CURVE('',#466,#469,#223,.T.);
#576=EDGE_CURVE('',#463,#468,#224,.T.);
#577=EDGE_CURVE('',#465,#470,#225,.T.);
#578=EDGE_CURVE('',#464,#467,#226,.T.);
#579=EDGE_CURVE('',#471,#472,#227,.T.);
#580=EDGE_CURVE('',#472,#473,#228,.T.);
#581=EDGE_CURVE('',#473,#474,#229,.T.);
#582=EDGE_CURVE('',#474,#471,#230,.T.);
#583=EDGE_CURVE('',#475,#476,#231,.T.);
#584=EDGE_CURVE('',#476,#477,#232,.T.);
#585=EDGE_CURVE('',#477,#478,#233,.T.);
#586=EDGE_CURVE('',#478,#475,#234,.T.);
#587=EDGE_CURVE('',#474,#477,#235,.T.);
#588=EDGE_CURVE('',#471,#476,#236,.T.);
#589=EDGE_CURVE('',#473,#478,#237,.T.);
#590=EDGE_CURVE('',#472,#475,#238,.T.);
#591=EDGE_CURVE('',#479,#480,#239,.T.);
#592=EDGE_CURVE('',#480,#481,#240,.T.);
#593=EDGE_CURVE('',#481,#482,#241,.T.);
#594=EDGE_CURVE('',#482,#479,#242,.T.);
#595=EDGE_CURVE('',#483,#484,#243,.T.);
#596=EDGE_CURVE('',#484,#485,#244,.T.);
#597=EDGE_CURVE('',#485,#486,#245,.T.);
#598=EDGE_CURVE('',#486,#483,#246,.T.);
#599=EDGE_CURVE('',#482,#485,#247,.T.);
#600=EDGE_CURVE('',#479,#484,#248,.T.);
#601=EDGE_CURVE('',#481,#486,#249,.T.);
#602=EDGE_CURVE('',#480,#483,#250,.T.);
#603=EDGE_CURVE('',#487,#488,#251,.T.);
#604=EDGE_CURVE('',#488,#489,#252,.T.);
#605=EDGE_CURVE('',#489,#490,#253,.T.);
#606=EDGE_CURVE('',#490,#487,#254,.T.);
#607=EDGE_CURVE('',#491,#492,#255,.T.);
#608=EDGE_CURVE('',#492,#493,#256,.T.);
#609=EDGE_CURVE('',#493,#494,#257,.T.);
#610=EDGE_CURVE('',#494,#491,#258,.T.);
#611=EDGE_CURVE('',#490,#493,#259,.T.);
#612=EDGE_CURVE('',#487,#492,#260,.T.);
#613=EDGE_CURVE('',#489,#494,#261,.T.);
#614=EDGE_CURVE('',#488,#491,#262,.T.);
#615=EDGE_CURVE('',#495,#496,#263,.T.);
#616=EDGE_CURVE('',#496,#497,#264,.T.);
#617=EDGE_CURVE('',#497,#498,#265,.T.);
#618=EDGE_CURVE('',#498,#495,#266,.T.);
#619=EDGE_CURVE('',#499,#500,#267,.T.);
#620=EDGE_CURVE('',#500,#501,#268,.T.);
#621=EDGE_CURVE('',#501,#502,#269,.T.);
#622=EDGE_CURVE('',#502,#499,#270,.T.);
#623=EDGE_CURVE('',#498,#501,#271,.T.);
#624=EDGE_CURVE('',#495,#500,#272,.T.);
#625=EDGE_CURVE('',#497,#502,#273,.T.);
#626=EDGE_CURVE('',#496,#499,#274,.T.);
#627=EDGE_CURVE('',#503,#504,#275,.T.);
#628=EDGE_CURVE('',#504,#505,#276,.T.);
#629=EDGE_CURVE('',#505,#506,#277,.T.);
#630=EDGE_CURVE('',#506,#503,#278,.T.);
#631=EDGE_CURVE('',#507,#508,#279,.T.);
#632=EDGE_CURVE('',#508,#509,#280,.T.);
#633=EDGE_CURVE('',#509,#510,#281,.T.);
#634=EDGE_CURVE('',#510,#507,#282,.T.);
#635=EDGE_CURVE('',#506,#509,#283,.T.);
#636=EDGE_CURVE('',#503,#508,#284,.T.);
#637=EDGE_CURVE('',#505,#510,#285,.T.);
#638=EDGE_CURVE('',#504,#507,#286,.T.);
#639=EDGE_CURVE('',#511,#512,#287,.T.);
#640=EDGE_CURVE('',#512,#513,#288,.T.);
#641=EDGE_CURVE('',#513,#514,#289,.T.);
#642=EDGE_CURVE('',#514,#511,#290,.T.);
#643=EDGE_CURVE('',#515,#516,#291,.T.);
#644=EDGE_CURVE('',#516,#517,#292,.T.);
#645=EDGE_CURVE('',#517,#518,#293,.T.);
#646=EDGE_CURVE('',#518,#515,#294,.T.);
#647=EDGE_CURVE('',#514,#517,#295,.T.);
#648=EDGE_CURVE('',#511,#516,#296,.T.);
#649=EDGE_CURVE('',#513,#518,#297,.T.);
#650=EDGE_CURVE('',#512,#515,#298,.T.);
#651=ORIENTED_EDGE('',*,*,#519,.T.);
#652=ORIENTED_EDGE('',*,*,#520,.T.);
#653=ORIENTED_EDGE('',*,*,#521,.T.);
#654=ORIENTED_EDGE('',*,*,#522,.T.);
#655=ORIENTED_EDGE('',*,*,#523,.T.);
#656=ORIENTED_EDGE('',*,*,#524,.T.);
#657=ORIENTED_EDGE('',*,*,#525,.T.);
#658=ORIENTED_EDGE('',*,*,#526,.T.);
#659=ORIENTED_EDGE('',*,*,#527,.T.);
#660=ORIENTED_EDGE('',*,*,#524,.F.);
#661=ORIENTED_EDGE('',*,*,#528,.F.);
#662=ORIENTED_EDGE('',*,*,#522,.F.);
#663=ORIENTED_EDGE('',*,*,#529,.T.);
#664=ORIENTED_EDGE('',*,*,#525,.F.);
#665=ORIENTED_EDGE('',*,*,#527,.F.);
#666=ORIENTED_EDGE('',*,*,#521,.F.);
#667=ORIENTED_EDGE('',*,*,#530,.T.);
#668=ORIENTED_EDGE('',*,*,#526,.F.);
#669=ORIENTED_EDGE('',*,*,#529,.F.);
#670=ORIENTED_EDGE('',*,*,#520,.F.);
#671=ORIENTED_EDGE('',*,*,#528,.T.);
#672=ORIENTED_EDGE('',*,*,#523,.F.);
#673=ORIENTED_EDGE('',*,*,#530,.F.);
#674=ORIENTED_EDGE('',*,*,#519,.F.);
#675=ORIENTED_EDGE('',*,*,#531,.T.);
#676=ORIENTED_EDGE('',*,*,#532,.T.);
#677=ORIENTED_EDGE('',*,*,#533,.T.);
#678=ORIENTED_EDGE('',*,*,#534,.T.);
#679=ORIENTED_EDGE('',*,*,#535,.T.);
#680=ORIENTED_EDGE('',*,*,#536,.T.);
#681=ORIENTED_EDGE('',*,*,#537,.T.);
#682=ORIENTED_EDGE('',*,*,#538,.T.);
#683=ORIENTED_EDGE('',*,*,#539,.T.);
#684=ORIENTED_EDGE('',*,*,#536,.F.);
#685=ORIENTED_EDGE('',*,*,#540,.F.);
#686=ORIENTED_EDGE('',*,*,#534,.F.);
#687=ORIENTED_EDGE('',*,*,#541,.T.);
#688=ORIENTED_EDGE('',*,*,#537,.F.);
#689=ORIENTED_EDGE('',*,*,#539,.F.);
#690=ORIENTED_EDGE('',*,*,#533,.F.);
#691=ORIENTED_EDGE('',*,*,#542,.T.);
#692=ORIENTED_EDGE('',*,*,#538,.F.);
#693=ORIENTED_EDGE('',*,*,#541,.F.);
#694=ORIENTED_EDGE('',*,*,#532,.F.);
#695=ORIENTED_EDGE('',*,*,#540,.T.);
#696=ORIENTED_EDGE('',*,*,#535,.F.);
#697=ORIENTED_EDGE('',*,*,#542,.F.);
#698=ORIENTED_EDGE('',*,*,#531,.F.);
#699=ORIENTED_EDGE('',*,*,#543,.T.);
#700=ORIENTED_EDGE('',*,*,#544,.T.);
#701=ORIENTED_EDGE('',*,*,#545,.T.);
#702=ORIENTED_EDGE('',*,*,#546,.T.);
#703=ORIENTED_EDGE('',*,*,#547,.T.);
#704=ORIENTED_EDGE('',*,*,#548,.T.);
#705=ORIENTED_EDGE('',*,*,#549,.T.);
#706=ORIENTED_EDGE('',*,*,#550,.T.);
#707=ORIENTED_EDGE('',*,*,#551,.T.);
#708=ORIENTED_EDGE('',*,*,#548,.F.);
#709=ORIENTED_EDGE('',*,*,#552,.F.);
#710=ORIENTED_EDGE('',*,*,#546,.F.);
#711=ORIENTED_EDGE('',*,*,#553,.T.);
#712=ORIENTED_EDGE('',*,*,#549,.F.);
#713=ORIENTED_EDGE('',*,*,#551,.F.);
#714=ORIENTED_EDGE('',*,*,#545,.F.);
#715=ORIENTED_EDGE('',*,*,#554,.T.);
#716=ORIENTED_EDGE('',*,*,#550,.F.);
#717=ORIENTED_EDGE('',*,*,#553,.F.);
#718=ORIENTED_EDGE('',*,*,#544,.F.);
#719=ORIENTED_EDGE('',*,*,#552,.T.);
#720=ORIENTED_EDGE('',*,*,#547,.F.);
#721=ORIENTED_EDGE('',*,*,#554,.F.);
#722=ORIENTED_EDGE('',*,*,#543,.F.);
#723=ORIENTED_EDGE('',*,*,#555,.T.);
#724=ORIENTED_EDGE('',*,*,#556,.T.);
#725=ORIENTED_EDGE('',*,*,#557,.T.);
#726=ORIENTED_EDGE('',*,*,#558,.T.);
#727=ORIENTED_EDGE('',*,*,#559,.T.);
#728=ORIENTED_EDGE('',*,*,#560,.T.);
#729=ORIENTED_EDGE('',*,*,#561,.T.);
#730=ORIENTED_EDGE('',*,*,#562,.T.);
#731=ORIENTED_EDGE('',*,*,#563,.T.);
#732=ORIENTED_EDGE('',*,*,#560,.F.);
#733=ORIENTED_EDGE('',*,*,#564,.F.);
#734=ORIENTED_EDGE('',*,*,#558,.F.);
#735=ORIENTED_EDGE('',*,*,#565,.T.);
#736=ORIENTED_EDGE('',*,*,#561,.F.);
#737=ORIENTED_EDGE('',*,*,#563,.F.);
#738=ORIENTED_EDGE('',*,*,#557,.F.);
#739=ORIENTED_EDGE('',*,*,#566,.T.);
#740=ORIENTED_EDGE('',*,*,#562,.F.);
#741=ORIENTED_EDGE('',*,*,#565,.F.);
#742=ORIENTED_EDGE('',*,*,#556,.F.);
#743=ORIENTED_EDGE('',*,*,#564,.T.);
#744=ORIENTED_EDGE('',*,*,#559,.F.);
#745=ORIENTED_EDGE('',*,*,#566,.F.);
#746=ORIENTED_EDGE('',*,*,#555,.F.);
#747=ORIENTED_EDGE('',*,*,#567,.T.);
#748=ORIENTED_EDGE('',*,*,#568,.T.);
#749=ORIENTED_EDGE('',*,*,#569,.T.);
#750=ORIENTED_EDGE('',*,*,#570,.T.);
#751=ORIENTED_EDGE('',*,*,#571,.T.);
#752=ORIENTED_EDGE('',*,*,#572,.T.);
#753=ORIENTED_EDGE('',*,*,#573,.T.);
#754=ORIENTED_EDGE('',*,*,#574,.T.);
#755=ORIENTED_EDGE('',*,*,#575,.T.);
#756=ORIENTED_EDGE('',*,*,#572,.F.);
#757=ORIENTED_EDGE('',*,*,#576,.F.);
#758=ORIENTED_EDGE('',*,*,#570,.F.);
#759=ORIENTED_EDGE('',*,*,#577,.T.);
#760=ORIENTED_EDGE('',*,*,#573,.F.);
#761=ORIENTED_EDGE('',*,*,#575,.F.);
#762=ORIENTED_EDGE('',*,*,#569,.F.);
#763=ORIENTED_EDGE('',*,*,#578,.T.);
#764=ORIENTED_EDGE('',*,*,#574,.F.);
#765=ORIENTED_EDGE('',*,*,#577,.F.);
#766=ORIENTED_EDGE('',*,*,#568,.F.);
#767=ORIENTED_EDGE('',*,*,#576,.T.);
#768=ORIENTED_EDGE('',*,*,#571,.F.);
#769=ORIENTED_EDGE('',*,*,#578,.F.);
#770=ORIENTED_EDGE('',*,*,#567,.F.);
#771=ORIENTED_EDGE('',*,*,#579,.T.);
#772=ORIENTED_EDGE('',*,*,#580,.T.);
#773=ORIENTED_EDGE('',*,*,#581,.T.);
#774=ORIENTED_EDGE('',*,*,#582,.T.);
#775=ORIENTED_EDGE('',*,*,#583,.T.);
#776=ORIENTED_EDGE('',*,*,#584,.T.);
#777=ORIENTED_EDGE('',*,*,#585,.T.);
#778=ORIENTED_EDGE('',*,*,#586,.T.);
#779=ORIENTED_EDGE('',*,*,#587,.T.);
#780=ORIENTED_EDGE('',*,*,#584,.F.);
#781=ORIENTED_EDGE('',*,*,#588,.F.);
#782=ORIENTED_EDGE('',*,*,#582,.F.);
#783=ORIENTED_EDGE('',*,*,#589,.T.);
#784=ORIENTED_EDGE('',*,*,#585,.F.);
#785=ORIENTED_EDGE('',*,*,#587,.F.);
#786=ORIENTED_EDGE('',*,*,#581,.F.);
#787=ORIENTED_EDGE('',*,*,#590,.T.);
#788=ORIENTED_EDGE('',*,*,#586,.F.);
#789=ORIENTED_EDGE('',*,*,#589,.F.);
#790=ORIENTED_EDGE('',*,*,#580,.F.);
#791=ORIENTED_EDGE('',*,*,#588,.T.);
#792=ORIENTED_EDGE('',*,*,#583,.F.);
#793=ORIENTED_EDGE('',*,*,#590,.F.);
#794=ORIENTED_EDGE('',*,*,#579,.F.);
#795=ORIENTED_EDGE('',*,*,#591,.T.);
#796=ORIENTED_EDGE('',*,*,#592,.T.);
#797=ORIENTED_EDGE('',*,*,#593,.T.);
#798=ORIENTED_EDGE('',*,*,#594,.T.);
#799=ORIENTED_EDGE('',*,*,#595,.T.);
#800=ORIENTED_EDGE('',*,*,#596,.T.);
#801=ORIENTED_EDGE('',*,*,#597,.T.);
#802=ORIENTED_EDGE('',*,*,#598,.T.);
#803=ORIENTED_EDGE('',*,*,#599,.T.);
#804=ORIENTED_EDGE('',*,*,#596,.F.);
#805=ORIENTED_EDGE('',*,*,#600,.F.);
#806=ORIENTED_EDGE('',*,*,#594,.F.);
#807=ORIENTED_EDGE('',*,*,#601,.T.);
#808=ORIENTED_EDGE('',*,*,#597,.F.);
#809=ORIENTED_EDGE('',*,*,#599,.F.);
#810=ORIENTED_EDGE('',*,*,#593,.F.);
#811=ORIENTED_EDGE('',*,*,#602,.T.);
#812=ORIENTED_EDGE('',*,*,#598,.F.);
#813=ORIENTED_EDGE('',*,*,#601,.F.);
#814=ORIENTED_EDGE('',*,*,#592,.F.);
#815=ORIENTED_EDGE('',*,*,#600,.T.);
#816=ORIENTED_EDGE('',*,*,#595,.F.);
#817=ORIENTED_EDGE('',*,*,#602,.F.);
#818=ORIENTED_EDGE('',*,*,#591,.F.);
#819=ORIENTED_EDGE('',*,*,#603,.T.);
#820=ORIENTED_EDGE('',*,*,#604,.T.);
#821=ORIENTED_EDGE('',*,*,#605,.T.);
#822=ORIENTED_EDGE('',*,*,#606,.T.);
#823=ORIENTED_EDGE('',*,*,#607,.T.);
#824=ORIENTED_EDGE('',*,*,#608,.T.);
#825=ORIENTED_EDGE('',*,*,#609,.T.);
#826=ORIENTED_EDGE('',*,*,#610,.T.);
#827=ORIENTED_EDGE('',*,*,#611,.T.);
#828=ORIENTED_EDGE('',*,*,#608,.F.);
#829=ORIENTED_EDGE('',*,*,#612,.F.);
#830=ORIENTED_EDGE('',*,*,#606,.F.);
#831=ORIENTED_EDGE('',*,*,#613,.T.);
#832=ORIENTED_EDGE('',*,*,#609,.F.);
#833=ORIENTED_EDGE('',*,*,#611,.F.);
#834=ORIENTED_EDGE('',*,*,#605,.F.);
#835=ORIENTED_EDGE('',*,*,#614,.T.);
#836=ORIENTED_EDGE('',*,*,#610,.F.);
#837=ORIENTED_EDGE('',*,*,#613,.F.);
#838=ORIENTED_EDGE('',*,*,#604,.F.);
#839=ORIENTED_EDGE('',*,*,#612,.T.);
#840=ORIENTED_EDGE('',*,*,#607,.F.);
#841=ORIENTED_EDGE('',*,*,#614,.F.);
#842=ORIENTED_EDGE('',*,*,#603,.F.);
#843=ORIENTED_EDGE('',*,*,#615,.T.);
#844=ORIENTED_EDGE('',*,*,#616,.T.);
#845=ORIENTED_EDGE('',*,*,#617,.T.);
#846=ORIENTED_EDGE('',*,*,#618,.T.);
#847=ORIENTED_EDGE('',*,*,#619,.T.);
#848=ORIENTED_EDGE('',*,*,#620,.T.);
#849=ORIENTED_EDGE('',*,*,#621,.T.);
#850=ORIENTED_EDGE('',*,*,#622,.T.);
#851=ORIENTED_EDGE('',*,*,#623,.T.);
#852=ORIENTED_EDGE('',*,*,#620,.F.);
#853=ORIENTED_EDGE('',*,*,#624,.F.);
#854=ORIENTED_EDGE('',*,*,#618,.F.);
#855=ORIENTED_EDGE('',*,*,#625,.T.);
#856=ORIENTED_EDGE('',*,*,#621,.F.);
#857=ORIENTED_EDGE('',*,*,#623,.F.);
#858=ORIENTED_EDGE('',*,*,#617,.F.);
#859=ORIENTED_EDGE('',*,*,#626,.T.);
#860=ORIENTED_EDGE('',*,*,#622,.F.);
#861=ORIENTED_EDGE('',*,*,#625,.F.);
#862=ORIENTED_EDGE('',*,*,#616,.F.);
#863=ORIENTED_EDGE('',*,*,#624,.T.);
#864=ORIENTED_EDGE('',*,*,#619,.F.);
#865=ORIENTED_EDGE('',*,*,#626,.F.);
#866=ORIENTED_EDGE('',*,*,#615,.F.);
#867=ORIENTED_EDGE('',*,*,#627,.T.);
#868=ORIENTED_EDGE('',*,*,#628,.T.);
#869=ORIENTED_EDGE('',*,*,#629,.T.);
#870=ORIENTED_EDGE('',*,*,#630,.T.);
#871=ORIENTED_EDGE('',*,*,#631,.T.);
#872=ORIENTED_EDGE('',*,*,#632,.T.);
#873=ORIENTED_EDGE('',*,*,#633,.T.);
#874=ORIENTED_EDGE('',*,*,#634,.T.);
#875=ORIENTED_EDGE('',*,*,#635,.T.);
#876=ORIENTED_EDGE('',*,*,#632,.F.);
#877=ORIENTED_EDGE('',*,*,#636,.F.);
#878=ORIENTED_EDGE('',*,*,#630,.F.);
#879=ORIENTED_EDGE('',*,*,#637,.T.);
#880=ORIENTED_EDGE('',*,*,#633,.F.);
#881=ORIENTED_EDGE('',*,*,#635,.F.);
#882=ORIENTED_EDGE('',*,*,#629,.F.);
#883=ORIENTED_EDGE('',*,*,#638,.T.);
#884=ORIENTED_EDGE('',*,*,#634,.F.);
#885=ORIENTED_EDGE('',*,*,#637,.F.);
#886=ORIENTED_EDGE('',*,*,#628,.F.);
#887=ORIENTED_EDGE('',*,*,#636,.T.);
#888=ORIENTED_EDGE('',*,*,#631,.F.);
#889=ORIENTED_EDGE('',*,*,#638,.F.);
#890=ORIENTED_EDGE('',*,*,#627,.F.);
#891=ORIENTED_EDGE('',*,*,#639,.T.);
#892=ORIENTED_EDGE('',*,*,#640,.T.);
#893=ORIENTED_EDGE('',*,*,#641,.T.);
#894=ORIENTED_EDGE('',*,*,#642,.T.);
#895=ORIENTED_EDGE('',*,*,#643,.T.);
#896=ORIENTED_EDGE('',*,*,#644,.T.);
#897=ORIENTED_EDGE('',*,*,#645,.T.);
#898=ORIENTED_EDGE('',*,*,#646,.T.);
#899=ORIENTED_EDGE('',*,*,#647,.T.);
#900=ORIENTED_EDGE('',*,*,#644,.F.);
#901=ORIENTED_EDGE('',*,*,#648,.F.);
#902=ORIENTED_EDGE('',*,*,#642,.F.);
#903=ORIENTED_EDGE('',*,*,#649,.T.);
#904=ORIENTED_EDGE('',*,*,#645,.F.);
#905=ORIENTED_EDGE('',*,*,#647,.F.);
#906=ORIENTED_EDGE('',*,*,#641,.F.);
#907=ORIENTED_EDGE('',*,*,#650,.T.);
#908=ORIENTED_EDGE('',*,*,#646,.F.);
#909=ORIENTED_EDGE('',*,*,#649,.F.);
#910=ORIENTED_EDGE('',*,*,#640,.F.);
#911=ORIENTED_EDGE('',*,*,#648,.T.);
#912=ORIENTED_EDGE('',*,*,#643,.F.);
#913=ORIENTED_EDGE('',*,*,#650,.F.);
#914=ORIENTED_EDGE('',*,*,#639,.F.);
#915=PLANE('',#1071);
#916=PLANE('',#1072);
#917=PLANE('',#1073);
#918=PLANE('',#1074);
#919=PLANE('',#1075);
#920=PLANE('',#1076);
#921=PLANE('',#1077);
#922=PLANE('',#1078);
#923=PLANE('',#1079);
#924=PLANE('',#1080);
#925=PLANE('',#1081);
#926=PLANE('',#1082);
#927=PLANE('',#1083);
#928=PLANE('',#1084);
#929=PLANE('',#1085);
#930=PLANE('',#1086);
#931=PLANE('',#1087);
#932=PLANE('',#1088);
#933=PLANE('',#1089);
#934=PLANE('',#1090);
#935=PLANE('',#1091);
#936=PLANE('',#1092);
#937=PLANE('',#1093);
#938=PLANE('',#1094);
#939=PLANE('',#1095);
#940=PLANE('',#1096);
#941=PLANE('',#1097);
#942=PLANE('',#1098);
#943=PLANE('',#1099);
#944=PLANE('',#1100);
#945=PLANE('',#1101);
#946=PLANE('',#1102);
#947=PLANE('',#1103);
#948=PLANE('',#1104);
#949=PLANE('',#1105);
#950=PLANE('',#1106);
#951=PLANE('',#1107);
#952=PLANE('',#1108);
#953=PLANE('',#1109);
#954=PLANE('',#1110);
#955=PLANE('',#1111);
#956=PLANE('',#1112);
#957=PLANE('',#1113);
#958=PLANE('',#1114);
#959=PLANE('',#1115);
#960=PLANE('',#1116);
#961=PLANE('',#1117);
#962=PLANE('',#1118);
#963=PLANE('',#1119);
#964=PLANE('',#1120);
#965=PLANE('',#1121);
#966=PLANE('',#1122);
#967=PLANE('',#1123);
#968=PLANE('',#1124);
#969=PLANE('',#1125);
#970=PLANE('',#1126);
#971=PLANE('',#1127);
#972=PLANE('',#1128);
#973=PLANE('',#1129);
#974=PLANE('',#1130);
#975=PLANE('',#1131);
#976=PLANE('',#1132);
#977=PLANE('',#1133);
#978=PLANE('',#1134);
#979=PLANE('',#1135);
#980=PLANE('',#1136);
#981=ADVANCED_FACE('',(#35),#915,.T.);
#982=ADVANCED_FACE('',(#36),#916,.F.);
#983=ADVANCED_FACE('',(#37),#917,.F.);
#984=ADVANCED_FACE('',(#38),#918,.F.);
#985=ADVANCED_FACE('',(#39),#919,.F.);
#986=ADVANCED_FACE('',(#40),#920,.F.);
#987=ADVANCED_FACE('',(#41),#921,.T.);
#988=ADVANCED_FACE('',(#42),#922,.F.);
#989=ADVANCED_FACE('',(#43),#923,.F.);
#990=ADVANCED_FACE('',(#44),#924,.F.);
#991=ADVANCED_FACE('',(#45),#925,.F.);
#992=ADVANCED_FACE('',(#46),#926,.F.);
#993=ADVANCED_FACE('',(#47),#927,.T.);
#994=ADVANCED_FACE('',(#48),#928,.F.);
#995=ADVANCED_FACE('',(#49),#929,.F.);
#996=ADVANCED_FACE('',(#50),#930,.F.);
#997=ADVANCED_FACE('',(#51),#931,.F.);
#998=ADVANCED_FACE('',(#52),#932,.F.);
#999=ADVANCED_FACE('',(#53),#933,.T.);
#1000=ADVANCED_FACE('',(#54),#934,.F.);
#1001=ADVANCED_FACE('',(#55),#935,.F.);
#1002=ADVANCED_FACE('',(#56),#936,.F.);
#1003=ADVANCED_FACE('',(#57),#937,.F.);
#1004=ADVANCED_FACE('',(#58),#938,.F.);
#1005=ADVANCED_FACE('',(#59),#939,.T.);
#1006=ADVANCED_FACE('',(#60),#940,.F.);
#1007=ADVANCED_FACE('',(#61),#941,.F.);
#1008=ADVANCED_FACE('',(#62),#942,.F.);
#1009=ADVANCED_FACE('',(#63),#943,.F.);
#1010=ADVANCED_FACE('',(#64),#944,.F.);
#1011=ADVANCED_FACE('',(#65),#945,.T.);
#1012=ADVANCED_FACE('',(#66),#946,.F.);
#1013=ADVANCED_FACE('',(#67),#947,.F.);
#1014=ADVANCED_FACE('',(#68),#948,.F.);
#1015=ADVANCED_FACE('',(#69),#949,.F.);
#1016=ADVANCED_FACE('',(#70),#950,.F.);
#1017=ADVANCED_FACE('',(#71),#951,.T.);
#1018=ADVANCED_FACE('',(#72),#952,.F.);
#1019=ADVANCED_FACE('',(#73),#953,.F.);
#1020=ADVANCED_FACE('',(#74),#954,.F.);
#1021=ADVANCED_FACE('',(#75),#955,.F.);
#1022=ADVANCED_FACE('',(#76),#956,.F.);
#1023=ADVANCED_FACE('',(#77),#957,.T.);
#1024=ADVANCED_FACE('',(#78),#958,.F.);
#1025=ADVANCED_FACE('',(#79),#959,.F.);
#1026=ADVANCED_FACE('',(#80),#960,.F.);
#1027=ADVANCED_FACE('',(#81),#961,.F.);
#1028=ADVANCED_FACE('',(#82),#962,.F.);
#1029=ADVANCED_FACE('',(#83),#963,.T.);
#1030=ADVANCED_FACE('',(#84),#964,.F.);
#1031=ADVANCED_FACE('',(#85),#965,.F.);
#1032=ADVANCED_FACE('',(#86),#966,.F.);
#1033=ADVANCED_FACE('',(#87),#967,.F.);
#1034=ADVANCED_FACE('',(#88),#968,.F.);
#1035=ADVANCED_FACE('',(#89),#969,.T.);
#1036=ADVANCED_FACE('',(#90),#970,.F.);
#1037=ADVANCED_FACE('',(#91),#971,.F.);
#1038=ADVANCED_FACE('',(#92),#972,.F.);
#1039=ADVANCED_FACE('',(#93),#973,.F.);
#1040=ADVANCED_FACE('',(#94),#974,.F.);
#1041=ADVANCED_FACE('',(#95),#975,.T.);
#1042=ADVANCED_FACE('',(#96),#976,.F.);
#1043=ADVANCED_FACE('',(#97),#977,.F.);
#1044=ADVANCED_FACE('',(#98),#978,.F.);
#1045=ADVANCED_FACE('',(#99),#979,.F.);
#1046=ADVANCED_FACE('',(#100),#980,.F.);
#1047=CLOSED_SHELL('',(#981,#982,#983,#984,#985,#986));
#1048=CLOSED_SHELL('',(#987,#988,#989,#990,#991,#992));
#1049=CLOSED_SHELL('',(#993,#994,#995,#996,#997,#998));
#1050=CLOSED_SHELL('',(#999,#1000,#1001,#1002,#1003,#1004));
#1051=CLOSED_SHELL('',(#1005,#1006,#1007,#1008,#1009,#1010));
#1052=CLOSED_SHELL('',(#1011,#1012,#1013,#1014,#1015,#1016));
#1053=CLOSED_SHELL('',(#1017,#1018,#1019,#1020,#1021,#1022));
#1054=CLOSED_SHELL('',(#1023,#1024,#1025,#1026,#1027,#1028));
#1055=CLOSED_SHELL('',(#1029,#1030,#1031,#1032,#1033,#1034));
#1056=CLOSED_SHELL('',(#1035,#1036,#1037,#1038,#1039,#1040));
#1057=CLOSED_SHELL('',(#1041,#1042,#1043,#1044,#1045,#1046));
#1058=DERIVED_UNIT_ELEMENT(#1060,1.);
#1059=DERIVED_UNIT_ELEMENT(#1695,-3.);
#1060=(
MASS_UNIT()
NAMED_UNIT(*)
SI_UNIT(.KILO.,.GRAM.)
);
#1061=DERIVED_UNIT((#1058,#1059));
#1062=MEASURE_REPRESENTATION_ITEM('density measure',
POSITIVE_RATIO_MEASURE(7850.),#1061);
#1063=PROPERTY_DEFINITION_REPRESENTATION(#1068,#1065);
#1064=PROPERTY_DEFINITION_REPRESENTATION(#1069,#1066);
#1065=REPRESENTATION('material name',(#1067),#1692);
#1066=REPRESENTATION('density',(#1062),#1692);
#1067=DESCRIPTIVE_REPRESENTATION_ITEM('Steel','Steel');
#1068=PROPERTY_DEFINITION('material property','material name',#1702);
#1069=PROPERTY_DEFINITION('material property','density of part',#1702);
#1070=AXIS2_PLACEMENT_3D('',#1403,#1137,#1138);
#1071=AXIS2_PLACEMENT_3D('',#1404,#1139,#1140);
#1072=AXIS2_PLACEMENT_3D('',#1413,#1145,#1146);
#1073=AXIS2_PLACEMENT_3D('',#1422,#1151,#1152);
#1074=AXIS2_PLACEMENT_3D('',#1425,#1155,#1156);
#1075=AXIS2_PLACEMENT_3D('',#1427,#1158,#1159);
#1076=AXIS2_PLACEMENT_3D('',#1429,#1161,#1162);
#1077=AXIS2_PLACEMENT_3D('',#1430,#1163,#1164);
#1078=AXIS2_PLACEMENT_3D('',#1439,#1169,#1170);
#1079=AXIS2_PLACEMENT_3D('',#1448,#1175,#1176);
#1080=AXIS2_PLACEMENT_3D('',#1451,#1179,#1180);
#1081=AXIS2_PLACEMENT_3D('',#1453,#1182,#1183);
#1082=AXIS2_PLACEMENT_3D('',#1455,#1185,#1186);
#1083=AXIS2_PLACEMENT_3D('',#1456,#1187,#1188);
#1084=AXIS2_PLACEMENT_3D('',#1465,#1193,#1194);
#1085=AXIS2_PLACEMENT_3D('',#1474,#1199,#1200);
#1086=AXIS2_PLACEMENT_3D('',#1477,#1203,#1204);
#1087=AXIS2_PLACEMENT_3D('',#1479,#1206,#1207);
#1088=AXIS2_PLACEMENT_3D('',#1481,#1209,#1210);
#1089=AXIS2_PLACEMENT_3D('',#1482,#1211,#1212);
#1090=AXIS2_PLACEMENT_3D('',#1491,#1217,#1218);
#1091=AXIS2_PLACEMENT_3D('',#1500,#1223,#1224);
#1092=AXIS2_PLACEMENT_3D('',#1503,#1227,#1228);
#1093=AXIS2_PLACEMENT_3D('',#1505,#1230,#1231);
#1094=AXIS2_PLACEMENT_3D('',#1507,#1233,#1234);
#1095=AXIS2_PLACEMENT_3D('',#1508,#1235,#1236);
#1096=AXIS2_PLACEMENT_3D('',#1517,#1241,#1242);
#1097=AXIS2_PLACEMENT_3D('',#1526,#1247,#1248);
#1098=AXIS2_PLACEMENT_3D('',#1529,#1251,#1252);
#1099=AXIS2_PLACEMENT_3D('',#1531,#1254,#1255);
#1100=AXIS2_PLACEMENT_3D('',#1533,#1257,#1258);
#1101=AXIS2_PLACEMENT_3D('',#1534,#1259,#1260);
#1102=AXIS2_PLACEMENT_3D('',#1543,#1265,#1266);
#1103=AXIS2_PLACEMENT_3D('',#1552,#1271,#1272);
#1104=AXIS2_PLACEMENT_3D('',#1555,#1275,#1276);
#1105=AXIS2_PLACEMENT_3D('',#1557,#1278,#1279);
#1106=AXIS2_PLACEMENT_3D('',#1559,#1281,#1282);
#1107=AXIS2_PLACEMENT_3D('',#1560,#1283,#1284);
#1108=AXIS2_PLACEMENT_3D('',#1569,#1289,#1290);
#1109=AXIS2_PLACEMENT_3D('',#1578,#1295,#1296);
#1110=AXIS2_PLACEMENT_3D('',#1581,#1299,#1300);
#1111=AXIS2_PLACEMENT_3D('',#1583,#1302,#1303);
#1112=AXIS2_PLACEMENT_3D('',#1585,#1305,#1306);
#1113=AXIS2_PLACEMENT_3D('',#1586,#1307,#1308);
#1114=AXIS2_PLACEMENT_3D('',#1595,#1313,#1314);
#1115=AXIS2_PLACEMENT_3D('',#1604,#1319,#1320);
#1116=AXIS2_PLACEMENT_3D('',#1607,#1323,#1324);
#1117=AXIS2_PLACEMENT_3D('',#1609,#1326,#1327);
#1118=AXIS2_PLACEMENT_3D('',#1611,#1329,#1330);
#1119=AXIS2_PLACEMENT_3D('',#1612,#1331,#1332);
#1120=AXIS2_PLACEMENT_3D('',#1621,#1337,#1338);
#1121=AXIS2_PLACEMENT_3D('',#1630,#1343,#1344);
#1122=AXIS2_PLACEMENT_3D('',#1633,#1347,#1348);
#1123=AXIS2_PLACEMENT_3D('',#1635,#1350,#1351);
#1124=AXIS2_PLACEMENT_3D('',#1637,#1353,#1354);
#1125=AXIS2_PLACEMENT_3D('',#1638,#1355,#1356);
#1126=AXIS2_PLACEMENT_3D('',#1647,#1361,#1362);
#1127=AXIS2_PLACEMENT_3D('',#1656,#1367,#1368);
#1128=AXIS2_PLACEMENT_3D('',#1659,#1371,#1372);
#1129=AXIS2_PLACEMENT_3D('',#1661,#1374,#1375);
#1130=AXIS2_PLACEMENT_3D('',#1663,#1377,#1378);
#1131=AXIS2_PLACEMENT_3D('',#1664,#1379,#1380);
#1132=AXIS2_PLACEMENT_3D('',#1673,#1385,#1386);
#1133=AXIS2_PLACEMENT_3D('',#1682,#1391,#1392);
#1134=AXIS2_PLACEMENT_3D('',#1685,#1395,#1396);
#1135=AXIS2_PLACEMENT_3D('',#1687,#1398,#1399);
#1136=AXIS2_PLACEMENT_3D('',#1689,#1401,#1402);
#1137=DIRECTION('axis',(0.,0.,1.));
#1138=DIRECTION('refdir',(1.,0.,0.));
#1139=DIRECTION('center_axis',(0.,0.,1.));
#1140=DIRECTION('ref_axis',(1.,0.,0.));
#1141=DIRECTION('',(0.,1.,0.));
#1142=DIRECTION('',(-1.,0.,0.));
#1143=DIRECTION('',(0.,-1.,0.));
#1144=DIRECTION('',(1.,0.,0.));
#1145=DIRECTION('center_axis',(0.,0.,1.));
#1146=DIRECTION('ref_axis',(1.,0.,0.));
#1147=DIRECTION('',(0.,-1.,0.));
#1148=DIRECTION('',(-1.,0.,0.));
#1149=DIRECTION('',(0.,1.,0.));
#1150=DIRECTION('',(1.,0.,0.));
#1151=DIRECTION('center_axis',(0.,1.,0.));
#1152=DIRECTION('ref_axis',(0.,0.,1.));
#1153=DIRECTION('',(0.,0.,-1.));
#1154=DIRECTION('',(0.,0.,-1.));
#1155=DIRECTION('center_axis',(1.,0.,0.));
#1156=DIRECTION('ref_axis',(0.,0.,-1.));
#1157=DIRECTION('',(0.,0.,-1.));
#1158=DIRECTION('center_axis',(0.,-1.,0.));
#1159=DIRECTION('ref_axis',(0.,0.,-1.));
#1160=DIRECTION('',(0.,0.,-1.));
#1161=DIRECTION('center_axis',(-1.,0.,0.));
#1162=DIRECTION('ref_axis',(0.,0.,1.));
#1163=DIRECTION('center_axis',(0.,0.,1.));
#1164=DIRECTION('ref_axis',(1.,0.,0.));
#1165=DIRECTION('',(0.,1.,0.));
#1166=DIRECTION('',(-1.,0.,0.));
#1167=DIRECTION('',(0.,-1.,0.));
#1168=DIRECTION('',(1.,0.,0.));
#1169=DIRECTION('center_axis',(0.,0.,1.));
#1170=DIRECTION('ref_axis',(1.,0.,0.));
#1171=DIRECTION('',(0.,-1.,0.));
#1172=DIRECTION('',(-1.,0.,0.));
#1173=DIRECTION('',(0.,1.,0.));
#1174=DIRECTION('',(1.,0.,0.));
#1175=DIRECTION('center_axis',(0.,1.,0.));
#1176=DIRECTION('ref_axis',(0.,0.,1.));
#1177=DIRECTION('',(0.,0.,-1.));
#1178=DIRECTION('',(0.,0.,-1.));
#1179=DIRECTION('center_axis',(1.,0.,0.));
#1180=DIRECTION('ref_axis',(0.,0.,-1.));
#1181=DIRECTION('',(0.,0.,-1.));
#1182=DIRECTION('center_axis',(0.,-1.,0.));
#1183=DIRECTION('ref_axis',(0.,0.,-1.));
#1184=DIRECTION('',(0.,0.,-1.));
#1185=DIRECTION('center_axis',(-1.,0.,0.));
#1186=DIRECTION('ref_axis',(0.,0.,1.));
#1187=DIRECTION('center_axis',(0.,0.,1.));
#1188=DIRECTION('ref_axis',(1.,0.,0.));
#1189=DIRECTION('',(0.,1.,0.));
#1190=DIRECTION('',(-1.,0.,0.));
#1191=DIRECTION('',(0.,-1.,0.));
#1192=DIRECTION('',(1.,0.,0.));
#1193=DIRECTION('center_axis',(0.,0.,1.));
#1194=DIRECTION('ref_axis',(1.,0.,0.));
#1195=DIRECTION('',(0.,-1.,0.));
#1196=DIRECTION('',(-1.,0.,0.));
#1197=DIRECTION('',(0.,1.,0.));
#1198=DIRECTION('',(1.,0.,0.));
#1199=DIRECTION('center_axis',(0.,1.,0.));
#1200=DIRECTION('ref_axis',(0.,0.,1.));
#1201=DIRECTION('',(0.,0.,-1.));
#1202=DIRECTION('',(0.,0.,-1.));
#1203=DIRECTION('center_axis',(1.,0.,0.));
#1204=DIRECTION('ref_axis',(0.,0.,-1.));
#1205=DIRECTION('',(0.,0.,-1.));
#1206=DIRECTION('center_axis',(0.,-1.,0.));
#1207=DIRECTION('ref_axis',(0.,0.,-1.));
#1208=DIRECTION('',(0.,0.,-1.));
#1209=DIRECTION('center_axis',(-1.,0.,0.));
#1210=DIRECTION('ref_axis',(0.,0.,1.));
#1211=DIRECTION('center_axis',(0.,0.,1.));
#1212=DIRECTION('ref_axis',(1.,0.,0.));
#1213=DIRECTION('',(0.,1.,0.));
#1214=DIRECTION('',(-1.,0.,0.));
#1215=DIRECTION('',(0.,-1.,0.));
#1216=DIRECTION('',(1.,0.,0.));
#1217=DIRECTION('center_axis',(0.,0.,1.));
#1218=DIRECTION('ref_axis',(1.,0.,0.));
#1219=DIRECTION('',(0.,-1.,0.));
#1220=DIRECTION('',(-1.,0.,0.));
#1221=DIRECTION('',(0.,1.,0.));
#1222=DIRECTION('',(1.,0.,0.));
#1223=DIRECTION('center_axis',(0.,1.,0.));
#1224=DIRECTION('ref_axis',(0.,0.,1.));
#1225=DIRECTION('',(0.,0.,-1.));
#1226=DIRECTION('',(0.,0.,-1.));
#1227=DIRECTION('center_axis',(1.,0.,0.));
#1228=DIRECTION('ref_axis',(0.,0.,-1.));
#1229=DIRECTION('',(0.,0.,-1.));
#1230=DIRECTION('center_axis',(0.,-1.,0.));
#1231=DIRECTION('ref_axis',(0.,0.,-1.));
#1232=DIRECTION('',(0.,0.,-1.));
#1233=DIRECTION('center_axis',(-1.,0.,0.));
#1234=DIRECTION('ref_axis',(0.,0.,1.));
#1235=DIRECTION('center_axis',(0.,0.,1.));
#1236=DIRECTION('ref_axis',(1.,0.,0.));
#1237=DIRECTION('',(0.,1.,0.));
#1238=DIRECTION('',(-1.,0.,0.));
#1239=DIRECTION('',(0.,-1.,0.));
#1240=DIRECTION('',(1.,0.,0.));
#1241=DIRECTION('center_axis',(0.,0.,1.));
#1242=DIRECTION('ref_axis',(1.,0.,0.));
#1243=DIRECTION('',(0.,-1.,0.));
#1244=DIRECTION('',(-1.,0.,0.));
#1245=DIRECTION('',(0.,1.,0.));
#1246=DIRECTION('',(1.,0.,0.));
#1247=DIRECTION('center_axis',(0.,1.,0.));
#1248=DIRECTION('ref_axis',(0.,0.,1.));
#1249=DIRECTION('',(0.,0.,-1.));
#1250=DIRECTION('',(0.,0.,-1.));
#1251=DIRECTION('center_axis',(1.,0.,0.));
#1252=DIRECTION('ref_axis',(0.,0.,-1.));
#1253=DIRECTION('',(0.,0.,-1.));
#1254=DIRECTION('center_axis',(0.,-1.,0.));
#1255=DIRECTION('ref_axis',(0.,0.,-1.));
#1256=DIRECTION('',(0.,0.,-1.));
#1257=DIRECTION('center_axis',(-1.,0.,0.));
#1258=DIRECTION('ref_axis',(0.,0.,1.));
#1259=DIRECTION('center_axis',(0.,0.,1.));
#1260=DIRECTION('ref_axis',(1.,0.,0.));
#1261=DIRECTION('',(0.,1.,0.));
#1262=DIRECTION('',(-1.,0.,0.));
#1263=DIRECTION('',(0.,-1.,0.));
#1264=DIRECTION('',(1.,0.,0.));
#1265=DIRECTION('center_axis',(0.,0.,1.));
#1266=DIRECTION('ref_axis',(1.,0.,0.));
#1267=DIRECTION('',(0.,-1.,0.));
#1268=DIRECTION('',(-1.,0.,0.));
#1269=DIRECTION('',(0.,1.,0.));
#1270=DIRECTION('',(1.,0.,0.));
#1271=DIRECTION('center_axis',(0.,1.,0.));
#1272=DIRECTION('ref_axis',(0.,0.,1.));
#1273=DIRECTION('',(0.,0.,-1.));
#1274=DIRECTION('',(0.,0.,-1.));
#1275=DIRECTION('center_axis',(1.,0.,0.));
#1276=DIRECTION('ref_axis',(0.,0.,-1.));
#1277=DIRECTION('',(0.,0.,-1.));
#1278=DIRECTION('center_axis',(0.,-1.,0.));
#1279=DIRECTION('ref_axis',(0.,0.,-1.));
#1280=DIRECTION('',(0.,0.,-1.));
#1281=DIRECTION('center_axis',(-1.,0.,0.));
#1282=DIRECTION('ref_axis',(0.,0.,1.));
#1283=DIRECTION('center_axis',(0.,0.,1.));
#1284=DIRECTION('ref_axis',(1.,0.,0.));
#1285=DIRECTION('',(0.,1.,0.));
#1286=DIRECTION('',(-1.,0.,0.));
#1287=DIRECTION('',(0.,-1.,0.));
#1288=DIRECTION('',(1.,0.,0.));
#1289=DIRECTION('center_axis',(0.,0.,1.));
#1290=DIRECTION('ref_axis',(1.,0.,0.));
#1291=DIRECTION('',(0.,-1.,0.));
#1292=DIRECTION('',(-1.,0.,0.));
#1293=DIRECTION('',(0.,1.,0.));
#1294=DIRECTION('',(1.,0.,0.));
#1295=DIRECTION('center_axis',(0.,1.,0.));
#1296=DIRECTION('ref_axis',(0.,0.,1.));
#1297=DIRECTION('',(0.,0.,-1.));
#1298=DIRECTION('',(0.,0.,-1.));
#1299=DIRECTION('center_axis',(1.,0.,0.));
#1300=DIRECTION('ref_axis',(0.,0.,-1.));
#1301=DIRECTION('',(0.,0.,-1.));
#1302=DIRECTION('center_axis',(0.,-1.,0.));
#1303=DIRECTION('ref_axis',(0.,0.,-1.));
#1304=DIRECTION('',(0.,0.,-1.));
#1305=DIRECTION('center_axis',(-1.,0.,0.));
#1306=DIRECTION('ref_axis',(0.,0.,1.));
#1307=DIRECTION('center_axis',(0.,0.,1.));
#1308=DIRECTION('ref_axis',(1.,0.,0.));
#1309=DIRECTION('',(0.,1.,0.));
#1310=DIRECTION('',(-1.,0.,0.));
#1311=DIRECTION('',(0.,-1.,0.));
#1312=DIRECTION('',(1.,0.,0.));
#1313=DIRECTION('center_axis',(0.,0.,1.));
#1314=DIRECTION('ref_axis',(1.,0.,0.));
#1315=DIRECTION('',(0.,-1.,0.));
#1316=DIRECTION('',(-1.,0.,0.));
#1317=DIRECTION('',(0.,1.,0.));
#1318=DIRECTION('',(1.,0.,0.));
#1319=DIRECTION('center_axis',(0.,1.,0.));
#1320=DIRECTION('ref_axis',(0.,0.,1.));
#1321=DIRECTION('',(0.,0.,-1.));
#1322=DIRECTION('',(0.,0.,-1.));
#1323=DIRECTION('center_axis',(1.,0.,0.));
#1324=DIRECTION('ref_axis',(0.,0.,-1.));
#1325=DIRECTION('',(0.,0.,-1.));
#1326=DIRECTION('center_axis',(0.,-1.,0.));
#1327=DIRECTION('ref_axis',(0.,0.,-1.));
#1328=DIRECTION('',(0.,0.,-1.));
#1329=DIRECTION('center_axis',(-1.,0.,0.));
#1330=DIRECTION('ref_axis',(0.,0.,1.));
#1331=DIRECTION('center_axis',(0.,0.,1.));
#1332=DIRECTION('ref_axis',(1.,0.,0.));
#1333=DIRECTION('',(0.,1.,0.));
#1334=DIRECTION('',(-1.,0.,0.));
#1335=DIRECTION('',(0.,-1.,0.));
#1336=DIRECTION('',(1.,0.,0.));
#1337=DIRECTION('center_axis',(0.,0.,1.));
#1338=DIRECTION('ref_axis',(1.,0.,0.));
#1339=DIRECTION('',(0.,-1.,0.));
#1340=DIRECTION('',(-1.,0.,0.));
#1341=DIRECTION('',(0.,1.,0.));
#1342=DIRECTION('',(1.,0.,0.));
#1343=DIRECTION('center_axis',(0.,1.,0.));
#1344=DIRECTION('ref_axis',(0.,0.,1.));
#1345=DIRECTION('',(0.,0.,-1.));
#1346=DIRECTION('',(0.,0.,-1.));
#1347=DIRECTION('center_axis',(1.,0.,0.));
#1348=DIRECTION('ref_axis',(0.,0.,-1.));
#1349=DIRECTION('',(0.,0.,-1.));
#1350=DIRECTION('center_axis',(0.,-1.,0.));
#1351=DIRECTION('ref_axis',(0.,0.,-1.));
#1352=DIRECTION('',(0.,0.,-1.));
#1353=DIRECTION('center_axis',(-1.,0.,0.));
#1354=DIRECTION('ref_axis',(0.,0.,1.));
#1355=DIRECTION('center_axis',(0.,0.,1.));
#1356=DIRECTION('ref_axis',(1.,0.,0.));
#1357=DIRECTION('',(0.,1.,0.));
#1358=DIRECTION('',(-1.,0.,0.));
#1359=DIRECTION('',(0.,-1.,0.));
#1360=DIRECTION('',(1.,0.,0.));
#1361=DIRECTION('center_axis',(0.,0.,1.));
#1362=DIRECTION('ref_axis',(1.,0.,0.));
#1363=DIRECTION('',(0.,-1.,0.));
#1364=DIRECTION('',(-1.,0.,0.));
#1365=DIRECTION('',(0.,1.,0.));
#1366=DIRECTION('',(1.,0.,0.));
#1367=DIRECTION('center_axis',(0.,1.,0.));
#1368=DIRECTION('ref_axis',(0.,0.,1.));
#1369=DIRECTION('',(0.,0.,-1.));
#1370=DIRECTION('',(0.,0.,-1.));
#1371=DIRECTION('center_axis',(1.,0.,0.));
#1372=DIRECTION('ref_axis',(0.,0.,-1.));
#1373=DIRECTION('',(0.,0.,-1.));
#1374=DIRECTION('center_axis',(0.,-1.,0.));
#1375=DIRECTION('ref_axis',(0.,0.,-1.));
#1376=DIRECTION('',(0.,0.,-1.));
#1377=DIRECTION('center_axis',(-1.,0.,0.));
#1378=DIRECTION('ref_axis',(0.,0.,1.));
#1379=DIRECTION('center_axis',(0.,0.,1.));
#1380=DIRECTION('ref_axis',(1.,0.,0.));
#1381=DIRECTION('',(0.,1.,0.));
#1382=DIRECTION('',(-1.,0.,0.));
#1383=DIRECTION('',(0.,-1.,0.));
#1384=DIRECTION('',(1.,0.,0.));
#1385=DIRECTION('center_axis',(0.,0.,1.));
#1386=DIRECTION('ref_axis',(1.,0.,0.));
#1387=DIRECTION('',(0.,-1.,0.));
#1388=DIRECTION('',(-1.,0.,0.));
#1389=DIRECTION('',(0.,1.,0.));
#1390=DIRECTION('',(1.,0.,0.));
#1391=DIRECTION('center_axis',(0.,1.,0.));
#1392=DIRECTION('ref_axis',(0.,0.,1.));
#1393=DIRECTION('',(0.,0.,-1.));
#1394=DIRECTION('',(0.,0.,-1.));
#1395=DIRECTION('center_axis',(1.,0.,0.));
#1396=DIRECTION('ref_axis',(0.,0.,-1.));
#1397=DIRECTION('',(0.,0.,-1.));
#1398=DIRECTION('center_axis',(0.,-1.,0.));
#1399=DIRECTION('ref_axis',(0.,0.,-1.));
#1400=DIRECTION('',(0.,0.,-1.));
#1401=DIRECTION('center_axis',(-1.,0.,0.));
#1402=DIRECTION('ref_axis',(0.,0.,1.));
#1403=CARTESIAN_POINT('',(0.,0.,0.));
#1404=CARTESIAN_POINT('Origin',(0.89,1.015,0.36));
#1405=CARTESIAN_POINT('',(1.78,0.,0.36));
#1406=CARTESIAN_POINT('',(1.78,2.03,0.36));
#1407=CARTESIAN_POINT('',(1.78,1.015,0.36));
#1408=CARTESIAN_POINT('',(0.,2.03,0.36));
#1409=CARTESIAN_POINT('',(0.89,2.03,0.36));
#1410=CARTESIAN_POINT('',(0.,0.,0.36));
#1411=CARTESIAN_POINT('',(0.,1.015,0.36));
#1412=CARTESIAN_POINT('',(0.89,0.,0.36));
#1413=CARTESIAN_POINT('Origin',(0.89,1.015,0.2));
#1414=CARTESIAN_POINT('',(1.78,2.03,0.2));
#1415=CARTESIAN_POINT('',(1.78,0.,0.2));
#1416=CARTESIAN_POINT('',(1.78,1.015,0.2));
#1417=CARTESIAN_POINT('',(0.,0.,0.2));
#1418=CARTESIAN_POINT('',(0.89,0.,0.2));
#1419=CARTESIAN_POINT('',(0.,2.03,0.2));
#1420=CARTESIAN_POINT('',(0.,1.015,0.2));
#1421=CARTESIAN_POINT('',(0.89,2.03,0.2));
#1422=CARTESIAN_POINT('Origin',(0.89,0.,0.28));
#1423=CARTESIAN_POINT('',(0.,0.,0.28));
#1424=CARTESIAN_POINT('',(1.78,0.,0.28));
#1425=CARTESIAN_POINT('Origin',(0.,1.015,0.28));
#1426=CARTESIAN_POINT('',(0.,2.03,0.28));
#1427=CARTESIAN_POINT('Origin',(0.89,2.03,0.28));
#1428=CARTESIAN_POINT('',(1.78,2.03,0.28));
#1429=CARTESIAN_POINT('Origin',(1.78,1.015,0.28));
#1430=CARTESIAN_POINT('Origin',(0.9,1.35,0.88));
#1431=CARTESIAN_POINT('',(1.4,0.9,0.88));
#1432=CARTESIAN_POINT('',(1.4,1.8,0.88));
#1433=CARTESIAN_POINT('',(1.4,1.35,0.88));
#1434=CARTESIAN_POINT('',(0.4,1.8,0.88));
#1435=CARTESIAN_POINT('',(0.9,1.8,0.88));
#1436=CARTESIAN_POINT('',(0.4,0.9,0.88));
#1437=CARTESIAN_POINT('',(0.4,1.35,0.88));
#1438=CARTESIAN_POINT('',(0.9,0.9,0.88));
#1439=CARTESIAN_POINT('Origin',(0.9,1.35,0.36));
#1440=CARTESIAN_POINT('',(1.4,1.8,0.36));
#1441=CARTESIAN_POINT('',(1.4,0.9,0.36));
#1442=CARTESIAN_POINT('',(1.4,1.35,0.36));
#1443=CARTESIAN_POINT('',(0.4,0.9,0.36));
#1444=CARTESIAN_POINT('',(0.9,0.9,0.36));
#1445=CARTESIAN_POINT('',(0.4,1.8,0.36));
#1446=CARTESIAN_POINT('',(0.4,1.35,0.36));
#1447=CARTESIAN_POINT('',(0.9,1.8,0.36));
#1448=CARTESIAN_POINT('Origin',(0.9,0.9,0.62));
#1449=CARTESIAN_POINT('',(0.4,0.9,0.62));
#1450=CARTESIAN_POINT('',(1.4,0.9,0.62));
#1451=CARTESIAN_POINT('Origin',(0.4,1.35,0.62));
#1452=CARTESIAN_POINT('',(0.4,1.8,0.62));
#1453=CARTESIAN_POINT('Origin',(0.9,1.8,0.62));
#1454=CARTESIAN_POINT('',(1.4,1.8,0.62));
#1455=CARTESIAN_POINT('Origin',(1.4,1.35,0.62));
#1456=CARTESIAN_POINT('Origin',(0.75,0.6,0.48));
#1457=CARTESIAN_POINT('',(1.,0.4,0.48));
#1458=CARTESIAN_POINT('',(1.,0.8,0.48));
#1459=CARTESIAN_POINT('',(1.,0.6,0.48));
#1460=CARTESIAN_POINT('',(0.5,0.8,0.48));
#1461=CARTESIAN_POINT('',(0.75,0.8,0.48));
#1462=CARTESIAN_POINT('',(0.5,0.4,0.48));
#1463=CARTESIAN_POINT('',(0.5,0.6,0.48));
#1464=CARTESIAN_POINT('',(0.75,0.4,0.48));
#1465=CARTESIAN_POINT('Origin',(0.75,0.6,0.36));
#1466=CARTESIAN_POINT('',(1.,0.8,0.36));
#1467=CARTESIAN_POINT('',(1.,0.4,0.36));
#1468=CARTESIAN_POINT('',(1.,0.6,0.36));
#1469=CARTESIAN_POINT('',(0.5,0.4,0.36));
#1470=CARTESIAN_POINT('',(0.75,0.4,0.36));
#1471=CARTESIAN_POINT('',(0.5,0.8,0.36));
#1472=CARTESIAN_POINT('',(0.5,0.6,0.36));
#1473=CARTESIAN_POINT('',(0.75,0.8,0.36));
#1474=CARTESIAN_POINT('Origin',(0.75,0.4,0.42));
#1475=CARTESIAN_POINT('',(0.5,0.4,0.42));
#1476=CARTESIAN_POINT('',(1.,0.4,0.42));
#1477=CARTESIAN_POINT('Origin',(0.5,0.6,0.42));
#1478=CARTESIAN_POINT('',(0.5,0.8,0.42));
#1479=CARTESIAN_POINT('Origin',(0.75,0.8,0.42));
#1480=CARTESIAN_POINT('',(1.,0.8,0.42));
#1481=CARTESIAN_POINT('Origin',(1.,0.6,0.42));
#1482=CARTESIAN_POINT('Origin',(0.2,0.75,0.56));
#1483=CARTESIAN_POINT('',(0.3,0.5,0.56));
#1484=CARTESIAN_POINT('',(0.3,1.,0.56));
#1485=CARTESIAN_POINT('',(0.3,0.75,0.56));
#1486=CARTESIAN_POINT('',(0.1,1.,0.56));
#1487=CARTESIAN_POINT('',(0.2,1.,0.56));
#1488=CARTESIAN_POINT('',(0.1,0.5,0.56));
#1489=CARTESIAN_POINT('',(0.1,0.75,0.56));
#1490=CARTESIAN_POINT('',(0.2,0.5,0.56));
#1491=CARTESIAN_POINT('Origin',(0.2,0.75,0.36));
#1492=CARTESIAN_POINT('',(0.3,1.,0.36));
#1493=CARTESIAN_POINT('',(0.3,0.5,0.36));
#1494=CARTESIAN_POINT('',(0.3,0.75,0.36));
#1495=CARTESIAN_POINT('',(0.1,0.5,0.36));
#1496=CARTESIAN_POINT('',(0.2,0.5,0.36));
#1497=CARTESIAN_POINT('',(0.1,1.,0.36));
#1498=CARTESIAN_POINT('',(0.1,0.75,0.36));
#1499=CARTESIAN_POINT('',(0.2,1.,0.36));
#1500=CARTESIAN_POINT('Origin',(0.2,0.5,0.46));
#1501=CARTESIAN_POINT('',(0.1,0.5,0.46));
#1502=CARTESIAN_POINT('',(0.3,0.5,0.46));
#1503=CARTESIAN_POINT('Origin',(0.1,0.75,0.46));
#1504=CARTESIAN_POINT('',(0.1,1.,0.46));
#1505=CARTESIAN_POINT('Origin',(0.2,1.,0.46));
#1506=CARTESIAN_POINT('',(0.3,1.,0.46));
#1507=CARTESIAN_POINT('Origin',(0.3,0.75,0.46));
#1508=CARTESIAN_POINT('Origin',(1.5,0.75,0.56));
#1509=CARTESIAN_POINT('',(1.6,0.5,0.56));
#1510=CARTESIAN_POINT('',(1.6,1.,0.56));
#1511=CARTESIAN_POINT('',(1.6,0.75,0.56));
#1512=CARTESIAN_POINT('',(1.4,1.,0.56));
#1513=CARTESIAN_POINT('',(1.5,1.,0.56));
#1514=CARTESIAN_POINT('',(1.4,0.5,0.56));
#1515=CARTESIAN_POINT('',(1.4,0.75,0.56));
#1516=CARTESIAN_POINT('',(1.5,0.5,0.56));
#1517=CARTESIAN_POINT('Origin',(1.5,0.75,0.36));
#1518=CARTESIAN_POINT('',(1.6,1.,0.36));
#1519=CARTESIAN_POINT('',(1.6,0.5,0.36));
#1520=CARTESIAN_POINT('',(1.6,0.75,0.36));
#1521=CARTESIAN_POINT('',(1.4,0.5,0.36));
#1522=CARTESIAN_POINT('',(1.5,0.5,0.36));
#1523=CARTESIAN_POINT('',(1.4,1.,0.36));
#1524=CARTESIAN_POINT('',(1.4,0.75,0.36));
#1525=CARTESIAN_POINT('',(1.5,1.,0.36));
#1526=CARTESIAN_POINT('Origin',(1.5,0.5,0.46));
#1527=CARTESIAN_POINT('',(1.4,0.5,0.46));
#1528=CARTESIAN_POINT('',(1.6,0.5,0.46));
#1529=CARTESIAN_POINT('Origin',(1.4,0.75,0.46));
#1530=CARTESIAN_POINT('',(1.4,1.,0.46));
#1531=CARTESIAN_POINT('Origin',(1.5,1.,0.46));
#1532=CARTESIAN_POINT('',(1.6,1.,0.46));
#1533=CARTESIAN_POINT('Origin',(1.6,0.75,0.46));
#1534=CARTESIAN_POINT('Origin',(1.081,0.127,0.2));
#1535=CARTESIAN_POINT('',(1.716,0.,0.2));
#1536=CARTESIAN_POINT('',(1.716,0.254,0.2));
#1537=CARTESIAN_POINT('',(1.716,0.127,0.2));
#1538=CARTESIAN_POINT('',(0.446,0.254,0.2));
#1539=CARTESIAN_POINT('',(1.081,0.254,0.2));
#1540=CARTESIAN_POINT('',(0.446,0.,0.2));
#1541=CARTESIAN_POINT('',(0.446,0.127,0.2));
#1542=CARTESIAN_POINT('',(1.081,0.,0.2));
#1543=CARTESIAN_POINT('Origin',(1.081,0.127,0.));
#1544=CARTESIAN_POINT('',(1.716,0.254,0.));
#1545=CARTESIAN_POINT('',(1.716,0.,0.));
#1546=CARTESIAN_POINT('',(1.716,0.127,0.));
#1547=CARTESIAN_POINT('',(0.446,0.,0.));
#1548=CARTESIAN_POINT('',(1.081,0.,0.));
#1549=CARTESIAN_POINT('',(0.446,0.254,0.));
#1550=CARTESIAN_POINT('',(0.446,0.127,0.));
#1551=CARTESIAN_POINT('',(1.081,0.254,0.));
#1552=CARTESIAN_POINT('Origin',(1.081,0.,0.1));
#1553=CARTESIAN_POINT('',(0.446,0.,0.1));
#1554=CARTESIAN_POINT('',(1.716,0.,0.1));
#1555=CARTESIAN_POINT('Origin',(0.446,0.127,0.1));
#1556=CARTESIAN_POINT('',(0.446,0.254,0.1));
#1557=CARTESIAN_POINT('Origin',(1.081,0.254,0.1));
#1558=CARTESIAN_POINT('',(1.716,0.254,0.1));
#1559=CARTESIAN_POINT('Origin',(1.716,0.127,0.1));
#1560=CARTESIAN_POINT('Origin',(0.573,0.127,0.37));
#1561=CARTESIAN_POINT('',(0.605,0.095,0.37));
#1562=CARTESIAN_POINT('',(0.605,0.159,0.37));
#1563=CARTESIAN_POINT('',(0.605,0.127,0.37));
#1564=CARTESIAN_POINT('',(0.541,0.159,0.37));
#1565=CARTESIAN_POINT('',(0.573,0.159,0.37));
#1566=CARTESIAN_POINT('',(0.541,0.095,0.37));
#1567=CARTESIAN_POINT('',(0.541,0.127,0.37));
#1568=CARTESIAN_POINT('',(0.573,0.095,0.37));
#1569=CARTESIAN_POINT('Origin',(0.573,0.127,-0.28));
#1570=CARTESIAN_POINT('',(0.605,0.159,-0.28));
#1571=CARTESIAN_POINT('',(0.605,0.095,-0.28));
#1572=CARTESIAN_POINT('',(0.605,0.127,-0.28));
#1573=CARTESIAN_POINT('',(0.541,0.095,-0.28));
#1574=CARTESIAN_POINT('',(0.573,0.095,-0.28));
#1575=CARTESIAN_POINT('',(0.541,0.159,-0.28));
#1576=CARTESIAN_POINT('',(0.541,0.127,-0.28));
#1577=CARTESIAN_POINT('',(0.573,0.159,-0.28));
#1578=CARTESIAN_POINT('Origin',(0.573,0.095,0.045));
#1579=CARTESIAN_POINT('',(0.541,0.095,0.045));
#1580=CARTESIAN_POINT('',(0.605,0.095,0.045));
#1581=CARTESIAN_POINT('Origin',(0.541,0.127,0.045));
#1582=CARTESIAN_POINT('',(0.541,0.159,0.045));
#1583=CARTESIAN_POINT('Origin',(0.573,0.159,0.045));
#1584=CARTESIAN_POINT('',(0.605,0.159,0.045));
#1585=CARTESIAN_POINT('Origin',(0.605,0.127,0.045));
#1586=CARTESIAN_POINT('Origin',(0.827,0.127,0.37));
#1587=CARTESIAN_POINT('',(0.859,0.095,0.37));
#1588=CARTESIAN_POINT('',(0.859,0.159,0.37));
#1589=CARTESIAN_POINT('',(0.859,0.127,0.37));
#1590=CARTESIAN_POINT('',(0.795,0.159,0.37));
#1591=CARTESIAN_POINT('',(0.827,0.159,0.37));
#1592=CARTESIAN_POINT('',(0.795,0.095,0.37));
#1593=CARTESIAN_POINT('',(0.795,0.127,0.37));
#1594=CARTESIAN_POINT('',(0.827,0.095,0.37));
#1595=CARTESIAN_POINT('Origin',(0.827,0.127,-0.28));
#1596=CARTESIAN_POINT('',(0.859,0.159,-0.28));
#1597=CARTESIAN_POINT('',(0.859,0.095,-0.28));
#1598=CARTESIAN_POINT('',(0.859,0.127,-0.28));
#1599=CARTESIAN_POINT('',(0.795,0.095,-0.28));
#1600=CARTESIAN_POINT('',(0.827,0.095,-0.28));
#1601=CARTESIAN_POINT('',(0.795,0.159,-0.28));
#1602=CARTESIAN_POINT('',(0.795,0.127,-0.28));
#1603=CARTESIAN_POINT('',(0.827,0.159,-0.28));
#1604=CARTESIAN_POINT('Origin',(0.827,0.095,0.045));
#1605=CARTESIAN_POINT('',(0.795,0.095,0.045));
#1606=CARTESIAN_POINT('',(0.859,0.095,0.045));
#1607=CARTESIAN_POINT('Origin',(0.795,0.127,0.045));
#1608=CARTESIAN_POINT('',(0.795,0.159,0.045));
#1609=CARTESIAN_POINT('Origin',(0.827,0.159,0.045));
#1610=CARTESIAN_POINT('',(0.859,0.159,0.045));
#1611=CARTESIAN_POINT('Origin',(0.859,0.127,0.045));
#1612=CARTESIAN_POINT('Origin',(1.081,0.127,0.37));
#1613=CARTESIAN_POINT('',(1.113,0.095,0.37));
#1614=CARTESIAN_POINT('',(1.113,0.159,0.37));
#1615=CARTESIAN_POINT('',(1.113,0.127,0.37));
#1616=CARTESIAN_POINT('',(1.049,0.159,0.37));
#1617=CARTESIAN_POINT('',(1.081,0.159,0.37));
#1618=CARTESIAN_POINT('',(1.049,0.095,0.37));
#1619=CARTESIAN_POINT('',(1.049,0.127,0.37));
#1620=CARTESIAN_POINT('',(1.081,0.095,0.37));
#1621=CARTESIAN_POINT('Origin',(1.081,0.127,-0.28));
#1622=CARTESIAN_POINT('',(1.113,0.159,-0.28));
#1623=CARTESIAN_POINT('',(1.113,0.095,-0.28));
#1624=CARTESIAN_POINT('',(1.113,0.127,-0.28));
#1625=CARTESIAN_POINT('',(1.049,0.095,-0.28));
#1626=CARTESIAN_POINT('',(1.081,0.095,-0.28));
#1627=CARTESIAN_POINT('',(1.049,0.159,-0.28));
#1628=CARTESIAN_POINT('',(1.049,0.127,-0.28));
#1629=CARTESIAN_POINT('',(1.081,0.159,-0.28));
#1630=CARTESIAN_POINT('Origin',(1.081,0.095,0.045));
#1631=CARTESIAN_POINT('',(1.049,0.095,0.045));
#1632=CARTESIAN_POINT('',(1.113,0.095,0.045));
#1633=CARTESIAN_POINT('Origin',(1.049,0.127,0.045));
#1634=CARTESIAN_POINT('',(1.049,0.159,0.045));
#1635=CARTESIAN_POINT('Origin',(1.081,0.159,0.045));
#1636=CARTESIAN_POINT('',(1.113,0.159,0.045));
#1637=CARTESIAN_POINT('Origin',(1.113,0.127,0.045));
#1638=CARTESIAN_POINT('Origin',(1.335,0.127,0.37));
#1639=CARTESIAN_POINT('',(1.367,0.095,0.37));
#1640=CARTESIAN_POINT('',(1.367,0.159,0.37));
#1641=CARTESIAN_POINT('',(1.367,0.127,0.37));
#1642=CARTESIAN_POINT('',(1.303,0.159,0.37));
#1643=CARTESIAN_POINT('',(1.335,0.159,0.37));
#1644=CARTESIAN_POINT('',(1.303,0.095,0.37));
#1645=CARTESIAN_POINT('',(1.303,0.127,0.37));
#1646=CARTESIAN_POINT('',(1.335,0.095,0.37));
#1647=CARTESIAN_POINT('Origin',(1.335,0.127,-0.28));
#1648=CARTESIAN_POINT('',(1.367,0.159,-0.28));
#1649=CARTESIAN_POINT('',(1.367,0.095,-0.28));
#1650=CARTESIAN_POINT('',(1.367,0.127,-0.28));
#1651=CARTESIAN_POINT('',(1.303,0.095,-0.28));
#1652=CARTESIAN_POINT('',(1.335,0.095,-0.28));
#1653=CARTESIAN_POINT('',(1.303,0.159,-0.28));
#1654=CARTESIAN_POINT('',(1.303,0.127,-0.28));
#1655=CARTESIAN_POINT('',(1.335,0.159,-0.28));
#1656=CARTESIAN_POINT('Origin',(1.335,0.095,0.045));
#1657=CARTESIAN_POINT('',(1.303,0.095,0.045));
#1658=CARTESIAN_POINT('',(1.367,0.095,0.045));
#1659=CARTESIAN_POINT('Origin',(1.303,0.127,0.045));
#1660=CARTESIAN_POINT('',(1.303,0.159,0.045));
#1661=CARTESIAN_POINT('Origin',(1.335,0.159,0.045));
#1662=CARTESIAN_POINT('',(1.367,0.159,0.045));
#1663=CARTESIAN_POINT('Origin',(1.367,0.127,0.045));
#1664=CARTESIAN_POINT('Origin',(1.589,0.127,0.37));
#1665=CARTESIAN_POINT('',(1.621,0.095,0.37));
#1666=CARTESIAN_POINT('',(1.621,0.159,0.37));
#1667=CARTESIAN_POINT('',(1.621,0.127,0.37));
#1668=CARTESIAN_POINT('',(1.557,0.159,0.37));
#1669=CARTESIAN_POINT('',(1.589,0.159,0.37));
#1670=CARTESIAN_POINT('',(1.557,0.095,0.37));
#1671=CARTESIAN_POINT('',(1.557,0.127,0.37));
#1672=CARTESIAN_POINT('',(1.589,0.095,0.37));
#1673=CARTESIAN_POINT('Origin',(1.589,0.127,-0.28));
#1674=CARTESIAN_POINT('',(1.621,0.159,-0.28));
#1675=CARTESIAN_POINT('',(1.621,0.095,-0.28));
#1676=CARTESIAN_POINT('',(1.621,0.127,-0.28));
#1677=CARTESIAN_POINT('',(1.557,0.095,-0.28));
#1678=CARTESIAN_POINT('',(1.589,0.095,-0.28));
#1679=CARTESIAN_POINT('',(1.557,0.159,-0.28));
#1680=CARTESIAN_POINT('',(1.557,0.127,-0.28));
#1681=CARTESIAN_POINT('',(1.589,0.159,-0.28));
#1682=CARTESIAN_POINT('Origin',(1.589,0.095,0.045));
#1683=CARTESIAN_POINT('',(1.557,0.095,0.045));
#1684=CARTESIAN_POINT('',(1.621,0.095,0.045));
#1685=CARTESIAN_POINT('Origin',(1.557,0.127,0.045));
#1686=CARTESIAN_POINT('',(1.557,0.159,0.045));
#1687=CARTESIAN_POINT('Origin',(1.589,0.159,0.045));
#1688=CARTESIAN_POINT('',(1.621,0.159,0.045));
#1689=CARTESIAN_POINT('Origin',(1.621,0.127,0.045));
#1690=UNCERTAINTY_MEASURE_WITH_UNIT(LENGTH_MEASURE(0.001),#1694,
'DISTANCE_ACCURACY_VALUE',
'Maximum model space distance between geometric entities at asserted c
onnectivities');
#1691=UNCERTAINTY_MEASURE_WITH_UNIT(LENGTH_MEASURE(0.001),#1694,
'DISTANCE_ACCURACY_VALUE',
'Maximum model space distance between geometric entities at asserted c
onnectivities');
#1692=(
GEOMETRIC_REPRESENTATION_CONTEXT(3)
GLOBAL_UNCERTAINTY_ASSIGNED_CONTEXT((#1690))
GLOBAL_UNIT_ASSIGNED_CONTEXT((#1694,#1696,#1697))
REPRESENTATION_CONTEXT('','3D')
);
#1693=(
GEOMETRIC_REPRESENTATION_CONTEXT(3)
GLOBAL_UNCERTAINTY_ASSIGNED_CONTEXT((#1691))
GLOBAL_UNIT_ASSIGNED_CONTEXT((#1694,#1696,#1697))
REPRESENTATION_CONTEXT('','3D')
);
#1694=(
LENGTH_UNIT()
NAMED_UNIT(*)
SI_UNIT(.CENTI.,.METRE.)
);
#1695=(
LENGTH_UNIT()
NAMED_UNIT(*)
SI_UNIT($,.METRE.)
);
#1696=(
NAMED_UNIT(*)
PLANE_ANGLE_UNIT()
SI_UNIT($,.RADIAN.)
);
#1697=(
NAMED_UNIT(*)
SI_UNIT($,.STERADIAN.)
SOLID_ANGLE_UNIT()
);
#1698=SHAPE_DEFINITION_REPRESENTATION(#1699,#1700);
#1699=PRODUCT_DEFINITION_SHAPE('',$,#1702);
#1700=SHAPE_REPRESENTATION('',(#1070),#1692);
#1701=PRODUCT_DEFINITION_CONTEXT('part definition',#1706,'design');
#1702=PRODUCT_DEFINITION('2026-10-02-22-14-32-873','RevG_model_U6',#1703,
#1701);
#1703=PRODUCT_DEFINITION_FORMATION('',$,#1708);
#1704=PRODUCT_RELATED_PRODUCT_CATEGORY('RevG_model_U6','RevG_model_U6',
(#1708));
#1705=APPLICATION_PROTOCOL_DEFINITION('international standard',
'automotive_design',2009,#1706);
#1706=APPLICATION_CONTEXT(
'Core Data for Automotive Mechanical Design Process');
#1707=PRODUCT_CONTEXT('part definition',#1706,'mechanical');
#1708=PRODUCT('2026-10-02-22-14-32-873','RevG_model_U6',$,(#1707));
#1709=PRESENTATION_STYLE_ASSIGNMENT((#1714));
#1710=PRESENTATION_STYLE_ASSIGNMENT((#1715));
#1711=PRESENTATION_STYLE_ASSIGNMENT((#1716));
#1712=PRESENTATION_STYLE_ASSIGNMENT((#1717));
#1713=PRESENTATION_STYLE_ASSIGNMENT((#1718));
#1714=SURFACE_STYLE_USAGE(.BOTH.,#1719);
#1715=SURFACE_STYLE_USAGE(.BOTH.,#1720);
#1716=SURFACE_STYLE_USAGE(.BOTH.,#1721);
#1717=SURFACE_STYLE_USAGE(.BOTH.,#1722);
#1718=SURFACE_STYLE_USAGE(.BOTH.,#1723);
#1719=SURFACE_SIDE_STYLE('',(#1724));
#1720=SURFACE_SIDE_STYLE('',(#1725));
#1721=SURFACE_SIDE_STYLE('',(#1726));
#1722=SURFACE_SIDE_STYLE('',(#1727));
#1723=SURFACE_SIDE_STYLE('',(#1728));
#1724=SURFACE_STYLE_FILL_AREA(#1729);
#1725=SURFACE_STYLE_FILL_AREA(#1730);
#1726=SURFACE_STYLE_FILL_AREA(#1731);
#1727=SURFACE_STYLE_FILL_AREA(#1732);
#1728=SURFACE_STYLE_FILL_AREA(#1733);
#1729=FILL_AREA_STYLE('Steel - Satin',(#1734));
#1730=FILL_AREA_STYLE('Opaque(0,127,0)',(#1735));
#1731=FILL_AREA_STYLE('Opaque(10,10,10)',(#1736));
#1732=FILL_AREA_STYLE('Opaque(192,192,192)',(#1737));
#1733=FILL_AREA_STYLE('Opaque(228,180,12)',(#1738));
#1734=FILL_AREA_STYLE_COLOUR('Steel - Satin',#1739);
#1735=FILL_AREA_STYLE_COLOUR('Opaque(0,127,0)',#1740);
#1736=FILL_AREA_STYLE_COLOUR('Opaque(10,10,10)',#1741);
#1737=FILL_AREA_STYLE_COLOUR('Opaque(192,192,192)',#1742);
#1738=FILL_AREA_STYLE_COLOUR('Opaque(228,180,12)',#1743);
#1739=COLOUR_RGB('Steel - Satin',0.627450980392157,0.627450980392157,0.627450980392157);
#1740=COLOUR_RGB('Opaque(0,127,0)',0.,0.498039215686275,0.);
#1741=COLOUR_RGB('Opaque(10,10,10)',0.0392156862745098,0.0392156862745098,
0.0392156862745098);
#1742=COLOUR_RGB('Opaque(192,192,192)',0.752941176470588,0.752941176470588,
0.752941176470588);
#1743=COLOUR_RGB('Opaque(228,180,12)',0.894117647058824,0.705882352941177,
0.0470588235294118);
ENDSEC;
END-ISO-10303-21;
