%TF.GenerationSoftware,KiCad,Pcbnew,10.0.6*%
%TF.CreationDate,2026-10-02T23:11:09+08:00*%
%TF.ProjectId,EWS_RevG,4557535f-5265-4764-972e-6b696361645f,G-PROTOTYPE*%
%TF.SameCoordinates,Original*%
%TF.FileFunction,Copper,L2,Inr*%
%TF.FilePolarity,Positive*%
%FSLAX46Y46*%
G04 Gerber Fmt 4.6, Leading zero omitted, Abs format (unit mm)*
G04 Created by KiCad (PCBNEW 10.0.6) date 2026-10-02 23:11:09*
%MOMM*%
%LPD*%
G01*
G04 APERTURE LIST*
%TA.AperFunction,WasherPad*%
%ADD10R,3.400000X3.400000*%
%TD*%
%TA.AperFunction,ComponentPad*%
%ADD11R,3.000000X3.000000*%
%TD*%
%TA.AperFunction,ComponentPad*%
%ADD12C,3.000000*%
%TD*%
%TA.AperFunction,ComponentPad*%
%ADD13R,1.800000X1.800000*%
%TD*%
%TA.AperFunction,ComponentPad*%
%ADD14C,1.800000*%
%TD*%
%TA.AperFunction,ComponentPad*%
%ADD15R,2.000000X2.000000*%
%TD*%
%TA.AperFunction,ComponentPad*%
%ADD16C,2.000000*%
%TD*%
%TA.AperFunction,ViaPad*%
%ADD17C,0.700000*%
%TD*%
%TA.AperFunction,Conductor*%
%ADD18C,0.300000*%
%TD*%
%TA.AperFunction,Conductor*%
%ADD19C,0.200000*%
%TD*%
%TA.AperFunction,Conductor*%
%ADD20C,1.200000*%
%TD*%
%TA.AperFunction,Conductor*%
%ADD21C,0.400000*%
%TD*%
G04 APERTURE END LIST*
D10*
%TO.N,*%
%TO.C,H1*%
X33000000Y-158500000D03*
%TD*%
D11*
%TO.N,VBAT*%
%TO.C,J11*%
X40000000Y-43000000D03*
D12*
%TO.N,GND*%
X45080000Y-43000000D03*
%TD*%
D13*
%TO.N,GND*%
%TO.C,J6*%
X91000000Y-72000000D03*
D14*
%TO.N,SERVO_5V*%
X93540000Y-72000000D03*
%TO.N,GPIO26*%
X96080000Y-72000000D03*
%TD*%
D13*
%TO.N,GND*%
%TO.C,J4*%
X111000000Y-137000000D03*
D14*
%TO.N,3V3*%
X111000000Y-139540000D03*
%TO.N,HI_DIAG*%
X111000000Y-142080000D03*
%TO.N,LO_DIAG*%
X111000000Y-144620000D03*
%TO.N,ADC_READY*%
X111000000Y-147160000D03*
%TO.N,HI_ADC_P*%
X111000000Y-149700000D03*
%TO.N,HI_ADC_N*%
X111000000Y-152240000D03*
%TO.N,LO_ADC_P*%
X111000000Y-154780000D03*
%TO.N,LO_ADC_N*%
X111000000Y-157320000D03*
%TD*%
D15*
%TO.N,REG_PG*%
%TO.C,U5*%
X105270000Y-62730000D03*
D16*
%TO.N,REG_SHDN*%
X107810000Y-62730000D03*
%TO.N,VBAT*%
X110350000Y-62730000D03*
%TO.N,GND*%
X112890000Y-62730000D03*
%TO.N,LOGIC_5V*%
X115430000Y-62730000D03*
%TD*%
D11*
%TO.N,E4*%
%TO.C,J13*%
X38000000Y-135000000D03*
%TD*%
D10*
%TO.N,*%
%TO.C,H2*%
X117000000Y-158500000D03*
%TD*%
D13*
%TO.N,GND*%
%TO.C,J10*%
X36000000Y-50000000D03*
D14*
%TO.N,3V3*%
X38540000Y-50000000D03*
%TO.N,LOGIC_5V*%
X41080000Y-50000000D03*
%TO.N,GND*%
X43620000Y-50000000D03*
%TD*%
D13*
%TO.N,3V3*%
%TO.C,U1*%
X34800000Y-116700000D03*
D14*
%TO.N,EN*%
X34800000Y-114160000D03*
%TO.N,GPIO36*%
X34800000Y-111620000D03*
%TO.N,GPIO39*%
X34800000Y-109080000D03*
%TO.N,GPIO34*%
X34800000Y-106540000D03*
%TO.N,GPIO35*%
X34800000Y-104000000D03*
%TO.N,GPIO32*%
X34800000Y-101460000D03*
%TO.N,GPIO33*%
X34800000Y-98920000D03*
%TO.N,GPIO25*%
X34800000Y-96380000D03*
%TO.N,GPIO26*%
X34800000Y-93840000D03*
%TO.N,GPIO27*%
X34800000Y-91300000D03*
%TO.N,GPIO14*%
X34800000Y-88760000D03*
%TO.N,GPIO12*%
X34800000Y-86220000D03*
%TO.N,GND*%
X34800000Y-83680000D03*
%TO.N,GPIO13*%
X34800000Y-81140000D03*
%TO.N,unconnected-(U1-FLASH9_RESERVED-Pad16)*%
X34800000Y-78600000D03*
%TO.N,unconnected-(U1-FLASH10_RESERVED-Pad17)*%
X34800000Y-76060000D03*
%TO.N,unconnected-(U1-FLASH11_RESERVED-Pad18)*%
X34800000Y-73520000D03*
%TO.N,ESP_5V*%
X34800000Y-70980000D03*
%TO.N,GND*%
X60200000Y-116700000D03*
%TO.N,GPIO23*%
X60200000Y-114160000D03*
%TO.N,GPIO22*%
X60200000Y-111620000D03*
%TO.N,GPIO1*%
X60200000Y-109080000D03*
%TO.N,GPIO3*%
X60200000Y-106540000D03*
%TO.N,GPIO21*%
X60200000Y-104000000D03*
%TO.N,GND*%
X60200000Y-101460000D03*
%TO.N,GPIO19*%
X60200000Y-98920000D03*
%TO.N,GPIO18*%
X60200000Y-96380000D03*
%TO.N,GPIO5*%
X60200000Y-93840000D03*
%TO.N,GPIO17*%
X60200000Y-91300000D03*
%TO.N,GPIO16*%
X60200000Y-88760000D03*
%TO.N,GPIO4*%
X60200000Y-86220000D03*
%TO.N,GPIO0*%
X60200000Y-83680000D03*
%TO.N,GPIO2*%
X60200000Y-81140000D03*
%TO.N,GPIO15*%
X60200000Y-78600000D03*
%TO.N,unconnected-(U1-FLASH8_RESERVED-Pad36)*%
X60200000Y-76060000D03*
%TO.N,unconnected-(U1-FLASH7_RESERVED-Pad37)*%
X60200000Y-73520000D03*
%TO.N,unconnected-(U1-FLASH6_RESERVED-Pad38)*%
X60200000Y-70980000D03*
%TD*%
D13*
%TO.N,3V3*%
%TO.C,J1*%
X31600000Y-117700000D03*
D14*
%TO.N,EN*%
X31600000Y-115160000D03*
%TO.N,GPIO36*%
X31600000Y-112620000D03*
%TO.N,GPIO39*%
X31600000Y-110080000D03*
%TO.N,GPIO34*%
X31600000Y-107540000D03*
%TO.N,GPIO35*%
X31600000Y-105000000D03*
%TO.N,GPIO32*%
X31600000Y-102460000D03*
%TO.N,GPIO33*%
X31600000Y-99920000D03*
%TO.N,GPIO25*%
X31600000Y-97380000D03*
%TO.N,GPIO26*%
X31600000Y-94840000D03*
%TO.N,GPIO27*%
X31600000Y-92300000D03*
%TO.N,GPIO14*%
X31600000Y-89760000D03*
%TO.N,GPIO12*%
X31600000Y-87220000D03*
%TO.N,GND*%
X31600000Y-84680000D03*
%TO.N,GPIO13*%
X31600000Y-82140000D03*
%TO.N,GPIO23*%
X31600000Y-79600000D03*
%TO.N,GPIO22*%
X31600000Y-77060000D03*
%TO.N,GPIO1*%
X31600000Y-74520000D03*
%TO.N,GPIO3*%
X31600000Y-71980000D03*
%TO.N,GPIO21*%
X31600000Y-69440000D03*
%TO.N,GPIO19*%
X31600000Y-66900000D03*
%TO.N,GPIO18*%
X31600000Y-64360000D03*
%TO.N,GPIO5*%
X31600000Y-61820000D03*
%TO.N,GPIO17*%
X31600000Y-59280000D03*
%TO.N,GPIO16*%
X31600000Y-56740000D03*
%TO.N,GPIO4*%
X31600000Y-54200000D03*
%TO.N,GPIO0*%
X31600000Y-51660000D03*
%TO.N,GPIO2*%
X31600000Y-49120000D03*
%TO.N,GPIO15*%
X31600000Y-46580000D03*
%TD*%
D10*
%TO.N,*%
%TO.C,H3*%
X33000000Y-41500000D03*
%TD*%
D13*
%TO.N,REG_SHDN*%
%TO.C,J9*%
X103000000Y-42000000D03*
D14*
%TO.N,REG_PG*%
X105540000Y-42000000D03*
%TO.N,SERVO_EN*%
X108080000Y-42000000D03*
%TO.N,GND*%
X110620000Y-42000000D03*
%TD*%
D13*
%TO.N,GND*%
%TO.C,J2*%
X38000000Y-63000000D03*
D14*
%TO.N,3V3*%
X40540000Y-63000000D03*
%TO.N,GPIO21*%
X43080000Y-63000000D03*
%TO.N,GPIO22*%
X45620000Y-63000000D03*
%TD*%
D13*
%TO.N,GND*%
%TO.C,J8*%
X111000000Y-72000000D03*
D14*
%TO.N,unconnected-(J8-Pad2)*%
X113540000Y-72000000D03*
%TO.N,GPIO14*%
X116080000Y-72000000D03*
%TD*%
D13*
%TO.N,GND*%
%TO.C,J3*%
X40000000Y-53000000D03*
D14*
%TO.N,GPIO1*%
X42540000Y-53000000D03*
%TO.N,GPIO3*%
X45080000Y-53000000D03*
%TO.N,EN*%
X47620000Y-53000000D03*
%TD*%
D15*
%TO.N,SERVO_EN*%
%TO.C,U6*%
X87730000Y-62730000D03*
D16*
%TO.N,VBAT*%
X90270000Y-62730000D03*
%TO.N,GND*%
X92810000Y-62730000D03*
X95350000Y-62730000D03*
%TO.N,SERVO_5V*%
X97890000Y-62730000D03*
%TD*%
D13*
%TO.N,GND*%
%TO.C,J5*%
X81000000Y-72000000D03*
D14*
%TO.N,SERVO_5V*%
X83540000Y-72000000D03*
%TO.N,GPIO25*%
X86080000Y-72000000D03*
%TD*%
D10*
%TO.N,*%
%TO.C,H4*%
X117000000Y-41500000D03*
%TD*%
D11*
%TO.N,E2*%
%TO.C,J12*%
X36000000Y-149000000D03*
%TD*%
D13*
%TO.N,LOGIC_5V*%
%TO.C,JP1*%
X47000000Y-65000000D03*
D14*
%TO.N,ESP_5V*%
X49540000Y-65000000D03*
%TD*%
D13*
%TO.N,GND*%
%TO.C,J7*%
X101000000Y-72000000D03*
D14*
%TO.N,SERVO_5V*%
X103540000Y-72000000D03*
%TO.N,GPIO27*%
X106080000Y-72000000D03*
%TD*%
D17*
%TO.N,LO_OUTN*%
X84496000Y-143807300D03*
X89631600Y-141825000D03*
%TO.N,LO_ADC_N*%
X96392800Y-139000000D03*
X100377000Y-146660400D03*
%TO.N,HI_INN*%
X49600000Y-146800000D03*
X69000000Y-159500000D03*
X49100000Y-144300000D03*
X69000000Y-157200000D03*
X63400000Y-158200000D03*
%TO.N,HV_REF*%
X59076300Y-146946500D03*
X69278000Y-149646300D03*
X71058200Y-158265800D03*
%TO.N,GND*%
X36346200Y-68173200D03*
X82297500Y-158098300D03*
X84891000Y-147241000D03*
X85950000Y-138512000D03*
%TO.N,HI_HLDO*%
X69461000Y-153635000D03*
X66050000Y-155750000D03*
%TO.N,LO_ADC_P*%
X98786300Y-147692800D03*
X95689300Y-137932200D03*
%TO.N,GPIO26*%
X58590400Y-73973500D03*
%TO.N,3V3*%
X94798000Y-140668100D03*
X36575900Y-77401100D03*
%TO.N,HI_DIAG*%
X84648800Y-156082100D03*
X82972600Y-149002800D03*
%TO.N,LO_DIAG*%
X83537500Y-143789000D03*
X82512200Y-137095000D03*
%TO.N,ADC_READY*%
X96175400Y-145742800D03*
%TO.N,HI_ADC_P*%
X92389300Y-149712000D03*
%TO.N,HI_ADC_N*%
X96003500Y-153475000D03*
%TO.N,LO_INP*%
X62339600Y-140622900D03*
X55677900Y-146800300D03*
X66008600Y-145587300D03*
%TO.N,GPIO21*%
X100500000Y-142000000D03*
%TO.N,HI_LDO*%
X81100000Y-147718200D03*
X83015800Y-150965600D03*
%TO.N,LOGIC_5V*%
X84000000Y-137100000D03*
X82773700Y-153798900D03*
X97100000Y-73500000D03*
X82444300Y-140176600D03*
%TO.N,LO_DCDC*%
X69700000Y-134550000D03*
X69496500Y-137095000D03*
%TO.N,HI_INP*%
X46900000Y-146700000D03*
X46100000Y-144000000D03*
X61500000Y-155000000D03*
X47600000Y-145900000D03*
X46100000Y-145700000D03*
X67000000Y-159500000D03*
X63500000Y-153500000D03*
X70900000Y-154900000D03*
%TO.N,GPIO27*%
X61782300Y-74126700D03*
%TO.N,GPIO14*%
X58553900Y-76068500D03*
%TO.N,GPIO22*%
X100967400Y-143433400D03*
%TO.N,HI_OUTP*%
X88537500Y-153418500D03*
X82507100Y-154905000D03*
%TO.N,LO_INN*%
X62546200Y-135000000D03*
X62998300Y-143384200D03*
%TO.N,LO_LDO*%
X82497700Y-138807900D03*
X82935300Y-134555000D03*
%TD*%
%TO.N,LO_OUTN*%
D18*
X84496000Y-143807300D02*
X87649300Y-143807300D01*
X87649300Y-143807300D02*
X89631600Y-141825000D01*
%TO.N,LO_ADC_N*%
X100377000Y-146697000D02*
X100377000Y-146660400D01*
X111000000Y-157320000D02*
X100377000Y-146697000D01*
%TO.N,HI_INN*%
D19*
X68300000Y-159200000D02*
X68400000Y-159200000D01*
X53400000Y-148500000D02*
X55400000Y-148500000D01*
X55600000Y-148600000D02*
X56100000Y-149100000D01*
X61700000Y-154300000D02*
X61800000Y-154400000D01*
X49100000Y-144600000D02*
X49200000Y-144700000D01*
X62400000Y-156100000D02*
X62500000Y-156200000D01*
X62300000Y-155800000D02*
X62300000Y-155900000D01*
X66500000Y-158400000D02*
X66599999Y-158400000D01*
X62200000Y-155700000D02*
X62300000Y-155800000D01*
X66599999Y-158400000D02*
X66700000Y-158500000D01*
X53200000Y-148100000D02*
X53300000Y-148200000D01*
X67700000Y-158900000D02*
X67800000Y-159000000D01*
X61600000Y-154300000D02*
X61700000Y-154300000D01*
X62800000Y-156900000D02*
X62800000Y-157000000D01*
X67800000Y-159000000D02*
X68000000Y-159000000D01*
X63100000Y-157700000D02*
X63200000Y-157800000D01*
X63100000Y-154100000D02*
X63200000Y-154100000D01*
X68100000Y-159100000D02*
X68200000Y-159100000D01*
X55600000Y-148600000D02*
X56500000Y-149500000D01*
X55500000Y-148600000D02*
X55600000Y-148600000D01*
X61900000Y-154400000D02*
X62100000Y-154600000D01*
X49200000Y-144300000D02*
X53000000Y-148100000D01*
X49200000Y-144700000D02*
X49200000Y-146400000D01*
X62100000Y-154600000D02*
X62100000Y-154700000D01*
X63100000Y-157600000D02*
X63100000Y-157700000D01*
X62400000Y-156000000D02*
X62400000Y-156100000D01*
X56800000Y-149500000D02*
X61600000Y-154300000D01*
X67000000Y-158600000D02*
X67099999Y-158600000D01*
X63300000Y-154200000D02*
X63500000Y-154200000D01*
X67600000Y-158900000D02*
X67700000Y-158900000D01*
X62900000Y-157200000D02*
X63000000Y-157300000D01*
X49200000Y-144300000D02*
X53400000Y-148500000D01*
X67099999Y-158600000D02*
X67200000Y-158700000D01*
X62500000Y-156200000D02*
X62500000Y-156400000D01*
X68900000Y-159400000D02*
X69000000Y-159500000D01*
X68700000Y-159400000D02*
X68900000Y-159400000D01*
X62200000Y-154800000D02*
X62200000Y-155700000D01*
X56500000Y-149500000D02*
X56800000Y-149500000D01*
X68600000Y-159300000D02*
X68700000Y-159400000D01*
X66500000Y-157200000D02*
X69000000Y-157200000D01*
X57000000Y-149100000D02*
X66200000Y-158300000D01*
X66200000Y-158300000D02*
X66400000Y-158300000D01*
X67300000Y-158700000D02*
X67400000Y-158800000D01*
X63200000Y-154100000D02*
X63300000Y-154200000D01*
X67500000Y-158800000D02*
X67600000Y-158900000D01*
X63200000Y-157800000D02*
X63200000Y-157900000D01*
X67200000Y-158700000D02*
X67300000Y-158700000D01*
X55500000Y-148600000D02*
X55600000Y-148600000D01*
X63300000Y-158000000D02*
X63300000Y-158100000D01*
X68500000Y-159300000D02*
X68600000Y-159300000D01*
X53000000Y-148100000D02*
X53200000Y-148100000D01*
X62600000Y-156600000D02*
X62700000Y-156700000D01*
X62800000Y-157000000D02*
X62900000Y-157100000D01*
X53300000Y-148200000D02*
X53400000Y-148200000D01*
X62300000Y-155900000D02*
X62400000Y-156000000D01*
X62900000Y-157100000D02*
X62900000Y-157200000D01*
X56100000Y-149100000D02*
X57000000Y-149100000D01*
X63000000Y-157300000D02*
X63000000Y-157500000D01*
X53500000Y-148300000D02*
X57300000Y-148300000D01*
X57300000Y-148300000D02*
X63100000Y-154100000D01*
X68400000Y-159200000D02*
X68500000Y-159300000D01*
X49200000Y-146400000D02*
X49600000Y-146800000D01*
X53400000Y-148200000D02*
X53500000Y-148300000D01*
X68200000Y-159100000D02*
X68300000Y-159200000D01*
X63300000Y-158100000D02*
X63400000Y-158200000D01*
X67400000Y-158800000D02*
X67500000Y-158800000D01*
X62600000Y-156500000D02*
X62600000Y-156600000D01*
X62100000Y-154700000D02*
X62200000Y-154800000D01*
X63500000Y-154200000D02*
X66500000Y-157200000D01*
X63200000Y-157900000D02*
X63300000Y-158000000D01*
X62700000Y-156800000D02*
X62800000Y-156900000D01*
X63000000Y-157500000D02*
X63100000Y-157600000D01*
X53400000Y-148500000D02*
X55400000Y-148500000D01*
X55400000Y-148500000D02*
X55500000Y-148600000D01*
X61800000Y-154400000D02*
X61900000Y-154400000D01*
X49200000Y-144300000D02*
X53400000Y-148500000D01*
X66900000Y-158500000D02*
X67000000Y-158600000D01*
X66400000Y-158300000D02*
X66500000Y-158400000D01*
X62500000Y-156400000D02*
X62600000Y-156500000D01*
X68000000Y-159000000D02*
X68100000Y-159100000D01*
X49100000Y-144300000D02*
X49100000Y-144600000D01*
X66700000Y-158500000D02*
X66900000Y-158500000D01*
X55400000Y-148500000D02*
X55500000Y-148600000D01*
X62700000Y-156700000D02*
X62700000Y-156800000D01*
%TO.N,HV_REF*%
D18*
X65195800Y-153066000D02*
X65858300Y-153066000D01*
X65858400Y-153065900D02*
X71058200Y-158265800D01*
X65858300Y-153066000D02*
X65858400Y-153065900D01*
X59076300Y-146946500D02*
X65195800Y-153066000D01*
X65858400Y-153065900D02*
X69278000Y-149646300D01*
%TO.N,VBAT*%
D20*
X110350000Y-62847600D02*
X108643000Y-64554600D01*
X108643000Y-64554600D02*
X91997500Y-64554600D01*
X44099800Y-45301700D02*
X42301700Y-43503600D01*
X91997500Y-64554600D02*
X90270000Y-62827100D01*
X90270000Y-62100800D02*
X73470900Y-45301700D01*
X90270000Y-62730000D02*
X90270000Y-62100800D01*
X42301700Y-43503600D02*
X42301700Y-43000000D01*
X90270000Y-62827100D02*
X90270000Y-62730000D01*
X73470900Y-45301700D02*
X44099800Y-45301700D01*
X110350000Y-62730000D02*
X110350000Y-62847600D01*
X40000000Y-43000000D02*
X42301700Y-43000000D01*
%TO.N,GND*%
D18*
X36000000Y-50000000D02*
X36000000Y-51201700D01*
X41201700Y-52418300D02*
X43620000Y-50000000D01*
X111474500Y-61314500D02*
X112890000Y-62730000D01*
X45782000Y-58120800D02*
X60569300Y-58120800D01*
X102201700Y-71549400D02*
X103024800Y-70726300D01*
X96765500Y-61314500D02*
X111474500Y-61314500D01*
X40080600Y-53000000D02*
X40661200Y-53000000D01*
X40661200Y-53000000D02*
X41201700Y-53000000D01*
X41201700Y-53000000D02*
X41201700Y-52418300D01*
X40661200Y-53000000D02*
X45782000Y-58120800D01*
X82201700Y-72000000D02*
X82201700Y-72450600D01*
X88545700Y-73252600D02*
X89798300Y-72000000D01*
X102201700Y-72000000D02*
X102201700Y-71549400D01*
X101545300Y-72000000D02*
X101000000Y-72000000D01*
X33800000Y-84680000D02*
X34391900Y-84088100D01*
X36490500Y-92990500D02*
X60200000Y-116700000D01*
X31600000Y-84680000D02*
X33800000Y-84680000D01*
X108524600Y-70726300D02*
X109798300Y-72000000D01*
X101545300Y-72000000D02*
X102201700Y-72000000D01*
X60569300Y-58120800D02*
X74448500Y-72000000D01*
X74448500Y-72000000D02*
X81000000Y-72000000D01*
X82201700Y-72450600D02*
X83003700Y-73252600D01*
X103024800Y-70726300D02*
X108524600Y-70726300D01*
X95350000Y-62730000D02*
X96765500Y-61314500D01*
X34391900Y-84088100D02*
X36490500Y-86186800D01*
X40080600Y-53000000D02*
X40000000Y-53000000D01*
X95350000Y-62730000D02*
X92810000Y-62730000D01*
X37000000Y-51201700D02*
X36000000Y-51201700D01*
X34391900Y-84088100D02*
X34800000Y-83680000D01*
X38798300Y-53000000D02*
X37000000Y-51201700D01*
X91000000Y-72000000D02*
X89798300Y-72000000D01*
X111000000Y-72000000D02*
X109798300Y-72000000D01*
X83003700Y-73252600D02*
X88545700Y-73252600D01*
X81000000Y-72000000D02*
X82201700Y-72000000D01*
X36490500Y-86186800D02*
X36490500Y-92990500D01*
X40000000Y-53000000D02*
X38798300Y-53000000D01*
%TO.N,SERVO_5V*%
D20*
X83540000Y-72000000D02*
X85241700Y-70298300D01*
X93540000Y-71569800D02*
X93540000Y-72000000D01*
X92268500Y-70298300D02*
X93540000Y-71569800D01*
X85241700Y-70298300D02*
X92268500Y-70298300D01*
%TO.N,GPIO26*%
D18*
X60878300Y-72303100D02*
X61878700Y-73303500D01*
X31600000Y-94840000D02*
X33800000Y-94840000D01*
X59677400Y-72303100D02*
X60878300Y-72303100D01*
X81214300Y-73303500D02*
X81667500Y-73756700D01*
X61878700Y-73303500D02*
X81214300Y-73303500D01*
X94323300Y-73756700D02*
X96080000Y-72000000D01*
X58590400Y-73973500D02*
X58590400Y-73390100D01*
X81667500Y-73756700D02*
X94323300Y-73756700D01*
X33800000Y-94840000D02*
X34800000Y-93840000D01*
X58590400Y-73390100D02*
X59677400Y-72303100D01*
%TO.N,3V3*%
X56287100Y-116700000D02*
X60200000Y-120612900D01*
X111000000Y-139540000D02*
X106453500Y-144086500D01*
X94798000Y-140162500D02*
X94798000Y-140668100D01*
X34800000Y-116700000D02*
X56287100Y-116700000D01*
X32801700Y-117700000D02*
X32801700Y-117496600D01*
X106453500Y-144086500D02*
X98216400Y-144086500D01*
X34219500Y-116700000D02*
X34800000Y-116700000D01*
X62892100Y-125533800D02*
X80169300Y-125533800D01*
X60200000Y-122841700D02*
X62892100Y-125533800D01*
X31600000Y-117700000D02*
X32801700Y-117700000D01*
X80169300Y-125533800D02*
X94798000Y-140162500D01*
X98216400Y-144086500D02*
X94798000Y-140668100D01*
X32801700Y-117496600D02*
X33598300Y-116700000D01*
X60200000Y-120612900D02*
X60200000Y-122841700D01*
X34219500Y-116700000D02*
X33598300Y-116700000D01*
%TO.N,HI_DIAG*%
X111561700Y-145829100D02*
X107176700Y-145829100D01*
X112227700Y-143307700D02*
X112227700Y-145163100D01*
X106391800Y-145044200D02*
X91239200Y-145044200D01*
X85126600Y-151156800D02*
X82972600Y-149002800D01*
X85126600Y-155604300D02*
X84648800Y-156082100D01*
X111000000Y-142080000D02*
X112227700Y-143307700D01*
X107176700Y-145829100D02*
X106391800Y-145044200D01*
X112227700Y-145163100D02*
X111561700Y-145829100D01*
X91239200Y-145044200D02*
X85126600Y-151156800D01*
X85126600Y-151156800D02*
X85126600Y-155604300D01*
%TO.N,LO_DIAG*%
X111000000Y-144620000D02*
X110972500Y-144592500D01*
X84341000Y-144592500D02*
X83537500Y-143789000D01*
X110972500Y-144592500D02*
X84341000Y-144592500D01*
%TO.N,ADC_READY*%
X96422200Y-145496000D02*
X106050700Y-145496000D01*
X106050700Y-145496000D02*
X107714700Y-147160000D01*
X107714700Y-147160000D02*
X111000000Y-147160000D01*
X96175400Y-145742800D02*
X96422200Y-145496000D01*
%TO.N,HI_ADC_P*%
X94285800Y-149712000D02*
X98008000Y-145989800D01*
X92389300Y-149712000D02*
X94285800Y-149712000D01*
X109545000Y-149700000D02*
X111000000Y-149700000D01*
X105834800Y-145989800D02*
X109545000Y-149700000D01*
X98008000Y-145989800D02*
X105834800Y-145989800D01*
%TO.N,LO_INP*%
X62339600Y-145587300D02*
X56890900Y-145587300D01*
X66008600Y-145587300D02*
X62339600Y-145587300D01*
X62339600Y-145587300D02*
X62339600Y-140622900D01*
X56890900Y-145587300D02*
X55677900Y-146800300D01*
%TO.N,HI_LDO*%
X83015800Y-150965600D02*
X81100100Y-149049900D01*
X81100100Y-147718200D02*
X81100000Y-147718200D01*
X81100100Y-149049900D02*
X81100100Y-147718200D01*
%TO.N,LOGIC_5V*%
X104200000Y-66500000D02*
X99900000Y-70800000D01*
D21*
X115430000Y-62730000D02*
X112594900Y-65565100D01*
X42383600Y-48696400D02*
X41080000Y-50000000D01*
D18*
X111800000Y-66400000D02*
X110700000Y-66400000D01*
X110600000Y-66500000D02*
X104200000Y-66500000D01*
X114200000Y-64000000D02*
X111800000Y-66400000D01*
X115400000Y-62700000D02*
X114200000Y-63900000D01*
X99800000Y-70800000D02*
X97100000Y-73500000D01*
D21*
X85980800Y-65565100D02*
X69112100Y-48696400D01*
X112594900Y-65565100D02*
X85980800Y-65565100D01*
D18*
X115430000Y-62730000D02*
X115400000Y-62700000D01*
D21*
X69112100Y-48696400D02*
X42383600Y-48696400D01*
D18*
X114200000Y-63900000D02*
X114200000Y-64000000D01*
X110700000Y-66400000D02*
X110600000Y-66500000D01*
X99900000Y-70800000D02*
X99800000Y-70800000D01*
%TO.N,HI_INP*%
D19*
X55200000Y-148900000D02*
X61200000Y-154900000D01*
X46900000Y-146700000D02*
X50400000Y-150200000D01*
X50400000Y-150200000D02*
X54500000Y-150200000D01*
X61200000Y-154900000D02*
X61400000Y-154900000D01*
X61400000Y-154900000D02*
X61500000Y-155000000D01*
X49100000Y-148900000D02*
X55200000Y-148900000D01*
X54500000Y-150200000D02*
X63700000Y-159400000D01*
X46900000Y-146700000D02*
X49100000Y-148900000D01*
X63700000Y-159400000D02*
X66900000Y-159400000D01*
X46100000Y-145700000D02*
X46100000Y-144000000D01*
X66900000Y-159400000D02*
X67000000Y-159500000D01*
%TO.N,EN*%
D18*
X31600000Y-115160000D02*
X33800000Y-115160000D01*
X33800000Y-115160000D02*
X34800000Y-114160000D01*
%TO.N,GPIO36*%
X33800000Y-112620000D02*
X34800000Y-111620000D01*
X31600000Y-112620000D02*
X33800000Y-112620000D01*
%TO.N,GPIO39*%
X33800000Y-110080000D02*
X34800000Y-109080000D01*
X31600000Y-110080000D02*
X33800000Y-110080000D01*
%TO.N,GPIO34*%
X33800000Y-107540000D02*
X34800000Y-106540000D01*
X31600000Y-107540000D02*
X33800000Y-107540000D01*
%TO.N,GPIO35*%
X33800000Y-105000000D02*
X34800000Y-104000000D01*
X31600000Y-105000000D02*
X33800000Y-105000000D01*
%TO.N,GPIO32*%
X33800000Y-102460000D02*
X34800000Y-101460000D01*
X31600000Y-102460000D02*
X33800000Y-102460000D01*
%TO.N,GPIO33*%
X33800000Y-99920000D02*
X34800000Y-98920000D01*
X31600000Y-99920000D02*
X33800000Y-99920000D01*
%TO.N,GPIO25*%
X33800000Y-97380000D02*
X34800000Y-96380000D01*
X31600000Y-97380000D02*
X33800000Y-97380000D01*
%TO.N,GPIO27*%
X61864000Y-74208400D02*
X103871600Y-74208400D01*
X103871600Y-74208400D02*
X106080000Y-72000000D01*
X33800000Y-92300000D02*
X34800000Y-91300000D01*
X61782300Y-74126700D02*
X61864000Y-74208400D01*
X31600000Y-92300000D02*
X33800000Y-92300000D01*
%TO.N,GPIO14*%
X58553900Y-76068500D02*
X58553900Y-75991100D01*
X113290000Y-74790000D02*
X116080000Y-72000000D01*
X58553900Y-75991100D02*
X59755000Y-74790000D01*
X33800000Y-89760000D02*
X34800000Y-88760000D01*
X59755000Y-74790000D02*
X113290000Y-74790000D01*
X31600000Y-89760000D02*
X33800000Y-89760000D01*
%TO.N,GPIO12*%
X31600000Y-87220000D02*
X33800000Y-87220000D01*
X33800000Y-87220000D02*
X34800000Y-86220000D01*
%TO.N,ESP_5V*%
D20*
X43985000Y-70980000D02*
X49540000Y-65425000D01*
X34800000Y-70980000D02*
X43985000Y-70980000D01*
X49540000Y-65425000D02*
X49540000Y-65000000D01*
%TO.N,GPIO23*%
D18*
X31600000Y-79600000D02*
X31600000Y-79696400D01*
X35260300Y-82410000D02*
X57994700Y-105144400D01*
X57994700Y-111954700D02*
X60200000Y-114160000D01*
X34313600Y-82410000D02*
X35260300Y-82410000D01*
X31600000Y-79696400D02*
X34313600Y-82410000D01*
X57994700Y-105144400D02*
X57994700Y-111954700D01*
%TO.N,GPIO22*%
X34308800Y-79870000D02*
X35316700Y-79870000D01*
X32939800Y-78399800D02*
X32939900Y-78399800D01*
X31600000Y-77060000D02*
X32939800Y-78399800D01*
X35316700Y-79870000D02*
X58446400Y-102999700D01*
X61902800Y-123905700D02*
X62854300Y-124857200D01*
X60200000Y-111620000D02*
X61902800Y-113322800D01*
X58446400Y-102999700D02*
X58446400Y-109866400D01*
X32939900Y-78399800D02*
X32939900Y-78501100D01*
X99722600Y-143433400D02*
X100967400Y-143433400D01*
X61902800Y-113322800D02*
X61902800Y-123905700D01*
X62854300Y-124857200D02*
X81146400Y-124857200D01*
X32939900Y-78501100D02*
X34308800Y-79870000D01*
X81146400Y-124857200D02*
X99722600Y-143433400D01*
X58446400Y-109866400D02*
X60200000Y-111620000D01*
%TO.N,GPIO1*%
X60200000Y-109080000D02*
X58926100Y-107806100D01*
X58926100Y-107806100D02*
X58926100Y-101026600D01*
X35297800Y-77398300D02*
X34379100Y-77398300D01*
X31600000Y-74619200D02*
X31600000Y-74520000D01*
X58926100Y-101026600D02*
X35297800Y-77398300D01*
X34379100Y-77398300D02*
X31600000Y-74619200D01*
%TO.N,GPIO5*%
X34436400Y-74858300D02*
X32851100Y-73273000D01*
X32851100Y-73273000D02*
X32851100Y-63071100D01*
X41218300Y-74858300D02*
X34436400Y-74858300D01*
X60200000Y-93840000D02*
X41218300Y-74858300D01*
X32851100Y-63071100D02*
X31600000Y-61820000D01*
%TO.N,GPIO17*%
X41218300Y-72318300D02*
X34302000Y-72318300D01*
X33412100Y-71428400D02*
X33412100Y-61092100D01*
X60200000Y-91300000D02*
X41218300Y-72318300D01*
X33412100Y-61092100D02*
X31600000Y-59280000D01*
X34302000Y-72318300D02*
X33412100Y-71428400D01*
%TO.N,GPIO16*%
X60200000Y-88760000D02*
X50829400Y-79389400D01*
X50829400Y-79389400D02*
X50829400Y-64504800D01*
X48102900Y-61778300D02*
X36638300Y-61778300D01*
X36638300Y-61778300D02*
X31600000Y-56740000D01*
X50829400Y-64504800D02*
X48102900Y-61778300D01*
%TO.N,GPIO4*%
X48289900Y-61326600D02*
X38726600Y-61326600D01*
X51281100Y-64317800D02*
X48289900Y-61326600D01*
X51281100Y-77301100D02*
X51281100Y-64317800D01*
X60200000Y-86220000D02*
X51281100Y-77301100D01*
X38726600Y-61326600D02*
X31600000Y-54200000D01*
%TO.N,GPIO0*%
X48476900Y-60874900D02*
X40814900Y-60874900D01*
X60200000Y-83680000D02*
X51732800Y-75212800D01*
X51732800Y-64130800D02*
X48476900Y-60874900D01*
X40814900Y-60874900D02*
X31600000Y-51660000D01*
X51732800Y-75212800D02*
X51732800Y-64130800D01*
%TO.N,GPIO2*%
X42903200Y-60423200D02*
X31600000Y-49120000D01*
X48663900Y-60423200D02*
X42903200Y-60423200D01*
X52184500Y-63943800D02*
X48663900Y-60423200D01*
X52184500Y-73124500D02*
X52184500Y-63943800D01*
X60200000Y-81140000D02*
X52184500Y-73124500D01*
%TO.N,GPIO15*%
X31600000Y-46580000D02*
X34025100Y-49005100D01*
X57900700Y-76336800D02*
X60163900Y-78600000D01*
X60163900Y-78600000D02*
X60200000Y-78600000D01*
X47646600Y-58767200D02*
X57900700Y-69021300D01*
X34025100Y-49005100D02*
X34025100Y-50269300D01*
X57900700Y-69021300D02*
X57900700Y-76336800D01*
X34025100Y-50269300D02*
X42523000Y-58767200D01*
X42523000Y-58767200D02*
X47646600Y-58767200D01*
%TO.N,LO_LDO*%
X83178900Y-138126700D02*
X83178900Y-134798600D01*
X83178900Y-134798600D02*
X82935300Y-134555000D01*
X82497700Y-138807900D02*
X83178900Y-138126700D01*
%TD*%
%TA.AperFunction,Conductor*%
%TO.N,LOGIC_5V*%
G36*
X120409191Y-124568907D02*
G01*
X120445155Y-124618407D01*
X120450000Y-124649000D01*
X120450000Y-161351000D01*
X120431093Y-161409191D01*
X120381593Y-161445155D01*
X120351000Y-161450000D01*
X80499000Y-161450000D01*
X80440809Y-161431093D01*
X80404845Y-161381593D01*
X80400000Y-161351000D01*
X80400000Y-158025825D01*
X81747000Y-158025825D01*
X81747000Y-158170774D01*
X81784517Y-158310789D01*
X81856987Y-158436310D01*
X81856989Y-158436312D01*
X81856991Y-158436315D01*
X81959485Y-158538809D01*
X81959487Y-158538810D01*
X81959489Y-158538812D01*
X82085011Y-158611282D01*
X82085012Y-158611282D01*
X82085015Y-158611284D01*
X82225025Y-158648800D01*
X82225026Y-158648800D01*
X82369974Y-158648800D01*
X82369975Y-158648800D01*
X82509985Y-158611284D01*
X82509987Y-158611282D01*
X82509989Y-158611282D01*
X82635510Y-158538812D01*
X82635510Y-158538811D01*
X82635515Y-158538809D01*
X82738009Y-158436315D01*
X82762785Y-158393402D01*
X82810482Y-158310789D01*
X82810482Y-158310787D01*
X82810484Y-158310785D01*
X82848000Y-158170775D01*
X82848000Y-158025825D01*
X82810484Y-157885815D01*
X82810482Y-157885812D01*
X82810482Y-157885810D01*
X82738012Y-157760289D01*
X82738010Y-157760287D01*
X82738009Y-157760285D01*
X82635515Y-157657791D01*
X82635512Y-157657789D01*
X82635510Y-157657787D01*
X82509988Y-157585317D01*
X82509989Y-157585317D01*
X82480396Y-157577387D01*
X82369975Y-157547800D01*
X82225025Y-157547800D01*
X82163290Y-157564341D01*
X82085010Y-157585317D01*
X81959489Y-157657787D01*
X81856987Y-157760289D01*
X81784517Y-157885810D01*
X81747000Y-158025825D01*
X80400000Y-158025825D01*
X80400000Y-154832525D01*
X81956600Y-154832525D01*
X81956600Y-154977474D01*
X81994117Y-155117489D01*
X82066587Y-155243010D01*
X82066589Y-155243012D01*
X82066591Y-155243015D01*
X82169085Y-155345509D01*
X82169087Y-155345510D01*
X82169089Y-155345512D01*
X82294611Y-155417982D01*
X82294612Y-155417982D01*
X82294615Y-155417984D01*
X82434625Y-155455500D01*
X82434626Y-155455500D01*
X82579574Y-155455500D01*
X82579575Y-155455500D01*
X82719585Y-155417984D01*
X82719587Y-155417982D01*
X82719589Y-155417982D01*
X82845110Y-155345512D01*
X82845110Y-155345511D01*
X82845115Y-155345509D01*
X82947609Y-155243015D01*
X82971032Y-155202445D01*
X83020082Y-155117489D01*
X83020082Y-155117487D01*
X83020084Y-155117485D01*
X83057600Y-154977475D01*
X83057600Y-154832525D01*
X83020084Y-154692515D01*
X83020082Y-154692512D01*
X83020082Y-154692510D01*
X82947612Y-154566989D01*
X82947610Y-154566987D01*
X82947609Y-154566985D01*
X82845115Y-154464491D01*
X82845112Y-154464489D01*
X82845110Y-154464487D01*
X82719588Y-154392017D01*
X82719589Y-154392017D01*
X82689996Y-154384087D01*
X82579575Y-154354500D01*
X82434625Y-154354500D01*
X82372890Y-154371041D01*
X82294610Y-154392017D01*
X82169089Y-154464487D01*
X82066587Y-154566989D01*
X81994117Y-154692510D01*
X81956600Y-154832525D01*
X80400000Y-154832525D01*
X80400000Y-147976237D01*
X80418907Y-147918046D01*
X80468407Y-147882082D01*
X80529593Y-147882082D01*
X80579093Y-147918046D01*
X80584736Y-147926737D01*
X80659487Y-148056210D01*
X80659489Y-148056212D01*
X80659491Y-148056215D01*
X80720605Y-148117329D01*
X80748381Y-148171844D01*
X80749600Y-148187331D01*
X80749600Y-149096043D01*
X80770621Y-149174495D01*
X80770620Y-149174495D01*
X80773483Y-149185181D01*
X80773485Y-149185186D01*
X80773486Y-149185188D01*
X80819630Y-149265112D01*
X82436305Y-150881787D01*
X82464081Y-150936302D01*
X82465300Y-150951789D01*
X82465300Y-151038074D01*
X82502817Y-151178089D01*
X82575287Y-151303610D01*
X82575289Y-151303612D01*
X82575291Y-151303615D01*
X82677785Y-151406109D01*
X82677787Y-151406110D01*
X82677789Y-151406112D01*
X82803311Y-151478582D01*
X82803312Y-151478582D01*
X82803315Y-151478584D01*
X82943325Y-151516100D01*
X82943326Y-151516100D01*
X83088274Y-151516100D01*
X83088275Y-151516100D01*
X83228285Y-151478584D01*
X83228287Y-151478582D01*
X83228289Y-151478582D01*
X83353810Y-151406112D01*
X83353810Y-151406111D01*
X83353815Y-151406109D01*
X83456309Y-151303615D01*
X83457252Y-151301982D01*
X83528782Y-151178089D01*
X83528782Y-151178087D01*
X83528784Y-151178085D01*
X83566300Y-151038075D01*
X83566300Y-150893125D01*
X83528784Y-150753115D01*
X83528782Y-150753112D01*
X83528782Y-150753110D01*
X83456312Y-150627589D01*
X83456310Y-150627587D01*
X83456309Y-150627585D01*
X83353815Y-150525091D01*
X83353812Y-150525089D01*
X83353810Y-150525087D01*
X83228288Y-150452617D01*
X83228289Y-150452617D01*
X83198696Y-150444687D01*
X83088275Y-150415100D01*
X83088274Y-150415100D01*
X83001990Y-150415100D01*
X82943799Y-150396193D01*
X82931986Y-150386104D01*
X81479596Y-148933714D01*
X81451819Y-148879197D01*
X81450600Y-148863710D01*
X81450600Y-148187131D01*
X81469507Y-148128940D01*
X81479590Y-148117133D01*
X81540509Y-148056215D01*
X81573303Y-147999414D01*
X81612982Y-147930689D01*
X81612982Y-147930687D01*
X81612984Y-147930685D01*
X81650500Y-147790675D01*
X81650500Y-147645725D01*
X81612984Y-147505715D01*
X81612982Y-147505712D01*
X81612982Y-147505710D01*
X81540512Y-147380189D01*
X81540510Y-147380187D01*
X81540509Y-147380185D01*
X81438015Y-147277691D01*
X81386194Y-147247772D01*
X81386193Y-147247770D01*
X81312488Y-147205217D01*
X81312489Y-147205217D01*
X81282896Y-147197287D01*
X81175554Y-147168525D01*
X84340500Y-147168525D01*
X84340500Y-147313474D01*
X84378017Y-147453489D01*
X84450487Y-147579010D01*
X84450489Y-147579012D01*
X84450491Y-147579015D01*
X84552985Y-147681509D01*
X84552987Y-147681510D01*
X84552989Y-147681512D01*
X84678511Y-147753982D01*
X84678512Y-147753982D01*
X84678515Y-147753984D01*
X84818525Y-147791500D01*
X84818526Y-147791500D01*
X84963474Y-147791500D01*
X84963475Y-147791500D01*
X85103485Y-147753984D01*
X85103487Y-147753982D01*
X85103489Y-147753982D01*
X85229010Y-147681512D01*
X85229010Y-147681511D01*
X85229015Y-147681509D01*
X85331509Y-147579015D01*
X85403984Y-147453485D01*
X85441500Y-147313475D01*
X85441500Y-147168525D01*
X85403984Y-147028515D01*
X85403982Y-147028512D01*
X85403982Y-147028510D01*
X85331512Y-146902989D01*
X85331510Y-146902987D01*
X85331509Y-146902985D01*
X85229015Y-146800491D01*
X85229012Y-146800489D01*
X85229010Y-146800487D01*
X85103488Y-146728017D01*
X85103489Y-146728017D01*
X85039272Y-146710810D01*
X84963475Y-146690500D01*
X84818525Y-146690500D01*
X84756790Y-146707041D01*
X84678510Y-146728017D01*
X84552989Y-146800487D01*
X84450487Y-146902989D01*
X84378017Y-147028510D01*
X84340500Y-147168525D01*
X81175554Y-147168525D01*
X81172475Y-147167700D01*
X81027525Y-147167700D01*
X80965790Y-147184241D01*
X80887510Y-147205217D01*
X80761989Y-147277687D01*
X80659487Y-147380189D01*
X80584736Y-147509662D01*
X80539267Y-147550603D01*
X80478416Y-147556999D01*
X80425428Y-147526406D01*
X80400542Y-147470510D01*
X80400000Y-147460162D01*
X80400000Y-138735425D01*
X81947200Y-138735425D01*
X81947200Y-138880375D01*
X81966529Y-138952512D01*
X81984717Y-139020389D01*
X82057187Y-139145910D01*
X82057189Y-139145912D01*
X82057191Y-139145915D01*
X82159685Y-139248409D01*
X82159687Y-139248410D01*
X82159689Y-139248412D01*
X82285211Y-139320882D01*
X82285212Y-139320882D01*
X82285215Y-139320884D01*
X82425225Y-139358400D01*
X82425226Y-139358400D01*
X82570174Y-139358400D01*
X82570175Y-139358400D01*
X82710185Y-139320884D01*
X82710187Y-139320882D01*
X82710189Y-139320882D01*
X82835710Y-139248412D01*
X82835710Y-139248411D01*
X82835715Y-139248409D01*
X82938209Y-139145915D01*
X82980610Y-139072475D01*
X83010682Y-139020389D01*
X83010682Y-139020387D01*
X83010684Y-139020385D01*
X83048200Y-138880375D01*
X83048200Y-138794088D01*
X83067107Y-138735897D01*
X83077190Y-138724090D01*
X83361756Y-138439525D01*
X85399500Y-138439525D01*
X85399500Y-138584475D01*
X85407981Y-138616125D01*
X85437017Y-138724489D01*
X85509487Y-138850010D01*
X85509489Y-138850012D01*
X85509491Y-138850015D01*
X85611985Y-138952509D01*
X85611987Y-138952510D01*
X85611989Y-138952512D01*
X85737511Y-139024982D01*
X85737512Y-139024982D01*
X85737515Y-139024984D01*
X85877525Y-139062500D01*
X85877526Y-139062500D01*
X86022474Y-139062500D01*
X86022475Y-139062500D01*
X86162485Y-139024984D01*
X86162487Y-139024982D01*
X86162489Y-139024982D01*
X86288010Y-138952512D01*
X86288010Y-138952511D01*
X86288015Y-138952509D01*
X86390509Y-138850015D01*
X86426596Y-138787511D01*
X86462982Y-138724489D01*
X86462982Y-138724487D01*
X86462984Y-138724485D01*
X86500500Y-138584475D01*
X86500500Y-138439525D01*
X86462984Y-138299515D01*
X86462982Y-138299512D01*
X86462982Y-138299510D01*
X86390512Y-138173989D01*
X86390510Y-138173987D01*
X86390509Y-138173985D01*
X86288015Y-138071491D01*
X86288012Y-138071489D01*
X86288010Y-138071487D01*
X86162488Y-137999017D01*
X86162489Y-137999017D01*
X86097182Y-137981518D01*
X86022475Y-137961500D01*
X85877525Y-137961500D01*
X85826811Y-137975089D01*
X85737510Y-137999017D01*
X85611989Y-138071487D01*
X85509487Y-138173989D01*
X85437017Y-138299510D01*
X85409598Y-138401840D01*
X85399500Y-138439525D01*
X83361756Y-138439525D01*
X83459369Y-138341912D01*
X83505514Y-138261988D01*
X83510226Y-138244402D01*
X83529400Y-138172844D01*
X83529400Y-134752456D01*
X83505514Y-134663312D01*
X83499064Y-134652140D01*
X83485800Y-134602639D01*
X83485800Y-134482525D01*
X83448284Y-134342515D01*
X83448282Y-134342512D01*
X83448282Y-134342510D01*
X83375812Y-134216989D01*
X83375810Y-134216987D01*
X83375809Y-134216985D01*
X83273315Y-134114491D01*
X83273312Y-134114489D01*
X83273310Y-134114487D01*
X83147788Y-134042017D01*
X83147789Y-134042017D01*
X83118196Y-134034087D01*
X83007775Y-134004500D01*
X82862825Y-134004500D01*
X82801090Y-134021041D01*
X82722810Y-134042017D01*
X82597289Y-134114487D01*
X82494787Y-134216989D01*
X82422317Y-134342510D01*
X82422316Y-134342515D01*
X82384800Y-134482525D01*
X82384800Y-134627475D01*
X82391409Y-134652140D01*
X82422317Y-134767489D01*
X82494787Y-134893010D01*
X82494789Y-134893012D01*
X82494791Y-134893015D01*
X82597285Y-134995509D01*
X82597287Y-134995510D01*
X82597289Y-134995512D01*
X82722811Y-135067982D01*
X82722812Y-135067982D01*
X82722815Y-135067984D01*
X82755023Y-135076614D01*
X82806337Y-135109936D01*
X82828264Y-135167057D01*
X82828400Y-135172240D01*
X82828400Y-136480787D01*
X82809493Y-136538978D01*
X82759993Y-136574942D01*
X82703778Y-136576413D01*
X82584675Y-136544500D01*
X82439725Y-136544500D01*
X82377990Y-136561041D01*
X82299710Y-136582017D01*
X82174189Y-136654487D01*
X82071687Y-136756989D01*
X81999217Y-136882510D01*
X81961700Y-137022525D01*
X81961700Y-137167474D01*
X81999217Y-137307489D01*
X82071687Y-137433010D01*
X82071689Y-137433012D01*
X82071691Y-137433015D01*
X82174185Y-137535509D01*
X82174187Y-137535510D01*
X82174189Y-137535512D01*
X82299711Y-137607982D01*
X82299712Y-137607982D01*
X82299715Y-137607984D01*
X82439725Y-137645500D01*
X82439726Y-137645500D01*
X82584676Y-137645500D01*
X82584676Y-137645499D01*
X82703777Y-137613586D01*
X82764877Y-137616787D01*
X82812428Y-137655292D01*
X82828400Y-137709212D01*
X82828400Y-137940510D01*
X82809493Y-137998701D01*
X82799404Y-138010514D01*
X82581514Y-138228404D01*
X82526997Y-138256181D01*
X82511510Y-138257400D01*
X82425225Y-138257400D01*
X82363490Y-138273941D01*
X82285210Y-138294917D01*
X82159689Y-138367387D01*
X82057187Y-138469889D01*
X81984717Y-138595410D01*
X81966879Y-138661984D01*
X81947200Y-138735425D01*
X80400000Y-138735425D01*
X80400000Y-126499190D01*
X80418907Y-126440999D01*
X80468407Y-126405035D01*
X80529593Y-126405035D01*
X80569004Y-126429186D01*
X94344921Y-140205103D01*
X94372698Y-140259620D01*
X94363127Y-140320052D01*
X94360653Y-140324607D01*
X94285017Y-140455610D01*
X94257079Y-140559876D01*
X94247500Y-140595625D01*
X94247500Y-140740575D01*
X94277087Y-140850996D01*
X94285017Y-140880589D01*
X94357487Y-141006110D01*
X94357489Y-141006112D01*
X94357491Y-141006115D01*
X94459985Y-141108609D01*
X94459987Y-141108610D01*
X94459989Y-141108612D01*
X94585511Y-141181082D01*
X94585512Y-141181082D01*
X94585515Y-141181084D01*
X94725525Y-141218600D01*
X94811810Y-141218600D01*
X94870001Y-141237507D01*
X94881814Y-141247596D01*
X97707214Y-144072996D01*
X97734991Y-144127513D01*
X97725420Y-144187945D01*
X97682155Y-144231210D01*
X97637210Y-144242000D01*
X87949289Y-144242000D01*
X87891098Y-144223093D01*
X87855134Y-144173593D01*
X87855134Y-144112407D01*
X87879283Y-144072998D01*
X89547786Y-142404496D01*
X89602303Y-142376719D01*
X89617790Y-142375500D01*
X89704074Y-142375500D01*
X89704075Y-142375500D01*
X89844085Y-142337984D01*
X89844087Y-142337982D01*
X89844089Y-142337982D01*
X89969610Y-142265512D01*
X89969610Y-142265511D01*
X89969615Y-142265509D01*
X90072109Y-142163015D01*
X90072112Y-142163010D01*
X90144582Y-142037489D01*
X90144582Y-142037487D01*
X90144584Y-142037485D01*
X90182100Y-141897475D01*
X90182100Y-141752525D01*
X90144584Y-141612515D01*
X90144582Y-141612512D01*
X90144582Y-141612510D01*
X90072112Y-141486989D01*
X90072110Y-141486987D01*
X90072109Y-141486985D01*
X89969615Y-141384491D01*
X89969612Y-141384489D01*
X89969610Y-141384487D01*
X89844088Y-141312017D01*
X89844089Y-141312017D01*
X89814496Y-141304087D01*
X89704075Y-141274500D01*
X89559125Y-141274500D01*
X89497390Y-141291041D01*
X89419110Y-141312017D01*
X89293589Y-141384487D01*
X89191087Y-141486989D01*
X89118617Y-141612510D01*
X89081100Y-141752525D01*
X89081100Y-141838810D01*
X89062193Y-141897001D01*
X89052104Y-141908814D01*
X87533114Y-143427804D01*
X87478597Y-143455581D01*
X87463110Y-143456800D01*
X84965032Y-143456800D01*
X84906841Y-143437893D01*
X84895029Y-143427804D01*
X84834015Y-143366791D01*
X84834010Y-143366787D01*
X84708488Y-143294317D01*
X84708489Y-143294317D01*
X84640189Y-143276016D01*
X84568475Y-143256800D01*
X84423525Y-143256800D01*
X84361790Y-143273341D01*
X84283510Y-143294317D01*
X84157989Y-143366787D01*
X84157988Y-143366788D01*
X84095902Y-143428873D01*
X84041385Y-143456649D01*
X83980953Y-143447077D01*
X83955898Y-143428874D01*
X83875515Y-143348491D01*
X83875512Y-143348489D01*
X83875510Y-143348487D01*
X83749988Y-143276017D01*
X83749989Y-143276017D01*
X83696020Y-143261556D01*
X83609975Y-143238500D01*
X83465025Y-143238500D01*
X83403290Y-143255041D01*
X83325010Y-143276017D01*
X83199489Y-143348487D01*
X83096987Y-143450989D01*
X83024517Y-143576510D01*
X82987000Y-143716525D01*
X82987000Y-143861474D01*
X83024517Y-144001489D01*
X83096987Y-144127010D01*
X83096989Y-144127012D01*
X83096991Y-144127015D01*
X83199485Y-144229509D01*
X83199487Y-144229510D01*
X83199489Y-144229512D01*
X83325011Y-144301982D01*
X83325012Y-144301982D01*
X83325015Y-144301984D01*
X83465025Y-144339500D01*
X83551310Y-144339500D01*
X83609501Y-144358407D01*
X83621314Y-144368496D01*
X84125788Y-144872970D01*
X84125790Y-144872971D01*
X84188031Y-144908907D01*
X84188040Y-144908910D01*
X84188042Y-144908912D01*
X84205712Y-144919114D01*
X84294856Y-144943000D01*
X84294857Y-144943000D01*
X84387144Y-144943000D01*
X90605710Y-144943000D01*
X90663901Y-144961907D01*
X90699865Y-145011407D01*
X90699865Y-145072593D01*
X90675714Y-145112004D01*
X85196604Y-150591114D01*
X85142087Y-150618891D01*
X85081655Y-150609320D01*
X85056596Y-150591114D01*
X83552096Y-149086614D01*
X83524319Y-149032097D01*
X83523100Y-149016610D01*
X83523100Y-148930325D01*
X83485584Y-148790315D01*
X83485582Y-148790312D01*
X83485582Y-148790310D01*
X83413112Y-148664789D01*
X83413110Y-148664787D01*
X83413109Y-148664785D01*
X83310615Y-148562291D01*
X83310612Y-148562289D01*
X83310610Y-148562287D01*
X83185088Y-148489817D01*
X83185089Y-148489817D01*
X83155496Y-148481887D01*
X83045075Y-148452300D01*
X82900125Y-148452300D01*
X82838390Y-148468841D01*
X82760110Y-148489817D01*
X82634589Y-148562287D01*
X82532087Y-148664789D01*
X82459617Y-148790310D01*
X82435800Y-148879197D01*
X82422100Y-148930325D01*
X82422100Y-149075275D01*
X82445204Y-149161500D01*
X82459617Y-149215289D01*
X82532087Y-149340810D01*
X82532089Y-149340812D01*
X82532091Y-149340815D01*
X82634585Y-149443309D01*
X82634587Y-149443310D01*
X82634589Y-149443312D01*
X82760111Y-149515782D01*
X82760112Y-149515782D01*
X82760115Y-149515784D01*
X82900125Y-149553300D01*
X82986410Y-149553300D01*
X83044601Y-149572207D01*
X83056414Y-149582296D01*
X84747104Y-151272986D01*
X84774881Y-151327503D01*
X84776100Y-151342990D01*
X84776100Y-155418111D01*
X84757193Y-155476302D01*
X84747106Y-155488112D01*
X84732618Y-155502601D01*
X84678102Y-155530381D01*
X84662612Y-155531600D01*
X84576325Y-155531600D01*
X84514590Y-155548141D01*
X84436310Y-155569117D01*
X84310789Y-155641587D01*
X84208287Y-155744089D01*
X84135817Y-155869610D01*
X84098300Y-156009625D01*
X84098300Y-156154574D01*
X84135817Y-156294589D01*
X84208287Y-156420110D01*
X84208289Y-156420112D01*
X84208291Y-156420115D01*
X84310785Y-156522609D01*
X84310787Y-156522610D01*
X84310789Y-156522612D01*
X84436311Y-156595082D01*
X84436312Y-156595082D01*
X84436315Y-156595084D01*
X84576325Y-156632600D01*
X84576326Y-156632600D01*
X84721274Y-156632600D01*
X84721275Y-156632600D01*
X84861285Y-156595084D01*
X84861287Y-156595082D01*
X84861289Y-156595082D01*
X84986810Y-156522612D01*
X84986810Y-156522611D01*
X84986815Y-156522609D01*
X85089309Y-156420115D01*
X85113182Y-156378766D01*
X85161782Y-156294589D01*
X85161782Y-156294587D01*
X85161784Y-156294585D01*
X85199300Y-156154575D01*
X85199300Y-156068288D01*
X85218207Y-156010097D01*
X85228290Y-155998290D01*
X85407069Y-155819512D01*
X85453214Y-155739588D01*
X85458132Y-155721233D01*
X85458750Y-155718929D01*
X85463666Y-155700578D01*
X85477100Y-155650444D01*
X85477100Y-153346025D01*
X87987000Y-153346025D01*
X87987000Y-153490974D01*
X88024517Y-153630989D01*
X88096987Y-153756510D01*
X88096989Y-153756512D01*
X88096991Y-153756515D01*
X88199485Y-153859009D01*
X88199487Y-153859010D01*
X88199489Y-153859012D01*
X88325011Y-153931482D01*
X88325012Y-153931482D01*
X88325015Y-153931484D01*
X88465025Y-153969000D01*
X88465026Y-153969000D01*
X88609974Y-153969000D01*
X88609975Y-153969000D01*
X88749985Y-153931484D01*
X88749987Y-153931482D01*
X88749989Y-153931482D01*
X88875510Y-153859012D01*
X88875510Y-153859011D01*
X88875515Y-153859009D01*
X88978009Y-153756515D01*
X89006829Y-153706597D01*
X89050482Y-153630989D01*
X89050482Y-153630987D01*
X89050484Y-153630985D01*
X89088000Y-153490975D01*
X89088000Y-153402525D01*
X95453000Y-153402525D01*
X95453000Y-153547475D01*
X95475377Y-153630985D01*
X95490517Y-153687489D01*
X95562987Y-153813010D01*
X95562989Y-153813012D01*
X95562991Y-153813015D01*
X95665485Y-153915509D01*
X95665487Y-153915510D01*
X95665489Y-153915512D01*
X95791011Y-153987982D01*
X95791012Y-153987982D01*
X95791015Y-153987984D01*
X95931025Y-154025500D01*
X95931026Y-154025500D01*
X96075974Y-154025500D01*
X96075975Y-154025500D01*
X96215985Y-153987984D01*
X96215987Y-153987982D01*
X96215989Y-153987982D01*
X96341510Y-153915512D01*
X96341510Y-153915511D01*
X96341515Y-153915509D01*
X96444009Y-153813015D01*
X96474546Y-153760123D01*
X96516482Y-153687489D01*
X96516482Y-153687487D01*
X96516484Y-153687485D01*
X96554000Y-153547475D01*
X96554000Y-153402525D01*
X96516484Y-153262515D01*
X96516482Y-153262512D01*
X96516482Y-153262510D01*
X96444012Y-153136989D01*
X96444010Y-153136987D01*
X96444009Y-153136985D01*
X96341515Y-153034491D01*
X96341512Y-153034489D01*
X96341510Y-153034487D01*
X96215988Y-152962017D01*
X96215989Y-152962017D01*
X96186396Y-152954087D01*
X96075975Y-152924500D01*
X95931025Y-152924500D01*
X95869290Y-152941041D01*
X95791010Y-152962017D01*
X95665489Y-153034487D01*
X95562987Y-153136989D01*
X95490517Y-153262510D01*
X95469620Y-153340500D01*
X95453000Y-153402525D01*
X89088000Y-153402525D01*
X89088000Y-153346025D01*
X89050484Y-153206015D01*
X89050482Y-153206012D01*
X89050482Y-153206010D01*
X88978012Y-153080489D01*
X88978010Y-153080487D01*
X88978009Y-153080485D01*
X88875515Y-152977991D01*
X88875512Y-152977989D01*
X88875510Y-152977987D01*
X88749988Y-152905517D01*
X88749989Y-152905517D01*
X88720396Y-152897587D01*
X88609975Y-152868000D01*
X88465025Y-152868000D01*
X88403290Y-152884541D01*
X88325010Y-152905517D01*
X88199489Y-152977987D01*
X88096987Y-153080489D01*
X88024517Y-153206010D01*
X87987000Y-153346025D01*
X85477100Y-153346025D01*
X85477100Y-151342990D01*
X85496007Y-151284799D01*
X85506096Y-151272986D01*
X91355386Y-145423696D01*
X91409903Y-145395919D01*
X91425390Y-145394700D01*
X95570426Y-145394700D01*
X95628617Y-145413607D01*
X95664581Y-145463107D01*
X95664581Y-145524293D01*
X95662569Y-145529742D01*
X95624900Y-145670325D01*
X95624900Y-145815274D01*
X95662417Y-145955289D01*
X95734887Y-146080810D01*
X95734889Y-146080812D01*
X95734891Y-146080815D01*
X95837385Y-146183309D01*
X95837387Y-146183310D01*
X95837389Y-146183312D01*
X95962911Y-146255782D01*
X95962912Y-146255782D01*
X95962915Y-146255784D01*
X96102925Y-146293300D01*
X96102926Y-146293300D01*
X96247874Y-146293300D01*
X96247875Y-146293300D01*
X96387885Y-146255784D01*
X96387887Y-146255782D01*
X96387889Y-146255782D01*
X96513410Y-146183312D01*
X96513410Y-146183311D01*
X96513415Y-146183309D01*
X96615909Y-146080815D01*
X96648185Y-146024911D01*
X96688382Y-145955289D01*
X96688382Y-145955287D01*
X96688384Y-145955285D01*
X96697872Y-145919875D01*
X96731195Y-145868563D01*
X96788317Y-145846636D01*
X96793498Y-145846500D01*
X97416610Y-145846500D01*
X97474801Y-145865407D01*
X97510765Y-145914907D01*
X97510765Y-145976093D01*
X97486614Y-146015504D01*
X94169614Y-149332504D01*
X94115097Y-149360281D01*
X94099610Y-149361500D01*
X92858332Y-149361500D01*
X92800141Y-149342593D01*
X92788329Y-149332504D01*
X92727315Y-149271491D01*
X92727310Y-149271487D01*
X92601788Y-149199017D01*
X92601789Y-149199017D01*
X92550171Y-149185186D01*
X92461775Y-149161500D01*
X92316825Y-149161500D01*
X92268328Y-149174495D01*
X92176810Y-149199017D01*
X92051289Y-149271487D01*
X91948787Y-149373989D01*
X91876317Y-149499510D01*
X91861904Y-149553300D01*
X91838800Y-149639525D01*
X91838800Y-149784475D01*
X91839373Y-149786614D01*
X91876317Y-149924489D01*
X91948787Y-150050010D01*
X91948789Y-150050012D01*
X91948791Y-150050015D01*
X92051285Y-150152509D01*
X92051287Y-150152510D01*
X92051289Y-150152512D01*
X92176811Y-150224982D01*
X92176812Y-150224982D01*
X92176815Y-150224984D01*
X92316825Y-150262500D01*
X92316826Y-150262500D01*
X92461774Y-150262500D01*
X92461775Y-150262500D01*
X92601785Y-150224984D01*
X92601787Y-150224982D01*
X92601789Y-150224982D01*
X92727310Y-150152512D01*
X92727310Y-150152511D01*
X92727315Y-150152509D01*
X92760919Y-150118905D01*
X92788329Y-150091496D01*
X92842846Y-150063719D01*
X92858332Y-150062500D01*
X94331942Y-150062500D01*
X94331944Y-150062500D01*
X94421088Y-150038614D01*
X94430483Y-150033189D01*
X94430485Y-150033189D01*
X94449382Y-150022278D01*
X94501012Y-149992470D01*
X96873157Y-147620325D01*
X98235800Y-147620325D01*
X98235800Y-147765274D01*
X98273317Y-147905289D01*
X98345787Y-148030810D01*
X98345789Y-148030812D01*
X98345791Y-148030815D01*
X98448285Y-148133309D01*
X98448287Y-148133310D01*
X98448289Y-148133312D01*
X98573811Y-148205782D01*
X98573812Y-148205782D01*
X98573815Y-148205784D01*
X98713825Y-148243300D01*
X98713826Y-148243300D01*
X98858774Y-148243300D01*
X98858775Y-148243300D01*
X98998785Y-148205784D01*
X98998787Y-148205782D01*
X98998789Y-148205782D01*
X99124310Y-148133312D01*
X99124310Y-148133311D01*
X99124315Y-148133309D01*
X99226809Y-148030815D01*
X99226812Y-148030810D01*
X99299282Y-147905289D01*
X99299282Y-147905287D01*
X99299284Y-147905285D01*
X99336800Y-147765275D01*
X99336800Y-147620325D01*
X99299284Y-147480315D01*
X99299282Y-147480312D01*
X99299282Y-147480310D01*
X99226812Y-147354789D01*
X99226810Y-147354787D01*
X99226809Y-147354785D01*
X99124315Y-147252291D01*
X99124312Y-147252289D01*
X99124310Y-147252287D01*
X98998788Y-147179817D01*
X98998789Y-147179817D01*
X98953568Y-147167700D01*
X98858775Y-147142300D01*
X98713825Y-147142300D01*
X98696714Y-147146885D01*
X98573810Y-147179817D01*
X98448289Y-147252287D01*
X98345787Y-147354789D01*
X98273317Y-147480310D01*
X98235800Y-147620325D01*
X96873157Y-147620325D01*
X98124186Y-146369296D01*
X98178703Y-146341519D01*
X98194190Y-146340300D01*
X99763832Y-146340300D01*
X99822023Y-146359207D01*
X99857987Y-146408707D01*
X99859458Y-146464921D01*
X99826500Y-146587925D01*
X99826500Y-146732875D01*
X99841966Y-146790593D01*
X99864017Y-146872889D01*
X99936487Y-146998410D01*
X99936489Y-146998412D01*
X99936491Y-146998415D01*
X100038985Y-147100909D01*
X100038987Y-147100910D01*
X100038989Y-147100912D01*
X100164511Y-147173382D01*
X100164512Y-147173382D01*
X100164515Y-147173384D01*
X100304525Y-147210900D01*
X100354210Y-147210900D01*
X100412401Y-147229807D01*
X100424214Y-147239896D01*
X109963609Y-156779291D01*
X109991386Y-156833808D01*
X109981820Y-156894229D01*
X109980130Y-156897546D01*
X109980123Y-156897561D01*
X109926598Y-157062293D01*
X109926597Y-157062297D01*
X109899500Y-157233385D01*
X109899500Y-157406614D01*
X109926597Y-157577702D01*
X109926598Y-157577706D01*
X109980123Y-157742438D01*
X109980125Y-157742441D01*
X109980126Y-157742444D01*
X109980127Y-157742445D01*
X110058768Y-157896788D01*
X110160586Y-158036928D01*
X110283072Y-158159414D01*
X110423212Y-158261232D01*
X110577555Y-158339873D01*
X110577557Y-158339873D01*
X110577558Y-158339874D01*
X110577561Y-158339876D01*
X110742293Y-158393401D01*
X110742297Y-158393402D01*
X110913386Y-158420500D01*
X110913389Y-158420500D01*
X111086614Y-158420500D01*
X111257702Y-158393402D01*
X111257706Y-158393401D01*
X111323091Y-158372156D01*
X115049500Y-158372156D01*
X115049500Y-158627843D01*
X115082873Y-158881332D01*
X115082874Y-158881341D01*
X115096127Y-158930801D01*
X115099500Y-158956423D01*
X115099500Y-160219746D01*
X115099501Y-160219758D01*
X115111132Y-160278227D01*
X115111133Y-160278231D01*
X115155448Y-160344552D01*
X115221769Y-160388867D01*
X115266231Y-160397711D01*
X115280241Y-160400498D01*
X115280246Y-160400498D01*
X115280252Y-160400500D01*
X116543577Y-160400500D01*
X116569199Y-160403873D01*
X116618660Y-160417126D01*
X116872157Y-160450500D01*
X116872158Y-160450500D01*
X117127842Y-160450500D01*
X117127843Y-160450500D01*
X117381340Y-160417126D01*
X117430801Y-160403873D01*
X117456423Y-160400500D01*
X118719747Y-160400500D01*
X118719748Y-160400500D01*
X118778231Y-160388867D01*
X118844552Y-160344552D01*
X118888867Y-160278231D01*
X118900500Y-160219748D01*
X118900500Y-158956423D01*
X118903873Y-158930801D01*
X118904742Y-158927556D01*
X118917126Y-158881340D01*
X118950500Y-158627843D01*
X118950500Y-158372157D01*
X118917126Y-158118660D01*
X118903873Y-158069198D01*
X118900500Y-158043575D01*
X118900500Y-156780253D01*
X118900498Y-156780241D01*
X118894489Y-156750032D01*
X118888867Y-156721769D01*
X118844552Y-156655448D01*
X118844548Y-156655445D01*
X118778233Y-156611134D01*
X118778231Y-156611133D01*
X118778228Y-156611132D01*
X118778227Y-156611132D01*
X118719758Y-156599501D01*
X118719748Y-156599500D01*
X118719747Y-156599500D01*
X117456423Y-156599500D01*
X117430801Y-156596127D01*
X117381341Y-156582874D01*
X117381332Y-156582873D01*
X117127843Y-156549500D01*
X116872157Y-156549500D01*
X116872156Y-156549500D01*
X116618667Y-156582873D01*
X116618658Y-156582874D01*
X116569199Y-156596127D01*
X116543577Y-156599500D01*
X115280252Y-156599500D01*
X115280251Y-156599500D01*
X115280241Y-156599501D01*
X115221772Y-156611132D01*
X115221766Y-156611134D01*
X115155451Y-156655445D01*
X115155445Y-156655451D01*
X115111134Y-156721766D01*
X115111132Y-156721772D01*
X115099501Y-156780241D01*
X115099500Y-156780253D01*
X115099500Y-158043575D01*
X115096127Y-158069198D01*
X115082874Y-158118659D01*
X115049500Y-158372156D01*
X111323091Y-158372156D01*
X111422438Y-158339876D01*
X111422440Y-158339874D01*
X111422445Y-158339873D01*
X111576788Y-158261232D01*
X111716928Y-158159414D01*
X111839414Y-158036928D01*
X111941232Y-157896788D01*
X112019873Y-157742445D01*
X112019874Y-157742440D01*
X112019876Y-157742438D01*
X112073401Y-157577706D01*
X112073402Y-157577702D01*
X112100500Y-157406614D01*
X112100500Y-157233385D01*
X112073402Y-157062297D01*
X112073401Y-157062293D01*
X112019876Y-156897561D01*
X112019874Y-156897558D01*
X112019873Y-156897557D01*
X112019873Y-156897555D01*
X111941232Y-156743212D01*
X111839414Y-156603072D01*
X111716928Y-156480586D01*
X111576788Y-156378768D01*
X111576787Y-156378767D01*
X111576785Y-156378766D01*
X111422441Y-156300125D01*
X111422438Y-156300123D01*
X111257706Y-156246598D01*
X111257702Y-156246597D01*
X111086614Y-156219500D01*
X111086611Y-156219500D01*
X110913389Y-156219500D01*
X110913386Y-156219500D01*
X110742297Y-156246597D01*
X110742293Y-156246598D01*
X110577561Y-156300123D01*
X110577546Y-156300130D01*
X110574229Y-156301820D01*
X110513795Y-156311384D01*
X110459291Y-156283609D01*
X108869067Y-154693385D01*
X109899500Y-154693385D01*
X109899500Y-154866614D01*
X109926597Y-155037702D01*
X109926598Y-155037706D01*
X109980123Y-155202438D01*
X109980125Y-155202441D01*
X110053022Y-155345512D01*
X110058768Y-155356788D01*
X110160586Y-155496928D01*
X110283072Y-155619414D01*
X110423212Y-155721232D01*
X110577555Y-155799873D01*
X110577557Y-155799873D01*
X110577558Y-155799874D01*
X110577561Y-155799876D01*
X110742293Y-155853401D01*
X110742297Y-155853402D01*
X110913386Y-155880500D01*
X110913389Y-155880500D01*
X111086614Y-155880500D01*
X111257702Y-155853402D01*
X111257706Y-155853401D01*
X111422438Y-155799876D01*
X111422440Y-155799874D01*
X111422445Y-155799873D01*
X111576788Y-155721232D01*
X111716928Y-155619414D01*
X111839414Y-155496928D01*
X111941232Y-155356788D01*
X112019873Y-155202445D01*
X112019874Y-155202440D01*
X112019876Y-155202438D01*
X112073401Y-155037706D01*
X112073402Y-155037702D01*
X112100500Y-154866614D01*
X112100500Y-154693385D01*
X112073402Y-154522297D01*
X112073401Y-154522293D01*
X112019876Y-154357561D01*
X112019874Y-154357558D01*
X112019873Y-154357557D01*
X112019873Y-154357555D01*
X111941232Y-154203212D01*
X111839414Y-154063072D01*
X111716928Y-153940586D01*
X111576788Y-153838768D01*
X111576787Y-153838767D01*
X111576785Y-153838766D01*
X111422441Y-153760125D01*
X111422438Y-153760123D01*
X111257706Y-153706598D01*
X111257702Y-153706597D01*
X111086614Y-153679500D01*
X111086611Y-153679500D01*
X110913389Y-153679500D01*
X110913386Y-153679500D01*
X110742297Y-153706597D01*
X110742293Y-153706598D01*
X110577561Y-153760123D01*
X110577558Y-153760125D01*
X110423214Y-153838766D01*
X110283073Y-153940585D01*
X110160585Y-154063073D01*
X110058766Y-154203214D01*
X109980125Y-154357558D01*
X109980123Y-154357561D01*
X109926598Y-154522293D01*
X109926597Y-154522297D01*
X109899500Y-154693385D01*
X108869067Y-154693385D01*
X106329067Y-152153385D01*
X109899500Y-152153385D01*
X109899500Y-152326614D01*
X109926597Y-152497702D01*
X109926598Y-152497706D01*
X109980123Y-152662438D01*
X109980125Y-152662441D01*
X109980126Y-152662444D01*
X109980127Y-152662445D01*
X110058768Y-152816788D01*
X110160586Y-152956928D01*
X110283072Y-153079414D01*
X110423212Y-153181232D01*
X110577555Y-153259873D01*
X110577557Y-153259873D01*
X110577558Y-153259874D01*
X110577561Y-153259876D01*
X110742293Y-153313401D01*
X110742297Y-153313402D01*
X110913386Y-153340500D01*
X110913389Y-153340500D01*
X111086614Y-153340500D01*
X111257702Y-153313402D01*
X111257706Y-153313401D01*
X111422438Y-153259876D01*
X111422440Y-153259874D01*
X111422445Y-153259873D01*
X111576788Y-153181232D01*
X111716928Y-153079414D01*
X111839414Y-152956928D01*
X111941232Y-152816788D01*
X112019873Y-152662445D01*
X112019874Y-152662440D01*
X112019876Y-152662438D01*
X112073401Y-152497706D01*
X112073402Y-152497702D01*
X112100500Y-152326614D01*
X112100500Y-152153385D01*
X112073402Y-151982297D01*
X112073401Y-151982293D01*
X112019876Y-151817561D01*
X112019874Y-151817558D01*
X112019873Y-151817557D01*
X112019873Y-151817555D01*
X111941232Y-151663212D01*
X111839414Y-151523072D01*
X111716928Y-151400586D01*
X111576788Y-151298768D01*
X111576787Y-151298767D01*
X111576785Y-151298766D01*
X111422441Y-151220125D01*
X111422438Y-151220123D01*
X111257706Y-151166598D01*
X111257702Y-151166597D01*
X111086614Y-151139500D01*
X111086611Y-151139500D01*
X110913389Y-151139500D01*
X110913386Y-151139500D01*
X110742297Y-151166597D01*
X110742293Y-151166598D01*
X110577561Y-151220123D01*
X110577558Y-151220125D01*
X110423214Y-151298766D01*
X110283073Y-151400585D01*
X110160585Y-151523073D01*
X110058766Y-151663214D01*
X109980125Y-151817558D01*
X109980123Y-151817561D01*
X109926598Y-151982293D01*
X109926597Y-151982297D01*
X109899500Y-152153385D01*
X106329067Y-152153385D01*
X100956496Y-146780814D01*
X100928719Y-146726297D01*
X100927500Y-146710810D01*
X100927500Y-146587925D01*
X100894541Y-146464923D01*
X100897743Y-146403822D01*
X100936248Y-146356272D01*
X100990168Y-146340300D01*
X105648610Y-146340300D01*
X105706801Y-146359207D01*
X105718614Y-146369296D01*
X109329788Y-149980470D01*
X109409712Y-150026614D01*
X109498856Y-150050500D01*
X109884823Y-150050500D01*
X109943014Y-150069407D01*
X109978977Y-150118905D01*
X109980127Y-150122446D01*
X110058766Y-150276785D01*
X110058768Y-150276788D01*
X110160586Y-150416928D01*
X110283072Y-150539414D01*
X110423212Y-150641232D01*
X110577555Y-150719873D01*
X110577557Y-150719873D01*
X110577558Y-150719874D01*
X110577561Y-150719876D01*
X110742293Y-150773401D01*
X110742297Y-150773402D01*
X110913386Y-150800500D01*
X110913389Y-150800500D01*
X111086614Y-150800500D01*
X111257702Y-150773402D01*
X111257706Y-150773401D01*
X111422438Y-150719876D01*
X111422440Y-150719874D01*
X111422445Y-150719873D01*
X111576788Y-150641232D01*
X111716928Y-150539414D01*
X111839414Y-150416928D01*
X111941232Y-150276788D01*
X112019873Y-150122445D01*
X112019874Y-150122440D01*
X112019876Y-150122438D01*
X112073401Y-149957706D01*
X112073402Y-149957702D01*
X112100500Y-149786614D01*
X112100500Y-149613385D01*
X112073402Y-149442297D01*
X112073401Y-149442293D01*
X112019876Y-149277561D01*
X112019874Y-149277558D01*
X112019873Y-149277557D01*
X112019873Y-149277555D01*
X111941232Y-149123212D01*
X111839414Y-148983072D01*
X111716928Y-148860586D01*
X111576788Y-148758768D01*
X111576787Y-148758767D01*
X111576785Y-148758766D01*
X111422441Y-148680125D01*
X111422438Y-148680123D01*
X111257706Y-148626598D01*
X111257702Y-148626597D01*
X111086614Y-148599500D01*
X111086611Y-148599500D01*
X110913389Y-148599500D01*
X110913386Y-148599500D01*
X110742297Y-148626597D01*
X110742293Y-148626598D01*
X110577561Y-148680123D01*
X110577558Y-148680125D01*
X110423214Y-148758766D01*
X110283073Y-148860585D01*
X110160585Y-148983073D01*
X110058766Y-149123214D01*
X109980127Y-149277553D01*
X109978977Y-149281095D01*
X109943011Y-149330594D01*
X109884823Y-149349500D01*
X109731190Y-149349500D01*
X109672999Y-149330593D01*
X109661186Y-149320504D01*
X108020186Y-147679504D01*
X107992409Y-147624987D01*
X108001980Y-147564555D01*
X108045245Y-147521290D01*
X108090190Y-147510500D01*
X109884823Y-147510500D01*
X109943014Y-147529407D01*
X109978976Y-147578904D01*
X109979474Y-147580437D01*
X109980127Y-147582446D01*
X110058766Y-147736785D01*
X110058768Y-147736788D01*
X110160586Y-147876928D01*
X110283072Y-147999414D01*
X110423212Y-148101232D01*
X110577555Y-148179873D01*
X110577557Y-148179873D01*
X110577558Y-148179874D01*
X110577561Y-148179876D01*
X110742293Y-148233401D01*
X110742297Y-148233402D01*
X110913386Y-148260500D01*
X110913389Y-148260500D01*
X111086614Y-148260500D01*
X111257702Y-148233402D01*
X111257706Y-148233401D01*
X111422438Y-148179876D01*
X111422440Y-148179874D01*
X111422445Y-148179873D01*
X111576788Y-148101232D01*
X111716928Y-147999414D01*
X111839414Y-147876928D01*
X111941232Y-147736788D01*
X112019873Y-147582445D01*
X112019874Y-147582440D01*
X112019876Y-147582438D01*
X112073401Y-147417706D01*
X112073402Y-147417702D01*
X112100500Y-147246614D01*
X112100500Y-147073385D01*
X112073402Y-146902297D01*
X112073401Y-146902293D01*
X112019876Y-146737561D01*
X112019874Y-146737558D01*
X112019873Y-146737557D01*
X112019873Y-146737555D01*
X111941232Y-146583212D01*
X111839414Y-146443072D01*
X111716928Y-146320586D01*
X111716924Y-146320583D01*
X111716923Y-146320582D01*
X111704985Y-146311909D01*
X111669021Y-146262410D01*
X111669020Y-146201224D01*
X111704983Y-146151724D01*
X111713664Y-146146085D01*
X111776912Y-146109570D01*
X112508169Y-145378312D01*
X112554314Y-145298388D01*
X112558034Y-145284503D01*
X112558036Y-145284500D01*
X112558035Y-145284500D01*
X112578200Y-145209243D01*
X112578200Y-143261557D01*
X112578200Y-143261556D01*
X112554314Y-143172412D01*
X112554155Y-143172137D01*
X112554142Y-143172114D01*
X112554125Y-143172084D01*
X112508170Y-143092488D01*
X112036389Y-142620706D01*
X112008612Y-142566190D01*
X112018182Y-142505763D01*
X112019873Y-142502445D01*
X112073311Y-142337982D01*
X112073402Y-142337702D01*
X112100500Y-142166614D01*
X112100500Y-141993385D01*
X112073402Y-141822297D01*
X112073401Y-141822293D01*
X112019876Y-141657561D01*
X112019874Y-141657558D01*
X112019873Y-141657557D01*
X112019873Y-141657555D01*
X111941232Y-141503212D01*
X111839414Y-141363072D01*
X111716928Y-141240586D01*
X111576788Y-141138768D01*
X111576787Y-141138767D01*
X111576785Y-141138766D01*
X111422441Y-141060125D01*
X111422438Y-141060123D01*
X111257706Y-141006598D01*
X111257702Y-141006597D01*
X111086614Y-140979500D01*
X111086611Y-140979500D01*
X110913389Y-140979500D01*
X110913386Y-140979500D01*
X110742297Y-141006597D01*
X110742293Y-141006598D01*
X110577561Y-141060123D01*
X110577558Y-141060125D01*
X110423214Y-141138766D01*
X110283073Y-141240585D01*
X110160585Y-141363073D01*
X110058766Y-141503214D01*
X109980125Y-141657558D01*
X109980123Y-141657561D01*
X109926598Y-141822293D01*
X109926597Y-141822297D01*
X109899500Y-141993385D01*
X109899500Y-142166614D01*
X109926597Y-142337702D01*
X109926598Y-142337706D01*
X109980123Y-142502438D01*
X109980125Y-142502441D01*
X109980126Y-142502444D01*
X109980127Y-142502445D01*
X110058768Y-142656788D01*
X110160586Y-142796928D01*
X110283072Y-142919414D01*
X110423212Y-143021232D01*
X110577555Y-143099873D01*
X110577557Y-143099873D01*
X110577558Y-143099874D01*
X110577561Y-143099876D01*
X110742293Y-143153401D01*
X110742297Y-143153402D01*
X110913386Y-143180500D01*
X110913389Y-143180500D01*
X111086614Y-143180500D01*
X111257702Y-143153402D01*
X111314073Y-143135085D01*
X111422445Y-143099873D01*
X111425747Y-143098190D01*
X111486174Y-143088609D01*
X111540695Y-143116378D01*
X111540707Y-143116389D01*
X111848204Y-143423886D01*
X111875981Y-143478403D01*
X111877200Y-143493890D01*
X111877200Y-143702732D01*
X111858293Y-143760923D01*
X111808793Y-143796887D01*
X111747607Y-143796887D01*
X111720009Y-143782825D01*
X111716929Y-143780587D01*
X111716928Y-143780586D01*
X111576788Y-143678768D01*
X111576787Y-143678767D01*
X111576785Y-143678766D01*
X111422441Y-143600125D01*
X111422438Y-143600123D01*
X111257706Y-143546598D01*
X111257702Y-143546597D01*
X111086614Y-143519500D01*
X111086611Y-143519500D01*
X110913389Y-143519500D01*
X110913386Y-143519500D01*
X110742297Y-143546597D01*
X110742293Y-143546598D01*
X110577561Y-143600123D01*
X110577558Y-143600125D01*
X110423214Y-143678766D01*
X110283073Y-143780585D01*
X110160585Y-143903073D01*
X110058766Y-144043214D01*
X109985023Y-144187945D01*
X109941758Y-144231210D01*
X109896813Y-144242000D01*
X107032690Y-144242000D01*
X106974499Y-144223093D01*
X106938535Y-144173593D01*
X106938535Y-144112407D01*
X106962686Y-144072996D01*
X107814772Y-143220910D01*
X110459293Y-140576387D01*
X110513808Y-140548612D01*
X110574237Y-140558182D01*
X110574243Y-140558185D01*
X110574244Y-140558186D01*
X110577553Y-140559872D01*
X110577563Y-140559876D01*
X110742293Y-140613401D01*
X110742297Y-140613402D01*
X110913386Y-140640500D01*
X110913389Y-140640500D01*
X111086614Y-140640500D01*
X111257702Y-140613402D01*
X111257706Y-140613401D01*
X111422438Y-140559876D01*
X111422440Y-140559874D01*
X111422445Y-140559873D01*
X111576788Y-140481232D01*
X111716928Y-140379414D01*
X111839414Y-140256928D01*
X111941232Y-140116788D01*
X112019873Y-139962445D01*
X112019874Y-139962440D01*
X112019876Y-139962438D01*
X112073401Y-139797706D01*
X112073402Y-139797702D01*
X112100500Y-139626614D01*
X112100500Y-139453385D01*
X112073402Y-139282297D01*
X112073401Y-139282293D01*
X112019876Y-139117561D01*
X112019874Y-139117558D01*
X112019873Y-139117557D01*
X112019873Y-139117555D01*
X111941232Y-138963212D01*
X111839414Y-138823072D01*
X111716928Y-138700586D01*
X111576788Y-138598768D01*
X111576787Y-138598767D01*
X111576785Y-138598766D01*
X111422441Y-138520125D01*
X111422438Y-138520123D01*
X111257706Y-138466598D01*
X111257702Y-138466597D01*
X111086614Y-138439500D01*
X111086611Y-138439500D01*
X110913389Y-138439500D01*
X110913386Y-138439500D01*
X110742297Y-138466597D01*
X110742293Y-138466598D01*
X110577561Y-138520123D01*
X110577558Y-138520125D01*
X110423214Y-138598766D01*
X110283073Y-138700585D01*
X110160585Y-138823073D01*
X110058766Y-138963214D01*
X109980125Y-139117558D01*
X109980123Y-139117561D01*
X109926598Y-139282293D01*
X109926597Y-139282297D01*
X109899500Y-139453385D01*
X109899500Y-139626614D01*
X109926597Y-139797702D01*
X109926598Y-139797706D01*
X109980123Y-139962438D01*
X109980127Y-139962447D01*
X109981815Y-139965759D01*
X109991386Y-140026191D01*
X109963609Y-140080707D01*
X106337314Y-143707004D01*
X106282797Y-143734781D01*
X106267310Y-143736000D01*
X101585257Y-143736000D01*
X101527066Y-143717093D01*
X101491102Y-143667593D01*
X101489630Y-143611378D01*
X101517900Y-143505875D01*
X101517900Y-143360925D01*
X101480384Y-143220915D01*
X101480382Y-143220912D01*
X101480382Y-143220910D01*
X101407912Y-143095389D01*
X101407910Y-143095387D01*
X101407909Y-143095385D01*
X101305415Y-142992891D01*
X101305412Y-142992889D01*
X101305410Y-142992887D01*
X101179888Y-142920417D01*
X101179889Y-142920417D01*
X101150296Y-142912487D01*
X101039875Y-142882900D01*
X100894925Y-142882900D01*
X100833190Y-142899441D01*
X100754910Y-142920417D01*
X100629389Y-142992887D01*
X100629384Y-142992891D01*
X100568371Y-143053904D01*
X100513854Y-143081681D01*
X100498368Y-143082900D01*
X99908790Y-143082900D01*
X99850599Y-143063993D01*
X99838786Y-143053904D01*
X98712407Y-141927525D01*
X99949500Y-141927525D01*
X99949500Y-142072474D01*
X99987017Y-142212489D01*
X100059487Y-142338010D01*
X100059489Y-142338012D01*
X100059491Y-142338015D01*
X100161985Y-142440509D01*
X100161987Y-142440510D01*
X100161989Y-142440512D01*
X100287511Y-142512982D01*
X100287512Y-142512982D01*
X100287515Y-142512984D01*
X100427525Y-142550500D01*
X100427526Y-142550500D01*
X100572474Y-142550500D01*
X100572475Y-142550500D01*
X100712485Y-142512984D01*
X100712487Y-142512982D01*
X100712489Y-142512982D01*
X100838010Y-142440512D01*
X100838010Y-142440511D01*
X100838015Y-142440509D01*
X100940509Y-142338015D01*
X100940528Y-142337982D01*
X101012982Y-142212489D01*
X101012982Y-142212487D01*
X101012984Y-142212485D01*
X101050500Y-142072475D01*
X101050500Y-141927525D01*
X101012984Y-141787515D01*
X101012982Y-141787512D01*
X101012982Y-141787510D01*
X100940512Y-141661989D01*
X100940510Y-141661987D01*
X100940509Y-141661985D01*
X100838015Y-141559491D01*
X100838012Y-141559489D01*
X100838010Y-141559487D01*
X100712488Y-141487017D01*
X100712489Y-141487017D01*
X100682896Y-141479087D01*
X100572475Y-141449500D01*
X100427525Y-141449500D01*
X100365790Y-141466041D01*
X100287510Y-141487017D01*
X100161989Y-141559487D01*
X100059487Y-141661989D01*
X99987017Y-141787510D01*
X99949500Y-141927525D01*
X98712407Y-141927525D01*
X96484081Y-139699199D01*
X96456304Y-139644682D01*
X96465875Y-139584250D01*
X96509140Y-139540985D01*
X96528454Y-139533570D01*
X96605285Y-139512984D01*
X96605287Y-139512982D01*
X96605289Y-139512982D01*
X96730810Y-139440512D01*
X96730810Y-139440511D01*
X96730815Y-139440509D01*
X96833309Y-139338015D01*
X96865480Y-139282293D01*
X96905782Y-139212489D01*
X96905782Y-139212487D01*
X96905784Y-139212485D01*
X96943300Y-139072475D01*
X96943300Y-138927525D01*
X96905784Y-138787515D01*
X96905782Y-138787511D01*
X96905782Y-138787510D01*
X96833312Y-138661989D01*
X96833310Y-138661987D01*
X96833309Y-138661985D01*
X96730815Y-138559491D01*
X96730812Y-138559489D01*
X96730810Y-138559487D01*
X96605288Y-138487017D01*
X96605289Y-138487017D01*
X96541352Y-138469885D01*
X96465275Y-138449500D01*
X96320325Y-138449500D01*
X96180315Y-138487016D01*
X96180313Y-138487016D01*
X96174047Y-138488696D01*
X96173428Y-138486389D01*
X96122788Y-138490360D01*
X96070629Y-138458375D01*
X96047231Y-138401840D01*
X96061532Y-138342349D01*
X96075921Y-138324102D01*
X96129809Y-138270215D01*
X96158517Y-138220492D01*
X96202282Y-138144689D01*
X96202282Y-138144687D01*
X96202284Y-138144685D01*
X96239800Y-138004675D01*
X96239800Y-137859725D01*
X96202284Y-137719715D01*
X96202282Y-137719712D01*
X96202282Y-137719710D01*
X96129812Y-137594189D01*
X96129810Y-137594187D01*
X96129809Y-137594185D01*
X96027315Y-137491691D01*
X96027312Y-137491689D01*
X96027310Y-137491687D01*
X95901788Y-137419217D01*
X95901789Y-137419217D01*
X95872196Y-137411287D01*
X95761775Y-137381700D01*
X95616825Y-137381700D01*
X95555090Y-137398241D01*
X95476810Y-137419217D01*
X95351289Y-137491687D01*
X95248787Y-137594189D01*
X95176317Y-137719710D01*
X95138800Y-137859725D01*
X95138800Y-138004674D01*
X95171005Y-138124865D01*
X95167802Y-138185966D01*
X95129297Y-138233516D01*
X95070197Y-138249352D01*
X95013075Y-138227425D01*
X95005374Y-138220492D01*
X92930274Y-136145392D01*
X92865135Y-136080253D01*
X109899500Y-136080253D01*
X109899500Y-137919746D01*
X109899501Y-137919758D01*
X109911132Y-137978227D01*
X109911134Y-137978233D01*
X109932704Y-138010514D01*
X109955448Y-138044552D01*
X110021769Y-138088867D01*
X110066231Y-138097711D01*
X110080241Y-138100498D01*
X110080246Y-138100498D01*
X110080252Y-138100500D01*
X110080253Y-138100500D01*
X111919747Y-138100500D01*
X111919748Y-138100500D01*
X111978231Y-138088867D01*
X112044552Y-138044552D01*
X112088867Y-137978231D01*
X112100500Y-137919748D01*
X112100500Y-136080252D01*
X112088867Y-136021769D01*
X112044552Y-135955448D01*
X112044548Y-135955445D01*
X111978233Y-135911134D01*
X111978231Y-135911133D01*
X111978228Y-135911132D01*
X111978227Y-135911132D01*
X111919758Y-135899501D01*
X111919748Y-135899500D01*
X110080252Y-135899500D01*
X110080251Y-135899500D01*
X110080241Y-135899501D01*
X110021772Y-135911132D01*
X110021766Y-135911134D01*
X109955451Y-135955445D01*
X109955445Y-135955451D01*
X109911134Y-136021766D01*
X109911132Y-136021772D01*
X109899501Y-136080241D01*
X109899500Y-136080253D01*
X92865135Y-136080253D01*
X87717178Y-130932296D01*
X81503883Y-124719001D01*
X81476108Y-124664487D01*
X81485679Y-124604055D01*
X81528944Y-124560790D01*
X81573889Y-124550000D01*
X120351000Y-124550000D01*
X120409191Y-124568907D01*
G37*
%TD.AperFunction*%
%TA.AperFunction,Conductor*%
G36*
X120409191Y-38568907D02*
G01*
X120445155Y-38618407D01*
X120450000Y-38649000D01*
X120450000Y-75351000D01*
X120431093Y-75409191D01*
X120381593Y-75445155D01*
X120351000Y-75450000D01*
X62450000Y-75450000D01*
X62450000Y-75450001D01*
X62450000Y-113260293D01*
X62431093Y-113318484D01*
X62381593Y-113354448D01*
X62320407Y-113354448D01*
X62270907Y-113318484D01*
X62256551Y-113282502D01*
X62254979Y-113282924D01*
X62253300Y-113276658D01*
X62253300Y-113276656D01*
X62229414Y-113187512D01*
X62202056Y-113140127D01*
X62183270Y-113107588D01*
X61236389Y-112160707D01*
X61208612Y-112106190D01*
X61218182Y-112045763D01*
X61219873Y-112042445D01*
X61265158Y-111903073D01*
X61273402Y-111877702D01*
X61300500Y-111706614D01*
X61300500Y-111533385D01*
X61273402Y-111362297D01*
X61273401Y-111362293D01*
X61219876Y-111197561D01*
X61219874Y-111197558D01*
X61219873Y-111197557D01*
X61219873Y-111197555D01*
X61141232Y-111043212D01*
X61039414Y-110903072D01*
X60916928Y-110780586D01*
X60776788Y-110678768D01*
X60776787Y-110678767D01*
X60776785Y-110678766D01*
X60622441Y-110600125D01*
X60622438Y-110600123D01*
X60457706Y-110546598D01*
X60457702Y-110546597D01*
X60286614Y-110519500D01*
X60286611Y-110519500D01*
X60113389Y-110519500D01*
X60113386Y-110519500D01*
X59942297Y-110546597D01*
X59942293Y-110546598D01*
X59777561Y-110600123D01*
X59777546Y-110600130D01*
X59774229Y-110601820D01*
X59713795Y-110611384D01*
X59659291Y-110583609D01*
X58825896Y-109750214D01*
X58798119Y-109695697D01*
X58796900Y-109680210D01*
X58796900Y-108411590D01*
X58815807Y-108353399D01*
X58865307Y-108317435D01*
X58926493Y-108317435D01*
X58965904Y-108341586D01*
X59163609Y-108539291D01*
X59191386Y-108593808D01*
X59181820Y-108654229D01*
X59180130Y-108657546D01*
X59180123Y-108657561D01*
X59126598Y-108822293D01*
X59126597Y-108822297D01*
X59099500Y-108993385D01*
X59099500Y-109166614D01*
X59126597Y-109337702D01*
X59126598Y-109337706D01*
X59180123Y-109502438D01*
X59180125Y-109502441D01*
X59180126Y-109502444D01*
X59180127Y-109502445D01*
X59258768Y-109656788D01*
X59360586Y-109796928D01*
X59483072Y-109919414D01*
X59623212Y-110021232D01*
X59777555Y-110099873D01*
X59777557Y-110099873D01*
X59777558Y-110099874D01*
X59777561Y-110099876D01*
X59942293Y-110153401D01*
X59942297Y-110153402D01*
X60113386Y-110180500D01*
X60113389Y-110180500D01*
X60286614Y-110180500D01*
X60457702Y-110153402D01*
X60457706Y-110153401D01*
X60622438Y-110099876D01*
X60622440Y-110099874D01*
X60622445Y-110099873D01*
X60776788Y-110021232D01*
X60916928Y-109919414D01*
X61039414Y-109796928D01*
X61141232Y-109656788D01*
X61219873Y-109502445D01*
X61219874Y-109502440D01*
X61219876Y-109502438D01*
X61273401Y-109337706D01*
X61273402Y-109337702D01*
X61300500Y-109166614D01*
X61300500Y-108993385D01*
X61273402Y-108822297D01*
X61273401Y-108822293D01*
X61219876Y-108657561D01*
X61219874Y-108657558D01*
X61219873Y-108657557D01*
X61219873Y-108657555D01*
X61141232Y-108503212D01*
X61039414Y-108363072D01*
X60916928Y-108240586D01*
X60776788Y-108138768D01*
X60776787Y-108138767D01*
X60776785Y-108138766D01*
X60622441Y-108060125D01*
X60622438Y-108060123D01*
X60457706Y-108006598D01*
X60457702Y-108006597D01*
X60286614Y-107979500D01*
X60286611Y-107979500D01*
X60113389Y-107979500D01*
X60113386Y-107979500D01*
X59942297Y-108006597D01*
X59942293Y-108006598D01*
X59777561Y-108060123D01*
X59777546Y-108060130D01*
X59774229Y-108061820D01*
X59713795Y-108071384D01*
X59659291Y-108043609D01*
X59305596Y-107689914D01*
X59277819Y-107635397D01*
X59276600Y-107619910D01*
X59276600Y-107411949D01*
X59295507Y-107353758D01*
X59345007Y-107317794D01*
X59406193Y-107317794D01*
X59445601Y-107341943D01*
X59483072Y-107379414D01*
X59623212Y-107481232D01*
X59777555Y-107559873D01*
X59777557Y-107559873D01*
X59777558Y-107559874D01*
X59777561Y-107559876D01*
X59942293Y-107613401D01*
X59942297Y-107613402D01*
X60113386Y-107640500D01*
X60113389Y-107640500D01*
X60286614Y-107640500D01*
X60457702Y-107613402D01*
X60457706Y-107613401D01*
X60622438Y-107559876D01*
X60622440Y-107559874D01*
X60622445Y-107559873D01*
X60776788Y-107481232D01*
X60916928Y-107379414D01*
X61039414Y-107256928D01*
X61141232Y-107116788D01*
X61219873Y-106962445D01*
X61219874Y-106962440D01*
X61219876Y-106962438D01*
X61273401Y-106797706D01*
X61273402Y-106797702D01*
X61300500Y-106626614D01*
X61300500Y-106453385D01*
X61273402Y-106282297D01*
X61273401Y-106282293D01*
X61219876Y-106117561D01*
X61219874Y-106117558D01*
X61219873Y-106117557D01*
X61219873Y-106117555D01*
X61141232Y-105963212D01*
X61039414Y-105823072D01*
X60916928Y-105700586D01*
X60776788Y-105598768D01*
X60776787Y-105598767D01*
X60776785Y-105598766D01*
X60622441Y-105520125D01*
X60622438Y-105520123D01*
X60457706Y-105466598D01*
X60457702Y-105466597D01*
X60286614Y-105439500D01*
X60286611Y-105439500D01*
X60113389Y-105439500D01*
X60113386Y-105439500D01*
X59942297Y-105466597D01*
X59942293Y-105466598D01*
X59777561Y-105520123D01*
X59777558Y-105520125D01*
X59623214Y-105598766D01*
X59569741Y-105637617D01*
X59483072Y-105700586D01*
X59445601Y-105738056D01*
X59391087Y-105765832D01*
X59330655Y-105756261D01*
X59287390Y-105712996D01*
X59276600Y-105668051D01*
X59276600Y-104871949D01*
X59295507Y-104813758D01*
X59345007Y-104777794D01*
X59406193Y-104777794D01*
X59445601Y-104801943D01*
X59483072Y-104839414D01*
X59623212Y-104941232D01*
X59777555Y-105019873D01*
X59777557Y-105019873D01*
X59777558Y-105019874D01*
X59777561Y-105019876D01*
X59942293Y-105073401D01*
X59942297Y-105073402D01*
X60113386Y-105100500D01*
X60113389Y-105100500D01*
X60286614Y-105100500D01*
X60457702Y-105073402D01*
X60457706Y-105073401D01*
X60622438Y-105019876D01*
X60622440Y-105019874D01*
X60622445Y-105019873D01*
X60776788Y-104941232D01*
X60916928Y-104839414D01*
X61039414Y-104716928D01*
X61141232Y-104576788D01*
X61219873Y-104422445D01*
X61219874Y-104422440D01*
X61219876Y-104422438D01*
X61273401Y-104257706D01*
X61273402Y-104257702D01*
X61300500Y-104086614D01*
X61300500Y-103913385D01*
X61273402Y-103742297D01*
X61273401Y-103742293D01*
X61219876Y-103577561D01*
X61219874Y-103577558D01*
X61219873Y-103577557D01*
X61219873Y-103577555D01*
X61141232Y-103423212D01*
X61039414Y-103283072D01*
X60916928Y-103160586D01*
X60776788Y-103058768D01*
X60776787Y-103058767D01*
X60776785Y-103058766D01*
X60622441Y-102980125D01*
X60622438Y-102980123D01*
X60457706Y-102926598D01*
X60457702Y-102926597D01*
X60286614Y-102899500D01*
X60286611Y-102899500D01*
X60113389Y-102899500D01*
X60113386Y-102899500D01*
X59942297Y-102926597D01*
X59942293Y-102926598D01*
X59777561Y-102980123D01*
X59777558Y-102980125D01*
X59623214Y-103058766D01*
X59569741Y-103097617D01*
X59483072Y-103160586D01*
X59445601Y-103198056D01*
X59391087Y-103225832D01*
X59330655Y-103216261D01*
X59287390Y-103172996D01*
X59276600Y-103128051D01*
X59276600Y-102331949D01*
X59295507Y-102273758D01*
X59345007Y-102237794D01*
X59406193Y-102237794D01*
X59445601Y-102261943D01*
X59483072Y-102299414D01*
X59623212Y-102401232D01*
X59777555Y-102479873D01*
X59777557Y-102479873D01*
X59777558Y-102479874D01*
X59777561Y-102479876D01*
X59942293Y-102533401D01*
X59942297Y-102533402D01*
X60113386Y-102560500D01*
X60113389Y-102560500D01*
X60286614Y-102560500D01*
X60457702Y-102533402D01*
X60457706Y-102533401D01*
X60622438Y-102479876D01*
X60622440Y-102479874D01*
X60622445Y-102479873D01*
X60776788Y-102401232D01*
X60916928Y-102299414D01*
X61039414Y-102176928D01*
X61141232Y-102036788D01*
X61219873Y-101882445D01*
X61219874Y-101882440D01*
X61219876Y-101882438D01*
X61273401Y-101717706D01*
X61273402Y-101717702D01*
X61300500Y-101546614D01*
X61300500Y-101373385D01*
X61273402Y-101202297D01*
X61273401Y-101202293D01*
X61219876Y-101037561D01*
X61219874Y-101037558D01*
X61219873Y-101037557D01*
X61219873Y-101037555D01*
X61141232Y-100883212D01*
X61039414Y-100743072D01*
X60916928Y-100620586D01*
X60776788Y-100518768D01*
X60776787Y-100518767D01*
X60776785Y-100518766D01*
X60622441Y-100440125D01*
X60622438Y-100440123D01*
X60457706Y-100386598D01*
X60457702Y-100386597D01*
X60286614Y-100359500D01*
X60286611Y-100359500D01*
X60113389Y-100359500D01*
X60113386Y-100359500D01*
X59942297Y-100386597D01*
X59942293Y-100386598D01*
X59777561Y-100440123D01*
X59777558Y-100440125D01*
X59623214Y-100518766D01*
X59483073Y-100620585D01*
X59360584Y-100743074D01*
X59335158Y-100778070D01*
X59285657Y-100814033D01*
X59224472Y-100814032D01*
X59185062Y-100789881D01*
X59141312Y-100746130D01*
X59141312Y-100746131D01*
X57228566Y-98833385D01*
X59099500Y-98833385D01*
X59099500Y-99006614D01*
X59126597Y-99177702D01*
X59126598Y-99177706D01*
X59180123Y-99342438D01*
X59180125Y-99342441D01*
X59180126Y-99342444D01*
X59180127Y-99342445D01*
X59258768Y-99496788D01*
X59360586Y-99636928D01*
X59483072Y-99759414D01*
X59623212Y-99861232D01*
X59777555Y-99939873D01*
X59777557Y-99939873D01*
X59777558Y-99939874D01*
X59777561Y-99939876D01*
X59942293Y-99993401D01*
X59942297Y-99993402D01*
X60113386Y-100020500D01*
X60113389Y-100020500D01*
X60286614Y-100020500D01*
X60457702Y-99993402D01*
X60457706Y-99993401D01*
X60622438Y-99939876D01*
X60622440Y-99939874D01*
X60622445Y-99939873D01*
X60776788Y-99861232D01*
X60916928Y-99759414D01*
X61039414Y-99636928D01*
X61141232Y-99496788D01*
X61219873Y-99342445D01*
X61219874Y-99342440D01*
X61219876Y-99342438D01*
X61273401Y-99177706D01*
X61273402Y-99177702D01*
X61300500Y-99006614D01*
X61300500Y-98833385D01*
X61273402Y-98662297D01*
X61273401Y-98662293D01*
X61219876Y-98497561D01*
X61219874Y-98497558D01*
X61219873Y-98497557D01*
X61219873Y-98497555D01*
X61141232Y-98343212D01*
X61039414Y-98203072D01*
X60916928Y-98080586D01*
X60776788Y-97978768D01*
X60776787Y-97978767D01*
X60776785Y-97978766D01*
X60622441Y-97900125D01*
X60622438Y-97900123D01*
X60457706Y-97846598D01*
X60457702Y-97846597D01*
X60286614Y-97819500D01*
X60286611Y-97819500D01*
X60113389Y-97819500D01*
X60113386Y-97819500D01*
X59942297Y-97846597D01*
X59942293Y-97846598D01*
X59777561Y-97900123D01*
X59777558Y-97900125D01*
X59623214Y-97978766D01*
X59483073Y-98080585D01*
X59360585Y-98203073D01*
X59258766Y-98343214D01*
X59180125Y-98497558D01*
X59180123Y-98497561D01*
X59126598Y-98662293D01*
X59126597Y-98662297D01*
X59099500Y-98833385D01*
X57228566Y-98833385D01*
X54688566Y-96293385D01*
X59099500Y-96293385D01*
X59099500Y-96466614D01*
X59126597Y-96637702D01*
X59126598Y-96637706D01*
X59180123Y-96802438D01*
X59180125Y-96802441D01*
X59180126Y-96802444D01*
X59180127Y-96802445D01*
X59258768Y-96956788D01*
X59360586Y-97096928D01*
X59483072Y-97219414D01*
X59623212Y-97321232D01*
X59777555Y-97399873D01*
X59777557Y-97399873D01*
X59777558Y-97399874D01*
X59777561Y-97399876D01*
X59942293Y-97453401D01*
X59942297Y-97453402D01*
X60113386Y-97480500D01*
X60113389Y-97480500D01*
X60286614Y-97480500D01*
X60457702Y-97453402D01*
X60457706Y-97453401D01*
X60622438Y-97399876D01*
X60622440Y-97399874D01*
X60622445Y-97399873D01*
X60776788Y-97321232D01*
X60916928Y-97219414D01*
X61039414Y-97096928D01*
X61141232Y-96956788D01*
X61219873Y-96802445D01*
X61219874Y-96802440D01*
X61219876Y-96802438D01*
X61273401Y-96637706D01*
X61273402Y-96637702D01*
X61300500Y-96466614D01*
X61300500Y-96293385D01*
X61273402Y-96122297D01*
X61273401Y-96122293D01*
X61219876Y-95957561D01*
X61219874Y-95957558D01*
X61219873Y-95957557D01*
X61219873Y-95957555D01*
X61141232Y-95803212D01*
X61039414Y-95663072D01*
X60916928Y-95540586D01*
X60776788Y-95438768D01*
X60776787Y-95438767D01*
X60776785Y-95438766D01*
X60622441Y-95360125D01*
X60622438Y-95360123D01*
X60457706Y-95306598D01*
X60457702Y-95306597D01*
X60286614Y-95279500D01*
X60286611Y-95279500D01*
X60113389Y-95279500D01*
X60113386Y-95279500D01*
X59942297Y-95306597D01*
X59942293Y-95306598D01*
X59777561Y-95360123D01*
X59777558Y-95360125D01*
X59623214Y-95438766D01*
X59483073Y-95540585D01*
X59360585Y-95663073D01*
X59258766Y-95803214D01*
X59180125Y-95957558D01*
X59180123Y-95957561D01*
X59126598Y-96122293D01*
X59126597Y-96122297D01*
X59099500Y-96293385D01*
X54688566Y-96293385D01*
X36515784Y-78120602D01*
X36488008Y-78066087D01*
X36497579Y-78005655D01*
X36540844Y-77962390D01*
X36585789Y-77951600D01*
X36648374Y-77951600D01*
X36648375Y-77951600D01*
X36788385Y-77914084D01*
X36788387Y-77914082D01*
X36788389Y-77914082D01*
X36913910Y-77841612D01*
X36913910Y-77841611D01*
X36913915Y-77841609D01*
X37016409Y-77739115D01*
X37040368Y-77697617D01*
X37088882Y-77613589D01*
X37088882Y-77613587D01*
X37088884Y-77613585D01*
X37126400Y-77473575D01*
X37126400Y-77328625D01*
X37088884Y-77188615D01*
X37088882Y-77188612D01*
X37088882Y-77188610D01*
X37016412Y-77063089D01*
X37016410Y-77063087D01*
X37016409Y-77063085D01*
X36913915Y-76960591D01*
X36913912Y-76960589D01*
X36913910Y-76960587D01*
X36788388Y-76888117D01*
X36788389Y-76888117D01*
X36758796Y-76880187D01*
X36648375Y-76850600D01*
X36503425Y-76850600D01*
X36441690Y-76867141D01*
X36363410Y-76888117D01*
X36237889Y-76960587D01*
X36135387Y-77063089D01*
X36062917Y-77188610D01*
X36025400Y-77328625D01*
X36025400Y-77391211D01*
X36006493Y-77449402D01*
X35956993Y-77485366D01*
X35895807Y-77485366D01*
X35856398Y-77461216D01*
X35513012Y-77117830D01*
X35507954Y-77114910D01*
X35479705Y-77098600D01*
X35438764Y-77053131D01*
X35432368Y-76992281D01*
X35462961Y-76939293D01*
X35471004Y-76932779D01*
X35516928Y-76899414D01*
X35639414Y-76776928D01*
X35741232Y-76636788D01*
X35819873Y-76482445D01*
X35819874Y-76482440D01*
X35819876Y-76482438D01*
X35873401Y-76317706D01*
X35873402Y-76317702D01*
X35900500Y-76146614D01*
X35900500Y-75973385D01*
X35873402Y-75802297D01*
X35873401Y-75802293D01*
X35819876Y-75637561D01*
X35819874Y-75637558D01*
X35819873Y-75637557D01*
X35819873Y-75637555D01*
X35741232Y-75483212D01*
X35656064Y-75365989D01*
X35637158Y-75307800D01*
X35656065Y-75249609D01*
X35705565Y-75213645D01*
X35736158Y-75208800D01*
X41032110Y-75208800D01*
X41090301Y-75227707D01*
X41102114Y-75237796D01*
X59163609Y-93299291D01*
X59191386Y-93353808D01*
X59181820Y-93414229D01*
X59180130Y-93417546D01*
X59180123Y-93417561D01*
X59126598Y-93582293D01*
X59126597Y-93582297D01*
X59099500Y-93753385D01*
X59099500Y-93926614D01*
X59126597Y-94097702D01*
X59126598Y-94097706D01*
X59180123Y-94262438D01*
X59180125Y-94262441D01*
X59180126Y-94262444D01*
X59180127Y-94262445D01*
X59258768Y-94416788D01*
X59360586Y-94556928D01*
X59483072Y-94679414D01*
X59623212Y-94781232D01*
X59777555Y-94859873D01*
X59777557Y-94859873D01*
X59777558Y-94859874D01*
X59777561Y-94859876D01*
X59942293Y-94913401D01*
X59942297Y-94913402D01*
X60113386Y-94940500D01*
X60113389Y-94940500D01*
X60286614Y-94940500D01*
X60457702Y-94913402D01*
X60457706Y-94913401D01*
X60622438Y-94859876D01*
X60622440Y-94859874D01*
X60622445Y-94859873D01*
X60776788Y-94781232D01*
X60916928Y-94679414D01*
X61039414Y-94556928D01*
X61141232Y-94416788D01*
X61219873Y-94262445D01*
X61219874Y-94262440D01*
X61219876Y-94262438D01*
X61273401Y-94097706D01*
X61273402Y-94097702D01*
X61300500Y-93926614D01*
X61300500Y-93753385D01*
X61273402Y-93582297D01*
X61273401Y-93582293D01*
X61219876Y-93417561D01*
X61219874Y-93417558D01*
X61219873Y-93417557D01*
X61219873Y-93417555D01*
X61141232Y-93263212D01*
X61039414Y-93123072D01*
X60916928Y-93000586D01*
X60776788Y-92898768D01*
X60776787Y-92898767D01*
X60776785Y-92898766D01*
X60622441Y-92820125D01*
X60622438Y-92820123D01*
X60457706Y-92766598D01*
X60457702Y-92766597D01*
X60286614Y-92739500D01*
X60286611Y-92739500D01*
X60113389Y-92739500D01*
X60113386Y-92739500D01*
X59942297Y-92766597D01*
X59942293Y-92766598D01*
X59777561Y-92820123D01*
X59777546Y-92820130D01*
X59774229Y-92821820D01*
X59713795Y-92831384D01*
X59659291Y-92803609D01*
X50550928Y-83695246D01*
X41433512Y-74577830D01*
X41353588Y-74531686D01*
X41264444Y-74507800D01*
X41264442Y-74507800D01*
X35607549Y-74507800D01*
X35549358Y-74488893D01*
X35513394Y-74439393D01*
X35513394Y-74378207D01*
X35537543Y-74338798D01*
X35639414Y-74236928D01*
X35741232Y-74096788D01*
X35819873Y-73942445D01*
X35819874Y-73942440D01*
X35819876Y-73942438D01*
X35873401Y-73777706D01*
X35873402Y-73777702D01*
X35900500Y-73606614D01*
X35900500Y-73433385D01*
X35873402Y-73262297D01*
X35873401Y-73262293D01*
X35819876Y-73097561D01*
X35819874Y-73097558D01*
X35819873Y-73097557D01*
X35819873Y-73097555D01*
X35741232Y-72943212D01*
X35656064Y-72825989D01*
X35637158Y-72767800D01*
X35656065Y-72709609D01*
X35705565Y-72673645D01*
X35736158Y-72668800D01*
X41032110Y-72668800D01*
X41090301Y-72687707D01*
X41102114Y-72697796D01*
X59163609Y-90759291D01*
X59191386Y-90813808D01*
X59181820Y-90874229D01*
X59180130Y-90877546D01*
X59180123Y-90877561D01*
X59126598Y-91042293D01*
X59126597Y-91042297D01*
X59099500Y-91213385D01*
X59099500Y-91386614D01*
X59126597Y-91557702D01*
X59126598Y-91557706D01*
X59180123Y-91722438D01*
X59180125Y-91722441D01*
X59180126Y-91722444D01*
X59180127Y-91722445D01*
X59258768Y-91876788D01*
X59360586Y-92016928D01*
X59483072Y-92139414D01*
X59623212Y-92241232D01*
X59777555Y-92319873D01*
X59777557Y-92319873D01*
X59777558Y-92319874D01*
X59777561Y-92319876D01*
X59942293Y-92373401D01*
X59942297Y-92373402D01*
X60113386Y-92400500D01*
X60113389Y-92400500D01*
X60286614Y-92400500D01*
X60457702Y-92373402D01*
X60457706Y-92373401D01*
X60622438Y-92319876D01*
X60622440Y-92319874D01*
X60622445Y-92319873D01*
X60776788Y-92241232D01*
X60916928Y-92139414D01*
X61039414Y-92016928D01*
X61141232Y-91876788D01*
X61219873Y-91722445D01*
X61219874Y-91722440D01*
X61219876Y-91722438D01*
X61273401Y-91557706D01*
X61273402Y-91557702D01*
X61300500Y-91386614D01*
X61300500Y-91213385D01*
X61273402Y-91042297D01*
X61273401Y-91042293D01*
X61219876Y-90877561D01*
X61219874Y-90877558D01*
X61219873Y-90877557D01*
X61219873Y-90877555D01*
X61141232Y-90723212D01*
X61039414Y-90583072D01*
X60916928Y-90460586D01*
X60776788Y-90358768D01*
X60776787Y-90358767D01*
X60776785Y-90358766D01*
X60622441Y-90280125D01*
X60622438Y-90280123D01*
X60457706Y-90226598D01*
X60457702Y-90226597D01*
X60286614Y-90199500D01*
X60286611Y-90199500D01*
X60113389Y-90199500D01*
X60113386Y-90199500D01*
X59942297Y-90226597D01*
X59942293Y-90226598D01*
X59777561Y-90280123D01*
X59777546Y-90280130D01*
X59774229Y-90281820D01*
X59713795Y-90291384D01*
X59659291Y-90263609D01*
X50551047Y-81155365D01*
X41433512Y-72037830D01*
X41353588Y-71991686D01*
X41291785Y-71975126D01*
X41240473Y-71941803D01*
X41218546Y-71884681D01*
X41234382Y-71825581D01*
X41281932Y-71787076D01*
X41317410Y-71780500D01*
X44063841Y-71780500D01*
X44063842Y-71780500D01*
X44218497Y-71749737D01*
X44364179Y-71689394D01*
X44495289Y-71601789D01*
X50161788Y-65935290D01*
X50161789Y-65935289D01*
X50186709Y-65897992D01*
X50210831Y-65872905D01*
X50256928Y-65839414D01*
X50309898Y-65786443D01*
X50364413Y-65758668D01*
X50424845Y-65768239D01*
X50468110Y-65811504D01*
X50478900Y-65856449D01*
X50478900Y-79435544D01*
X50501396Y-79519500D01*
X50501395Y-79519500D01*
X50501396Y-79519502D01*
X50502783Y-79524680D01*
X50502784Y-79524683D01*
X50502786Y-79524688D01*
X50548930Y-79604612D01*
X54882019Y-83937701D01*
X59163609Y-88219291D01*
X59191386Y-88273808D01*
X59181820Y-88334229D01*
X59180130Y-88337546D01*
X59180123Y-88337561D01*
X59126598Y-88502293D01*
X59126597Y-88502297D01*
X59099500Y-88673385D01*
X59099500Y-88846614D01*
X59126597Y-89017702D01*
X59126598Y-89017706D01*
X59180123Y-89182438D01*
X59180125Y-89182441D01*
X59180126Y-89182444D01*
X59180127Y-89182445D01*
X59258768Y-89336788D01*
X59360586Y-89476928D01*
X59483072Y-89599414D01*
X59623212Y-89701232D01*
X59777555Y-89779873D01*
X59777557Y-89779873D01*
X59777558Y-89779874D01*
X59777561Y-89779876D01*
X59942293Y-89833401D01*
X59942297Y-89833402D01*
X60113386Y-89860500D01*
X60113389Y-89860500D01*
X60286614Y-89860500D01*
X60457702Y-89833402D01*
X60457706Y-89833401D01*
X60622438Y-89779876D01*
X60622440Y-89779874D01*
X60622445Y-89779873D01*
X60776788Y-89701232D01*
X60916928Y-89599414D01*
X61039414Y-89476928D01*
X61141232Y-89336788D01*
X61219873Y-89182445D01*
X61219874Y-89182440D01*
X61219876Y-89182438D01*
X61273401Y-89017706D01*
X61273402Y-89017702D01*
X61300500Y-88846614D01*
X61300500Y-88673385D01*
X61273402Y-88502297D01*
X61273401Y-88502293D01*
X61219876Y-88337561D01*
X61219874Y-88337558D01*
X61219873Y-88337557D01*
X61219873Y-88337555D01*
X61141232Y-88183212D01*
X61039414Y-88043072D01*
X60916928Y-87920586D01*
X60776788Y-87818768D01*
X60776787Y-87818767D01*
X60776785Y-87818766D01*
X60622441Y-87740125D01*
X60622438Y-87740123D01*
X60457706Y-87686598D01*
X60457702Y-87686597D01*
X60286614Y-87659500D01*
X60286611Y-87659500D01*
X60113389Y-87659500D01*
X60113386Y-87659500D01*
X59942297Y-87686597D01*
X59942293Y-87686598D01*
X59777561Y-87740123D01*
X59777546Y-87740130D01*
X59774229Y-87741820D01*
X59713795Y-87751384D01*
X59659291Y-87723609D01*
X51208896Y-79273214D01*
X51181119Y-79218697D01*
X51179900Y-79203210D01*
X51179900Y-77934589D01*
X51198807Y-77876398D01*
X51248307Y-77840434D01*
X51309493Y-77840434D01*
X51348904Y-77864585D01*
X59163610Y-85679291D01*
X59191387Y-85733808D01*
X59181816Y-85794239D01*
X59180127Y-85797552D01*
X59180123Y-85797561D01*
X59126598Y-85962293D01*
X59126597Y-85962297D01*
X59099500Y-86133385D01*
X59099500Y-86306614D01*
X59126597Y-86477702D01*
X59126598Y-86477706D01*
X59180123Y-86642438D01*
X59180125Y-86642441D01*
X59180126Y-86642444D01*
X59180127Y-86642445D01*
X59258768Y-86796788D01*
X59360586Y-86936928D01*
X59483072Y-87059414D01*
X59623212Y-87161232D01*
X59777555Y-87239873D01*
X59777557Y-87239873D01*
X59777558Y-87239874D01*
X59777561Y-87239876D01*
X59942293Y-87293401D01*
X59942297Y-87293402D01*
X60113386Y-87320500D01*
X60113389Y-87320500D01*
X60286614Y-87320500D01*
X60457702Y-87293402D01*
X60457706Y-87293401D01*
X60622438Y-87239876D01*
X60622440Y-87239874D01*
X60622445Y-87239873D01*
X60776788Y-87161232D01*
X60916928Y-87059414D01*
X61039414Y-86936928D01*
X61141232Y-86796788D01*
X61219873Y-86642445D01*
X61219874Y-86642440D01*
X61219876Y-86642438D01*
X61273401Y-86477706D01*
X61273402Y-86477702D01*
X61300500Y-86306614D01*
X61300500Y-86133385D01*
X61273402Y-85962297D01*
X61273401Y-85962293D01*
X61219876Y-85797561D01*
X61219874Y-85797558D01*
X61219873Y-85797557D01*
X61219873Y-85797555D01*
X61141232Y-85643212D01*
X61039414Y-85503072D01*
X60916928Y-85380586D01*
X60776788Y-85278768D01*
X60776787Y-85278767D01*
X60776785Y-85278766D01*
X60622441Y-85200125D01*
X60622438Y-85200123D01*
X60457706Y-85146598D01*
X60457702Y-85146597D01*
X60286614Y-85119500D01*
X60286611Y-85119500D01*
X60113389Y-85119500D01*
X60113386Y-85119500D01*
X59942297Y-85146597D01*
X59942293Y-85146598D01*
X59777561Y-85200123D01*
X59777552Y-85200127D01*
X59774239Y-85201816D01*
X59713807Y-85211387D01*
X59659291Y-85183610D01*
X55664170Y-81188489D01*
X51660596Y-77184914D01*
X51632819Y-77130397D01*
X51631600Y-77114910D01*
X51631600Y-75846290D01*
X51650507Y-75788099D01*
X51700007Y-75752135D01*
X51761193Y-75752135D01*
X51800604Y-75776286D01*
X59163609Y-83139291D01*
X59191386Y-83193808D01*
X59181820Y-83254229D01*
X59180130Y-83257546D01*
X59180123Y-83257561D01*
X59126598Y-83422293D01*
X59126597Y-83422297D01*
X59099500Y-83593385D01*
X59099500Y-83766614D01*
X59126597Y-83937702D01*
X59126598Y-83937706D01*
X59180123Y-84102438D01*
X59180125Y-84102441D01*
X59180126Y-84102444D01*
X59180127Y-84102445D01*
X59258768Y-84256788D01*
X59360586Y-84396928D01*
X59483072Y-84519414D01*
X59623212Y-84621232D01*
X59777555Y-84699873D01*
X59777557Y-84699873D01*
X59777558Y-84699874D01*
X59777561Y-84699876D01*
X59942293Y-84753401D01*
X59942297Y-84753402D01*
X60113386Y-84780500D01*
X60113389Y-84780500D01*
X60286614Y-84780500D01*
X60457702Y-84753402D01*
X60457706Y-84753401D01*
X60622438Y-84699876D01*
X60622440Y-84699874D01*
X60622445Y-84699873D01*
X60776788Y-84621232D01*
X60916928Y-84519414D01*
X61039414Y-84396928D01*
X61141232Y-84256788D01*
X61219873Y-84102445D01*
X61219874Y-84102440D01*
X61219876Y-84102438D01*
X61273401Y-83937706D01*
X61273402Y-83937702D01*
X61300500Y-83766614D01*
X61300500Y-83593385D01*
X61273402Y-83422297D01*
X61273401Y-83422293D01*
X61219876Y-83257561D01*
X61219874Y-83257558D01*
X61219873Y-83257557D01*
X61219873Y-83257555D01*
X61141232Y-83103212D01*
X61039414Y-82963072D01*
X60916928Y-82840586D01*
X60776788Y-82738768D01*
X60776787Y-82738767D01*
X60776785Y-82738766D01*
X60622441Y-82660125D01*
X60622438Y-82660123D01*
X60457706Y-82606598D01*
X60457702Y-82606597D01*
X60286614Y-82579500D01*
X60286611Y-82579500D01*
X60113389Y-82579500D01*
X60113386Y-82579500D01*
X59942297Y-82606597D01*
X59942293Y-82606598D01*
X59777561Y-82660123D01*
X59777546Y-82660130D01*
X59774229Y-82661820D01*
X59713795Y-82671384D01*
X59659291Y-82643609D01*
X52112296Y-75096614D01*
X52084519Y-75042097D01*
X52083300Y-75026610D01*
X52083300Y-73757990D01*
X52102207Y-73699799D01*
X52151707Y-73663835D01*
X52212893Y-73663835D01*
X52252304Y-73687986D01*
X59163609Y-80599291D01*
X59191386Y-80653808D01*
X59181820Y-80714229D01*
X59180130Y-80717546D01*
X59180123Y-80717561D01*
X59126598Y-80882293D01*
X59126597Y-80882297D01*
X59099500Y-81053385D01*
X59099500Y-81226614D01*
X59126597Y-81397702D01*
X59126598Y-81397706D01*
X59180123Y-81562438D01*
X59180125Y-81562441D01*
X59180126Y-81562444D01*
X59180127Y-81562445D01*
X59258768Y-81716788D01*
X59360586Y-81856928D01*
X59483072Y-81979414D01*
X59623212Y-82081232D01*
X59777555Y-82159873D01*
X59777557Y-82159873D01*
X59777558Y-82159874D01*
X59777561Y-82159876D01*
X59942293Y-82213401D01*
X59942297Y-82213402D01*
X60113386Y-82240500D01*
X60113389Y-82240500D01*
X60286614Y-82240500D01*
X60457702Y-82213402D01*
X60457706Y-82213401D01*
X60622438Y-82159876D01*
X60622440Y-82159874D01*
X60622445Y-82159873D01*
X60776788Y-82081232D01*
X60916928Y-81979414D01*
X61039414Y-81856928D01*
X61141232Y-81716788D01*
X61219873Y-81562445D01*
X61219874Y-81562440D01*
X61219876Y-81562438D01*
X61273401Y-81397706D01*
X61273402Y-81397702D01*
X61300500Y-81226614D01*
X61300500Y-81053385D01*
X61273402Y-80882297D01*
X61273401Y-80882293D01*
X61219876Y-80717561D01*
X61219874Y-80717558D01*
X61219873Y-80717557D01*
X61219873Y-80717555D01*
X61141232Y-80563212D01*
X61039414Y-80423072D01*
X60916928Y-80300586D01*
X60776788Y-80198768D01*
X60776787Y-80198767D01*
X60776785Y-80198766D01*
X60622441Y-80120125D01*
X60622438Y-80120123D01*
X60457706Y-80066598D01*
X60457702Y-80066597D01*
X60286614Y-80039500D01*
X60286611Y-80039500D01*
X60113389Y-80039500D01*
X60113386Y-80039500D01*
X59942297Y-80066597D01*
X59942293Y-80066598D01*
X59777561Y-80120123D01*
X59777546Y-80120130D01*
X59774229Y-80121820D01*
X59713795Y-80131384D01*
X59659291Y-80103609D01*
X52563996Y-73008314D01*
X52536219Y-72953797D01*
X52535000Y-72938310D01*
X52535000Y-64390289D01*
X52553907Y-64332098D01*
X52603407Y-64296134D01*
X52664593Y-64296134D01*
X52704004Y-64320285D01*
X57521204Y-69137485D01*
X57548981Y-69192002D01*
X57550200Y-69207489D01*
X57550200Y-76382944D01*
X57556516Y-76406515D01*
X57572188Y-76465003D01*
X57572189Y-76465009D01*
X57574084Y-76472084D01*
X57574087Y-76472091D01*
X57595402Y-76509009D01*
X57620230Y-76552012D01*
X58396843Y-77328625D01*
X59153327Y-78085109D01*
X59181104Y-78139626D01*
X59177478Y-78185706D01*
X59126597Y-78342301D01*
X59099500Y-78513385D01*
X59099500Y-78686614D01*
X59126597Y-78857702D01*
X59126598Y-78857706D01*
X59180123Y-79022438D01*
X59180125Y-79022441D01*
X59180126Y-79022444D01*
X59180127Y-79022445D01*
X59258768Y-79176788D01*
X59360586Y-79316928D01*
X59483072Y-79439414D01*
X59623212Y-79541232D01*
X59777555Y-79619873D01*
X59777557Y-79619873D01*
X59777558Y-79619874D01*
X59777561Y-79619876D01*
X59942293Y-79673401D01*
X59942297Y-79673402D01*
X60113386Y-79700500D01*
X60113389Y-79700500D01*
X60286614Y-79700500D01*
X60457702Y-79673402D01*
X60457706Y-79673401D01*
X60622438Y-79619876D01*
X60622440Y-79619874D01*
X60622445Y-79619873D01*
X60776788Y-79541232D01*
X60916928Y-79439414D01*
X61039414Y-79316928D01*
X61141232Y-79176788D01*
X61219873Y-79022445D01*
X61219874Y-79022440D01*
X61219876Y-79022438D01*
X61273401Y-78857706D01*
X61273402Y-78857702D01*
X61300500Y-78686614D01*
X61300500Y-78513385D01*
X61273402Y-78342297D01*
X61273401Y-78342293D01*
X61219876Y-78177561D01*
X61219874Y-78177558D01*
X61219873Y-78177557D01*
X61219873Y-78177555D01*
X61141232Y-78023212D01*
X61039414Y-77883072D01*
X60916928Y-77760586D01*
X60776788Y-77658768D01*
X60776787Y-77658767D01*
X60776785Y-77658766D01*
X60622441Y-77580125D01*
X60622438Y-77580123D01*
X60457706Y-77526598D01*
X60457702Y-77526597D01*
X60286614Y-77499500D01*
X60286611Y-77499500D01*
X60113389Y-77499500D01*
X60113386Y-77499500D01*
X59942297Y-77526597D01*
X59942293Y-77526598D01*
X59777561Y-77580123D01*
X59777551Y-77580128D01*
X59750322Y-77594001D01*
X59689889Y-77603571D01*
X59635376Y-77575794D01*
X58778166Y-76718584D01*
X58750389Y-76664067D01*
X58759960Y-76603635D01*
X58798667Y-76562845D01*
X58891915Y-76509009D01*
X58994409Y-76406515D01*
X58994410Y-76406512D01*
X58998997Y-76401926D01*
X59000363Y-76403292D01*
X59043421Y-76373698D01*
X59104585Y-76375299D01*
X59153128Y-76412545D01*
X59165695Y-76438028D01*
X59180127Y-76482445D01*
X59241875Y-76603635D01*
X59258768Y-76636788D01*
X59360586Y-76776928D01*
X59483072Y-76899414D01*
X59623212Y-77001232D01*
X59777555Y-77079873D01*
X59777557Y-77079873D01*
X59777558Y-77079874D01*
X59777561Y-77079876D01*
X59942293Y-77133401D01*
X59942297Y-77133402D01*
X60113386Y-77160500D01*
X60113389Y-77160500D01*
X60286614Y-77160500D01*
X60457702Y-77133402D01*
X60457706Y-77133401D01*
X60622438Y-77079876D01*
X60622440Y-77079874D01*
X60622445Y-77079873D01*
X60776788Y-77001232D01*
X60916928Y-76899414D01*
X61039414Y-76776928D01*
X61141232Y-76636788D01*
X61219873Y-76482445D01*
X61219874Y-76482440D01*
X61219876Y-76482438D01*
X61273401Y-76317706D01*
X61273402Y-76317702D01*
X61300500Y-76146614D01*
X61300500Y-75973385D01*
X61273402Y-75802297D01*
X61273401Y-75802293D01*
X61219876Y-75637561D01*
X61219874Y-75637558D01*
X61219873Y-75637557D01*
X61219873Y-75637555D01*
X61141232Y-75483212D01*
X61039414Y-75343072D01*
X61005843Y-75309501D01*
X60978068Y-75254987D01*
X60987639Y-75194555D01*
X61030904Y-75151290D01*
X61075849Y-75140500D01*
X113336142Y-75140500D01*
X113336144Y-75140500D01*
X113425288Y-75116614D01*
X113448953Y-75102951D01*
X113505212Y-75070470D01*
X115539293Y-73036387D01*
X115593808Y-73008612D01*
X115654237Y-73018182D01*
X115654243Y-73018185D01*
X115654244Y-73018186D01*
X115657553Y-73019872D01*
X115657563Y-73019876D01*
X115822293Y-73073401D01*
X115822297Y-73073402D01*
X115993386Y-73100500D01*
X115993389Y-73100500D01*
X116166614Y-73100500D01*
X116337702Y-73073402D01*
X116337706Y-73073401D01*
X116502438Y-73019876D01*
X116502440Y-73019874D01*
X116502445Y-73019873D01*
X116656788Y-72941232D01*
X116796928Y-72839414D01*
X116919414Y-72716928D01*
X117021232Y-72576788D01*
X117099873Y-72422445D01*
X117099874Y-72422440D01*
X117099876Y-72422438D01*
X117153401Y-72257706D01*
X117153402Y-72257702D01*
X117180500Y-72086614D01*
X117180500Y-71913385D01*
X117153402Y-71742297D01*
X117153401Y-71742293D01*
X117099876Y-71577561D01*
X117099874Y-71577558D01*
X117099873Y-71577557D01*
X117099873Y-71577555D01*
X117021232Y-71423212D01*
X116919414Y-71283072D01*
X116796928Y-71160586D01*
X116656788Y-71058768D01*
X116656787Y-71058767D01*
X116656785Y-71058766D01*
X116502441Y-70980125D01*
X116502438Y-70980123D01*
X116337706Y-70926598D01*
X116337702Y-70926597D01*
X116166614Y-70899500D01*
X116166611Y-70899500D01*
X115993389Y-70899500D01*
X115993386Y-70899500D01*
X115822297Y-70926597D01*
X115822293Y-70926598D01*
X115657561Y-70980123D01*
X115657558Y-70980125D01*
X115503214Y-71058766D01*
X115363073Y-71160585D01*
X115240585Y-71283073D01*
X115138766Y-71423214D01*
X115060125Y-71577558D01*
X115060123Y-71577561D01*
X115006598Y-71742293D01*
X115006597Y-71742297D01*
X114979500Y-71913385D01*
X114979500Y-72086614D01*
X115006597Y-72257702D01*
X115006598Y-72257706D01*
X115060123Y-72422438D01*
X115060127Y-72422447D01*
X115061815Y-72425759D01*
X115071386Y-72486191D01*
X115043609Y-72540707D01*
X113173814Y-74410504D01*
X113119297Y-74438281D01*
X113103810Y-74439500D01*
X104375190Y-74439500D01*
X104316999Y-74420593D01*
X104281035Y-74371093D01*
X104281035Y-74309907D01*
X104305186Y-74270497D01*
X105539290Y-73036390D01*
X105593807Y-73008612D01*
X105654237Y-73018182D01*
X105657555Y-73019873D01*
X105657557Y-73019873D01*
X105657560Y-73019875D01*
X105657561Y-73019876D01*
X105822293Y-73073401D01*
X105822297Y-73073402D01*
X105993386Y-73100500D01*
X105993389Y-73100500D01*
X106166614Y-73100500D01*
X106337702Y-73073402D01*
X106337706Y-73073401D01*
X106502438Y-73019876D01*
X106502440Y-73019874D01*
X106502445Y-73019873D01*
X106656788Y-72941232D01*
X106796928Y-72839414D01*
X106919414Y-72716928D01*
X107021232Y-72576788D01*
X107099873Y-72422445D01*
X107099874Y-72422440D01*
X107099876Y-72422438D01*
X107153401Y-72257706D01*
X107153402Y-72257702D01*
X107180500Y-72086614D01*
X107180500Y-71913385D01*
X107153402Y-71742297D01*
X107153401Y-71742293D01*
X107099876Y-71577561D01*
X107099874Y-71577558D01*
X107099873Y-71577557D01*
X107099873Y-71577555D01*
X107021232Y-71423212D01*
X106919414Y-71283072D01*
X106882143Y-71245801D01*
X106854368Y-71191287D01*
X106863939Y-71130855D01*
X106907204Y-71087590D01*
X106952149Y-71076800D01*
X108338410Y-71076800D01*
X108396601Y-71095707D01*
X108408414Y-71105796D01*
X109583088Y-72280470D01*
X109663012Y-72326614D01*
X109752156Y-72350500D01*
X109800500Y-72350500D01*
X109858691Y-72369407D01*
X109894655Y-72418907D01*
X109899500Y-72449500D01*
X109899500Y-72919746D01*
X109899501Y-72919758D01*
X109911132Y-72978227D01*
X109911134Y-72978233D01*
X109955445Y-73044548D01*
X109955448Y-73044552D01*
X110021769Y-73088867D01*
X110065462Y-73097558D01*
X110080241Y-73100498D01*
X110080246Y-73100498D01*
X110080252Y-73100500D01*
X110080253Y-73100500D01*
X111919747Y-73100500D01*
X111919748Y-73100500D01*
X111978231Y-73088867D01*
X112044552Y-73044552D01*
X112088867Y-72978231D01*
X112100500Y-72919748D01*
X112100500Y-71913385D01*
X112439500Y-71913385D01*
X112439500Y-72086614D01*
X112466597Y-72257702D01*
X112466598Y-72257706D01*
X112520123Y-72422438D01*
X112520125Y-72422441D01*
X112594196Y-72567816D01*
X112598768Y-72576788D01*
X112700586Y-72716928D01*
X112823072Y-72839414D01*
X112963212Y-72941232D01*
X113117555Y-73019873D01*
X113117557Y-73019873D01*
X113117558Y-73019874D01*
X113117561Y-73019876D01*
X113282293Y-73073401D01*
X113282297Y-73073402D01*
X113453386Y-73100500D01*
X113453389Y-73100500D01*
X113626614Y-73100500D01*
X113797702Y-73073402D01*
X113797706Y-73073401D01*
X113962438Y-73019876D01*
X113962440Y-73019874D01*
X113962445Y-73019873D01*
X114116788Y-72941232D01*
X114256928Y-72839414D01*
X114379414Y-72716928D01*
X114481232Y-72576788D01*
X114559873Y-72422445D01*
X114559874Y-72422440D01*
X114559876Y-72422438D01*
X114613401Y-72257706D01*
X114613402Y-72257702D01*
X114640500Y-72086614D01*
X114640500Y-71913385D01*
X114613402Y-71742297D01*
X114613401Y-71742293D01*
X114559876Y-71577561D01*
X114559874Y-71577558D01*
X114559873Y-71577557D01*
X114559873Y-71577555D01*
X114481232Y-71423212D01*
X114379414Y-71283072D01*
X114256928Y-71160586D01*
X114116788Y-71058768D01*
X114116787Y-71058767D01*
X114116785Y-71058766D01*
X113962441Y-70980125D01*
X113962438Y-70980123D01*
X113797706Y-70926598D01*
X113797702Y-70926597D01*
X113626614Y-70899500D01*
X113626611Y-70899500D01*
X113453389Y-70899500D01*
X113453386Y-70899500D01*
X113282297Y-70926597D01*
X113282293Y-70926598D01*
X113117561Y-70980123D01*
X113117558Y-70980125D01*
X112963214Y-71058766D01*
X112823073Y-71160585D01*
X112700585Y-71283073D01*
X112598766Y-71423214D01*
X112520125Y-71577558D01*
X112520123Y-71577561D01*
X112466598Y-71742293D01*
X112466597Y-71742297D01*
X112439500Y-71913385D01*
X112100500Y-71913385D01*
X112100500Y-71080252D01*
X112088867Y-71021769D01*
X112044552Y-70955448D01*
X112001376Y-70926598D01*
X111978233Y-70911134D01*
X111978231Y-70911133D01*
X111978228Y-70911132D01*
X111978227Y-70911132D01*
X111919758Y-70899501D01*
X111919748Y-70899500D01*
X110080252Y-70899500D01*
X110080251Y-70899500D01*
X110080241Y-70899501D01*
X110021772Y-70911132D01*
X110021766Y-70911134D01*
X109955451Y-70955445D01*
X109955445Y-70955451D01*
X109911134Y-71021766D01*
X109911132Y-71021772D01*
X109899501Y-71080241D01*
X109899500Y-71080253D01*
X109899500Y-71366510D01*
X109880593Y-71424701D01*
X109831093Y-71460665D01*
X109769907Y-71460665D01*
X109730496Y-71436514D01*
X109249427Y-70955445D01*
X108739812Y-70445830D01*
X108659888Y-70399686D01*
X108570744Y-70375800D01*
X102978656Y-70375800D01*
X102889512Y-70399686D01*
X102809588Y-70445830D01*
X102232158Y-71023260D01*
X102177641Y-71051037D01*
X102117209Y-71041466D01*
X102079839Y-71008258D01*
X102044554Y-70955451D01*
X102044552Y-70955448D01*
X102001376Y-70926598D01*
X101978233Y-70911134D01*
X101978231Y-70911133D01*
X101978228Y-70911132D01*
X101978227Y-70911132D01*
X101919758Y-70899501D01*
X101919748Y-70899500D01*
X100080252Y-70899500D01*
X100080251Y-70899500D01*
X100080241Y-70899501D01*
X100021772Y-70911132D01*
X100021766Y-70911134D01*
X99955451Y-70955445D01*
X99955445Y-70955451D01*
X99911134Y-71021766D01*
X99911132Y-71021772D01*
X99899501Y-71080241D01*
X99899500Y-71080253D01*
X99899500Y-72919746D01*
X99899501Y-72919758D01*
X99911132Y-72978227D01*
X99911134Y-72978233D01*
X99955445Y-73044548D01*
X99955448Y-73044552D01*
X100021769Y-73088867D01*
X100065462Y-73097558D01*
X100080241Y-73100498D01*
X100080246Y-73100498D01*
X100080252Y-73100500D01*
X100080253Y-73100500D01*
X101919747Y-73100500D01*
X101919748Y-73100500D01*
X101978231Y-73088867D01*
X102044552Y-73044552D01*
X102088867Y-72978231D01*
X102100500Y-72919748D01*
X102100500Y-72449500D01*
X102119407Y-72391309D01*
X102168907Y-72355345D01*
X102199500Y-72350500D01*
X102247842Y-72350500D01*
X102247844Y-72350500D01*
X102336988Y-72326614D01*
X102359101Y-72313847D01*
X102418949Y-72301124D01*
X102474845Y-72326009D01*
X102502757Y-72368989D01*
X102520123Y-72422438D01*
X102520125Y-72422441D01*
X102594196Y-72567816D01*
X102598768Y-72576788D01*
X102700586Y-72716928D01*
X102823072Y-72839414D01*
X102963212Y-72941232D01*
X103117555Y-73019873D01*
X103117557Y-73019873D01*
X103117558Y-73019874D01*
X103117561Y-73019876D01*
X103282293Y-73073401D01*
X103282297Y-73073402D01*
X103453386Y-73100500D01*
X103453389Y-73100500D01*
X103626614Y-73100500D01*
X103797702Y-73073402D01*
X103797706Y-73073401D01*
X103962438Y-73019876D01*
X103962440Y-73019874D01*
X103962445Y-73019873D01*
X104116788Y-72941232D01*
X104256928Y-72839414D01*
X104379414Y-72716928D01*
X104481232Y-72576788D01*
X104559873Y-72422445D01*
X104559874Y-72422440D01*
X104559876Y-72422438D01*
X104613401Y-72257706D01*
X104613402Y-72257702D01*
X104640500Y-72086614D01*
X104640500Y-71913385D01*
X104613402Y-71742297D01*
X104613401Y-71742293D01*
X104559876Y-71577561D01*
X104559874Y-71577558D01*
X104559873Y-71577557D01*
X104559873Y-71577555D01*
X104481232Y-71423212D01*
X104379414Y-71283072D01*
X104342143Y-71245801D01*
X104314368Y-71191287D01*
X104323939Y-71130855D01*
X104367204Y-71087590D01*
X104412149Y-71076800D01*
X105207851Y-71076800D01*
X105266042Y-71095707D01*
X105302006Y-71145207D01*
X105302006Y-71206393D01*
X105277856Y-71245801D01*
X105255854Y-71267804D01*
X105240585Y-71283073D01*
X105138766Y-71423214D01*
X105060125Y-71577558D01*
X105060123Y-71577561D01*
X105006598Y-71742293D01*
X105006597Y-71742297D01*
X104979500Y-71913385D01*
X104979500Y-72086614D01*
X105006597Y-72257702D01*
X105006598Y-72257706D01*
X105060123Y-72422438D01*
X105060126Y-72422445D01*
X105061818Y-72425765D01*
X105071385Y-72486198D01*
X105043609Y-72540708D01*
X103755414Y-73828904D01*
X103700897Y-73856681D01*
X103685410Y-73857900D01*
X94956790Y-73857900D01*
X94898599Y-73838993D01*
X94862635Y-73789493D01*
X94862635Y-73728307D01*
X94886786Y-73688897D01*
X95539291Y-73036390D01*
X95593808Y-73008612D01*
X95654237Y-73018182D01*
X95654243Y-73018185D01*
X95654244Y-73018186D01*
X95657553Y-73019872D01*
X95657563Y-73019876D01*
X95822293Y-73073401D01*
X95822297Y-73073402D01*
X95993386Y-73100500D01*
X95993389Y-73100500D01*
X96166614Y-73100500D01*
X96337702Y-73073402D01*
X96337706Y-73073401D01*
X96502438Y-73019876D01*
X96502440Y-73019874D01*
X96502445Y-73019873D01*
X96656788Y-72941232D01*
X96796928Y-72839414D01*
X96919414Y-72716928D01*
X97021232Y-72576788D01*
X97099873Y-72422445D01*
X97099874Y-72422440D01*
X97099876Y-72422438D01*
X97153401Y-72257706D01*
X97153402Y-72257702D01*
X97180500Y-72086614D01*
X97180500Y-71913385D01*
X97153402Y-71742297D01*
X97153401Y-71742293D01*
X97099876Y-71577561D01*
X97099874Y-71577558D01*
X97099873Y-71577557D01*
X97099873Y-71577555D01*
X97021232Y-71423212D01*
X96919414Y-71283072D01*
X96796928Y-71160586D01*
X96656788Y-71058768D01*
X96656787Y-71058767D01*
X96656785Y-71058766D01*
X96502441Y-70980125D01*
X96502438Y-70980123D01*
X96337706Y-70926598D01*
X96337702Y-70926597D01*
X96166614Y-70899500D01*
X96166611Y-70899500D01*
X95993389Y-70899500D01*
X95993386Y-70899500D01*
X95822297Y-70926597D01*
X95822293Y-70926598D01*
X95657561Y-70980123D01*
X95657558Y-70980125D01*
X95503214Y-71058766D01*
X95363073Y-71160585D01*
X95240585Y-71283073D01*
X95138766Y-71423214D01*
X95060125Y-71577558D01*
X95060123Y-71577561D01*
X95006598Y-71742293D01*
X95006597Y-71742297D01*
X94979500Y-71913385D01*
X94979500Y-72086614D01*
X95006597Y-72257702D01*
X95006598Y-72257706D01*
X95060123Y-72422438D01*
X95060127Y-72422447D01*
X95061815Y-72425759D01*
X95071386Y-72486191D01*
X95043609Y-72540706D01*
X94207114Y-73377203D01*
X94152597Y-73404981D01*
X94137110Y-73406200D01*
X89126790Y-73406200D01*
X89068599Y-73387293D01*
X89032635Y-73337793D01*
X89032635Y-73276607D01*
X89056786Y-73237196D01*
X89730496Y-72563486D01*
X89785013Y-72535709D01*
X89845445Y-72545280D01*
X89888710Y-72588545D01*
X89899500Y-72633490D01*
X89899500Y-72919746D01*
X89899501Y-72919758D01*
X89911132Y-72978227D01*
X89911134Y-72978233D01*
X89955445Y-73044548D01*
X89955448Y-73044552D01*
X90021769Y-73088867D01*
X90065462Y-73097558D01*
X90080241Y-73100498D01*
X90080246Y-73100498D01*
X90080252Y-73100500D01*
X90080253Y-73100500D01*
X91919747Y-73100500D01*
X91919748Y-73100500D01*
X91978231Y-73088867D01*
X92044552Y-73044552D01*
X92088867Y-72978231D01*
X92100500Y-72919748D01*
X92100500Y-71501386D01*
X92119407Y-71443195D01*
X92168907Y-71407231D01*
X92230093Y-71407231D01*
X92269504Y-71431382D01*
X92451613Y-71613491D01*
X92479390Y-71668008D01*
X92475764Y-71714086D01*
X92466597Y-71742299D01*
X92439500Y-71913385D01*
X92439500Y-72086614D01*
X92466597Y-72257702D01*
X92466598Y-72257706D01*
X92520123Y-72422438D01*
X92520125Y-72422441D01*
X92594196Y-72567816D01*
X92598768Y-72576788D01*
X92700586Y-72716928D01*
X92823072Y-72839414D01*
X92963212Y-72941232D01*
X93117555Y-73019873D01*
X93117557Y-73019873D01*
X93117558Y-73019874D01*
X93117561Y-73019876D01*
X93282293Y-73073401D01*
X93282297Y-73073402D01*
X93453386Y-73100500D01*
X93453389Y-73100500D01*
X93626614Y-73100500D01*
X93797702Y-73073402D01*
X93797706Y-73073401D01*
X93962438Y-73019876D01*
X93962440Y-73019874D01*
X93962445Y-73019873D01*
X94116788Y-72941232D01*
X94256928Y-72839414D01*
X94379414Y-72716928D01*
X94481232Y-72576788D01*
X94559873Y-72422445D01*
X94559874Y-72422440D01*
X94559876Y-72422438D01*
X94613401Y-72257706D01*
X94613402Y-72257702D01*
X94640500Y-72086614D01*
X94640500Y-71913385D01*
X94613402Y-71742297D01*
X94613401Y-71742293D01*
X94559876Y-71577561D01*
X94559874Y-71577558D01*
X94559873Y-71577557D01*
X94559873Y-71577555D01*
X94481232Y-71423212D01*
X94379414Y-71283072D01*
X94256928Y-71160586D01*
X94249127Y-71154918D01*
X94217582Y-71131998D01*
X94193460Y-71106909D01*
X94161789Y-71059511D01*
X92778792Y-69676514D01*
X92778789Y-69676511D01*
X92726559Y-69641612D01*
X92647685Y-69588909D01*
X92647674Y-69588903D01*
X92501997Y-69528563D01*
X92347344Y-69497800D01*
X92347342Y-69497800D01*
X85320542Y-69497800D01*
X85162857Y-69497800D01*
X85162854Y-69497800D01*
X85018016Y-69526611D01*
X85018015Y-69526610D01*
X85008209Y-69528561D01*
X85008201Y-69528563D01*
X84862525Y-69588903D01*
X84862514Y-69588909D01*
X84731411Y-69676511D01*
X84731407Y-69676514D01*
X83537418Y-70870504D01*
X83482901Y-70898281D01*
X83467414Y-70899500D01*
X83453386Y-70899500D01*
X83282297Y-70926597D01*
X83282293Y-70926598D01*
X83117561Y-70980123D01*
X83117558Y-70980125D01*
X82963214Y-71058766D01*
X82823073Y-71160585D01*
X82700585Y-71283073D01*
X82598766Y-71423214D01*
X82520125Y-71577558D01*
X82520123Y-71577561D01*
X82502757Y-71631010D01*
X82466793Y-71680510D01*
X82408602Y-71699417D01*
X82359104Y-71686154D01*
X82336991Y-71673387D01*
X82336988Y-71673386D01*
X82247844Y-71649500D01*
X82247842Y-71649500D01*
X82199500Y-71649500D01*
X82141309Y-71630593D01*
X82105345Y-71581093D01*
X82100500Y-71550500D01*
X82100500Y-71080253D01*
X82100498Y-71080241D01*
X82096374Y-71059511D01*
X82088867Y-71021769D01*
X82044552Y-70955448D01*
X82001376Y-70926598D01*
X81978233Y-70911134D01*
X81978231Y-70911133D01*
X81978228Y-70911132D01*
X81978227Y-70911132D01*
X81919758Y-70899501D01*
X81919748Y-70899500D01*
X80080252Y-70899500D01*
X80080251Y-70899500D01*
X80080241Y-70899501D01*
X80021772Y-70911132D01*
X80021766Y-70911134D01*
X79955451Y-70955445D01*
X79955445Y-70955451D01*
X79911134Y-71021766D01*
X79911132Y-71021772D01*
X79899501Y-71080241D01*
X79899500Y-71080253D01*
X79899500Y-71550500D01*
X79880593Y-71608691D01*
X79831093Y-71644655D01*
X79800500Y-71649500D01*
X74634690Y-71649500D01*
X74576499Y-71630593D01*
X74564686Y-71620504D01*
X67686475Y-64742293D01*
X60784512Y-57840330D01*
X60704588Y-57794186D01*
X60615444Y-57770300D01*
X60615442Y-57770300D01*
X45968190Y-57770300D01*
X45909999Y-57751393D01*
X45898186Y-57741304D01*
X42426386Y-54269504D01*
X42398609Y-54214987D01*
X42408180Y-54154555D01*
X42451445Y-54111290D01*
X42496390Y-54100500D01*
X42626614Y-54100500D01*
X42797702Y-54073402D01*
X42797706Y-54073401D01*
X42962438Y-54019876D01*
X42962440Y-54019874D01*
X42962445Y-54019873D01*
X43116788Y-53941232D01*
X43256928Y-53839414D01*
X43379414Y-53716928D01*
X43481232Y-53576788D01*
X43559873Y-53422445D01*
X43559874Y-53422440D01*
X43559876Y-53422438D01*
X43613401Y-53257706D01*
X43613402Y-53257702D01*
X43640500Y-53086614D01*
X43640500Y-52913385D01*
X43979500Y-52913385D01*
X43979500Y-53086614D01*
X44006597Y-53257702D01*
X44006598Y-53257706D01*
X44060123Y-53422438D01*
X44060125Y-53422441D01*
X44131427Y-53562382D01*
X44138768Y-53576788D01*
X44240586Y-53716928D01*
X44363072Y-53839414D01*
X44503212Y-53941232D01*
X44657555Y-54019873D01*
X44657557Y-54019873D01*
X44657558Y-54019874D01*
X44657561Y-54019876D01*
X44822293Y-54073401D01*
X44822297Y-54073402D01*
X44993386Y-54100500D01*
X44993389Y-54100500D01*
X45166614Y-54100500D01*
X45337702Y-54073402D01*
X45337706Y-54073401D01*
X45502438Y-54019876D01*
X45502440Y-54019874D01*
X45502445Y-54019873D01*
X45656788Y-53941232D01*
X45796928Y-53839414D01*
X45919414Y-53716928D01*
X46021232Y-53576788D01*
X46099873Y-53422445D01*
X46099874Y-53422440D01*
X46099876Y-53422438D01*
X46153401Y-53257706D01*
X46153402Y-53257702D01*
X46180500Y-53086614D01*
X46180500Y-52913385D01*
X46519500Y-52913385D01*
X46519500Y-53086614D01*
X46546597Y-53257702D01*
X46546598Y-53257706D01*
X46600123Y-53422438D01*
X46600125Y-53422441D01*
X46671427Y-53562382D01*
X46678768Y-53576788D01*
X46780586Y-53716928D01*
X46903072Y-53839414D01*
X47043212Y-53941232D01*
X47197555Y-54019873D01*
X47197557Y-54019873D01*
X47197558Y-54019874D01*
X47197561Y-54019876D01*
X47362293Y-54073401D01*
X47362297Y-54073402D01*
X47533386Y-54100500D01*
X47533389Y-54100500D01*
X47706614Y-54100500D01*
X47877702Y-54073402D01*
X47877706Y-54073401D01*
X48042438Y-54019876D01*
X48042440Y-54019874D01*
X48042445Y-54019873D01*
X48196788Y-53941232D01*
X48336928Y-53839414D01*
X48459414Y-53716928D01*
X48561232Y-53576788D01*
X48639873Y-53422445D01*
X48639874Y-53422440D01*
X48639876Y-53422438D01*
X48693401Y-53257706D01*
X48693402Y-53257702D01*
X48720500Y-53086614D01*
X48720500Y-52913385D01*
X48693402Y-52742297D01*
X48693401Y-52742293D01*
X48639876Y-52577561D01*
X48639874Y-52577558D01*
X48639873Y-52577557D01*
X48639873Y-52577555D01*
X48561232Y-52423212D01*
X48459414Y-52283072D01*
X48336928Y-52160586D01*
X48196788Y-52058768D01*
X48196787Y-52058767D01*
X48196785Y-52058766D01*
X48042441Y-51980125D01*
X48042438Y-51980123D01*
X47877706Y-51926598D01*
X47877702Y-51926597D01*
X47706614Y-51899500D01*
X47706611Y-51899500D01*
X47533389Y-51899500D01*
X47533386Y-51899500D01*
X47362297Y-51926597D01*
X47362293Y-51926598D01*
X47197561Y-51980123D01*
X47197558Y-51980125D01*
X47043214Y-52058766D01*
X46903073Y-52160585D01*
X46780585Y-52283073D01*
X46678766Y-52423214D01*
X46600125Y-52577558D01*
X46600123Y-52577561D01*
X46546598Y-52742293D01*
X46546597Y-52742297D01*
X46519500Y-52913385D01*
X46180500Y-52913385D01*
X46153402Y-52742297D01*
X46153401Y-52742293D01*
X46099876Y-52577561D01*
X46099874Y-52577558D01*
X46099873Y-52577557D01*
X46099873Y-52577555D01*
X46021232Y-52423212D01*
X45919414Y-52283072D01*
X45796928Y-52160586D01*
X45656788Y-52058768D01*
X45656787Y-52058767D01*
X45656785Y-52058766D01*
X45502441Y-51980125D01*
X45502438Y-51980123D01*
X45337706Y-51926598D01*
X45337702Y-51926597D01*
X45166614Y-51899500D01*
X45166611Y-51899500D01*
X44993389Y-51899500D01*
X44993386Y-51899500D01*
X44822297Y-51926597D01*
X44822293Y-51926598D01*
X44657561Y-51980123D01*
X44657558Y-51980125D01*
X44503214Y-52058766D01*
X44363073Y-52160585D01*
X44240585Y-52283073D01*
X44138766Y-52423214D01*
X44060125Y-52577558D01*
X44060123Y-52577561D01*
X44006598Y-52742293D01*
X44006597Y-52742297D01*
X43979500Y-52913385D01*
X43640500Y-52913385D01*
X43613402Y-52742297D01*
X43613401Y-52742293D01*
X43559876Y-52577561D01*
X43559874Y-52577558D01*
X43559873Y-52577557D01*
X43559873Y-52577555D01*
X43481232Y-52423212D01*
X43379414Y-52283072D01*
X43256928Y-52160586D01*
X43116788Y-52058768D01*
X43116787Y-52058767D01*
X43116785Y-52058766D01*
X42962441Y-51980125D01*
X42962438Y-51980123D01*
X42797706Y-51926598D01*
X42797702Y-51926597D01*
X42626614Y-51899500D01*
X42626611Y-51899500D01*
X42455189Y-51899500D01*
X42396998Y-51880593D01*
X42361034Y-51831093D01*
X42361034Y-51769907D01*
X42385185Y-51730496D01*
X42713388Y-51402293D01*
X43079293Y-51036387D01*
X43133808Y-51008612D01*
X43194237Y-51018182D01*
X43194243Y-51018185D01*
X43194244Y-51018186D01*
X43197553Y-51019872D01*
X43197563Y-51019876D01*
X43362293Y-51073401D01*
X43362297Y-51073402D01*
X43533386Y-51100500D01*
X43533389Y-51100500D01*
X43706614Y-51100500D01*
X43877702Y-51073402D01*
X43877706Y-51073401D01*
X44042438Y-51019876D01*
X44042440Y-51019874D01*
X44042445Y-51019873D01*
X44196788Y-50941232D01*
X44336928Y-50839414D01*
X44459414Y-50716928D01*
X44561232Y-50576788D01*
X44639873Y-50422445D01*
X44639874Y-50422440D01*
X44639876Y-50422438D01*
X44693401Y-50257706D01*
X44693402Y-50257702D01*
X44720500Y-50086614D01*
X44720500Y-49913385D01*
X44693402Y-49742297D01*
X44693401Y-49742293D01*
X44639876Y-49577561D01*
X44639874Y-49577558D01*
X44639873Y-49577557D01*
X44639873Y-49577555D01*
X44561232Y-49423212D01*
X44459414Y-49283072D01*
X44336928Y-49160586D01*
X44196788Y-49058768D01*
X44196787Y-49058767D01*
X44196785Y-49058766D01*
X44042441Y-48980125D01*
X44042438Y-48980123D01*
X43877706Y-48926598D01*
X43877702Y-48926597D01*
X43706614Y-48899500D01*
X43706611Y-48899500D01*
X43533389Y-48899500D01*
X43533386Y-48899500D01*
X43362297Y-48926597D01*
X43362293Y-48926598D01*
X43197561Y-48980123D01*
X43197558Y-48980125D01*
X43043214Y-49058766D01*
X42903073Y-49160585D01*
X42780585Y-49283073D01*
X42678766Y-49423214D01*
X42600125Y-49577558D01*
X42600123Y-49577561D01*
X42546598Y-49742293D01*
X42546597Y-49742297D01*
X42519500Y-49913385D01*
X42519500Y-50086614D01*
X42546597Y-50257702D01*
X42546598Y-50257706D01*
X42600123Y-50422438D01*
X42600127Y-50422447D01*
X42601815Y-50425759D01*
X42611386Y-50486191D01*
X42583609Y-50540707D01*
X41176524Y-51947792D01*
X41122007Y-51975569D01*
X41061575Y-51965998D01*
X41051518Y-51960103D01*
X41044547Y-51955445D01*
X40988061Y-51917701D01*
X40978233Y-51911134D01*
X40978231Y-51911133D01*
X40978228Y-51911132D01*
X40978227Y-51911132D01*
X40919758Y-51899501D01*
X40919748Y-51899500D01*
X39080252Y-51899500D01*
X39080251Y-51899500D01*
X39080241Y-51899501D01*
X39021772Y-51911132D01*
X39021766Y-51911134D01*
X38955451Y-51955445D01*
X38955445Y-51955451D01*
X38911134Y-52021766D01*
X38911132Y-52021772D01*
X38899501Y-52080241D01*
X38899500Y-52080253D01*
X38899500Y-52366510D01*
X38880593Y-52424701D01*
X38831093Y-52460665D01*
X38769907Y-52460665D01*
X38730496Y-52436514D01*
X38015186Y-51721204D01*
X37215212Y-50921230D01*
X37196111Y-50910202D01*
X37149999Y-50883579D01*
X37109059Y-50838109D01*
X37100500Y-50797843D01*
X37100500Y-49913385D01*
X37439500Y-49913385D01*
X37439500Y-50086614D01*
X37466597Y-50257702D01*
X37466598Y-50257706D01*
X37520123Y-50422438D01*
X37520125Y-50422441D01*
X37561255Y-50503165D01*
X37598768Y-50576788D01*
X37700586Y-50716928D01*
X37823072Y-50839414D01*
X37963212Y-50941232D01*
X38117555Y-51019873D01*
X38117557Y-51019873D01*
X38117558Y-51019874D01*
X38117561Y-51019876D01*
X38282293Y-51073401D01*
X38282297Y-51073402D01*
X38453386Y-51100500D01*
X38453389Y-51100500D01*
X38626614Y-51100500D01*
X38797702Y-51073402D01*
X38797706Y-51073401D01*
X38962438Y-51019876D01*
X38962440Y-51019874D01*
X38962445Y-51019873D01*
X39116788Y-50941232D01*
X39256928Y-50839414D01*
X39379414Y-50716928D01*
X39481232Y-50576788D01*
X39559873Y-50422445D01*
X39559874Y-50422440D01*
X39559876Y-50422438D01*
X39613401Y-50257706D01*
X39613402Y-50257702D01*
X39640500Y-50086614D01*
X39640500Y-49913385D01*
X39613402Y-49742297D01*
X39613401Y-49742293D01*
X39559876Y-49577561D01*
X39559874Y-49577558D01*
X39559873Y-49577557D01*
X39559873Y-49577555D01*
X39481232Y-49423212D01*
X39379414Y-49283072D01*
X39256928Y-49160586D01*
X39116788Y-49058768D01*
X39116787Y-49058767D01*
X39116785Y-49058766D01*
X38962441Y-48980125D01*
X38962438Y-48980123D01*
X38797706Y-48926598D01*
X38797702Y-48926597D01*
X38626614Y-48899500D01*
X38626611Y-48899500D01*
X38453389Y-48899500D01*
X38453386Y-48899500D01*
X38282297Y-48926597D01*
X38282293Y-48926598D01*
X38117561Y-48980123D01*
X38117558Y-48980125D01*
X37963214Y-49058766D01*
X37823073Y-49160585D01*
X37700585Y-49283073D01*
X37598766Y-49423214D01*
X37520125Y-49577558D01*
X37520123Y-49577561D01*
X37466598Y-49742293D01*
X37466597Y-49742297D01*
X37439500Y-49913385D01*
X37100500Y-49913385D01*
X37100500Y-49080253D01*
X37100498Y-49080241D01*
X37097711Y-49066231D01*
X37088867Y-49021769D01*
X37044552Y-48955448D01*
X37001376Y-48926598D01*
X36978233Y-48911134D01*
X36978231Y-48911133D01*
X36978228Y-48911132D01*
X36978227Y-48911132D01*
X36919758Y-48899501D01*
X36919748Y-48899500D01*
X35080252Y-48899500D01*
X35080251Y-48899500D01*
X35080241Y-48899501D01*
X35021772Y-48911132D01*
X35021766Y-48911134D01*
X34955451Y-48955445D01*
X34955445Y-48955451D01*
X34911134Y-49021766D01*
X34911132Y-49021772D01*
X34899501Y-49080241D01*
X34899500Y-49080253D01*
X34899500Y-50409010D01*
X34880593Y-50467201D01*
X34831093Y-50503165D01*
X34769907Y-50503165D01*
X34730496Y-50479014D01*
X34404596Y-50153114D01*
X34376819Y-50098597D01*
X34375600Y-50083110D01*
X34375600Y-48958957D01*
X34374659Y-48955445D01*
X34351714Y-48869812D01*
X34333810Y-48838802D01*
X34305570Y-48789889D01*
X34305568Y-48789887D01*
X34240312Y-48724630D01*
X34240312Y-48724631D01*
X32636389Y-47120708D01*
X32608612Y-47066191D01*
X32618182Y-47005763D01*
X32619873Y-47002445D01*
X32619877Y-47002434D01*
X32673401Y-46837706D01*
X32673402Y-46837702D01*
X32700500Y-46666614D01*
X32700500Y-46493385D01*
X32673402Y-46322297D01*
X32673401Y-46322293D01*
X32619876Y-46157561D01*
X32619874Y-46157558D01*
X32619873Y-46157557D01*
X32619873Y-46157555D01*
X32541232Y-46003212D01*
X32439414Y-45863072D01*
X32316928Y-45740586D01*
X32176788Y-45638768D01*
X32176787Y-45638767D01*
X32176785Y-45638766D01*
X32022441Y-45560125D01*
X32022438Y-45560123D01*
X31857706Y-45506598D01*
X31857702Y-45506597D01*
X31686614Y-45479500D01*
X31686611Y-45479500D01*
X31513389Y-45479500D01*
X31513386Y-45479500D01*
X31342297Y-45506597D01*
X31342293Y-45506598D01*
X31177561Y-45560123D01*
X31177558Y-45560125D01*
X31023214Y-45638766D01*
X30883073Y-45740585D01*
X30760584Y-45863074D01*
X30729092Y-45906419D01*
X30679592Y-45942382D01*
X30618406Y-45942381D01*
X30568907Y-45906417D01*
X30550000Y-45848227D01*
X30550000Y-41372157D01*
X31049500Y-41372157D01*
X31049500Y-41627843D01*
X31082220Y-41876376D01*
X31082873Y-41881332D01*
X31082874Y-41881341D01*
X31096127Y-41930801D01*
X31099500Y-41956423D01*
X31099500Y-43219746D01*
X31099501Y-43219758D01*
X31111132Y-43278227D01*
X31111134Y-43278233D01*
X31147365Y-43332455D01*
X31155448Y-43344552D01*
X31221769Y-43388867D01*
X31266231Y-43397711D01*
X31280241Y-43400498D01*
X31280246Y-43400498D01*
X31280252Y-43400500D01*
X32543577Y-43400500D01*
X32569199Y-43403873D01*
X32618660Y-43417126D01*
X32872157Y-43450500D01*
X32872158Y-43450500D01*
X33127842Y-43450500D01*
X33127843Y-43450500D01*
X33381340Y-43417126D01*
X33430801Y-43403873D01*
X33456423Y-43400500D01*
X34719747Y-43400500D01*
X34719748Y-43400500D01*
X34778231Y-43388867D01*
X34844552Y-43344552D01*
X34888867Y-43278231D01*
X34900500Y-43219748D01*
X34900500Y-41956423D01*
X34903873Y-41930801D01*
X34908538Y-41913389D01*
X34917126Y-41881340D01*
X34950500Y-41627843D01*
X34950500Y-41480253D01*
X38299500Y-41480253D01*
X38299500Y-44519746D01*
X38299501Y-44519758D01*
X38311132Y-44578227D01*
X38311134Y-44578233D01*
X38355445Y-44644548D01*
X38355448Y-44644552D01*
X38421769Y-44688867D01*
X38466231Y-44697711D01*
X38480241Y-44700498D01*
X38480246Y-44700498D01*
X38480252Y-44700500D01*
X38480253Y-44700500D01*
X41519747Y-44700500D01*
X41519748Y-44700500D01*
X41578231Y-44688867D01*
X41644552Y-44644552D01*
X41688867Y-44578231D01*
X41700500Y-44519748D01*
X41700500Y-44273486D01*
X41719407Y-44215295D01*
X41768907Y-44179331D01*
X41830093Y-44179331D01*
X41869504Y-44203482D01*
X43478011Y-45811989D01*
X43589511Y-45923489D01*
X43667676Y-45975717D01*
X43720614Y-46011090D01*
X43720618Y-46011092D01*
X43720621Y-46011094D01*
X43823633Y-46053762D01*
X43866302Y-46071437D01*
X44020957Y-46102200D01*
X44020958Y-46102200D01*
X73098314Y-46102200D01*
X73156505Y-46121107D01*
X73168318Y-46131196D01*
X88397618Y-61360496D01*
X88425395Y-61415013D01*
X88415824Y-61475445D01*
X88372559Y-61518710D01*
X88327614Y-61529500D01*
X86710252Y-61529500D01*
X86710251Y-61529500D01*
X86710241Y-61529501D01*
X86651772Y-61541132D01*
X86651766Y-61541134D01*
X86585451Y-61585445D01*
X86585445Y-61585451D01*
X86541134Y-61651766D01*
X86541132Y-61651772D01*
X86529501Y-61710241D01*
X86529500Y-61710253D01*
X86529500Y-63749746D01*
X86529501Y-63749758D01*
X86541132Y-63808227D01*
X86541134Y-63808233D01*
X86565999Y-63845445D01*
X86585448Y-63874552D01*
X86651769Y-63918867D01*
X86696231Y-63927711D01*
X86710241Y-63930498D01*
X86710246Y-63930498D01*
X86710252Y-63930500D01*
X86710253Y-63930500D01*
X88749747Y-63930500D01*
X88749748Y-63930500D01*
X88808231Y-63918867D01*
X88874552Y-63874552D01*
X88918867Y-63808231D01*
X88930500Y-63749748D01*
X88930500Y-63117405D01*
X88949407Y-63059214D01*
X88998907Y-63023250D01*
X89060093Y-63023250D01*
X89109593Y-63059214D01*
X89123655Y-63086812D01*
X89157453Y-63190832D01*
X89206247Y-63286597D01*
X89243240Y-63359199D01*
X89354310Y-63512073D01*
X89487927Y-63645690D01*
X89640801Y-63756760D01*
X89809168Y-63842547D01*
X89988882Y-63900940D01*
X89988883Y-63900940D01*
X89988886Y-63900941D01*
X90175516Y-63930500D01*
X90175519Y-63930500D01*
X90200314Y-63930500D01*
X90258505Y-63949407D01*
X90270318Y-63959496D01*
X91487211Y-65176389D01*
X91565376Y-65228617D01*
X91618314Y-65263990D01*
X91618325Y-65263996D01*
X91661765Y-65281989D01*
X91764003Y-65324337D01*
X91918658Y-65355100D01*
X91918659Y-65355100D01*
X108721841Y-65355100D01*
X108721842Y-65355100D01*
X108876497Y-65324337D01*
X109022179Y-65263994D01*
X109153289Y-65176389D01*
X110370182Y-63959496D01*
X110424699Y-63931719D01*
X110440186Y-63930500D01*
X110444484Y-63930500D01*
X110631113Y-63900941D01*
X110631114Y-63900940D01*
X110631118Y-63900940D01*
X110810832Y-63842547D01*
X110979199Y-63756760D01*
X111132073Y-63645690D01*
X111265690Y-63512073D01*
X111376760Y-63359199D01*
X111462547Y-63190832D01*
X111520940Y-63011118D01*
X111520941Y-63011113D01*
X111522219Y-63003046D01*
X111549996Y-62948529D01*
X111604512Y-62920751D01*
X111664944Y-62930322D01*
X111708209Y-62973586D01*
X111717781Y-63003046D01*
X111719058Y-63011113D01*
X111777453Y-63190832D01*
X111826247Y-63286597D01*
X111863240Y-63359199D01*
X111974310Y-63512073D01*
X112107927Y-63645690D01*
X112260801Y-63756760D01*
X112429168Y-63842547D01*
X112608882Y-63900940D01*
X112608883Y-63900940D01*
X112608886Y-63900941D01*
X112795516Y-63930500D01*
X112795519Y-63930500D01*
X112984484Y-63930500D01*
X113171113Y-63900941D01*
X113171114Y-63900940D01*
X113171118Y-63900940D01*
X113350832Y-63842547D01*
X113519199Y-63756760D01*
X113672073Y-63645690D01*
X113805690Y-63512073D01*
X113916760Y-63359199D01*
X114002547Y-63190832D01*
X114060940Y-63011118D01*
X114060941Y-63011113D01*
X114090500Y-62824484D01*
X114090500Y-62635515D01*
X114060941Y-62448886D01*
X114052597Y-62423206D01*
X114002547Y-62269168D01*
X113916760Y-62100801D01*
X113805690Y-61947927D01*
X113672073Y-61814310D01*
X113519199Y-61703240D01*
X113519198Y-61703239D01*
X113519196Y-61703238D01*
X113350832Y-61617453D01*
X113171113Y-61559058D01*
X112984484Y-61529500D01*
X112984481Y-61529500D01*
X112795519Y-61529500D01*
X112795516Y-61529500D01*
X112608886Y-61559058D01*
X112429166Y-61617453D01*
X112389888Y-61637466D01*
X112329456Y-61647036D01*
X112274941Y-61619259D01*
X112016178Y-61360496D01*
X111689712Y-61034030D01*
X111609788Y-60987886D01*
X111520644Y-60964000D01*
X96719356Y-60964000D01*
X96630212Y-60987886D01*
X96630211Y-60987886D01*
X96630209Y-60987887D01*
X96550289Y-61034029D01*
X96550287Y-61034031D01*
X95965057Y-61619259D01*
X95910541Y-61647036D01*
X95850110Y-61637465D01*
X95810835Y-61617454D01*
X95631113Y-61559058D01*
X95444484Y-61529500D01*
X95444481Y-61529500D01*
X95255519Y-61529500D01*
X95255516Y-61529500D01*
X95068886Y-61559058D01*
X94889167Y-61617453D01*
X94720803Y-61703238D01*
X94567928Y-61814309D01*
X94434309Y-61947928D01*
X94323238Y-62100803D01*
X94237452Y-62269169D01*
X94223831Y-62311092D01*
X94187867Y-62360593D01*
X94129676Y-62379500D01*
X94030324Y-62379500D01*
X93972133Y-62360593D01*
X93936169Y-62311093D01*
X93936169Y-62311092D01*
X93928013Y-62285991D01*
X93922547Y-62269168D01*
X93836760Y-62100801D01*
X93725690Y-61947927D01*
X93592073Y-61814310D01*
X93439199Y-61703240D01*
X93439198Y-61703239D01*
X93439196Y-61703238D01*
X93270832Y-61617453D01*
X93091113Y-61559058D01*
X92904484Y-61529500D01*
X92904481Y-61529500D01*
X92715519Y-61529500D01*
X92715516Y-61529500D01*
X92528886Y-61559058D01*
X92349167Y-61617453D01*
X92180803Y-61703238D01*
X92027928Y-61814309D01*
X91894309Y-61947928D01*
X91783238Y-62100803D01*
X91697453Y-62269167D01*
X91639058Y-62448886D01*
X91637781Y-62456954D01*
X91610004Y-62511471D01*
X91555487Y-62539248D01*
X91495055Y-62529677D01*
X91451790Y-62486412D01*
X91442219Y-62456954D01*
X91440941Y-62448886D01*
X91432597Y-62423206D01*
X91382547Y-62269168D01*
X91296760Y-62100801D01*
X91185690Y-61947927D01*
X91052073Y-61814310D01*
X91025612Y-61795085D01*
X90992341Y-61752880D01*
X90979394Y-61721621D01*
X90979391Y-61721616D01*
X90979390Y-61721614D01*
X90944017Y-61668676D01*
X90891789Y-61590511D01*
X90780289Y-61479011D01*
X73981189Y-44679911D01*
X73928265Y-44644548D01*
X73850085Y-44592309D01*
X73850074Y-44592303D01*
X73704397Y-44531963D01*
X73549744Y-44501200D01*
X73549742Y-44501200D01*
X46208619Y-44501200D01*
X46150428Y-44482293D01*
X46114464Y-44432793D01*
X46114464Y-44371607D01*
X46148351Y-44323658D01*
X46203624Y-44281247D01*
X46361247Y-44123624D01*
X46496948Y-43946774D01*
X46608405Y-43753726D01*
X46693710Y-43547781D01*
X46751404Y-43332463D01*
X46780500Y-43111457D01*
X46780500Y-42888543D01*
X46751404Y-42667537D01*
X46693710Y-42452219D01*
X46663055Y-42378211D01*
X46608407Y-42246277D01*
X46608404Y-42246272D01*
X46496949Y-42053228D01*
X46496948Y-42053226D01*
X46361247Y-41876376D01*
X46203624Y-41718753D01*
X46026774Y-41583052D01*
X46026771Y-41583050D01*
X45833727Y-41471595D01*
X45833722Y-41471592D01*
X45627782Y-41386290D01*
X45512688Y-41355451D01*
X45412463Y-41328596D01*
X45412460Y-41328595D01*
X45412458Y-41328595D01*
X45191457Y-41299500D01*
X44968543Y-41299500D01*
X44968542Y-41299500D01*
X44747544Y-41328595D01*
X44747539Y-41328595D01*
X44532217Y-41386290D01*
X44326277Y-41471592D01*
X44326272Y-41471595D01*
X44133228Y-41583050D01*
X43956379Y-41718750D01*
X43798750Y-41876379D01*
X43663050Y-42053228D01*
X43551595Y-42246272D01*
X43551592Y-42246277D01*
X43466290Y-42452217D01*
X43408595Y-42667539D01*
X43408595Y-42667544D01*
X43379500Y-42888542D01*
X43379500Y-43111458D01*
X43392657Y-43211396D01*
X43381507Y-43271557D01*
X43337124Y-43313674D01*
X43276462Y-43321660D01*
X43224500Y-43294322D01*
X43131196Y-43201018D01*
X43103419Y-43146501D01*
X43102200Y-43131014D01*
X43102200Y-42921159D01*
X43102199Y-42921155D01*
X43071437Y-42766503D01*
X43011094Y-42620821D01*
X43011093Y-42620819D01*
X43011090Y-42620814D01*
X42975717Y-42567876D01*
X42923489Y-42489711D01*
X42811989Y-42378211D01*
X42759759Y-42343312D01*
X42680885Y-42290609D01*
X42680874Y-42290603D01*
X42535197Y-42230263D01*
X42380544Y-42199500D01*
X42380542Y-42199500D01*
X41799500Y-42199500D01*
X41741309Y-42180593D01*
X41705345Y-42131093D01*
X41700500Y-42100500D01*
X41700500Y-41480253D01*
X41700498Y-41480241D01*
X41689154Y-41423214D01*
X41688867Y-41421769D01*
X41644552Y-41355448D01*
X41604366Y-41328596D01*
X41578233Y-41311134D01*
X41578231Y-41311133D01*
X41578228Y-41311132D01*
X41578227Y-41311132D01*
X41519758Y-41299501D01*
X41519748Y-41299500D01*
X38480252Y-41299500D01*
X38480251Y-41299500D01*
X38480241Y-41299501D01*
X38421772Y-41311132D01*
X38421766Y-41311134D01*
X38355451Y-41355445D01*
X38355445Y-41355451D01*
X38311134Y-41421766D01*
X38311132Y-41421772D01*
X38299501Y-41480241D01*
X38299500Y-41480253D01*
X34950500Y-41480253D01*
X34950500Y-41372157D01*
X34917126Y-41118660D01*
X34906835Y-41080253D01*
X101899500Y-41080253D01*
X101899500Y-42919746D01*
X101899501Y-42919758D01*
X101911132Y-42978227D01*
X101911134Y-42978233D01*
X101955445Y-43044548D01*
X101955448Y-43044552D01*
X102021769Y-43088867D01*
X102066231Y-43097711D01*
X102080241Y-43100498D01*
X102080246Y-43100498D01*
X102080252Y-43100500D01*
X102080253Y-43100500D01*
X103919747Y-43100500D01*
X103919748Y-43100500D01*
X103978231Y-43088867D01*
X104044552Y-43044552D01*
X104088867Y-42978231D01*
X104100500Y-42919748D01*
X104100500Y-41913385D01*
X104439500Y-41913385D01*
X104439500Y-42086614D01*
X104466597Y-42257702D01*
X104466598Y-42257706D01*
X104520123Y-42422438D01*
X104520125Y-42422441D01*
X104520126Y-42422444D01*
X104520127Y-42422445D01*
X104598768Y-42576788D01*
X104700586Y-42716928D01*
X104823072Y-42839414D01*
X104963212Y-42941232D01*
X105117555Y-43019873D01*
X105117557Y-43019873D01*
X105117558Y-43019874D01*
X105117561Y-43019876D01*
X105282293Y-43073401D01*
X105282297Y-43073402D01*
X105453386Y-43100500D01*
X105453389Y-43100500D01*
X105626614Y-43100500D01*
X105797702Y-43073402D01*
X105797706Y-43073401D01*
X105962438Y-43019876D01*
X105962440Y-43019874D01*
X105962445Y-43019873D01*
X106116788Y-42941232D01*
X106256928Y-42839414D01*
X106379414Y-42716928D01*
X106481232Y-42576788D01*
X106559873Y-42422445D01*
X106559874Y-42422440D01*
X106559876Y-42422438D01*
X106613401Y-42257706D01*
X106613402Y-42257702D01*
X106640500Y-42086614D01*
X106640500Y-41913385D01*
X106979500Y-41913385D01*
X106979500Y-42086614D01*
X107006597Y-42257702D01*
X107006598Y-42257706D01*
X107060123Y-42422438D01*
X107060125Y-42422441D01*
X107060126Y-42422444D01*
X107060127Y-42422445D01*
X107138768Y-42576788D01*
X107240586Y-42716928D01*
X107363072Y-42839414D01*
X107503212Y-42941232D01*
X107657555Y-43019873D01*
X107657557Y-43019873D01*
X107657558Y-43019874D01*
X107657561Y-43019876D01*
X107822293Y-43073401D01*
X107822297Y-43073402D01*
X107993386Y-43100500D01*
X107993389Y-43100500D01*
X108166614Y-43100500D01*
X108337702Y-43073402D01*
X108337706Y-43073401D01*
X108502438Y-43019876D01*
X108502440Y-43019874D01*
X108502445Y-43019873D01*
X108656788Y-42941232D01*
X108796928Y-42839414D01*
X108919414Y-42716928D01*
X109021232Y-42576788D01*
X109099873Y-42422445D01*
X109099874Y-42422440D01*
X109099876Y-42422438D01*
X109153401Y-42257706D01*
X109153402Y-42257702D01*
X109180500Y-42086614D01*
X109180500Y-41913385D01*
X109519500Y-41913385D01*
X109519500Y-42086614D01*
X109546597Y-42257702D01*
X109546598Y-42257706D01*
X109600123Y-42422438D01*
X109600125Y-42422441D01*
X109600126Y-42422444D01*
X109600127Y-42422445D01*
X109678768Y-42576788D01*
X109780586Y-42716928D01*
X109903072Y-42839414D01*
X110043212Y-42941232D01*
X110197555Y-43019873D01*
X110197557Y-43019873D01*
X110197558Y-43019874D01*
X110197561Y-43019876D01*
X110362293Y-43073401D01*
X110362297Y-43073402D01*
X110533386Y-43100500D01*
X110533389Y-43100500D01*
X110706614Y-43100500D01*
X110877702Y-43073402D01*
X110877706Y-43073401D01*
X111042438Y-43019876D01*
X111042440Y-43019874D01*
X111042445Y-43019873D01*
X111196788Y-42941232D01*
X111336928Y-42839414D01*
X111459414Y-42716928D01*
X111561232Y-42576788D01*
X111639873Y-42422445D01*
X111639874Y-42422440D01*
X111639876Y-42422438D01*
X111693401Y-42257706D01*
X111693402Y-42257702D01*
X111720500Y-42086614D01*
X111720500Y-41913385D01*
X111693402Y-41742297D01*
X111693401Y-41742293D01*
X111639876Y-41577561D01*
X111639874Y-41577558D01*
X111639873Y-41577557D01*
X111639873Y-41577555D01*
X111561232Y-41423212D01*
X111524138Y-41372157D01*
X115049500Y-41372157D01*
X115049500Y-41627843D01*
X115082220Y-41876376D01*
X115082873Y-41881332D01*
X115082874Y-41881341D01*
X115096127Y-41930801D01*
X115099500Y-41956423D01*
X115099500Y-43219746D01*
X115099501Y-43219758D01*
X115111132Y-43278227D01*
X115111134Y-43278233D01*
X115147365Y-43332455D01*
X115155448Y-43344552D01*
X115221769Y-43388867D01*
X115266231Y-43397711D01*
X115280241Y-43400498D01*
X115280246Y-43400498D01*
X115280252Y-43400500D01*
X116543577Y-43400500D01*
X116569199Y-43403873D01*
X116618660Y-43417126D01*
X116872157Y-43450500D01*
X116872158Y-43450500D01*
X117127842Y-43450500D01*
X117127843Y-43450500D01*
X117381340Y-43417126D01*
X117430801Y-43403873D01*
X117456423Y-43400500D01*
X118719747Y-43400500D01*
X118719748Y-43400500D01*
X118778231Y-43388867D01*
X118844552Y-43344552D01*
X118888867Y-43278231D01*
X118900500Y-43219748D01*
X118900500Y-41956423D01*
X118903873Y-41930801D01*
X118908538Y-41913389D01*
X118917126Y-41881340D01*
X118950500Y-41627843D01*
X118950500Y-41372157D01*
X118917126Y-41118660D01*
X118903873Y-41069197D01*
X118900500Y-41043575D01*
X118900500Y-39780253D01*
X118900498Y-39780241D01*
X118897711Y-39766231D01*
X118888867Y-39721769D01*
X118844552Y-39655448D01*
X118844548Y-39655445D01*
X118778233Y-39611134D01*
X118778231Y-39611133D01*
X118778228Y-39611132D01*
X118778227Y-39611132D01*
X118719758Y-39599501D01*
X118719748Y-39599500D01*
X118719747Y-39599500D01*
X117456423Y-39599500D01*
X117430801Y-39596127D01*
X117381341Y-39582874D01*
X117381332Y-39582873D01*
X117127843Y-39549500D01*
X116872157Y-39549500D01*
X116872156Y-39549500D01*
X116618667Y-39582873D01*
X116618658Y-39582874D01*
X116569199Y-39596127D01*
X116543577Y-39599500D01*
X115280252Y-39599500D01*
X115280251Y-39599500D01*
X115280241Y-39599501D01*
X115221772Y-39611132D01*
X115221766Y-39611134D01*
X115155451Y-39655445D01*
X115155445Y-39655451D01*
X115111134Y-39721766D01*
X115111132Y-39721772D01*
X115099501Y-39780241D01*
X115099500Y-39780253D01*
X115099500Y-41043575D01*
X115096127Y-41069198D01*
X115082874Y-41118659D01*
X115059066Y-41299500D01*
X115049500Y-41372157D01*
X111524138Y-41372157D01*
X111459414Y-41283072D01*
X111336928Y-41160586D01*
X111196788Y-41058768D01*
X111196787Y-41058767D01*
X111196785Y-41058766D01*
X111042441Y-40980125D01*
X111042438Y-40980123D01*
X110877706Y-40926598D01*
X110877702Y-40926597D01*
X110706614Y-40899500D01*
X110706611Y-40899500D01*
X110533389Y-40899500D01*
X110533386Y-40899500D01*
X110362297Y-40926597D01*
X110362293Y-40926598D01*
X110197561Y-40980123D01*
X110197558Y-40980125D01*
X110043214Y-41058766D01*
X109903073Y-41160585D01*
X109780585Y-41283073D01*
X109678766Y-41423214D01*
X109600125Y-41577558D01*
X109600123Y-41577561D01*
X109546598Y-41742293D01*
X109546597Y-41742297D01*
X109519500Y-41913385D01*
X109180500Y-41913385D01*
X109153402Y-41742297D01*
X109153401Y-41742293D01*
X109099876Y-41577561D01*
X109099874Y-41577558D01*
X109099873Y-41577557D01*
X109099873Y-41577555D01*
X109021232Y-41423212D01*
X108919414Y-41283072D01*
X108796928Y-41160586D01*
X108656788Y-41058768D01*
X108656787Y-41058767D01*
X108656785Y-41058766D01*
X108502441Y-40980125D01*
X108502438Y-40980123D01*
X108337706Y-40926598D01*
X108337702Y-40926597D01*
X108166614Y-40899500D01*
X108166611Y-40899500D01*
X107993389Y-40899500D01*
X107993386Y-40899500D01*
X107822297Y-40926597D01*
X107822293Y-40926598D01*
X107657561Y-40980123D01*
X107657558Y-40980125D01*
X107503214Y-41058766D01*
X107363073Y-41160585D01*
X107240585Y-41283073D01*
X107138766Y-41423214D01*
X107060125Y-41577558D01*
X107060123Y-41577561D01*
X107006598Y-41742293D01*
X107006597Y-41742297D01*
X106979500Y-41913385D01*
X106640500Y-41913385D01*
X106613402Y-41742297D01*
X106613401Y-41742293D01*
X106559876Y-41577561D01*
X106559874Y-41577558D01*
X106559873Y-41577557D01*
X106559873Y-41577555D01*
X106481232Y-41423212D01*
X106379414Y-41283072D01*
X106256928Y-41160586D01*
X106116788Y-41058768D01*
X106116787Y-41058767D01*
X106116785Y-41058766D01*
X105962441Y-40980125D01*
X105962438Y-40980123D01*
X105797706Y-40926598D01*
X105797702Y-40926597D01*
X105626614Y-40899500D01*
X105626611Y-40899500D01*
X105453389Y-40899500D01*
X105453386Y-40899500D01*
X105282297Y-40926597D01*
X105282293Y-40926598D01*
X105117561Y-40980123D01*
X105117558Y-40980125D01*
X104963214Y-41058766D01*
X104823073Y-41160585D01*
X104700585Y-41283073D01*
X104598766Y-41423214D01*
X104520125Y-41577558D01*
X104520123Y-41577561D01*
X104466598Y-41742293D01*
X104466597Y-41742297D01*
X104439500Y-41913385D01*
X104100500Y-41913385D01*
X104100500Y-41080252D01*
X104088867Y-41021769D01*
X104044552Y-40955448D01*
X104001376Y-40926598D01*
X103978233Y-40911134D01*
X103978231Y-40911133D01*
X103978228Y-40911132D01*
X103978227Y-40911132D01*
X103919758Y-40899501D01*
X103919748Y-40899500D01*
X102080252Y-40899500D01*
X102080251Y-40899500D01*
X102080241Y-40899501D01*
X102021772Y-40911132D01*
X102021766Y-40911134D01*
X101955451Y-40955445D01*
X101955445Y-40955451D01*
X101911134Y-41021766D01*
X101911132Y-41021772D01*
X101899501Y-41080241D01*
X101899500Y-41080253D01*
X34906835Y-41080253D01*
X34903873Y-41069197D01*
X34900500Y-41043575D01*
X34900500Y-39780253D01*
X34900498Y-39780241D01*
X34897711Y-39766231D01*
X34888867Y-39721769D01*
X34844552Y-39655448D01*
X34844548Y-39655445D01*
X34778233Y-39611134D01*
X34778231Y-39611133D01*
X34778228Y-39611132D01*
X34778227Y-39611132D01*
X34719758Y-39599501D01*
X34719748Y-39599500D01*
X34719747Y-39599500D01*
X33456423Y-39599500D01*
X33430801Y-39596127D01*
X33381341Y-39582874D01*
X33381332Y-39582873D01*
X33127843Y-39549500D01*
X32872157Y-39549500D01*
X32872156Y-39549500D01*
X32618667Y-39582873D01*
X32618658Y-39582874D01*
X32569199Y-39596127D01*
X32543577Y-39599500D01*
X31280252Y-39599500D01*
X31280251Y-39599500D01*
X31280241Y-39599501D01*
X31221772Y-39611132D01*
X31221766Y-39611134D01*
X31155451Y-39655445D01*
X31155445Y-39655451D01*
X31111134Y-39721766D01*
X31111132Y-39721772D01*
X31099501Y-39780241D01*
X31099500Y-39780253D01*
X31099500Y-41043575D01*
X31096127Y-41069198D01*
X31082874Y-41118659D01*
X31059066Y-41299500D01*
X31049500Y-41372157D01*
X30550000Y-41372157D01*
X30550000Y-38649000D01*
X30568907Y-38590809D01*
X30618407Y-38554845D01*
X30649000Y-38550000D01*
X120351000Y-38550000D01*
X120409191Y-38568907D01*
G37*
%TD.AperFunction*%
%TA.AperFunction,Conductor*%
G36*
X30729091Y-57413580D02*
G01*
X30760586Y-57456928D01*
X30883072Y-57579414D01*
X31023212Y-57681232D01*
X31177555Y-57759873D01*
X31177557Y-57759873D01*
X31177558Y-57759874D01*
X31177561Y-57759876D01*
X31342293Y-57813401D01*
X31342297Y-57813402D01*
X31513386Y-57840500D01*
X31513389Y-57840500D01*
X31686614Y-57840500D01*
X31857702Y-57813402D01*
X31916841Y-57794186D01*
X32022445Y-57759873D01*
X32025747Y-57758190D01*
X32086174Y-57748609D01*
X32140695Y-57776378D01*
X32140707Y-57776389D01*
X36423088Y-62058770D01*
X36470484Y-62086134D01*
X36495884Y-62100799D01*
X36495891Y-62100803D01*
X36503012Y-62104914D01*
X36592156Y-62128800D01*
X36800500Y-62128800D01*
X36858691Y-62147707D01*
X36894655Y-62197207D01*
X36899500Y-62227800D01*
X36899500Y-63919746D01*
X36899501Y-63919758D01*
X36911132Y-63978227D01*
X36911134Y-63978233D01*
X36945908Y-64030275D01*
X36955448Y-64044552D01*
X37021769Y-64088867D01*
X37066231Y-64097711D01*
X37080241Y-64100498D01*
X37080246Y-64100498D01*
X37080252Y-64100500D01*
X37080253Y-64100500D01*
X38919747Y-64100500D01*
X38919748Y-64100500D01*
X38978231Y-64088867D01*
X39044552Y-64044552D01*
X39088867Y-63978231D01*
X39100500Y-63919748D01*
X39100500Y-62227800D01*
X39119407Y-62169609D01*
X39168907Y-62133645D01*
X39199500Y-62128800D01*
X39618373Y-62128800D01*
X39676564Y-62147707D01*
X39712528Y-62197207D01*
X39712528Y-62258393D01*
X39698465Y-62285991D01*
X39598771Y-62423206D01*
X39598767Y-62423212D01*
X39520125Y-62577558D01*
X39520123Y-62577561D01*
X39466598Y-62742293D01*
X39466597Y-62742297D01*
X39439500Y-62913385D01*
X39439500Y-63086614D01*
X39466597Y-63257702D01*
X39466598Y-63257706D01*
X39520123Y-63422438D01*
X39520125Y-63422441D01*
X39589911Y-63559406D01*
X39598768Y-63576788D01*
X39700586Y-63716928D01*
X39823072Y-63839414D01*
X39963212Y-63941232D01*
X40117555Y-64019873D01*
X40117557Y-64019873D01*
X40117558Y-64019874D01*
X40117561Y-64019876D01*
X40282293Y-64073401D01*
X40282297Y-64073402D01*
X40453386Y-64100500D01*
X40453389Y-64100500D01*
X40626614Y-64100500D01*
X40797702Y-64073402D01*
X40797706Y-64073401D01*
X40962438Y-64019876D01*
X40962440Y-64019874D01*
X40962445Y-64019873D01*
X41116788Y-63941232D01*
X41256928Y-63839414D01*
X41379414Y-63716928D01*
X41481232Y-63576788D01*
X41559873Y-63422445D01*
X41559874Y-63422440D01*
X41559876Y-63422438D01*
X41613401Y-63257706D01*
X41613402Y-63257702D01*
X41640500Y-63086614D01*
X41640500Y-62913385D01*
X41613402Y-62742297D01*
X41613401Y-62742293D01*
X41559876Y-62577561D01*
X41559874Y-62577558D01*
X41559873Y-62577557D01*
X41559873Y-62577555D01*
X41481232Y-62423212D01*
X41449473Y-62379500D01*
X41381535Y-62285991D01*
X41362627Y-62227800D01*
X41381534Y-62169610D01*
X41431034Y-62133646D01*
X41461627Y-62128800D01*
X42158373Y-62128800D01*
X42216564Y-62147707D01*
X42252528Y-62197207D01*
X42252528Y-62258393D01*
X42238465Y-62285991D01*
X42138771Y-62423206D01*
X42138767Y-62423212D01*
X42060125Y-62577558D01*
X42060123Y-62577561D01*
X42006598Y-62742293D01*
X42006597Y-62742297D01*
X41979500Y-62913385D01*
X41979500Y-63086614D01*
X42006597Y-63257702D01*
X42006598Y-63257706D01*
X42060123Y-63422438D01*
X42060125Y-63422441D01*
X42129911Y-63559406D01*
X42138768Y-63576788D01*
X42240586Y-63716928D01*
X42363072Y-63839414D01*
X42503212Y-63941232D01*
X42657555Y-64019873D01*
X42657557Y-64019873D01*
X42657558Y-64019874D01*
X42657561Y-64019876D01*
X42822293Y-64073401D01*
X42822297Y-64073402D01*
X42993386Y-64100500D01*
X42993389Y-64100500D01*
X43166614Y-64100500D01*
X43337702Y-64073402D01*
X43337706Y-64073401D01*
X43502438Y-64019876D01*
X43502440Y-64019874D01*
X43502445Y-64019873D01*
X43656788Y-63941232D01*
X43796928Y-63839414D01*
X43919414Y-63716928D01*
X44021232Y-63576788D01*
X44099873Y-63422445D01*
X44099874Y-63422440D01*
X44099876Y-63422438D01*
X44153401Y-63257706D01*
X44153402Y-63257702D01*
X44180500Y-63086614D01*
X44180500Y-62913385D01*
X44153402Y-62742297D01*
X44153401Y-62742293D01*
X44099876Y-62577561D01*
X44099874Y-62577558D01*
X44099873Y-62577557D01*
X44099873Y-62577555D01*
X44021232Y-62423212D01*
X43989473Y-62379500D01*
X43921535Y-62285991D01*
X43902627Y-62227800D01*
X43921534Y-62169610D01*
X43971034Y-62133646D01*
X44001627Y-62128800D01*
X44698373Y-62128800D01*
X44756564Y-62147707D01*
X44792528Y-62197207D01*
X44792528Y-62258393D01*
X44778465Y-62285991D01*
X44678771Y-62423206D01*
X44678767Y-62423212D01*
X44600125Y-62577558D01*
X44600123Y-62577561D01*
X44546598Y-62742293D01*
X44546597Y-62742297D01*
X44519500Y-62913385D01*
X44519500Y-63086614D01*
X44546597Y-63257702D01*
X44546598Y-63257706D01*
X44600123Y-63422438D01*
X44600125Y-63422441D01*
X44669911Y-63559406D01*
X44678768Y-63576788D01*
X44780586Y-63716928D01*
X44903072Y-63839414D01*
X45043212Y-63941232D01*
X45197555Y-64019873D01*
X45197557Y-64019873D01*
X45197558Y-64019874D01*
X45197561Y-64019876D01*
X45362293Y-64073401D01*
X45362297Y-64073402D01*
X45533386Y-64100500D01*
X45533389Y-64100500D01*
X45706614Y-64100500D01*
X45877702Y-64073402D01*
X45877706Y-64073401D01*
X46042438Y-64019876D01*
X46042440Y-64019874D01*
X46042445Y-64019873D01*
X46196788Y-63941232D01*
X46336928Y-63839414D01*
X46459414Y-63716928D01*
X46561232Y-63576788D01*
X46639873Y-63422445D01*
X46639874Y-63422440D01*
X46639876Y-63422438D01*
X46693401Y-63257706D01*
X46693402Y-63257702D01*
X46720500Y-63086614D01*
X46720500Y-62913385D01*
X46693402Y-62742297D01*
X46693401Y-62742293D01*
X46639876Y-62577561D01*
X46639874Y-62577558D01*
X46639873Y-62577557D01*
X46639873Y-62577555D01*
X46561232Y-62423212D01*
X46529473Y-62379500D01*
X46461535Y-62285991D01*
X46442627Y-62227800D01*
X46461534Y-62169610D01*
X46511034Y-62133646D01*
X46541627Y-62128800D01*
X47916710Y-62128800D01*
X47974901Y-62147707D01*
X47986714Y-62157796D01*
X49559414Y-63730496D01*
X49587191Y-63785013D01*
X49577620Y-63845445D01*
X49534355Y-63888710D01*
X49489410Y-63899500D01*
X49453386Y-63899500D01*
X49282297Y-63926597D01*
X49282293Y-63926598D01*
X49117561Y-63980123D01*
X49117558Y-63980125D01*
X48963214Y-64058766D01*
X48823073Y-64160585D01*
X48700585Y-64283073D01*
X48598766Y-64423214D01*
X48520125Y-64577558D01*
X48520123Y-64577561D01*
X48466598Y-64742293D01*
X48466597Y-64742297D01*
X48439500Y-64913385D01*
X48439500Y-65086614D01*
X48466597Y-65257703D01*
X48474488Y-65281989D01*
X48474487Y-65343174D01*
X48450337Y-65382583D01*
X43682418Y-70150504D01*
X43627901Y-70178281D01*
X43612414Y-70179500D01*
X35596849Y-70179500D01*
X35538658Y-70160593D01*
X35526851Y-70150509D01*
X35516928Y-70140586D01*
X35376788Y-70038768D01*
X35376787Y-70038767D01*
X35376785Y-70038766D01*
X35222441Y-69960125D01*
X35222438Y-69960123D01*
X35057706Y-69906598D01*
X35057702Y-69906597D01*
X34886614Y-69879500D01*
X34886611Y-69879500D01*
X34713389Y-69879500D01*
X34713386Y-69879500D01*
X34542297Y-69906597D01*
X34542293Y-69906598D01*
X34377561Y-69960123D01*
X34377558Y-69960125D01*
X34223214Y-70038766D01*
X34083073Y-70140585D01*
X33960584Y-70263074D01*
X33941692Y-70289077D01*
X33892192Y-70325040D01*
X33831006Y-70325039D01*
X33781507Y-70289075D01*
X33762600Y-70230885D01*
X33762600Y-68100725D01*
X35795700Y-68100725D01*
X35795700Y-68245674D01*
X35833217Y-68385689D01*
X35905687Y-68511210D01*
X35905689Y-68511212D01*
X35905691Y-68511215D01*
X36008185Y-68613709D01*
X36008187Y-68613710D01*
X36008189Y-68613712D01*
X36133711Y-68686182D01*
X36133712Y-68686182D01*
X36133715Y-68686184D01*
X36273725Y-68723700D01*
X36273726Y-68723700D01*
X36418674Y-68723700D01*
X36418675Y-68723700D01*
X36558685Y-68686184D01*
X36558687Y-68686182D01*
X36558689Y-68686182D01*
X36684210Y-68613712D01*
X36684210Y-68613711D01*
X36684215Y-68613709D01*
X36786709Y-68511215D01*
X36793895Y-68498768D01*
X36859182Y-68385689D01*
X36859182Y-68385687D01*
X36859184Y-68385685D01*
X36896700Y-68245675D01*
X36896700Y-68100725D01*
X36859184Y-67960715D01*
X36859182Y-67960712D01*
X36859182Y-67960710D01*
X36786712Y-67835189D01*
X36786710Y-67835187D01*
X36786709Y-67835185D01*
X36684215Y-67732691D01*
X36684212Y-67732689D01*
X36684210Y-67732687D01*
X36558688Y-67660217D01*
X36558689Y-67660217D01*
X36529096Y-67652287D01*
X36418675Y-67622700D01*
X36273725Y-67622700D01*
X36211990Y-67639241D01*
X36133710Y-67660217D01*
X36008189Y-67732687D01*
X35905687Y-67835189D01*
X35833217Y-67960710D01*
X35795700Y-68100725D01*
X33762600Y-68100725D01*
X33762600Y-61045957D01*
X33762600Y-61045956D01*
X33738714Y-60956812D01*
X33718641Y-60922045D01*
X33692570Y-60876889D01*
X33692568Y-60876887D01*
X33627312Y-60811630D01*
X33627312Y-60811631D01*
X32636389Y-59820708D01*
X32608612Y-59766191D01*
X32618182Y-59705763D01*
X32619873Y-59702445D01*
X32619877Y-59702434D01*
X32673401Y-59537706D01*
X32673402Y-59537702D01*
X32700500Y-59366614D01*
X32700500Y-59193385D01*
X32673402Y-59022297D01*
X32673401Y-59022293D01*
X32619876Y-58857561D01*
X32619874Y-58857558D01*
X32619873Y-58857557D01*
X32619873Y-58857555D01*
X32541232Y-58703212D01*
X32439414Y-58563072D01*
X32316928Y-58440586D01*
X32176788Y-58338768D01*
X32176787Y-58338767D01*
X32176785Y-58338766D01*
X32022441Y-58260125D01*
X32022438Y-58260123D01*
X31857706Y-58206598D01*
X31857702Y-58206597D01*
X31686614Y-58179500D01*
X31686611Y-58179500D01*
X31513389Y-58179500D01*
X31513386Y-58179500D01*
X31342297Y-58206597D01*
X31342293Y-58206598D01*
X31177561Y-58260123D01*
X31177558Y-58260125D01*
X31023214Y-58338766D01*
X30883073Y-58440585D01*
X30760584Y-58563074D01*
X30729092Y-58606419D01*
X30679592Y-58642382D01*
X30618406Y-58642381D01*
X30568907Y-58606417D01*
X30550000Y-58548227D01*
X30550000Y-57471772D01*
X30568907Y-57413581D01*
X30618407Y-57377617D01*
X30679593Y-57377617D01*
X30729091Y-57413580D01*
G37*
%TD.AperFunction*%
%TD*%
M02*
