M48
; DRILL file KiCad 10.0.6 date 2026-10-02T23:06:49
; FORMAT={-:-/ absolute / metric / decimal}
; #@! TF.CreationDate,2026-10-02T23:06:49+08:00
; #@! TF.GenerationSoftware,Kicad,Pcbnew,10.0.6
; #@! TF.FileFunction,Plated,1,4,PTH
FMAT,2
METRIC
; #@! TA.AperFunction,Plated,PTH,ViaDrill
T1C0.350
; #@! TA.AperFunction,Plated,PTH,ComponentDrill
T2C1.000
; #@! TA.AperFunction,Plated,PTH,ComponentDrill
T3C1.050
; #@! TA.AperFunction,Plated,PTH,ComponentDrill
T4C1.500
%
G90
G05
T1
X36.346Y-68.173
X36.576Y-77.401
X46.1Y-144.0
X46.1Y-145.7
X46.9Y-146.7
X47.6Y-145.9
X49.1Y-144.3
X49.6Y-146.8
X55.678Y-146.8
X58.554Y-76.069
X58.59Y-73.974
X59.076Y-146.946
X61.5Y-155.0
X61.782Y-74.127
X62.34Y-140.623
X62.546Y-135.0
X62.998Y-143.384
X63.4Y-158.2
X63.5Y-153.5
X66.009Y-145.587
X66.05Y-155.75
X67.0Y-159.5
X69.0Y-157.2
X69.0Y-159.5
X69.278Y-149.646
X69.461Y-153.635
X69.496Y-137.095
X69.7Y-134.55
X70.9Y-154.9
X71.058Y-158.266
X81.1Y-147.718
X82.297Y-158.098
X82.444Y-140.177
X82.498Y-138.808
X82.507Y-154.905
X82.512Y-137.095
X82.774Y-153.799
X82.935Y-134.555
X82.973Y-149.003
X83.016Y-150.966
X83.537Y-143.789
X84.0Y-137.1
X84.496Y-143.807
X84.649Y-156.082
X84.891Y-147.241
X85.95Y-138.512
X88.537Y-153.418
X89.632Y-141.825
X92.389Y-149.712
X94.798Y-140.668
X95.689Y-137.932
X96.004Y-153.475
X96.175Y-145.743
X96.393Y-139.0
X97.1Y-73.5
X98.786Y-147.693
X100.377Y-146.66
X100.5Y-142.0
X100.967Y-143.433
T2
X31.6Y-46.58
X31.6Y-49.12
X31.6Y-51.66
X31.6Y-54.2
X31.6Y-56.74
X31.6Y-59.28
X31.6Y-61.82
X31.6Y-64.36
X31.6Y-66.9
X31.6Y-69.44
X31.6Y-71.98
X31.6Y-74.52
X31.6Y-77.06
X31.6Y-79.6
X31.6Y-82.14
X31.6Y-84.68
X31.6Y-87.22
X31.6Y-89.76
X31.6Y-92.3
X31.6Y-94.84
X31.6Y-97.38
X31.6Y-99.92
X31.6Y-102.46
X31.6Y-105.0
X31.6Y-107.54
X31.6Y-110.08
X31.6Y-112.62
X31.6Y-115.16
X31.6Y-117.7
X34.8Y-70.98
X34.8Y-73.52
X34.8Y-76.06
X34.8Y-78.6
X34.8Y-81.14
X34.8Y-83.68
X34.8Y-86.22
X34.8Y-88.76
X34.8Y-91.3
X34.8Y-93.84
X34.8Y-96.38
X34.8Y-98.92
X34.8Y-101.46
X34.8Y-104.0
X34.8Y-106.54
X34.8Y-109.08
X34.8Y-111.62
X34.8Y-114.16
X34.8Y-116.7
X36.0Y-50.0
X38.0Y-63.0
X38.54Y-50.0
X40.0Y-53.0
X40.54Y-63.0
X41.08Y-50.0
X42.54Y-53.0
X43.08Y-63.0
X43.62Y-50.0
X45.08Y-53.0
X45.62Y-63.0
X47.0Y-65.0
X47.62Y-53.0
X49.54Y-65.0
X60.2Y-70.98
X60.2Y-73.52
X60.2Y-76.06
X60.2Y-78.6
X60.2Y-81.14
X60.2Y-83.68
X60.2Y-86.22
X60.2Y-88.76
X60.2Y-91.3
X60.2Y-93.84
X60.2Y-96.38
X60.2Y-98.92
X60.2Y-101.46
X60.2Y-104.0
X60.2Y-106.54
X60.2Y-109.08
X60.2Y-111.62
X60.2Y-114.16
X60.2Y-116.7
X81.0Y-72.0
X83.54Y-72.0
X86.08Y-72.0
X91.0Y-72.0
X93.54Y-72.0
X96.08Y-72.0
X101.0Y-72.0
X103.0Y-42.0
X103.54Y-72.0
X105.54Y-42.0
X106.08Y-72.0
X108.08Y-42.0
X110.62Y-42.0
X111.0Y-72.0
X111.0Y-137.0
X111.0Y-139.54
X111.0Y-142.08
X111.0Y-144.62
X111.0Y-147.16
X111.0Y-149.7
X111.0Y-152.24
X111.0Y-154.78
X111.0Y-157.32
X113.54Y-72.0
X116.08Y-72.0
T3
X87.73Y-62.73
X90.27Y-62.73
X92.81Y-62.73
X95.35Y-62.73
X97.89Y-62.73
X105.27Y-62.73
X107.81Y-62.73
X110.35Y-62.73
X112.89Y-62.73
X115.43Y-62.73
T4
X36.0Y-149.0
X38.0Y-135.0
X40.0Y-43.0
X45.08Y-43.0
M30
